%TF.GenerationSoftware,KiCad,Pcbnew,8.0.8*%
%TF.CreationDate,2025-02-03T17:03:33-07:00*%
%TF.ProjectId,BoardMicro,426f6172-644d-4696-9372-6f2e6b696361,rev?*%
%TF.SameCoordinates,Original*%
%TF.FileFunction,Copper,L1,Top*%
%TF.FilePolarity,Positive*%
%FSLAX46Y46*%
G04 Gerber Fmt 4.6, Leading zero omitted, Abs format (unit mm)*
G04 Created by KiCad (PCBNEW 8.0.8) date 2025-02-03 17:03:33*
%MOMM*%
%LPD*%
G01*
G04 APERTURE LIST*
G04 Aperture macros list*
%AMRoundRect*
0 Rectangle with rounded corners*
0 $1 Rounding radius*
0 $2 $3 $4 $5 $6 $7 $8 $9 X,Y pos of 4 corners*
0 Add a 4 corners polygon primitive as box body*
4,1,4,$2,$3,$4,$5,$6,$7,$8,$9,$2,$3,0*
0 Add four circle primitives for the rounded corners*
1,1,$1+$1,$2,$3*
1,1,$1+$1,$4,$5*
1,1,$1+$1,$6,$7*
1,1,$1+$1,$8,$9*
0 Add four rect primitives between the rounded corners*
20,1,$1+$1,$2,$3,$4,$5,0*
20,1,$1+$1,$4,$5,$6,$7,0*
20,1,$1+$1,$6,$7,$8,$9,0*
20,1,$1+$1,$8,$9,$2,$3,0*%
G04 Aperture macros list end*
%TA.AperFunction,ComponentPad*%
%ADD10R,1.700000X1.700000*%
%TD*%
%TA.AperFunction,ComponentPad*%
%ADD11O,1.700000X1.700000*%
%TD*%
%TA.AperFunction,ComponentPad*%
%ADD12C,1.600000*%
%TD*%
%TA.AperFunction,ComponentPad*%
%ADD13O,1.600000X1.600000*%
%TD*%
%TA.AperFunction,ComponentPad*%
%ADD14C,2.000000*%
%TD*%
%TA.AperFunction,ComponentPad*%
%ADD15C,1.440000*%
%TD*%
%TA.AperFunction,ComponentPad*%
%ADD16R,1.800000X1.800000*%
%TD*%
%TA.AperFunction,ComponentPad*%
%ADD17C,1.800000*%
%TD*%
%TA.AperFunction,ComponentPad*%
%ADD18RoundRect,0.250000X-0.600000X-0.725000X0.600000X-0.725000X0.600000X0.725000X-0.600000X0.725000X0*%
%TD*%
%TA.AperFunction,ComponentPad*%
%ADD19O,1.700000X1.950000*%
%TD*%
%TA.AperFunction,ViaPad*%
%ADD20C,0.600000*%
%TD*%
%TA.AperFunction,Conductor*%
%ADD21C,0.508000*%
%TD*%
%TA.AperFunction,Conductor*%
%ADD22C,0.250000*%
%TD*%
G04 APERTURE END LIST*
D10*
%TO.P,J1,1,Pin_1*%
%TO.N,unconnected-(J1-Pin_1-Pad1)*%
X127940000Y-97460000D03*
D11*
%TO.P,J1,2,Pin_2*%
%TO.N,/IOREF*%
X130480000Y-97460000D03*
%TO.P,J1,3,Pin_3*%
%TO.N,/~{RESET}*%
X133020000Y-97460000D03*
%TO.P,J1,4,Pin_4*%
%TO.N,+3V3*%
X135560000Y-97460000D03*
%TO.P,J1,5,Pin_5*%
%TO.N,+5V*%
X138100000Y-97460000D03*
%TO.P,J1,6,Pin_6*%
%TO.N,GND*%
X140640000Y-97460000D03*
%TO.P,J1,7,Pin_7*%
X143180000Y-97460000D03*
%TO.P,J1,8,Pin_8*%
%TO.N,VCC*%
X145720000Y-97460000D03*
%TD*%
D10*
%TO.P,J3,1,Pin_1*%
%TO.N,/temp_sensor*%
X150800000Y-97460000D03*
D11*
%TO.P,J3,2,Pin_2*%
%TO.N,/A1*%
X153340000Y-97460000D03*
%TO.P,J3,3,Pin_3*%
%TO.N,/A2*%
X155880000Y-97460000D03*
%TO.P,J3,4,Pin_4*%
%TO.N,/A3*%
X158420000Y-97460000D03*
%TO.P,J3,5,Pin_5*%
%TO.N,/SDA{slash}A4*%
X160960000Y-97460000D03*
%TO.P,J3,6,Pin_6*%
%TO.N,/SCL{slash}A5*%
X163500000Y-97460000D03*
%TD*%
D10*
%TO.P,J2,1,Pin_1*%
%TO.N,/I2C_SCL*%
X117760000Y-49200000D03*
D11*
%TO.P,J2,2,Pin_2*%
%TO.N,/I2C_SDA*%
X120300000Y-49200000D03*
%TO.P,J2,3,Pin_3*%
%TO.N,/AREF*%
X122840000Y-49200000D03*
%TO.P,J2,4,Pin_4*%
%TO.N,GND*%
X125380000Y-49200000D03*
%TO.P,J2,5,Pin_5*%
%TO.N,/13*%
X127920000Y-49200000D03*
%TO.P,J2,6,Pin_6*%
%TO.N,/12*%
X130460000Y-49200000D03*
%TO.P,J2,7,Pin_7*%
%TO.N,/\u002A11*%
X133000000Y-49200000D03*
%TO.P,J2,8,Pin_8*%
%TO.N,/\u002A10*%
X135540000Y-49200000D03*
%TO.P,J2,9,Pin_9*%
%TO.N,/led_light*%
X138080000Y-49200000D03*
%TO.P,J2,10,Pin_10*%
%TO.N,/temp_digital*%
X140620000Y-49200000D03*
%TD*%
D10*
%TO.P,J4,1,Pin_1*%
%TO.N,/7*%
X144920000Y-49200000D03*
D11*
%TO.P,J4,2,Pin_2*%
%TO.N,/button_light*%
X147460000Y-49200000D03*
%TO.P,J4,3,Pin_3*%
%TO.N,/button_cal*%
X150000000Y-49200000D03*
%TO.P,J4,4,Pin_4*%
%TO.N,/button_units*%
X152540000Y-49200000D03*
%TO.P,J4,5,Pin_5*%
%TO.N,/button_lock*%
X155080000Y-49200000D03*
%TO.P,J4,6,Pin_6*%
%TO.N,/button_onoff*%
X157620000Y-49200000D03*
%TO.P,J4,7,Pin_7*%
%TO.N,/TX{slash}1*%
X160160000Y-49200000D03*
%TO.P,J4,8,Pin_8*%
%TO.N,/RX{slash}0*%
X162700000Y-49200000D03*
%TD*%
D12*
%TO.P,R2,1*%
%TO.N,/button_units*%
X155920000Y-62000000D03*
D13*
%TO.P,R2,2*%
%TO.N,GND*%
X166080000Y-62000000D03*
%TD*%
D12*
%TO.P,R1,1*%
%TO.N,/button_onoff*%
X124840000Y-54000000D03*
D13*
%TO.P,R1,2*%
%TO.N,GND*%
X135000000Y-54000000D03*
%TD*%
D10*
%TO.P,J5,1,Pin_1*%
%TO.N,+5V*%
X120875000Y-64500000D03*
D11*
%TO.P,J5,2,Pin_2*%
%TO.N,GND*%
X118335000Y-64500000D03*
%TO.P,J5,3,Pin_3*%
%TO.N,/I2C_SCL*%
X115795000Y-64500000D03*
%TO.P,J5,4,Pin_4*%
%TO.N,/I2C_SDA*%
X113255000Y-64500000D03*
%TO.P,J5,5,Pin_5*%
%TO.N,unconnected-(J5-Pin_5-Pad5)*%
X110715000Y-64500000D03*
%TO.P,J5,6,Pin_6*%
%TO.N,unconnected-(J5-Pin_6-Pad6)*%
X108175000Y-64500000D03*
%TO.P,J5,7,Pin_7*%
%TO.N,unconnected-(J5-Pin_7-Pad7)*%
X105635000Y-64500000D03*
%TO.P,J5,8,Pin_8*%
%TO.N,unconnected-(J5-Pin_8-Pad8)*%
X103095000Y-64500000D03*
%TD*%
D12*
%TO.P,R6,1*%
%TO.N,/led_light*%
X143000000Y-67000000D03*
D13*
%TO.P,R6,2*%
%TO.N,Net-(D1-A)*%
X132840000Y-67000000D03*
%TD*%
D14*
%TO.P,SW5,1,A*%
%TO.N,/button_cal*%
X135750000Y-71750000D03*
X142250000Y-71750000D03*
%TO.P,SW5,2,B*%
%TO.N,+5V*%
X135750000Y-76250000D03*
X142250000Y-76250000D03*
%TD*%
D12*
%TO.P,R5,1*%
%TO.N,/button_cal*%
X147840000Y-81000000D03*
D13*
%TO.P,R5,2*%
%TO.N,GND*%
X158000000Y-81000000D03*
%TD*%
D12*
%TO.P,R4,1*%
%TO.N,/button_light*%
X130920000Y-81000000D03*
D13*
%TO.P,R4,2*%
%TO.N,GND*%
X141080000Y-81000000D03*
%TD*%
D14*
%TO.P,SW2,1,A*%
%TO.N,/button_units*%
X148500000Y-71750000D03*
X155000000Y-71750000D03*
%TO.P,SW2,2,B*%
%TO.N,+5V*%
X148500000Y-76250000D03*
X155000000Y-76250000D03*
%TD*%
D10*
%TO.P,J6,1,Pin_1*%
%TO.N,GND*%
X110200000Y-68975000D03*
D11*
%TO.P,J6,2,Pin_2*%
%TO.N,+5V*%
X112740000Y-68975000D03*
%TO.P,J6,3,Pin_3*%
%TO.N,/I2C_SCL*%
X115280000Y-68975000D03*
%TO.P,J6,4,Pin_4*%
%TO.N,/I2C_SDA*%
X117820000Y-68975000D03*
%TD*%
D15*
%TO.P,RV1,1,1*%
%TO.N,+5V*%
X160460000Y-90015000D03*
%TO.P,RV1,2,2*%
%TO.N,/temp_sensor*%
X163000000Y-92555000D03*
%TO.P,RV1,3,3*%
%TO.N,GND*%
X165540000Y-90015000D03*
%TD*%
D12*
%TO.P,R3,1*%
%TO.N,/button_lock*%
X145920000Y-67000000D03*
D13*
%TO.P,R3,2*%
%TO.N,GND*%
X156080000Y-67000000D03*
%TD*%
D14*
%TO.P,SW3,1,A*%
%TO.N,/button_lock*%
X134750000Y-85750000D03*
X141250000Y-85750000D03*
%TO.P,SW3,2,B*%
%TO.N,+5V*%
X134750000Y-90250000D03*
X141250000Y-90250000D03*
%TD*%
D16*
%TO.P,D1,1,K*%
%TO.N,GND*%
X128000000Y-60000000D03*
D17*
%TO.P,D1,2,A*%
%TO.N,Net-(D1-A)*%
X130540000Y-60000000D03*
%TD*%
D14*
%TO.P,SW1,1,A*%
%TO.N,/button_onoff*%
X158750000Y-71750000D03*
X165250000Y-71750000D03*
%TO.P,SW1,2,B*%
%TO.N,+5V*%
X158750000Y-76250000D03*
X165250000Y-76250000D03*
%TD*%
%TO.P,SW4,1,A*%
%TO.N,/button_light*%
X146750000Y-85750000D03*
X153250000Y-85750000D03*
%TO.P,SW4,2,B*%
%TO.N,+5V*%
X146750000Y-90250000D03*
X153250000Y-90250000D03*
%TD*%
D18*
%TO.P,J7,1,Pin_1*%
%TO.N,GND*%
X140500000Y-55000000D03*
D19*
%TO.P,J7,2,Pin_2*%
%TO.N,/temp_digital*%
X143000000Y-55000000D03*
%TO.P,J7,3,Pin_3*%
%TO.N,+5V*%
X145500000Y-55000000D03*
%TD*%
D20*
%TO.N,GND*%
X159706000Y-81000000D03*
X132000000Y-75000000D03*
X139000000Y-60000000D03*
X161214000Y-81000000D03*
X158057426Y-66876256D03*
X132000000Y-77004000D03*
X136000000Y-60000000D03*
X160000000Y-67000000D03*
%TO.N,+5V*%
X140328654Y-61671345D03*
X128500000Y-64500000D03*
X137966841Y-63033159D03*
X133594000Y-64000000D03*
%TO.N,/temp_digital*%
X143000000Y-49000000D03*
X143000000Y-53000000D03*
%TO.N,/button_onoff*%
X154073159Y-52073159D03*
X136000000Y-52000000D03*
X149736841Y-51736841D03*
X162000000Y-66000000D03*
X162000000Y-68000000D03*
X153966841Y-58033159D03*
X156960634Y-65069068D03*
X159033159Y-64966841D03*
X139000000Y-52000000D03*
X155033159Y-56966841D03*
%TO.N,/button_light*%
X146000000Y-84000000D03*
X143000000Y-84000000D03*
%TO.N,/button_units*%
X150000000Y-53000000D03*
X152000000Y-55000000D03*
%TO.N,/button_cal*%
X157000000Y-71000000D03*
X150033159Y-55033159D03*
X146674000Y-70000000D03*
X154966841Y-69966841D03*
X149000000Y-51000000D03*
X143835953Y-70000000D03*
X149000000Y-53000000D03*
X148966841Y-53966841D03*
%TD*%
D21*
%TO.N,/temp_sensor*%
X157958963Y-92555000D02*
G75*
G03*
X154111236Y-94148821I37J-5441500D01*
G01*
%TO.N,/led_light*%
X137540000Y-49740000D02*
G75*
G03*
X136999990Y-51043675I1303700J-1303700D01*
G01*
X137000000Y-58746036D02*
G75*
G03*
X138593800Y-62593784I5441600J36D01*
G01*
%TO.N,Net-(D1-A)*%
X131690000Y-61150000D02*
G75*
G02*
X132839952Y-63926345I-2776400J-2776300D01*
G01*
%TO.N,/button_cal*%
X149282842Y-49917157D02*
G75*
G03*
X149000004Y-50600000I682858J-682843D01*
G01*
X150000000Y-58002980D02*
G75*
G02*
X148587013Y-61414277I-4824300J-20D01*
G01*
X156500000Y-78500000D02*
G75*
G02*
X155292893Y-78999997I-1207100J1207100D01*
G01*
X149000000Y-53910235D02*
G75*
G02*
X148983402Y-53950243I-56600J35D01*
G01*
X148113137Y-79000000D02*
G75*
G03*
X147919989Y-79079989I-37J-273100D01*
G01*
X147174000Y-69146446D02*
G75*
G02*
X146923986Y-69749986I-853600J46D01*
G01*
X150016579Y-55049738D02*
G75*
G03*
X149999973Y-55089764I40021J-40062D01*
G01*
X148587000Y-61414264D02*
G75*
G03*
X147174039Y-64825547I3411300J-3411236D01*
G01*
X143835953Y-70749715D02*
G75*
G02*
X143542962Y-71457009I-1000253J15D01*
G01*
X157000000Y-77292893D02*
G75*
G02*
X156500002Y-78500002I-1707100J-7D01*
G01*
X147920000Y-79080000D02*
G75*
G03*
X147840015Y-79273137I193100J-193100D01*
G01*
X154950261Y-69983420D02*
G75*
G02*
X154910235Y-70000026I-40061J40020D01*
G01*
%TO.N,/button_units*%
X155920000Y-62000151D02*
G75*
G03*
X156626986Y-63707014I2413800J-49D01*
G01*
X157442284Y-64442284D02*
G75*
G03*
X157374000Y-64414009I-68284J-68316D01*
G01*
X157125000Y-69750000D02*
G75*
G03*
X156911607Y-69838384I0J-301800D01*
G01*
X152540000Y-49600000D02*
G75*
G02*
X152257161Y-50282846I-965700J0D01*
G01*
X154477502Y-57477502D02*
G75*
G02*
X155919999Y-60960000I-3482502J-3482498D01*
G01*
X157338388Y-69661611D02*
G75*
G02*
X157125000Y-69749992I-213388J213411D01*
G01*
X150162634Y-52377365D02*
G75*
G03*
X150000008Y-52770000I392666J-392635D01*
G01*
X157305715Y-64385715D02*
G75*
G03*
X157374000Y-64413991I68285J68315D01*
G01*
X158292893Y-65292893D02*
G75*
G02*
X159000004Y-67000000I-1707093J-1707107D01*
G01*
X159000000Y-67000000D02*
G75*
G02*
X158292891Y-68707104I-2414200J0D01*
G01*
%TO.N,/button_light*%
X144294976Y-64294976D02*
G75*
G03*
X143582840Y-63999968I-712176J-712124D01*
G01*
X138289500Y-51289500D02*
G75*
G03*
X138000006Y-51988414I698900J-698900D01*
G01*
X138000000Y-58155045D02*
G75*
G03*
X139593804Y-62002789I5441600J45D01*
G01*
X138988414Y-51000000D02*
G75*
G03*
X138289496Y-51289496I-14J-988400D01*
G01*
X144589953Y-76642463D02*
G75*
G02*
X143919997Y-78259950I-2287453J-37D01*
G01*
X146750000Y-85250000D02*
G75*
G03*
X147250000Y-85750000I500000J0D01*
G01*
X146396446Y-84396446D02*
G75*
G02*
X146750002Y-85250000I-853546J-853554D01*
G01*
X143125000Y-81875000D02*
G75*
G03*
X142999990Y-82176776I301800J-301800D01*
G01*
X144294976Y-64294976D02*
G75*
G02*
X144589932Y-65007112I-712176J-712124D01*
G01*
X132000000Y-82540000D02*
G75*
G03*
X132460000Y-83000000I460000J0D01*
G01*
X143919976Y-78259929D02*
G75*
G03*
X143249984Y-79877395I1617424J-1617471D01*
G01*
X142500000Y-83000000D02*
G75*
G03*
X143000000Y-82500000I0J500000D01*
G01*
X143000000Y-83500000D02*
G75*
G03*
X142500000Y-83000000I-500000J0D01*
G01*
X143250000Y-81573223D02*
G75*
G02*
X143124993Y-81874993I-426800J23D01*
G01*
X131674730Y-81754730D02*
G75*
G02*
X132000011Y-82540000I-785230J-785270D01*
G01*
X146560000Y-50100000D02*
G75*
G02*
X144387207Y-51000003I-2172800J2172800D01*
G01*
X140739277Y-63148286D02*
G75*
G03*
X142795495Y-64000012I2056223J2056186D01*
G01*
X143000000Y-82500000D02*
X143000000Y-83500000D01*
%TO.N,/button_lock*%
X145899000Y-77099736D02*
G75*
G03*
X145878025Y-77150434I50700J-50664D01*
G01*
X143625000Y-85375000D02*
G75*
G02*
X142719669Y-85749988I-905300J905300D01*
G01*
X144707106Y-82292893D02*
G75*
G03*
X143999995Y-84000000I1707094J-1707107D01*
G01*
X150386000Y-53754000D02*
G75*
G03*
X150147003Y-53852992I0J-338000D01*
G01*
X150624994Y-53655005D02*
G75*
G02*
X150386000Y-53753996I-238994J239005D01*
G01*
X145920000Y-77049037D02*
G75*
G02*
X145898982Y-77099718I-71700J37D01*
G01*
X144000000Y-84469669D02*
G75*
G02*
X143625009Y-85375009I-1280300J-31D01*
G01*
X149000000Y-57822111D02*
G75*
G02*
X147459997Y-61539997I-5257900J11D01*
G01*
X149623000Y-54377000D02*
G75*
G03*
X148999952Y-55881055I1504000J-1504100D01*
G01*
X145878000Y-79794053D02*
G75*
G02*
X144938984Y-82060984I-3206000J53D01*
G01*
X147305929Y-61694070D02*
G75*
G03*
X145920011Y-65040000I3345971J-3345930D01*
G01*
%TO.N,/button_onoff*%
X162000000Y-68250000D02*
G75*
G02*
X161823233Y-68676786I-603600J0D01*
G01*
X152000000Y-61536947D02*
G75*
G03*
X153034562Y-64034506I3532100J47D01*
G01*
X149753104Y-51753104D02*
G75*
G02*
X149753137Y-51785663I-16304J-16296D01*
G01*
D22*
X124920000Y-52080000D02*
G75*
G03*
X124840015Y-52273137I193100J-193100D01*
G01*
D21*
X149654052Y-51884684D02*
G75*
G02*
X149375654Y-51999972I-278352J278384D01*
G01*
X159500948Y-65499684D02*
G75*
G03*
X160708817Y-65999983I1207852J1207884D01*
G01*
X157620000Y-52550827D02*
G75*
G02*
X156326563Y-55673404I-4416000J27D01*
G01*
X125113137Y-52000000D02*
G75*
G03*
X124919989Y-52079989I-37J-273100D01*
G01*
X153046745Y-64046745D02*
G75*
G03*
X155514851Y-65069091I2468155J2468145D01*
G01*
X152983420Y-59016579D02*
G75*
G03*
X151999973Y-61390766I2374180J-2374221D01*
G01*
X154985023Y-51834976D02*
G75*
G02*
X154410000Y-52073172I-575023J574976D01*
G01*
X159016895Y-64983104D02*
G75*
G03*
X159016862Y-65015663I16305J-16296D01*
G01*
%TO.N,/I2C_SDA*%
X113376819Y-64531819D02*
G75*
G03*
X113300000Y-64499988I-76819J-76781D01*
G01*
X114679499Y-49320499D02*
G75*
G03*
X113255018Y-52759547I3439001J-3439001D01*
G01*
X119648000Y-48548000D02*
G75*
G03*
X118073932Y-47895986I-1574100J-1574100D01*
G01*
X113255000Y-64455000D02*
G75*
G03*
X113300000Y-64500000I45000J0D01*
G01*
X117550000Y-47896000D02*
G75*
G03*
X115081534Y-48918487I0J-3490900D01*
G01*
%TO.N,/I2C_SCL*%
X115899298Y-64100701D02*
G75*
G03*
X115795000Y-64352500I251802J-251799D01*
G01*
X118922500Y-70077500D02*
G75*
G02*
X118436035Y-70279015I-486500J486500D01*
G01*
X118000000Y-60440829D02*
G75*
G02*
X116897491Y-63102491I-3764200J29D01*
G01*
X115932000Y-69627000D02*
G75*
G03*
X117506067Y-70279014I1574100J1574100D01*
G01*
X115795000Y-64352500D02*
G75*
G03*
X115899297Y-64604299I356100J0D01*
G01*
X117880000Y-49320000D02*
G75*
G02*
X117999998Y-49609705I-289700J-289700D01*
G01*
X118400276Y-67105276D02*
G75*
G02*
X119124014Y-68852500I-1747176J-1747224D01*
G01*
X119124000Y-69591035D02*
G75*
G02*
X118922489Y-70077489I-688000J35D01*
G01*
%TO.N,/temp_digital*%
X140961421Y-49000000D02*
G75*
G03*
X140719994Y-49099994I-21J-341400D01*
G01*
%TO.N,+5V*%
X143292893Y-90250000D02*
G75*
G03*
X144500002Y-89750002I7J1707100D01*
G01*
X144500000Y-89750000D02*
G75*
G03*
X144707106Y-90249984I207100J-207100D01*
G01*
X146976461Y-81909885D02*
G75*
G02*
X146999981Y-81966712I-56861J-56815D01*
G01*
X147168000Y-76832000D02*
G75*
G03*
X146585989Y-78237072I1405100J-1405100D01*
G01*
X129625000Y-77375000D02*
G75*
G03*
X129625000Y-76625000I-375000J375000D01*
G01*
X129625000Y-76625000D02*
G75*
G03*
X130375000Y-76625000I375000J375000D01*
G01*
X147000000Y-81966712D02*
G75*
G02*
X146976463Y-82023540I-80400J12D01*
G01*
X145343840Y-83589840D02*
G75*
G03*
X145000018Y-84419946I830060J-830060D01*
G01*
X159605000Y-77105000D02*
G75*
G02*
X160460020Y-79169152I-2064200J-2064200D01*
G01*
X145777446Y-83222553D02*
G75*
G02*
X145720841Y-83246014I-56646J56653D01*
G01*
X129000000Y-82246036D02*
G75*
G03*
X130593800Y-86093784I5441600J36D01*
G01*
X129500000Y-77500000D02*
G75*
G03*
X129000003Y-78707106I1207100J-1207100D01*
G01*
X145720841Y-83246000D02*
G75*
G03*
X145664226Y-83269437I-41J-80000D01*
G01*
X128750000Y-64750000D02*
G75*
G02*
X129000019Y-65353553I-603600J-603600D01*
G01*
X119938132Y-70063132D02*
G75*
G02*
X117676332Y-71000013I-2261832J2261832D01*
G01*
X131280330Y-76250000D02*
G75*
G03*
X130374991Y-76624991I-30J-1280300D01*
G01*
X137483420Y-63516579D02*
G75*
G02*
X136316340Y-64000028I-1167120J1167079D01*
G01*
X136735283Y-92235283D02*
G75*
G02*
X138100009Y-95530000I-3294683J-3294717D01*
G01*
X120875000Y-67801332D02*
G75*
G02*
X119938122Y-70063122I-3198700J32D01*
G01*
X145000000Y-88542893D02*
G75*
G02*
X144500002Y-89750002I-1707100J-7D01*
G01*
X146586000Y-81226681D02*
G75*
G03*
X146793000Y-81726424I706700J-19D01*
G01*
X153651170Y-90015000D02*
G75*
G03*
X153367509Y-90132509I30J-401200D01*
G01*
X129000000Y-75292893D02*
G75*
G03*
X129499998Y-76500002I1707100J-7D01*
G01*
X153367500Y-90132500D02*
G75*
G02*
X153083829Y-90250012I-283700J283700D01*
G01*
X145500000Y-55750000D02*
G75*
G02*
X144969678Y-57030339I-1810700J0D01*
G01*
X113752500Y-69987500D02*
G75*
G03*
X116196891Y-71000004I2444400J2444400D01*
G01*
X144707106Y-90250000D02*
X143292893Y-90250000D01*
X130375000Y-76625000D02*
X129625000Y-77375000D01*
%TO.N,GND*%
X166879999Y-77790640D02*
G75*
G02*
X165939987Y-80059988I-3209399J40D01*
G01*
X165270000Y-81270000D02*
G75*
G02*
X165539984Y-81921837I-651800J-651800D01*
G01*
X130579000Y-72574201D02*
G75*
G03*
X131289500Y-74289500I2425800J1D01*
G01*
X125292893Y-59292893D02*
G75*
G03*
X127000000Y-60000004I1707107J1707093D01*
G01*
X164618162Y-81000000D02*
G75*
G03*
X165270011Y-80730011I38J921800D01*
G01*
X165270000Y-81270000D02*
G75*
G03*
X164618162Y-81000016I-651800J-651800D01*
G01*
X165270000Y-80730000D02*
G75*
G03*
X165270000Y-81270000I270000J-270000D01*
G01*
X123792999Y-51206999D02*
G75*
G03*
X123586016Y-51706742I499701J-499701D01*
G01*
X124148492Y-50431507D02*
G75*
G03*
X124000004Y-50790000I358508J-358493D01*
G01*
X132001414Y-77001414D02*
G75*
G03*
X131999951Y-77002000I-614J-586D01*
G01*
X123586000Y-56793000D02*
G75*
G03*
X124146729Y-58146741I1914500J0D01*
G01*
D22*
X158119298Y-66938128D02*
G75*
G02*
X158093669Y-67000053I-25598J-25672D01*
G01*
D21*
X134000000Y-56000000D02*
G75*
G03*
X135000000Y-55000000I0J1000000D01*
G01*
X135000000Y-57000000D02*
G75*
G03*
X134000000Y-56000000I-1000000J0D01*
G01*
D22*
X141040000Y-79040000D02*
G75*
G02*
X141080013Y-79136568I-96600J-96600D01*
G01*
D21*
X124379000Y-56000000D02*
G75*
G03*
X123586000Y-56793000I0J-793000D01*
G01*
X123586000Y-55207000D02*
G75*
G03*
X124379000Y-56000000I793000J0D01*
G01*
X124000000Y-50790000D02*
G75*
G02*
X123851511Y-51148496I-507000J0D01*
G01*
X166379999Y-66500000D02*
G75*
G03*
X166879996Y-65292893I-1207099J1207100D01*
G01*
X166879999Y-66707106D02*
G75*
G03*
X166379989Y-66499990I-292899J6D01*
G01*
X133000000Y-78000000D02*
G75*
G03*
X135414213Y-78999994I2414200J2414200D01*
G01*
X166479999Y-62399999D02*
G75*
G02*
X166880006Y-63365683I-965699J-965701D01*
G01*
X140500000Y-57439339D02*
G75*
G02*
X139749988Y-59249988I-2560700J39D01*
G01*
X129289500Y-61289500D02*
G75*
G02*
X130578988Y-64402628I-3113100J-3113100D01*
G01*
X135000000Y-58292893D02*
G75*
G03*
X135499998Y-59500002I1707100J-7D01*
G01*
D22*
X141040000Y-79040000D02*
G75*
G03*
X140943431Y-78999987I-96600J-96600D01*
G01*
D21*
X166379999Y-66500000D02*
G75*
G02*
X165172892Y-66999996I-1207099J1207100D01*
G01*
X135000000Y-55000000D02*
X135000000Y-57000000D01*
X123586000Y-56793000D02*
X123586000Y-55207000D01*
X166879999Y-65292893D02*
X166879999Y-66707106D01*
X132001414Y-77001414D02*
X133000000Y-78000000D01*
X123586000Y-51706742D02*
X123586000Y-55207000D01*
X134000000Y-56000000D02*
X124379000Y-56000000D01*
X140500000Y-57439339D02*
X140500000Y-55000000D01*
X165939999Y-80060000D02*
X165270000Y-80730000D01*
D22*
X132000000Y-77004000D02*
X132000000Y-77002000D01*
D21*
X124148492Y-50431507D02*
X125380000Y-49200000D01*
X166879999Y-65292893D02*
X166879999Y-63365683D01*
X135000000Y-57000000D02*
X135000000Y-58292893D01*
X158093669Y-67000000D02*
X156080000Y-67000000D01*
X123792999Y-51206999D02*
X123851507Y-51148492D01*
X139000000Y-60000000D02*
X139750000Y-59250000D01*
X135500000Y-59500000D02*
X136000000Y-60000000D01*
X125292893Y-59292893D02*
X124146735Y-58146735D01*
X166479999Y-62399999D02*
X166080000Y-62000000D01*
X135000000Y-55000000D02*
X135000000Y-54000000D01*
X130579000Y-72574201D02*
X130579000Y-64402628D01*
X135414213Y-79000000D02*
X140943431Y-79000000D01*
X141080000Y-79136568D02*
X141080000Y-81000000D01*
D22*
X158119298Y-66938128D02*
X158057426Y-66876256D01*
D21*
X165540000Y-81921837D02*
X165540000Y-90015000D01*
X166879999Y-77790640D02*
X166879999Y-66707106D01*
X165172892Y-67000000D02*
X160000000Y-67000000D01*
X127000000Y-60000000D02*
X128000000Y-60000000D01*
X161214000Y-81000000D02*
X164618162Y-81000000D01*
X131289500Y-74289500D02*
X132000000Y-75000000D01*
X159706000Y-81000000D02*
X158000000Y-81000000D01*
X128000000Y-60000000D02*
X129289500Y-61289500D01*
%TO.N,+5V*%
X140328654Y-61671346D02*
X144969669Y-57030330D01*
D22*
X140328654Y-61671346D02*
X140328654Y-61671345D01*
D21*
X131280330Y-76250000D02*
X135750000Y-76250000D01*
X113752500Y-69987500D02*
X112740000Y-68975000D01*
X129000000Y-65353553D02*
X129000000Y-75292893D01*
X136735283Y-92235283D02*
X134750000Y-90250000D01*
X147168000Y-76832000D02*
X147750000Y-76250000D01*
X159605000Y-77105000D02*
X158750000Y-76250000D01*
X146586000Y-78237072D02*
X146586000Y-81226681D01*
X145500000Y-55750000D02*
X145500000Y-55000000D01*
X141250000Y-90250000D02*
X134750000Y-90250000D01*
X128750000Y-64750000D02*
X128500000Y-64500000D01*
X143292893Y-90250000D02*
X141250000Y-90250000D01*
X160460000Y-90015000D02*
X160460000Y-79169152D01*
X158750000Y-76250000D02*
X165250000Y-76250000D01*
X138100000Y-95530000D02*
X138100000Y-97460000D01*
X144707106Y-90250000D02*
X146750000Y-90250000D01*
X145343840Y-83589840D02*
X145664235Y-83269446D01*
X145000000Y-84419946D02*
X145000000Y-88542893D01*
X130593792Y-86093792D02*
X134750000Y-90250000D01*
X147750000Y-76250000D02*
X154250000Y-76250000D01*
X129625000Y-77375000D02*
X129500000Y-77500000D01*
X128500000Y-64500000D02*
X120875000Y-64500000D01*
X137966841Y-63033159D02*
X137483420Y-63516579D01*
X146976461Y-82023538D02*
X145777446Y-83222553D01*
X120875000Y-67801332D02*
X120875000Y-64500000D01*
X129625000Y-76625000D02*
X129500000Y-76500000D01*
X117676332Y-71000000D02*
X116196891Y-71000000D01*
X146976461Y-81909885D02*
X146793000Y-81726424D01*
X160460000Y-90015000D02*
X153651170Y-90015000D01*
X129000000Y-82246036D02*
X129000000Y-78707106D01*
X133594000Y-64000000D02*
X136316340Y-64000000D01*
X146750000Y-90250000D02*
X153083829Y-90250000D01*
X135750000Y-76250000D02*
X142250000Y-76250000D01*
D22*
%TO.N,/temp_digital*%
X140720000Y-49100000D02*
X140620000Y-49200000D01*
D21*
X143000000Y-53000000D02*
X143000000Y-55000000D01*
X143000000Y-49000000D02*
X140961421Y-49000000D01*
%TO.N,/I2C_SCL*%
X115932000Y-69627000D02*
X115280000Y-68975000D01*
X119124000Y-68852500D02*
X119124000Y-69591035D01*
X117880000Y-49320000D02*
X117760000Y-49200000D01*
X115899298Y-64604298D02*
X118400276Y-67105276D01*
X115899298Y-64100701D02*
X116897500Y-63102500D01*
X118000000Y-60440829D02*
X118000000Y-49609705D01*
X118436035Y-70279000D02*
X117506067Y-70279000D01*
%TO.N,/I2C_SDA*%
X118073932Y-47896000D02*
X117550000Y-47896000D01*
X119648000Y-48548000D02*
X120300000Y-49200000D01*
X113376819Y-64531819D02*
X117820000Y-68975000D01*
X113255000Y-52759547D02*
X113255000Y-64455000D01*
X114679499Y-49320499D02*
X115081523Y-48918476D01*
%TO.N,/button_onoff*%
X159033159Y-64966841D02*
X159016895Y-64983104D01*
X153034534Y-64034534D02*
X153046745Y-64046745D01*
X161823223Y-68676776D02*
X158750000Y-71750000D01*
X139000000Y-52000000D02*
X149375654Y-52000000D01*
X149753104Y-51753104D02*
X149736841Y-51736841D01*
X162000000Y-66000000D02*
X160708817Y-66000000D01*
X157620000Y-52550827D02*
X157620000Y-49200000D01*
X155514851Y-65069068D02*
X156960634Y-65069068D01*
X159500948Y-65499684D02*
X159016895Y-65015631D01*
X155033159Y-56966841D02*
X156326579Y-55673420D01*
X158750000Y-71750000D02*
X165250000Y-71750000D01*
X125113137Y-52000000D02*
X136000000Y-52000000D01*
X124840000Y-52273137D02*
X124840000Y-54000000D01*
X154073159Y-52073159D02*
X154410000Y-52073159D01*
X149753104Y-51785631D02*
X149654052Y-51884684D01*
X157620000Y-49200000D02*
X154985023Y-51834976D01*
X152000000Y-61536947D02*
X152000000Y-61390766D01*
X162000000Y-68250000D02*
X162000000Y-68000000D01*
X153966841Y-58033159D02*
X152983420Y-59016579D01*
%TO.N,/button_lock*%
X150624994Y-53655005D02*
X155080000Y-49200000D01*
X149000000Y-57822111D02*
X149000000Y-55881055D01*
X144707106Y-82292893D02*
X144939000Y-82061000D01*
X145878000Y-77150434D02*
X145878000Y-79794053D01*
X145920000Y-67000000D02*
X145920000Y-65040000D01*
X141250000Y-85750000D02*
X134750000Y-85750000D01*
X144000000Y-84000000D02*
X144000000Y-84469669D01*
X142719669Y-85750000D02*
X141250000Y-85750000D01*
X145920000Y-77049037D02*
X145920000Y-67000000D01*
X147459999Y-61539999D02*
X147305929Y-61694070D01*
X150147005Y-53852994D02*
X149623000Y-54377000D01*
%TO.N,/button_light*%
X139593792Y-62002801D02*
X140739277Y-63148286D01*
X138000000Y-51988414D02*
X138000000Y-58155045D01*
X143582840Y-64000000D02*
X142795495Y-64000000D01*
X146000000Y-84000000D02*
X146396446Y-84396446D01*
X132460000Y-83000000D02*
X142500000Y-83000000D01*
X146560000Y-50100000D02*
X147460000Y-49200000D01*
X131674730Y-81754730D02*
X130920000Y-81000000D01*
X143000000Y-84000000D02*
X143000000Y-83500000D01*
X138988414Y-51000000D02*
X144387207Y-51000000D01*
X143250000Y-79877395D02*
X143250000Y-81573223D01*
X143000000Y-82176776D02*
X143000000Y-82500000D01*
X147250000Y-85750000D02*
X153250000Y-85750000D01*
X144589953Y-76642463D02*
X144589953Y-65007112D01*
%TO.N,/button_units*%
X155920000Y-62000151D02*
X155920000Y-60960000D01*
X150000000Y-52770000D02*
X150000000Y-53000000D01*
X156911611Y-69838388D02*
X155000000Y-71750000D01*
X157338388Y-69661611D02*
X158292893Y-68707106D01*
X152257157Y-50282842D02*
X150162634Y-52377365D01*
X152540000Y-49600000D02*
X152540000Y-49200000D01*
X157442284Y-64442284D02*
X158292893Y-65292893D01*
X152000000Y-55000000D02*
X154477502Y-57477502D01*
X156627000Y-63707000D02*
X157305715Y-64385715D01*
X155000000Y-71750000D02*
X148500000Y-71750000D01*
%TO.N,/button_cal*%
X146674000Y-70000000D02*
X154910235Y-70000000D01*
X149000000Y-53000000D02*
X149000000Y-53910235D01*
X143250000Y-71750000D02*
X136750000Y-71750000D01*
X143250000Y-71750000D02*
X143542976Y-71457023D01*
X147174000Y-69146446D02*
X147174000Y-64825547D01*
X155292893Y-79000000D02*
X148113137Y-79000000D01*
X148966841Y-53966841D02*
X148983420Y-53950261D01*
X149282842Y-49917157D02*
X150000000Y-49200000D01*
X150000000Y-58002980D02*
X150000000Y-55089764D01*
X143835953Y-70000000D02*
X143835953Y-70749715D01*
X147840000Y-79273137D02*
X147840000Y-81000000D01*
X150016579Y-55049738D02*
X150033159Y-55033159D01*
X154966841Y-69966841D02*
X154950261Y-69983420D01*
X157000000Y-71000000D02*
X157000000Y-77292893D01*
X149000000Y-50600000D02*
X149000000Y-51000000D01*
X146674000Y-70000000D02*
X146924000Y-69750000D01*
%TO.N,Net-(D1-A)*%
X132840000Y-63926345D02*
X132840000Y-67000000D01*
X131690000Y-61150000D02*
X130540000Y-60000000D01*
%TO.N,/led_light*%
X137540000Y-49740000D02*
X138080000Y-49200000D01*
X138593792Y-62593792D02*
X143000000Y-67000000D01*
X137000000Y-51043675D02*
X137000000Y-58746036D01*
%TO.N,/temp_sensor*%
X154111207Y-94148792D02*
X150800000Y-97460000D01*
X157958963Y-92555000D02*
X163000000Y-92555000D01*
%TD*%
M02*
