%TF.GenerationSoftware,KiCad,Pcbnew,8.0.8*%
%TF.CreationDate,2025-02-03T17:03:33-07:00*%
%TF.ProjectId,BoardMicro,426f6172-644d-4696-9372-6f2e6b696361,rev?*%
%TF.SameCoordinates,Original*%
%TF.FileFunction,Soldermask,Bot*%
%TF.FilePolarity,Negative*%
%FSLAX46Y46*%
G04 Gerber Fmt 4.6, Leading zero omitted, Abs format (unit mm)*
G04 Created by KiCad (PCBNEW 8.0.8) date 2025-02-03 17:03:33*
%MOMM*%
%LPD*%
G01*
G04 APERTURE LIST*
G04 Aperture macros list*
%AMRoundRect*
0 Rectangle with rounded corners*
0 $1 Rounding radius*
0 $2 $3 $4 $5 $6 $7 $8 $9 X,Y pos of 4 corners*
0 Add a 4 corners polygon primitive as box body*
4,1,4,$2,$3,$4,$5,$6,$7,$8,$9,$2,$3,0*
0 Add four circle primitives for the rounded corners*
1,1,$1+$1,$2,$3*
1,1,$1+$1,$4,$5*
1,1,$1+$1,$6,$7*
1,1,$1+$1,$8,$9*
0 Add four rect primitives between the rounded corners*
20,1,$1+$1,$2,$3,$4,$5,0*
20,1,$1+$1,$4,$5,$6,$7,0*
20,1,$1+$1,$6,$7,$8,$9,0*
20,1,$1+$1,$8,$9,$2,$3,0*%
G04 Aperture macros list end*
%ADD10R,1.700000X1.700000*%
%ADD11O,1.700000X1.700000*%
%ADD12C,1.600000*%
%ADD13O,1.600000X1.600000*%
%ADD14C,2.000000*%
%ADD15C,1.440000*%
%ADD16R,1.800000X1.800000*%
%ADD17C,1.800000*%
%ADD18RoundRect,0.250000X-0.600000X-0.725000X0.600000X-0.725000X0.600000X0.725000X-0.600000X0.725000X0*%
%ADD19O,1.700000X1.950000*%
G04 APERTURE END LIST*
D10*
%TO.C,J1*%
X127940000Y-97460000D03*
D11*
X130480000Y-97460000D03*
X133020000Y-97460000D03*
X135560000Y-97460000D03*
X138100000Y-97460000D03*
X140640000Y-97460000D03*
X143180000Y-97460000D03*
X145720000Y-97460000D03*
%TD*%
D10*
%TO.C,J3*%
X150800000Y-97460000D03*
D11*
X153340000Y-97460000D03*
X155880000Y-97460000D03*
X158420000Y-97460000D03*
X160960000Y-97460000D03*
X163500000Y-97460000D03*
%TD*%
D10*
%TO.C,J2*%
X117760000Y-49200000D03*
D11*
X120300000Y-49200000D03*
X122840000Y-49200000D03*
X125380000Y-49200000D03*
X127920000Y-49200000D03*
X130460000Y-49200000D03*
X133000000Y-49200000D03*
X135540000Y-49200000D03*
X138080000Y-49200000D03*
X140620000Y-49200000D03*
%TD*%
D10*
%TO.C,J4*%
X144920000Y-49200000D03*
D11*
X147460000Y-49200000D03*
X150000000Y-49200000D03*
X152540000Y-49200000D03*
X155080000Y-49200000D03*
X157620000Y-49200000D03*
X160160000Y-49200000D03*
X162700000Y-49200000D03*
%TD*%
D12*
%TO.C,R2*%
X155920000Y-62000000D03*
D13*
X166080000Y-62000000D03*
%TD*%
D12*
%TO.C,R1*%
X124840000Y-54000000D03*
D13*
X135000000Y-54000000D03*
%TD*%
D10*
%TO.C,J5*%
X120875000Y-64500000D03*
D11*
X118335000Y-64500000D03*
X115795000Y-64500000D03*
X113255000Y-64500000D03*
X110715000Y-64500000D03*
X108175000Y-64500000D03*
X105635000Y-64500000D03*
X103095000Y-64500000D03*
%TD*%
D12*
%TO.C,R6*%
X143000000Y-67000000D03*
D13*
X132840000Y-67000000D03*
%TD*%
D14*
%TO.C,SW5*%
X135750000Y-71750000D03*
X142250000Y-71750000D03*
X135750000Y-76250000D03*
X142250000Y-76250000D03*
%TD*%
D12*
%TO.C,R5*%
X147840000Y-81000000D03*
D13*
X158000000Y-81000000D03*
%TD*%
D12*
%TO.C,R4*%
X130920000Y-81000000D03*
D13*
X141080000Y-81000000D03*
%TD*%
D14*
%TO.C,SW2*%
X148500000Y-71750000D03*
X155000000Y-71750000D03*
X148500000Y-76250000D03*
X155000000Y-76250000D03*
%TD*%
D10*
%TO.C,J6*%
X110200000Y-68975000D03*
D11*
X112740000Y-68975000D03*
X115280000Y-68975000D03*
X117820000Y-68975000D03*
%TD*%
D15*
%TO.C,RV1*%
X160460000Y-90015000D03*
X163000000Y-92555000D03*
X165540000Y-90015000D03*
%TD*%
D12*
%TO.C,R3*%
X145920000Y-67000000D03*
D13*
X156080000Y-67000000D03*
%TD*%
D14*
%TO.C,SW3*%
X134750000Y-85750000D03*
X141250000Y-85750000D03*
X134750000Y-90250000D03*
X141250000Y-90250000D03*
%TD*%
D16*
%TO.C,D1*%
X128000000Y-60000000D03*
D17*
X130540000Y-60000000D03*
%TD*%
D14*
%TO.C,SW1*%
X158750000Y-71750000D03*
X165250000Y-71750000D03*
X158750000Y-76250000D03*
X165250000Y-76250000D03*
%TD*%
%TO.C,SW4*%
X146750000Y-85750000D03*
X153250000Y-85750000D03*
X146750000Y-90250000D03*
X153250000Y-90250000D03*
%TD*%
D18*
%TO.C,J7*%
X140500000Y-55000000D03*
D19*
X143000000Y-55000000D03*
X145500000Y-55000000D03*
%TD*%
M02*
