%TF.GenerationSoftware,KiCad,Pcbnew,8.0.8*%
%TF.CreationDate,2025-02-03T17:03:33-07:00*%
%TF.ProjectId,BoardMicro,426f6172-644d-4696-9372-6f2e6b696361,rev?*%
%TF.SameCoordinates,Original*%
%TF.FileFunction,Legend,Top*%
%TF.FilePolarity,Positive*%
%FSLAX46Y46*%
G04 Gerber Fmt 4.6, Leading zero omitted, Abs format (unit mm)*
G04 Created by KiCad (PCBNEW 8.0.8) date 2025-02-03 17:03:33*
%MOMM*%
%LPD*%
G01*
G04 APERTURE LIST*
%ADD10C,0.150000*%
%ADD11C,0.120000*%
%ADD12C,0.000000*%
G04 APERTURE END LIST*
D10*
X101795000Y-48500000D02*
X101795000Y-52500000D01*
X100360000Y-67475000D02*
X128160000Y-67475000D01*
X128160000Y-94775000D01*
X100360000Y-94775000D01*
X100360000Y-67475000D01*
X158115000Y-85115000D02*
X167885000Y-85115000D01*
X167885000Y-94885000D01*
X158115000Y-94885000D01*
X158115000Y-85115000D01*
X100360000Y-67475000D02*
X110200000Y-67475000D01*
X101795000Y-48500000D02*
X108020112Y-48500000D01*
X122795000Y-65500000D02*
X122795000Y-53000000D01*
X110200000Y-67475000D02*
X110200000Y-68975000D01*
X147670112Y-78346009D02*
X147812969Y-78393628D01*
X147812969Y-78393628D02*
X147860588Y-78441247D01*
X147860588Y-78441247D02*
X147908207Y-78536485D01*
X147908207Y-78536485D02*
X147908207Y-78679342D01*
X147908207Y-78679342D02*
X147860588Y-78774580D01*
X147860588Y-78774580D02*
X147812969Y-78822200D01*
X147812969Y-78822200D02*
X147717731Y-78869819D01*
X147717731Y-78869819D02*
X147336779Y-78869819D01*
X147336779Y-78869819D02*
X147336779Y-77869819D01*
X147336779Y-77869819D02*
X147670112Y-77869819D01*
X147670112Y-77869819D02*
X147765350Y-77917438D01*
X147765350Y-77917438D02*
X147812969Y-77965057D01*
X147812969Y-77965057D02*
X147860588Y-78060295D01*
X147860588Y-78060295D02*
X147860588Y-78155533D01*
X147860588Y-78155533D02*
X147812969Y-78250771D01*
X147812969Y-78250771D02*
X147765350Y-78298390D01*
X147765350Y-78298390D02*
X147670112Y-78346009D01*
X147670112Y-78346009D02*
X147336779Y-78346009D01*
X148765350Y-78203152D02*
X148765350Y-78869819D01*
X148336779Y-78203152D02*
X148336779Y-78726961D01*
X148336779Y-78726961D02*
X148384398Y-78822200D01*
X148384398Y-78822200D02*
X148479636Y-78869819D01*
X148479636Y-78869819D02*
X148622493Y-78869819D01*
X148622493Y-78869819D02*
X148717731Y-78822200D01*
X148717731Y-78822200D02*
X148765350Y-78774580D01*
X149098684Y-78203152D02*
X149479636Y-78203152D01*
X149241541Y-77869819D02*
X149241541Y-78726961D01*
X149241541Y-78726961D02*
X149289160Y-78822200D01*
X149289160Y-78822200D02*
X149384398Y-78869819D01*
X149384398Y-78869819D02*
X149479636Y-78869819D01*
X149670113Y-78203152D02*
X150051065Y-78203152D01*
X149812970Y-77869819D02*
X149812970Y-78726961D01*
X149812970Y-78726961D02*
X149860589Y-78822200D01*
X149860589Y-78822200D02*
X149955827Y-78869819D01*
X149955827Y-78869819D02*
X150051065Y-78869819D01*
X150527256Y-78869819D02*
X150432018Y-78822200D01*
X150432018Y-78822200D02*
X150384399Y-78774580D01*
X150384399Y-78774580D02*
X150336780Y-78679342D01*
X150336780Y-78679342D02*
X150336780Y-78393628D01*
X150336780Y-78393628D02*
X150384399Y-78298390D01*
X150384399Y-78298390D02*
X150432018Y-78250771D01*
X150432018Y-78250771D02*
X150527256Y-78203152D01*
X150527256Y-78203152D02*
X150670113Y-78203152D01*
X150670113Y-78203152D02*
X150765351Y-78250771D01*
X150765351Y-78250771D02*
X150812970Y-78298390D01*
X150812970Y-78298390D02*
X150860589Y-78393628D01*
X150860589Y-78393628D02*
X150860589Y-78679342D01*
X150860589Y-78679342D02*
X150812970Y-78774580D01*
X150812970Y-78774580D02*
X150765351Y-78822200D01*
X150765351Y-78822200D02*
X150670113Y-78869819D01*
X150670113Y-78869819D02*
X150527256Y-78869819D01*
X151289161Y-78203152D02*
X151289161Y-78869819D01*
X151289161Y-78298390D02*
X151336780Y-78250771D01*
X151336780Y-78250771D02*
X151432018Y-78203152D01*
X151432018Y-78203152D02*
X151574875Y-78203152D01*
X151574875Y-78203152D02*
X151670113Y-78250771D01*
X151670113Y-78250771D02*
X151717732Y-78346009D01*
X151717732Y-78346009D02*
X151717732Y-78869819D01*
X152955828Y-77869819D02*
X152955828Y-78679342D01*
X152955828Y-78679342D02*
X153003447Y-78774580D01*
X153003447Y-78774580D02*
X153051066Y-78822200D01*
X153051066Y-78822200D02*
X153146304Y-78869819D01*
X153146304Y-78869819D02*
X153336780Y-78869819D01*
X153336780Y-78869819D02*
X153432018Y-78822200D01*
X153432018Y-78822200D02*
X153479637Y-78774580D01*
X153479637Y-78774580D02*
X153527256Y-78679342D01*
X153527256Y-78679342D02*
X153527256Y-77869819D01*
X154003447Y-78203152D02*
X154003447Y-78869819D01*
X154003447Y-78298390D02*
X154051066Y-78250771D01*
X154051066Y-78250771D02*
X154146304Y-78203152D01*
X154146304Y-78203152D02*
X154289161Y-78203152D01*
X154289161Y-78203152D02*
X154384399Y-78250771D01*
X154384399Y-78250771D02*
X154432018Y-78346009D01*
X154432018Y-78346009D02*
X154432018Y-78869819D01*
X154908209Y-78869819D02*
X154908209Y-78203152D01*
X154908209Y-77869819D02*
X154860590Y-77917438D01*
X154860590Y-77917438D02*
X154908209Y-77965057D01*
X154908209Y-77965057D02*
X154955828Y-77917438D01*
X154955828Y-77917438D02*
X154908209Y-77869819D01*
X154908209Y-77869819D02*
X154908209Y-77965057D01*
X155241542Y-78203152D02*
X155622494Y-78203152D01*
X155384399Y-77869819D02*
X155384399Y-78726961D01*
X155384399Y-78726961D02*
X155432018Y-78822200D01*
X155432018Y-78822200D02*
X155527256Y-78869819D01*
X155527256Y-78869819D02*
X155622494Y-78869819D01*
X155908209Y-78822200D02*
X156003447Y-78869819D01*
X156003447Y-78869819D02*
X156193923Y-78869819D01*
X156193923Y-78869819D02*
X156289161Y-78822200D01*
X156289161Y-78822200D02*
X156336780Y-78726961D01*
X156336780Y-78726961D02*
X156336780Y-78679342D01*
X156336780Y-78679342D02*
X156289161Y-78584104D01*
X156289161Y-78584104D02*
X156193923Y-78536485D01*
X156193923Y-78536485D02*
X156051066Y-78536485D01*
X156051066Y-78536485D02*
X155955828Y-78488866D01*
X155955828Y-78488866D02*
X155908209Y-78393628D01*
X155908209Y-78393628D02*
X155908209Y-78346009D01*
X155908209Y-78346009D02*
X155955828Y-78250771D01*
X155955828Y-78250771D02*
X156051066Y-78203152D01*
X156051066Y-78203152D02*
X156193923Y-78203152D01*
X156193923Y-78203152D02*
X156289161Y-78250771D01*
X134908207Y-92774580D02*
X134860588Y-92822200D01*
X134860588Y-92822200D02*
X134717731Y-92869819D01*
X134717731Y-92869819D02*
X134622493Y-92869819D01*
X134622493Y-92869819D02*
X134479636Y-92822200D01*
X134479636Y-92822200D02*
X134384398Y-92726961D01*
X134384398Y-92726961D02*
X134336779Y-92631723D01*
X134336779Y-92631723D02*
X134289160Y-92441247D01*
X134289160Y-92441247D02*
X134289160Y-92298390D01*
X134289160Y-92298390D02*
X134336779Y-92107914D01*
X134336779Y-92107914D02*
X134384398Y-92012676D01*
X134384398Y-92012676D02*
X134479636Y-91917438D01*
X134479636Y-91917438D02*
X134622493Y-91869819D01*
X134622493Y-91869819D02*
X134717731Y-91869819D01*
X134717731Y-91869819D02*
X134860588Y-91917438D01*
X134860588Y-91917438D02*
X134908207Y-91965057D01*
X135765350Y-92869819D02*
X135765350Y-92346009D01*
X135765350Y-92346009D02*
X135717731Y-92250771D01*
X135717731Y-92250771D02*
X135622493Y-92203152D01*
X135622493Y-92203152D02*
X135432017Y-92203152D01*
X135432017Y-92203152D02*
X135336779Y-92250771D01*
X135765350Y-92822200D02*
X135670112Y-92869819D01*
X135670112Y-92869819D02*
X135432017Y-92869819D01*
X135432017Y-92869819D02*
X135336779Y-92822200D01*
X135336779Y-92822200D02*
X135289160Y-92726961D01*
X135289160Y-92726961D02*
X135289160Y-92631723D01*
X135289160Y-92631723D02*
X135336779Y-92536485D01*
X135336779Y-92536485D02*
X135432017Y-92488866D01*
X135432017Y-92488866D02*
X135670112Y-92488866D01*
X135670112Y-92488866D02*
X135765350Y-92441247D01*
X136384398Y-92869819D02*
X136289160Y-92822200D01*
X136289160Y-92822200D02*
X136241541Y-92726961D01*
X136241541Y-92726961D02*
X136241541Y-91869819D01*
X136765351Y-92869819D02*
X136765351Y-92203152D01*
X136765351Y-91869819D02*
X136717732Y-91917438D01*
X136717732Y-91917438D02*
X136765351Y-91965057D01*
X136765351Y-91965057D02*
X136812970Y-91917438D01*
X136812970Y-91917438D02*
X136765351Y-91869819D01*
X136765351Y-91869819D02*
X136765351Y-91965057D01*
X137241541Y-92869819D02*
X137241541Y-91869819D01*
X137241541Y-92250771D02*
X137336779Y-92203152D01*
X137336779Y-92203152D02*
X137527255Y-92203152D01*
X137527255Y-92203152D02*
X137622493Y-92250771D01*
X137622493Y-92250771D02*
X137670112Y-92298390D01*
X137670112Y-92298390D02*
X137717731Y-92393628D01*
X137717731Y-92393628D02*
X137717731Y-92679342D01*
X137717731Y-92679342D02*
X137670112Y-92774580D01*
X137670112Y-92774580D02*
X137622493Y-92822200D01*
X137622493Y-92822200D02*
X137527255Y-92869819D01*
X137527255Y-92869819D02*
X137336779Y-92869819D01*
X137336779Y-92869819D02*
X137241541Y-92822200D01*
X138146303Y-92869819D02*
X138146303Y-92203152D01*
X138146303Y-92393628D02*
X138193922Y-92298390D01*
X138193922Y-92298390D02*
X138241541Y-92250771D01*
X138241541Y-92250771D02*
X138336779Y-92203152D01*
X138336779Y-92203152D02*
X138432017Y-92203152D01*
X139193922Y-92869819D02*
X139193922Y-92346009D01*
X139193922Y-92346009D02*
X139146303Y-92250771D01*
X139146303Y-92250771D02*
X139051065Y-92203152D01*
X139051065Y-92203152D02*
X138860589Y-92203152D01*
X138860589Y-92203152D02*
X138765351Y-92250771D01*
X139193922Y-92822200D02*
X139098684Y-92869819D01*
X139098684Y-92869819D02*
X138860589Y-92869819D01*
X138860589Y-92869819D02*
X138765351Y-92822200D01*
X138765351Y-92822200D02*
X138717732Y-92726961D01*
X138717732Y-92726961D02*
X138717732Y-92631723D01*
X138717732Y-92631723D02*
X138765351Y-92536485D01*
X138765351Y-92536485D02*
X138860589Y-92488866D01*
X138860589Y-92488866D02*
X139098684Y-92488866D01*
X139098684Y-92488866D02*
X139193922Y-92441247D01*
X139527256Y-92203152D02*
X139908208Y-92203152D01*
X139670113Y-91869819D02*
X139670113Y-92726961D01*
X139670113Y-92726961D02*
X139717732Y-92822200D01*
X139717732Y-92822200D02*
X139812970Y-92869819D01*
X139812970Y-92869819D02*
X139908208Y-92869819D01*
X140241542Y-92869819D02*
X140241542Y-92203152D01*
X140241542Y-91869819D02*
X140193923Y-91917438D01*
X140193923Y-91917438D02*
X140241542Y-91965057D01*
X140241542Y-91965057D02*
X140289161Y-91917438D01*
X140289161Y-91917438D02*
X140241542Y-91869819D01*
X140241542Y-91869819D02*
X140241542Y-91965057D01*
X140860589Y-92869819D02*
X140765351Y-92822200D01*
X140765351Y-92822200D02*
X140717732Y-92774580D01*
X140717732Y-92774580D02*
X140670113Y-92679342D01*
X140670113Y-92679342D02*
X140670113Y-92393628D01*
X140670113Y-92393628D02*
X140717732Y-92298390D01*
X140717732Y-92298390D02*
X140765351Y-92250771D01*
X140765351Y-92250771D02*
X140860589Y-92203152D01*
X140860589Y-92203152D02*
X141003446Y-92203152D01*
X141003446Y-92203152D02*
X141098684Y-92250771D01*
X141098684Y-92250771D02*
X141146303Y-92298390D01*
X141146303Y-92298390D02*
X141193922Y-92393628D01*
X141193922Y-92393628D02*
X141193922Y-92679342D01*
X141193922Y-92679342D02*
X141146303Y-92774580D01*
X141146303Y-92774580D02*
X141098684Y-92822200D01*
X141098684Y-92822200D02*
X141003446Y-92869819D01*
X141003446Y-92869819D02*
X140860589Y-92869819D01*
X141622494Y-92203152D02*
X141622494Y-92869819D01*
X141622494Y-92298390D02*
X141670113Y-92250771D01*
X141670113Y-92250771D02*
X141765351Y-92203152D01*
X141765351Y-92203152D02*
X141908208Y-92203152D01*
X141908208Y-92203152D02*
X142003446Y-92250771D01*
X142003446Y-92250771D02*
X142051065Y-92346009D01*
X142051065Y-92346009D02*
X142051065Y-92869819D01*
X132812969Y-61869819D02*
X132336779Y-61869819D01*
X132336779Y-61869819D02*
X132336779Y-60869819D01*
X133146303Y-61346009D02*
X133479636Y-61346009D01*
X133622493Y-61869819D02*
X133146303Y-61869819D01*
X133146303Y-61869819D02*
X133146303Y-60869819D01*
X133146303Y-60869819D02*
X133622493Y-60869819D01*
X134051065Y-61869819D02*
X134051065Y-60869819D01*
X134051065Y-60869819D02*
X134289160Y-60869819D01*
X134289160Y-60869819D02*
X134432017Y-60917438D01*
X134432017Y-60917438D02*
X134527255Y-61012676D01*
X134527255Y-61012676D02*
X134574874Y-61107914D01*
X134574874Y-61107914D02*
X134622493Y-61298390D01*
X134622493Y-61298390D02*
X134622493Y-61441247D01*
X134622493Y-61441247D02*
X134574874Y-61631723D01*
X134574874Y-61631723D02*
X134527255Y-61726961D01*
X134527255Y-61726961D02*
X134432017Y-61822200D01*
X134432017Y-61822200D02*
X134289160Y-61869819D01*
X134289160Y-61869819D02*
X134051065Y-61869819D01*
X103193922Y-95649931D02*
X103527255Y-96649931D01*
X103527255Y-96649931D02*
X103860588Y-95649931D01*
X104574874Y-96602312D02*
X104479636Y-96649931D01*
X104479636Y-96649931D02*
X104289160Y-96649931D01*
X104289160Y-96649931D02*
X104193922Y-96602312D01*
X104193922Y-96602312D02*
X104146303Y-96507073D01*
X104146303Y-96507073D02*
X104146303Y-96126121D01*
X104146303Y-96126121D02*
X104193922Y-96030883D01*
X104193922Y-96030883D02*
X104289160Y-95983264D01*
X104289160Y-95983264D02*
X104479636Y-95983264D01*
X104479636Y-95983264D02*
X104574874Y-96030883D01*
X104574874Y-96030883D02*
X104622493Y-96126121D01*
X104622493Y-96126121D02*
X104622493Y-96221359D01*
X104622493Y-96221359D02*
X104146303Y-96316597D01*
X105051065Y-96649931D02*
X105051065Y-95983264D01*
X105051065Y-96173740D02*
X105098684Y-96078502D01*
X105098684Y-96078502D02*
X105146303Y-96030883D01*
X105146303Y-96030883D02*
X105241541Y-95983264D01*
X105241541Y-95983264D02*
X105336779Y-95983264D01*
X105622494Y-96602312D02*
X105717732Y-96649931D01*
X105717732Y-96649931D02*
X105908208Y-96649931D01*
X105908208Y-96649931D02*
X106003446Y-96602312D01*
X106003446Y-96602312D02*
X106051065Y-96507073D01*
X106051065Y-96507073D02*
X106051065Y-96459454D01*
X106051065Y-96459454D02*
X106003446Y-96364216D01*
X106003446Y-96364216D02*
X105908208Y-96316597D01*
X105908208Y-96316597D02*
X105765351Y-96316597D01*
X105765351Y-96316597D02*
X105670113Y-96268978D01*
X105670113Y-96268978D02*
X105622494Y-96173740D01*
X105622494Y-96173740D02*
X105622494Y-96126121D01*
X105622494Y-96126121D02*
X105670113Y-96030883D01*
X105670113Y-96030883D02*
X105765351Y-95983264D01*
X105765351Y-95983264D02*
X105908208Y-95983264D01*
X105908208Y-95983264D02*
X106003446Y-96030883D01*
X106479637Y-96649931D02*
X106479637Y-95983264D01*
X106479637Y-95649931D02*
X106432018Y-95697550D01*
X106432018Y-95697550D02*
X106479637Y-95745169D01*
X106479637Y-95745169D02*
X106527256Y-95697550D01*
X106527256Y-95697550D02*
X106479637Y-95649931D01*
X106479637Y-95649931D02*
X106479637Y-95745169D01*
X107098684Y-96649931D02*
X107003446Y-96602312D01*
X107003446Y-96602312D02*
X106955827Y-96554692D01*
X106955827Y-96554692D02*
X106908208Y-96459454D01*
X106908208Y-96459454D02*
X106908208Y-96173740D01*
X106908208Y-96173740D02*
X106955827Y-96078502D01*
X106955827Y-96078502D02*
X107003446Y-96030883D01*
X107003446Y-96030883D02*
X107098684Y-95983264D01*
X107098684Y-95983264D02*
X107241541Y-95983264D01*
X107241541Y-95983264D02*
X107336779Y-96030883D01*
X107336779Y-96030883D02*
X107384398Y-96078502D01*
X107384398Y-96078502D02*
X107432017Y-96173740D01*
X107432017Y-96173740D02*
X107432017Y-96459454D01*
X107432017Y-96459454D02*
X107384398Y-96554692D01*
X107384398Y-96554692D02*
X107336779Y-96602312D01*
X107336779Y-96602312D02*
X107241541Y-96649931D01*
X107241541Y-96649931D02*
X107098684Y-96649931D01*
X107860589Y-95983264D02*
X107860589Y-96649931D01*
X107860589Y-96078502D02*
X107908208Y-96030883D01*
X107908208Y-96030883D02*
X108003446Y-95983264D01*
X108003446Y-95983264D02*
X108146303Y-95983264D01*
X108146303Y-95983264D02*
X108241541Y-96030883D01*
X108241541Y-96030883D02*
X108289160Y-96126121D01*
X108289160Y-96126121D02*
X108289160Y-96649931D01*
X110051065Y-96649931D02*
X109479637Y-96649931D01*
X109765351Y-96649931D02*
X109765351Y-95649931D01*
X109765351Y-95649931D02*
X109670113Y-95792788D01*
X109670113Y-95792788D02*
X109574875Y-95888026D01*
X109574875Y-95888026D02*
X109479637Y-95935645D01*
X103289160Y-97355113D02*
X103336779Y-97307494D01*
X103336779Y-97307494D02*
X103432017Y-97259875D01*
X103432017Y-97259875D02*
X103670112Y-97259875D01*
X103670112Y-97259875D02*
X103765350Y-97307494D01*
X103765350Y-97307494D02*
X103812969Y-97355113D01*
X103812969Y-97355113D02*
X103860588Y-97450351D01*
X103860588Y-97450351D02*
X103860588Y-97545589D01*
X103860588Y-97545589D02*
X103812969Y-97688446D01*
X103812969Y-97688446D02*
X103241541Y-98259875D01*
X103241541Y-98259875D02*
X103860588Y-98259875D01*
X105003445Y-97212256D02*
X104146303Y-98497970D01*
X105241541Y-97259875D02*
X105860588Y-97259875D01*
X105860588Y-97259875D02*
X105527255Y-97640827D01*
X105527255Y-97640827D02*
X105670112Y-97640827D01*
X105670112Y-97640827D02*
X105765350Y-97688446D01*
X105765350Y-97688446D02*
X105812969Y-97736065D01*
X105812969Y-97736065D02*
X105860588Y-97831303D01*
X105860588Y-97831303D02*
X105860588Y-98069398D01*
X105860588Y-98069398D02*
X105812969Y-98164636D01*
X105812969Y-98164636D02*
X105765350Y-98212256D01*
X105765350Y-98212256D02*
X105670112Y-98259875D01*
X105670112Y-98259875D02*
X105384398Y-98259875D01*
X105384398Y-98259875D02*
X105289160Y-98212256D01*
X105289160Y-98212256D02*
X105241541Y-98164636D01*
X107003445Y-97212256D02*
X106146303Y-98497970D01*
X107289160Y-97355113D02*
X107336779Y-97307494D01*
X107336779Y-97307494D02*
X107432017Y-97259875D01*
X107432017Y-97259875D02*
X107670112Y-97259875D01*
X107670112Y-97259875D02*
X107765350Y-97307494D01*
X107765350Y-97307494D02*
X107812969Y-97355113D01*
X107812969Y-97355113D02*
X107860588Y-97450351D01*
X107860588Y-97450351D02*
X107860588Y-97545589D01*
X107860588Y-97545589D02*
X107812969Y-97688446D01*
X107812969Y-97688446D02*
X107241541Y-98259875D01*
X107241541Y-98259875D02*
X107860588Y-98259875D01*
X108479636Y-97259875D02*
X108574874Y-97259875D01*
X108574874Y-97259875D02*
X108670112Y-97307494D01*
X108670112Y-97307494D02*
X108717731Y-97355113D01*
X108717731Y-97355113D02*
X108765350Y-97450351D01*
X108765350Y-97450351D02*
X108812969Y-97640827D01*
X108812969Y-97640827D02*
X108812969Y-97878922D01*
X108812969Y-97878922D02*
X108765350Y-98069398D01*
X108765350Y-98069398D02*
X108717731Y-98164636D01*
X108717731Y-98164636D02*
X108670112Y-98212256D01*
X108670112Y-98212256D02*
X108574874Y-98259875D01*
X108574874Y-98259875D02*
X108479636Y-98259875D01*
X108479636Y-98259875D02*
X108384398Y-98212256D01*
X108384398Y-98212256D02*
X108336779Y-98164636D01*
X108336779Y-98164636D02*
X108289160Y-98069398D01*
X108289160Y-98069398D02*
X108241541Y-97878922D01*
X108241541Y-97878922D02*
X108241541Y-97640827D01*
X108241541Y-97640827D02*
X108289160Y-97450351D01*
X108289160Y-97450351D02*
X108336779Y-97355113D01*
X108336779Y-97355113D02*
X108384398Y-97307494D01*
X108384398Y-97307494D02*
X108479636Y-97259875D01*
X109193922Y-97355113D02*
X109241541Y-97307494D01*
X109241541Y-97307494D02*
X109336779Y-97259875D01*
X109336779Y-97259875D02*
X109574874Y-97259875D01*
X109574874Y-97259875D02*
X109670112Y-97307494D01*
X109670112Y-97307494D02*
X109717731Y-97355113D01*
X109717731Y-97355113D02*
X109765350Y-97450351D01*
X109765350Y-97450351D02*
X109765350Y-97545589D01*
X109765350Y-97545589D02*
X109717731Y-97688446D01*
X109717731Y-97688446D02*
X109146303Y-98259875D01*
X109146303Y-98259875D02*
X109765350Y-98259875D01*
X110670112Y-97259875D02*
X110193922Y-97259875D01*
X110193922Y-97259875D02*
X110146303Y-97736065D01*
X110146303Y-97736065D02*
X110193922Y-97688446D01*
X110193922Y-97688446D02*
X110289160Y-97640827D01*
X110289160Y-97640827D02*
X110527255Y-97640827D01*
X110527255Y-97640827D02*
X110622493Y-97688446D01*
X110622493Y-97688446D02*
X110670112Y-97736065D01*
X110670112Y-97736065D02*
X110717731Y-97831303D01*
X110717731Y-97831303D02*
X110717731Y-98069398D01*
X110717731Y-98069398D02*
X110670112Y-98164636D01*
X110670112Y-98164636D02*
X110622493Y-98212256D01*
X110622493Y-98212256D02*
X110527255Y-98259875D01*
X110527255Y-98259875D02*
X110289160Y-98259875D01*
X110289160Y-98259875D02*
X110193922Y-98212256D01*
X110193922Y-98212256D02*
X110146303Y-98164636D01*
X103289160Y-99584104D02*
X103765350Y-99584104D01*
X103193922Y-99869819D02*
X103527255Y-98869819D01*
X103527255Y-98869819D02*
X103860588Y-99869819D01*
X104336779Y-99869819D02*
X104241541Y-99822200D01*
X104241541Y-99822200D02*
X104193922Y-99726961D01*
X104193922Y-99726961D02*
X104193922Y-98869819D01*
X105098684Y-99822200D02*
X105003446Y-99869819D01*
X105003446Y-99869819D02*
X104812970Y-99869819D01*
X104812970Y-99869819D02*
X104717732Y-99822200D01*
X104717732Y-99822200D02*
X104670113Y-99726961D01*
X104670113Y-99726961D02*
X104670113Y-99346009D01*
X104670113Y-99346009D02*
X104717732Y-99250771D01*
X104717732Y-99250771D02*
X104812970Y-99203152D01*
X104812970Y-99203152D02*
X105003446Y-99203152D01*
X105003446Y-99203152D02*
X105098684Y-99250771D01*
X105098684Y-99250771D02*
X105146303Y-99346009D01*
X105146303Y-99346009D02*
X105146303Y-99441247D01*
X105146303Y-99441247D02*
X104670113Y-99536485D01*
X105479637Y-99869819D02*
X106003446Y-99203152D01*
X105479637Y-99203152D02*
X106003446Y-99869819D01*
X106384399Y-99869819D02*
X106384399Y-99203152D01*
X106384399Y-98869819D02*
X106336780Y-98917438D01*
X106336780Y-98917438D02*
X106384399Y-98965057D01*
X106384399Y-98965057D02*
X106432018Y-98917438D01*
X106432018Y-98917438D02*
X106384399Y-98869819D01*
X106384399Y-98869819D02*
X106384399Y-98965057D01*
X106812970Y-99822200D02*
X106908208Y-99869819D01*
X106908208Y-99869819D02*
X107098684Y-99869819D01*
X107098684Y-99869819D02*
X107193922Y-99822200D01*
X107193922Y-99822200D02*
X107241541Y-99726961D01*
X107241541Y-99726961D02*
X107241541Y-99679342D01*
X107241541Y-99679342D02*
X107193922Y-99584104D01*
X107193922Y-99584104D02*
X107098684Y-99536485D01*
X107098684Y-99536485D02*
X106955827Y-99536485D01*
X106955827Y-99536485D02*
X106860589Y-99488866D01*
X106860589Y-99488866D02*
X106812970Y-99393628D01*
X106812970Y-99393628D02*
X106812970Y-99346009D01*
X106812970Y-99346009D02*
X106860589Y-99250771D01*
X106860589Y-99250771D02*
X106955827Y-99203152D01*
X106955827Y-99203152D02*
X107098684Y-99203152D01*
X107098684Y-99203152D02*
X107193922Y-99250771D01*
X109003446Y-99869819D02*
X108670113Y-99393628D01*
X108432018Y-99869819D02*
X108432018Y-98869819D01*
X108432018Y-98869819D02*
X108812970Y-98869819D01*
X108812970Y-98869819D02*
X108908208Y-98917438D01*
X108908208Y-98917438D02*
X108955827Y-98965057D01*
X108955827Y-98965057D02*
X109003446Y-99060295D01*
X109003446Y-99060295D02*
X109003446Y-99203152D01*
X109003446Y-99203152D02*
X108955827Y-99298390D01*
X108955827Y-99298390D02*
X108908208Y-99346009D01*
X108908208Y-99346009D02*
X108812970Y-99393628D01*
X108812970Y-99393628D02*
X108432018Y-99393628D01*
X109574875Y-99869819D02*
X109479637Y-99822200D01*
X109479637Y-99822200D02*
X109432018Y-99774580D01*
X109432018Y-99774580D02*
X109384399Y-99679342D01*
X109384399Y-99679342D02*
X109384399Y-99393628D01*
X109384399Y-99393628D02*
X109432018Y-99298390D01*
X109432018Y-99298390D02*
X109479637Y-99250771D01*
X109479637Y-99250771D02*
X109574875Y-99203152D01*
X109574875Y-99203152D02*
X109717732Y-99203152D01*
X109717732Y-99203152D02*
X109812970Y-99250771D01*
X109812970Y-99250771D02*
X109860589Y-99298390D01*
X109860589Y-99298390D02*
X109908208Y-99393628D01*
X109908208Y-99393628D02*
X109908208Y-99679342D01*
X109908208Y-99679342D02*
X109860589Y-99774580D01*
X109860589Y-99774580D02*
X109812970Y-99822200D01*
X109812970Y-99822200D02*
X109717732Y-99869819D01*
X109717732Y-99869819D02*
X109574875Y-99869819D01*
X110336780Y-99869819D02*
X110336780Y-99203152D01*
X110336780Y-99298390D02*
X110384399Y-99250771D01*
X110384399Y-99250771D02*
X110479637Y-99203152D01*
X110479637Y-99203152D02*
X110622494Y-99203152D01*
X110622494Y-99203152D02*
X110717732Y-99250771D01*
X110717732Y-99250771D02*
X110765351Y-99346009D01*
X110765351Y-99346009D02*
X110765351Y-99869819D01*
X110765351Y-99346009D02*
X110812970Y-99250771D01*
X110812970Y-99250771D02*
X110908208Y-99203152D01*
X110908208Y-99203152D02*
X111051065Y-99203152D01*
X111051065Y-99203152D02*
X111146304Y-99250771D01*
X111146304Y-99250771D02*
X111193923Y-99346009D01*
X111193923Y-99346009D02*
X111193923Y-99869819D01*
X111812970Y-99869819D02*
X111717732Y-99822200D01*
X111717732Y-99822200D02*
X111670113Y-99774580D01*
X111670113Y-99774580D02*
X111622494Y-99679342D01*
X111622494Y-99679342D02*
X111622494Y-99393628D01*
X111622494Y-99393628D02*
X111670113Y-99298390D01*
X111670113Y-99298390D02*
X111717732Y-99250771D01*
X111717732Y-99250771D02*
X111812970Y-99203152D01*
X111812970Y-99203152D02*
X111955827Y-99203152D01*
X111955827Y-99203152D02*
X112051065Y-99250771D01*
X112051065Y-99250771D02*
X112098684Y-99298390D01*
X112098684Y-99298390D02*
X112146303Y-99393628D01*
X112146303Y-99393628D02*
X112146303Y-99679342D01*
X112146303Y-99679342D02*
X112098684Y-99774580D01*
X112098684Y-99774580D02*
X112051065Y-99822200D01*
X112051065Y-99822200D02*
X111955827Y-99869819D01*
X111955827Y-99869819D02*
X111812970Y-99869819D01*
X140193922Y-58869819D02*
X140765350Y-58869819D01*
X140479636Y-59869819D02*
X140479636Y-58869819D01*
X141479636Y-59822200D02*
X141384398Y-59869819D01*
X141384398Y-59869819D02*
X141193922Y-59869819D01*
X141193922Y-59869819D02*
X141098684Y-59822200D01*
X141098684Y-59822200D02*
X141051065Y-59726961D01*
X141051065Y-59726961D02*
X141051065Y-59346009D01*
X141051065Y-59346009D02*
X141098684Y-59250771D01*
X141098684Y-59250771D02*
X141193922Y-59203152D01*
X141193922Y-59203152D02*
X141384398Y-59203152D01*
X141384398Y-59203152D02*
X141479636Y-59250771D01*
X141479636Y-59250771D02*
X141527255Y-59346009D01*
X141527255Y-59346009D02*
X141527255Y-59441247D01*
X141527255Y-59441247D02*
X141051065Y-59536485D01*
X141955827Y-59869819D02*
X141955827Y-59203152D01*
X141955827Y-59298390D02*
X142003446Y-59250771D01*
X142003446Y-59250771D02*
X142098684Y-59203152D01*
X142098684Y-59203152D02*
X142241541Y-59203152D01*
X142241541Y-59203152D02*
X142336779Y-59250771D01*
X142336779Y-59250771D02*
X142384398Y-59346009D01*
X142384398Y-59346009D02*
X142384398Y-59869819D01*
X142384398Y-59346009D02*
X142432017Y-59250771D01*
X142432017Y-59250771D02*
X142527255Y-59203152D01*
X142527255Y-59203152D02*
X142670112Y-59203152D01*
X142670112Y-59203152D02*
X142765351Y-59250771D01*
X142765351Y-59250771D02*
X142812970Y-59346009D01*
X142812970Y-59346009D02*
X142812970Y-59869819D01*
X143289160Y-59203152D02*
X143289160Y-60203152D01*
X143289160Y-59250771D02*
X143384398Y-59203152D01*
X143384398Y-59203152D02*
X143574874Y-59203152D01*
X143574874Y-59203152D02*
X143670112Y-59250771D01*
X143670112Y-59250771D02*
X143717731Y-59298390D01*
X143717731Y-59298390D02*
X143765350Y-59393628D01*
X143765350Y-59393628D02*
X143765350Y-59679342D01*
X143765350Y-59679342D02*
X143717731Y-59774580D01*
X143717731Y-59774580D02*
X143670112Y-59822200D01*
X143670112Y-59822200D02*
X143574874Y-59869819D01*
X143574874Y-59869819D02*
X143384398Y-59869819D01*
X143384398Y-59869819D02*
X143289160Y-59822200D01*
X144908208Y-59822200D02*
X145051065Y-59869819D01*
X145051065Y-59869819D02*
X145289160Y-59869819D01*
X145289160Y-59869819D02*
X145384398Y-59822200D01*
X145384398Y-59822200D02*
X145432017Y-59774580D01*
X145432017Y-59774580D02*
X145479636Y-59679342D01*
X145479636Y-59679342D02*
X145479636Y-59584104D01*
X145479636Y-59584104D02*
X145432017Y-59488866D01*
X145432017Y-59488866D02*
X145384398Y-59441247D01*
X145384398Y-59441247D02*
X145289160Y-59393628D01*
X145289160Y-59393628D02*
X145098684Y-59346009D01*
X145098684Y-59346009D02*
X145003446Y-59298390D01*
X145003446Y-59298390D02*
X144955827Y-59250771D01*
X144955827Y-59250771D02*
X144908208Y-59155533D01*
X144908208Y-59155533D02*
X144908208Y-59060295D01*
X144908208Y-59060295D02*
X144955827Y-58965057D01*
X144955827Y-58965057D02*
X145003446Y-58917438D01*
X145003446Y-58917438D02*
X145098684Y-58869819D01*
X145098684Y-58869819D02*
X145336779Y-58869819D01*
X145336779Y-58869819D02*
X145479636Y-58917438D01*
X146289160Y-59822200D02*
X146193922Y-59869819D01*
X146193922Y-59869819D02*
X146003446Y-59869819D01*
X146003446Y-59869819D02*
X145908208Y-59822200D01*
X145908208Y-59822200D02*
X145860589Y-59726961D01*
X145860589Y-59726961D02*
X145860589Y-59346009D01*
X145860589Y-59346009D02*
X145908208Y-59250771D01*
X145908208Y-59250771D02*
X146003446Y-59203152D01*
X146003446Y-59203152D02*
X146193922Y-59203152D01*
X146193922Y-59203152D02*
X146289160Y-59250771D01*
X146289160Y-59250771D02*
X146336779Y-59346009D01*
X146336779Y-59346009D02*
X146336779Y-59441247D01*
X146336779Y-59441247D02*
X145860589Y-59536485D01*
X146765351Y-59203152D02*
X146765351Y-59869819D01*
X146765351Y-59298390D02*
X146812970Y-59250771D01*
X146812970Y-59250771D02*
X146908208Y-59203152D01*
X146908208Y-59203152D02*
X147051065Y-59203152D01*
X147051065Y-59203152D02*
X147146303Y-59250771D01*
X147146303Y-59250771D02*
X147193922Y-59346009D01*
X147193922Y-59346009D02*
X147193922Y-59869819D01*
X147622494Y-59822200D02*
X147717732Y-59869819D01*
X147717732Y-59869819D02*
X147908208Y-59869819D01*
X147908208Y-59869819D02*
X148003446Y-59822200D01*
X148003446Y-59822200D02*
X148051065Y-59726961D01*
X148051065Y-59726961D02*
X148051065Y-59679342D01*
X148051065Y-59679342D02*
X148003446Y-59584104D01*
X148003446Y-59584104D02*
X147908208Y-59536485D01*
X147908208Y-59536485D02*
X147765351Y-59536485D01*
X147765351Y-59536485D02*
X147670113Y-59488866D01*
X147670113Y-59488866D02*
X147622494Y-59393628D01*
X147622494Y-59393628D02*
X147622494Y-59346009D01*
X147622494Y-59346009D02*
X147670113Y-59250771D01*
X147670113Y-59250771D02*
X147765351Y-59203152D01*
X147765351Y-59203152D02*
X147908208Y-59203152D01*
X147908208Y-59203152D02*
X148003446Y-59250771D01*
X148622494Y-59869819D02*
X148527256Y-59822200D01*
X148527256Y-59822200D02*
X148479637Y-59774580D01*
X148479637Y-59774580D02*
X148432018Y-59679342D01*
X148432018Y-59679342D02*
X148432018Y-59393628D01*
X148432018Y-59393628D02*
X148479637Y-59298390D01*
X148479637Y-59298390D02*
X148527256Y-59250771D01*
X148527256Y-59250771D02*
X148622494Y-59203152D01*
X148622494Y-59203152D02*
X148765351Y-59203152D01*
X148765351Y-59203152D02*
X148860589Y-59250771D01*
X148860589Y-59250771D02*
X148908208Y-59298390D01*
X148908208Y-59298390D02*
X148955827Y-59393628D01*
X148955827Y-59393628D02*
X148955827Y-59679342D01*
X148955827Y-59679342D02*
X148908208Y-59774580D01*
X148908208Y-59774580D02*
X148860589Y-59822200D01*
X148860589Y-59822200D02*
X148765351Y-59869819D01*
X148765351Y-59869819D02*
X148622494Y-59869819D01*
X149384399Y-59869819D02*
X149384399Y-59203152D01*
X149384399Y-59393628D02*
X149432018Y-59298390D01*
X149432018Y-59298390D02*
X149479637Y-59250771D01*
X149479637Y-59250771D02*
X149574875Y-59203152D01*
X149574875Y-59203152D02*
X149670113Y-59203152D01*
X165452493Y-96329819D02*
X165452493Y-97044104D01*
X165452493Y-97044104D02*
X165404874Y-97186961D01*
X165404874Y-97186961D02*
X165309636Y-97282200D01*
X165309636Y-97282200D02*
X165166779Y-97329819D01*
X165166779Y-97329819D02*
X165071541Y-97329819D01*
X165833446Y-96329819D02*
X166452493Y-96329819D01*
X166452493Y-96329819D02*
X166119160Y-96710771D01*
X166119160Y-96710771D02*
X166262017Y-96710771D01*
X166262017Y-96710771D02*
X166357255Y-96758390D01*
X166357255Y-96758390D02*
X166404874Y-96806009D01*
X166404874Y-96806009D02*
X166452493Y-96901247D01*
X166452493Y-96901247D02*
X166452493Y-97139342D01*
X166452493Y-97139342D02*
X166404874Y-97234580D01*
X166404874Y-97234580D02*
X166357255Y-97282200D01*
X166357255Y-97282200D02*
X166262017Y-97329819D01*
X166262017Y-97329819D02*
X165976303Y-97329819D01*
X165976303Y-97329819D02*
X165881065Y-97282200D01*
X165881065Y-97282200D02*
X165833446Y-97234580D01*
X119622493Y-50869819D02*
X119622493Y-51584104D01*
X119622493Y-51584104D02*
X119574874Y-51726961D01*
X119574874Y-51726961D02*
X119479636Y-51822200D01*
X119479636Y-51822200D02*
X119336779Y-51869819D01*
X119336779Y-51869819D02*
X119241541Y-51869819D01*
X120051065Y-50965057D02*
X120098684Y-50917438D01*
X120098684Y-50917438D02*
X120193922Y-50869819D01*
X120193922Y-50869819D02*
X120432017Y-50869819D01*
X120432017Y-50869819D02*
X120527255Y-50917438D01*
X120527255Y-50917438D02*
X120574874Y-50965057D01*
X120574874Y-50965057D02*
X120622493Y-51060295D01*
X120622493Y-51060295D02*
X120622493Y-51155533D01*
X120622493Y-51155533D02*
X120574874Y-51298390D01*
X120574874Y-51298390D02*
X120003446Y-51869819D01*
X120003446Y-51869819D02*
X120622493Y-51869819D01*
X102131779Y-50369819D02*
X102131779Y-49369819D01*
X102131779Y-49369819D02*
X102465112Y-50084104D01*
X102465112Y-50084104D02*
X102798445Y-49369819D01*
X102798445Y-49369819D02*
X102798445Y-50369819D01*
X103274636Y-50369819D02*
X103274636Y-49369819D01*
X103274636Y-49369819D02*
X103655588Y-49369819D01*
X103655588Y-49369819D02*
X103750826Y-49417438D01*
X103750826Y-49417438D02*
X103798445Y-49465057D01*
X103798445Y-49465057D02*
X103846064Y-49560295D01*
X103846064Y-49560295D02*
X103846064Y-49703152D01*
X103846064Y-49703152D02*
X103798445Y-49798390D01*
X103798445Y-49798390D02*
X103750826Y-49846009D01*
X103750826Y-49846009D02*
X103655588Y-49893628D01*
X103655588Y-49893628D02*
X103274636Y-49893628D01*
X104274636Y-49369819D02*
X104274636Y-50179342D01*
X104274636Y-50179342D02*
X104322255Y-50274580D01*
X104322255Y-50274580D02*
X104369874Y-50322200D01*
X104369874Y-50322200D02*
X104465112Y-50369819D01*
X104465112Y-50369819D02*
X104655588Y-50369819D01*
X104655588Y-50369819D02*
X104750826Y-50322200D01*
X104750826Y-50322200D02*
X104798445Y-50274580D01*
X104798445Y-50274580D02*
X104846064Y-50179342D01*
X104846064Y-50179342D02*
X104846064Y-49369819D01*
X106512731Y-49369819D02*
X106322255Y-49369819D01*
X106322255Y-49369819D02*
X106227017Y-49417438D01*
X106227017Y-49417438D02*
X106179398Y-49465057D01*
X106179398Y-49465057D02*
X106084160Y-49607914D01*
X106084160Y-49607914D02*
X106036541Y-49798390D01*
X106036541Y-49798390D02*
X106036541Y-50179342D01*
X106036541Y-50179342D02*
X106084160Y-50274580D01*
X106084160Y-50274580D02*
X106131779Y-50322200D01*
X106131779Y-50322200D02*
X106227017Y-50369819D01*
X106227017Y-50369819D02*
X106417493Y-50369819D01*
X106417493Y-50369819D02*
X106512731Y-50322200D01*
X106512731Y-50322200D02*
X106560350Y-50274580D01*
X106560350Y-50274580D02*
X106607969Y-50179342D01*
X106607969Y-50179342D02*
X106607969Y-49941247D01*
X106607969Y-49941247D02*
X106560350Y-49846009D01*
X106560350Y-49846009D02*
X106512731Y-49798390D01*
X106512731Y-49798390D02*
X106417493Y-49750771D01*
X106417493Y-49750771D02*
X106227017Y-49750771D01*
X106227017Y-49750771D02*
X106131779Y-49798390D01*
X106131779Y-49798390D02*
X106084160Y-49846009D01*
X106084160Y-49846009D02*
X106036541Y-49941247D01*
X107227017Y-49369819D02*
X107322255Y-49369819D01*
X107322255Y-49369819D02*
X107417493Y-49417438D01*
X107417493Y-49417438D02*
X107465112Y-49465057D01*
X107465112Y-49465057D02*
X107512731Y-49560295D01*
X107512731Y-49560295D02*
X107560350Y-49750771D01*
X107560350Y-49750771D02*
X107560350Y-49988866D01*
X107560350Y-49988866D02*
X107512731Y-50179342D01*
X107512731Y-50179342D02*
X107465112Y-50274580D01*
X107465112Y-50274580D02*
X107417493Y-50322200D01*
X107417493Y-50322200D02*
X107322255Y-50369819D01*
X107322255Y-50369819D02*
X107227017Y-50369819D01*
X107227017Y-50369819D02*
X107131779Y-50322200D01*
X107131779Y-50322200D02*
X107084160Y-50274580D01*
X107084160Y-50274580D02*
X107036541Y-50179342D01*
X107036541Y-50179342D02*
X106988922Y-49988866D01*
X106988922Y-49988866D02*
X106988922Y-49750771D01*
X106988922Y-49750771D02*
X107036541Y-49560295D01*
X107036541Y-49560295D02*
X107084160Y-49465057D01*
X107084160Y-49465057D02*
X107131779Y-49417438D01*
X107131779Y-49417438D02*
X107227017Y-49369819D01*
X108465112Y-49369819D02*
X107988922Y-49369819D01*
X107988922Y-49369819D02*
X107941303Y-49846009D01*
X107941303Y-49846009D02*
X107988922Y-49798390D01*
X107988922Y-49798390D02*
X108084160Y-49750771D01*
X108084160Y-49750771D02*
X108322255Y-49750771D01*
X108322255Y-49750771D02*
X108417493Y-49798390D01*
X108417493Y-49798390D02*
X108465112Y-49846009D01*
X108465112Y-49846009D02*
X108512731Y-49941247D01*
X108512731Y-49941247D02*
X108512731Y-50179342D01*
X108512731Y-50179342D02*
X108465112Y-50274580D01*
X108465112Y-50274580D02*
X108417493Y-50322200D01*
X108417493Y-50322200D02*
X108322255Y-50369819D01*
X108322255Y-50369819D02*
X108084160Y-50369819D01*
X108084160Y-50369819D02*
X107988922Y-50322200D01*
X107988922Y-50322200D02*
X107941303Y-50274580D01*
X109131779Y-49369819D02*
X109227017Y-49369819D01*
X109227017Y-49369819D02*
X109322255Y-49417438D01*
X109322255Y-49417438D02*
X109369874Y-49465057D01*
X109369874Y-49465057D02*
X109417493Y-49560295D01*
X109417493Y-49560295D02*
X109465112Y-49750771D01*
X109465112Y-49750771D02*
X109465112Y-49988866D01*
X109465112Y-49988866D02*
X109417493Y-50179342D01*
X109417493Y-50179342D02*
X109369874Y-50274580D01*
X109369874Y-50274580D02*
X109322255Y-50322200D01*
X109322255Y-50322200D02*
X109227017Y-50369819D01*
X109227017Y-50369819D02*
X109131779Y-50369819D01*
X109131779Y-50369819D02*
X109036541Y-50322200D01*
X109036541Y-50322200D02*
X108988922Y-50274580D01*
X108988922Y-50274580D02*
X108941303Y-50179342D01*
X108941303Y-50179342D02*
X108893684Y-49988866D01*
X108893684Y-49988866D02*
X108893684Y-49750771D01*
X108893684Y-49750771D02*
X108941303Y-49560295D01*
X108941303Y-49560295D02*
X108988922Y-49465057D01*
X108988922Y-49465057D02*
X109036541Y-49417438D01*
X109036541Y-49417438D02*
X109131779Y-49369819D01*
X156670112Y-69346009D02*
X156812969Y-69393628D01*
X156812969Y-69393628D02*
X156860588Y-69441247D01*
X156860588Y-69441247D02*
X156908207Y-69536485D01*
X156908207Y-69536485D02*
X156908207Y-69679342D01*
X156908207Y-69679342D02*
X156860588Y-69774580D01*
X156860588Y-69774580D02*
X156812969Y-69822200D01*
X156812969Y-69822200D02*
X156717731Y-69869819D01*
X156717731Y-69869819D02*
X156336779Y-69869819D01*
X156336779Y-69869819D02*
X156336779Y-68869819D01*
X156336779Y-68869819D02*
X156670112Y-68869819D01*
X156670112Y-68869819D02*
X156765350Y-68917438D01*
X156765350Y-68917438D02*
X156812969Y-68965057D01*
X156812969Y-68965057D02*
X156860588Y-69060295D01*
X156860588Y-69060295D02*
X156860588Y-69155533D01*
X156860588Y-69155533D02*
X156812969Y-69250771D01*
X156812969Y-69250771D02*
X156765350Y-69298390D01*
X156765350Y-69298390D02*
X156670112Y-69346009D01*
X156670112Y-69346009D02*
X156336779Y-69346009D01*
X157765350Y-69203152D02*
X157765350Y-69869819D01*
X157336779Y-69203152D02*
X157336779Y-69726961D01*
X157336779Y-69726961D02*
X157384398Y-69822200D01*
X157384398Y-69822200D02*
X157479636Y-69869819D01*
X157479636Y-69869819D02*
X157622493Y-69869819D01*
X157622493Y-69869819D02*
X157717731Y-69822200D01*
X157717731Y-69822200D02*
X157765350Y-69774580D01*
X158098684Y-69203152D02*
X158479636Y-69203152D01*
X158241541Y-68869819D02*
X158241541Y-69726961D01*
X158241541Y-69726961D02*
X158289160Y-69822200D01*
X158289160Y-69822200D02*
X158384398Y-69869819D01*
X158384398Y-69869819D02*
X158479636Y-69869819D01*
X158670113Y-69203152D02*
X159051065Y-69203152D01*
X158812970Y-68869819D02*
X158812970Y-69726961D01*
X158812970Y-69726961D02*
X158860589Y-69822200D01*
X158860589Y-69822200D02*
X158955827Y-69869819D01*
X158955827Y-69869819D02*
X159051065Y-69869819D01*
X159527256Y-69869819D02*
X159432018Y-69822200D01*
X159432018Y-69822200D02*
X159384399Y-69774580D01*
X159384399Y-69774580D02*
X159336780Y-69679342D01*
X159336780Y-69679342D02*
X159336780Y-69393628D01*
X159336780Y-69393628D02*
X159384399Y-69298390D01*
X159384399Y-69298390D02*
X159432018Y-69250771D01*
X159432018Y-69250771D02*
X159527256Y-69203152D01*
X159527256Y-69203152D02*
X159670113Y-69203152D01*
X159670113Y-69203152D02*
X159765351Y-69250771D01*
X159765351Y-69250771D02*
X159812970Y-69298390D01*
X159812970Y-69298390D02*
X159860589Y-69393628D01*
X159860589Y-69393628D02*
X159860589Y-69679342D01*
X159860589Y-69679342D02*
X159812970Y-69774580D01*
X159812970Y-69774580D02*
X159765351Y-69822200D01*
X159765351Y-69822200D02*
X159670113Y-69869819D01*
X159670113Y-69869819D02*
X159527256Y-69869819D01*
X160289161Y-69203152D02*
X160289161Y-69869819D01*
X160289161Y-69298390D02*
X160336780Y-69250771D01*
X160336780Y-69250771D02*
X160432018Y-69203152D01*
X160432018Y-69203152D02*
X160574875Y-69203152D01*
X160574875Y-69203152D02*
X160670113Y-69250771D01*
X160670113Y-69250771D02*
X160717732Y-69346009D01*
X160717732Y-69346009D02*
X160717732Y-69869819D01*
X162146304Y-68869819D02*
X162336780Y-68869819D01*
X162336780Y-68869819D02*
X162432018Y-68917438D01*
X162432018Y-68917438D02*
X162527256Y-69012676D01*
X162527256Y-69012676D02*
X162574875Y-69203152D01*
X162574875Y-69203152D02*
X162574875Y-69536485D01*
X162574875Y-69536485D02*
X162527256Y-69726961D01*
X162527256Y-69726961D02*
X162432018Y-69822200D01*
X162432018Y-69822200D02*
X162336780Y-69869819D01*
X162336780Y-69869819D02*
X162146304Y-69869819D01*
X162146304Y-69869819D02*
X162051066Y-69822200D01*
X162051066Y-69822200D02*
X161955828Y-69726961D01*
X161955828Y-69726961D02*
X161908209Y-69536485D01*
X161908209Y-69536485D02*
X161908209Y-69203152D01*
X161908209Y-69203152D02*
X161955828Y-69012676D01*
X161955828Y-69012676D02*
X162051066Y-68917438D01*
X162051066Y-68917438D02*
X162146304Y-68869819D01*
X163003447Y-69869819D02*
X163003447Y-68869819D01*
X163003447Y-68869819D02*
X163574875Y-69869819D01*
X163574875Y-69869819D02*
X163574875Y-68869819D01*
X164765351Y-68822200D02*
X163908209Y-70107914D01*
X165289161Y-68869819D02*
X165479637Y-68869819D01*
X165479637Y-68869819D02*
X165574875Y-68917438D01*
X165574875Y-68917438D02*
X165670113Y-69012676D01*
X165670113Y-69012676D02*
X165717732Y-69203152D01*
X165717732Y-69203152D02*
X165717732Y-69536485D01*
X165717732Y-69536485D02*
X165670113Y-69726961D01*
X165670113Y-69726961D02*
X165574875Y-69822200D01*
X165574875Y-69822200D02*
X165479637Y-69869819D01*
X165479637Y-69869819D02*
X165289161Y-69869819D01*
X165289161Y-69869819D02*
X165193923Y-69822200D01*
X165193923Y-69822200D02*
X165098685Y-69726961D01*
X165098685Y-69726961D02*
X165051066Y-69536485D01*
X165051066Y-69536485D02*
X165051066Y-69203152D01*
X165051066Y-69203152D02*
X165098685Y-69012676D01*
X165098685Y-69012676D02*
X165193923Y-68917438D01*
X165193923Y-68917438D02*
X165289161Y-68869819D01*
X166479637Y-69346009D02*
X166146304Y-69346009D01*
X166146304Y-69869819D02*
X166146304Y-68869819D01*
X166146304Y-68869819D02*
X166622494Y-68869819D01*
X167336780Y-69346009D02*
X167003447Y-69346009D01*
X167003447Y-69869819D02*
X167003447Y-68869819D01*
X167003447Y-68869819D02*
X167479637Y-68869819D01*
X124622493Y-96869819D02*
X124622493Y-97584104D01*
X124622493Y-97584104D02*
X124574874Y-97726961D01*
X124574874Y-97726961D02*
X124479636Y-97822200D01*
X124479636Y-97822200D02*
X124336779Y-97869819D01*
X124336779Y-97869819D02*
X124241541Y-97869819D01*
X125622493Y-97869819D02*
X125051065Y-97869819D01*
X125336779Y-97869819D02*
X125336779Y-96869819D01*
X125336779Y-96869819D02*
X125241541Y-97012676D01*
X125241541Y-97012676D02*
X125146303Y-97107914D01*
X125146303Y-97107914D02*
X125051065Y-97155533D01*
X163622493Y-50869819D02*
X163622493Y-51584104D01*
X163622493Y-51584104D02*
X163574874Y-51726961D01*
X163574874Y-51726961D02*
X163479636Y-51822200D01*
X163479636Y-51822200D02*
X163336779Y-51869819D01*
X163336779Y-51869819D02*
X163241541Y-51869819D01*
X164527255Y-51203152D02*
X164527255Y-51869819D01*
X164289160Y-50822200D02*
X164051065Y-51536485D01*
X164051065Y-51536485D02*
X164670112Y-51536485D01*
X146812969Y-92869819D02*
X146336779Y-92869819D01*
X146336779Y-92869819D02*
X146336779Y-91869819D01*
X147289160Y-92869819D02*
X147193922Y-92822200D01*
X147193922Y-92822200D02*
X147146303Y-92774580D01*
X147146303Y-92774580D02*
X147098684Y-92679342D01*
X147098684Y-92679342D02*
X147098684Y-92393628D01*
X147098684Y-92393628D02*
X147146303Y-92298390D01*
X147146303Y-92298390D02*
X147193922Y-92250771D01*
X147193922Y-92250771D02*
X147289160Y-92203152D01*
X147289160Y-92203152D02*
X147432017Y-92203152D01*
X147432017Y-92203152D02*
X147527255Y-92250771D01*
X147527255Y-92250771D02*
X147574874Y-92298390D01*
X147574874Y-92298390D02*
X147622493Y-92393628D01*
X147622493Y-92393628D02*
X147622493Y-92679342D01*
X147622493Y-92679342D02*
X147574874Y-92774580D01*
X147574874Y-92774580D02*
X147527255Y-92822200D01*
X147527255Y-92822200D02*
X147432017Y-92869819D01*
X147432017Y-92869819D02*
X147289160Y-92869819D01*
X148479636Y-92822200D02*
X148384398Y-92869819D01*
X148384398Y-92869819D02*
X148193922Y-92869819D01*
X148193922Y-92869819D02*
X148098684Y-92822200D01*
X148098684Y-92822200D02*
X148051065Y-92774580D01*
X148051065Y-92774580D02*
X148003446Y-92679342D01*
X148003446Y-92679342D02*
X148003446Y-92393628D01*
X148003446Y-92393628D02*
X148051065Y-92298390D01*
X148051065Y-92298390D02*
X148098684Y-92250771D01*
X148098684Y-92250771D02*
X148193922Y-92203152D01*
X148193922Y-92203152D02*
X148384398Y-92203152D01*
X148384398Y-92203152D02*
X148479636Y-92250771D01*
X148908208Y-92869819D02*
X148908208Y-91869819D01*
X149003446Y-92488866D02*
X149289160Y-92869819D01*
X149289160Y-92203152D02*
X148908208Y-92584104D01*
X150812970Y-92346009D02*
X150955827Y-92393628D01*
X150955827Y-92393628D02*
X151003446Y-92441247D01*
X151003446Y-92441247D02*
X151051065Y-92536485D01*
X151051065Y-92536485D02*
X151051065Y-92679342D01*
X151051065Y-92679342D02*
X151003446Y-92774580D01*
X151003446Y-92774580D02*
X150955827Y-92822200D01*
X150955827Y-92822200D02*
X150860589Y-92869819D01*
X150860589Y-92869819D02*
X150479637Y-92869819D01*
X150479637Y-92869819D02*
X150479637Y-91869819D01*
X150479637Y-91869819D02*
X150812970Y-91869819D01*
X150812970Y-91869819D02*
X150908208Y-91917438D01*
X150908208Y-91917438D02*
X150955827Y-91965057D01*
X150955827Y-91965057D02*
X151003446Y-92060295D01*
X151003446Y-92060295D02*
X151003446Y-92155533D01*
X151003446Y-92155533D02*
X150955827Y-92250771D01*
X150955827Y-92250771D02*
X150908208Y-92298390D01*
X150908208Y-92298390D02*
X150812970Y-92346009D01*
X150812970Y-92346009D02*
X150479637Y-92346009D01*
X151908208Y-92203152D02*
X151908208Y-92869819D01*
X151479637Y-92203152D02*
X151479637Y-92726961D01*
X151479637Y-92726961D02*
X151527256Y-92822200D01*
X151527256Y-92822200D02*
X151622494Y-92869819D01*
X151622494Y-92869819D02*
X151765351Y-92869819D01*
X151765351Y-92869819D02*
X151860589Y-92822200D01*
X151860589Y-92822200D02*
X151908208Y-92774580D01*
X152241542Y-92203152D02*
X152622494Y-92203152D01*
X152384399Y-91869819D02*
X152384399Y-92726961D01*
X152384399Y-92726961D02*
X152432018Y-92822200D01*
X152432018Y-92822200D02*
X152527256Y-92869819D01*
X152527256Y-92869819D02*
X152622494Y-92869819D01*
X152812971Y-92203152D02*
X153193923Y-92203152D01*
X152955828Y-91869819D02*
X152955828Y-92726961D01*
X152955828Y-92726961D02*
X153003447Y-92822200D01*
X153003447Y-92822200D02*
X153098685Y-92869819D01*
X153098685Y-92869819D02*
X153193923Y-92869819D01*
X153670114Y-92869819D02*
X153574876Y-92822200D01*
X153574876Y-92822200D02*
X153527257Y-92774580D01*
X153527257Y-92774580D02*
X153479638Y-92679342D01*
X153479638Y-92679342D02*
X153479638Y-92393628D01*
X153479638Y-92393628D02*
X153527257Y-92298390D01*
X153527257Y-92298390D02*
X153574876Y-92250771D01*
X153574876Y-92250771D02*
X153670114Y-92203152D01*
X153670114Y-92203152D02*
X153812971Y-92203152D01*
X153812971Y-92203152D02*
X153908209Y-92250771D01*
X153908209Y-92250771D02*
X153955828Y-92298390D01*
X153955828Y-92298390D02*
X154003447Y-92393628D01*
X154003447Y-92393628D02*
X154003447Y-92679342D01*
X154003447Y-92679342D02*
X153955828Y-92774580D01*
X153955828Y-92774580D02*
X153908209Y-92822200D01*
X153908209Y-92822200D02*
X153812971Y-92869819D01*
X153812971Y-92869819D02*
X153670114Y-92869819D01*
X154432019Y-92203152D02*
X154432019Y-92869819D01*
X154432019Y-92298390D02*
X154479638Y-92250771D01*
X154479638Y-92250771D02*
X154574876Y-92203152D01*
X154574876Y-92203152D02*
X154717733Y-92203152D01*
X154717733Y-92203152D02*
X154812971Y-92250771D01*
X154812971Y-92250771D02*
X154860590Y-92346009D01*
X154860590Y-92346009D02*
X154860590Y-92869819D01*
X135812969Y-78869819D02*
X135336779Y-78869819D01*
X135336779Y-78869819D02*
X135336779Y-77869819D01*
X136146303Y-78869819D02*
X136146303Y-78203152D01*
X136146303Y-77869819D02*
X136098684Y-77917438D01*
X136098684Y-77917438D02*
X136146303Y-77965057D01*
X136146303Y-77965057D02*
X136193922Y-77917438D01*
X136193922Y-77917438D02*
X136146303Y-77869819D01*
X136146303Y-77869819D02*
X136146303Y-77965057D01*
X137051064Y-78203152D02*
X137051064Y-79012676D01*
X137051064Y-79012676D02*
X137003445Y-79107914D01*
X137003445Y-79107914D02*
X136955826Y-79155533D01*
X136955826Y-79155533D02*
X136860588Y-79203152D01*
X136860588Y-79203152D02*
X136717731Y-79203152D01*
X136717731Y-79203152D02*
X136622493Y-79155533D01*
X137051064Y-78822200D02*
X136955826Y-78869819D01*
X136955826Y-78869819D02*
X136765350Y-78869819D01*
X136765350Y-78869819D02*
X136670112Y-78822200D01*
X136670112Y-78822200D02*
X136622493Y-78774580D01*
X136622493Y-78774580D02*
X136574874Y-78679342D01*
X136574874Y-78679342D02*
X136574874Y-78393628D01*
X136574874Y-78393628D02*
X136622493Y-78298390D01*
X136622493Y-78298390D02*
X136670112Y-78250771D01*
X136670112Y-78250771D02*
X136765350Y-78203152D01*
X136765350Y-78203152D02*
X136955826Y-78203152D01*
X136955826Y-78203152D02*
X137051064Y-78250771D01*
X137527255Y-78869819D02*
X137527255Y-77869819D01*
X137955826Y-78869819D02*
X137955826Y-78346009D01*
X137955826Y-78346009D02*
X137908207Y-78250771D01*
X137908207Y-78250771D02*
X137812969Y-78203152D01*
X137812969Y-78203152D02*
X137670112Y-78203152D01*
X137670112Y-78203152D02*
X137574874Y-78250771D01*
X137574874Y-78250771D02*
X137527255Y-78298390D01*
X138289160Y-78203152D02*
X138670112Y-78203152D01*
X138432017Y-77869819D02*
X138432017Y-78726961D01*
X138432017Y-78726961D02*
X138479636Y-78822200D01*
X138479636Y-78822200D02*
X138574874Y-78869819D01*
X138574874Y-78869819D02*
X138670112Y-78869819D01*
X140098684Y-78346009D02*
X140241541Y-78393628D01*
X140241541Y-78393628D02*
X140289160Y-78441247D01*
X140289160Y-78441247D02*
X140336779Y-78536485D01*
X140336779Y-78536485D02*
X140336779Y-78679342D01*
X140336779Y-78679342D02*
X140289160Y-78774580D01*
X140289160Y-78774580D02*
X140241541Y-78822200D01*
X140241541Y-78822200D02*
X140146303Y-78869819D01*
X140146303Y-78869819D02*
X139765351Y-78869819D01*
X139765351Y-78869819D02*
X139765351Y-77869819D01*
X139765351Y-77869819D02*
X140098684Y-77869819D01*
X140098684Y-77869819D02*
X140193922Y-77917438D01*
X140193922Y-77917438D02*
X140241541Y-77965057D01*
X140241541Y-77965057D02*
X140289160Y-78060295D01*
X140289160Y-78060295D02*
X140289160Y-78155533D01*
X140289160Y-78155533D02*
X140241541Y-78250771D01*
X140241541Y-78250771D02*
X140193922Y-78298390D01*
X140193922Y-78298390D02*
X140098684Y-78346009D01*
X140098684Y-78346009D02*
X139765351Y-78346009D01*
X141193922Y-78203152D02*
X141193922Y-78869819D01*
X140765351Y-78203152D02*
X140765351Y-78726961D01*
X140765351Y-78726961D02*
X140812970Y-78822200D01*
X140812970Y-78822200D02*
X140908208Y-78869819D01*
X140908208Y-78869819D02*
X141051065Y-78869819D01*
X141051065Y-78869819D02*
X141146303Y-78822200D01*
X141146303Y-78822200D02*
X141193922Y-78774580D01*
X141527256Y-78203152D02*
X141908208Y-78203152D01*
X141670113Y-77869819D02*
X141670113Y-78726961D01*
X141670113Y-78726961D02*
X141717732Y-78822200D01*
X141717732Y-78822200D02*
X141812970Y-78869819D01*
X141812970Y-78869819D02*
X141908208Y-78869819D01*
X142098685Y-78203152D02*
X142479637Y-78203152D01*
X142241542Y-77869819D02*
X142241542Y-78726961D01*
X142241542Y-78726961D02*
X142289161Y-78822200D01*
X142289161Y-78822200D02*
X142384399Y-78869819D01*
X142384399Y-78869819D02*
X142479637Y-78869819D01*
X142955828Y-78869819D02*
X142860590Y-78822200D01*
X142860590Y-78822200D02*
X142812971Y-78774580D01*
X142812971Y-78774580D02*
X142765352Y-78679342D01*
X142765352Y-78679342D02*
X142765352Y-78393628D01*
X142765352Y-78393628D02*
X142812971Y-78298390D01*
X142812971Y-78298390D02*
X142860590Y-78250771D01*
X142860590Y-78250771D02*
X142955828Y-78203152D01*
X142955828Y-78203152D02*
X143098685Y-78203152D01*
X143098685Y-78203152D02*
X143193923Y-78250771D01*
X143193923Y-78250771D02*
X143241542Y-78298390D01*
X143241542Y-78298390D02*
X143289161Y-78393628D01*
X143289161Y-78393628D02*
X143289161Y-78679342D01*
X143289161Y-78679342D02*
X143241542Y-78774580D01*
X143241542Y-78774580D02*
X143193923Y-78822200D01*
X143193923Y-78822200D02*
X143098685Y-78869819D01*
X143098685Y-78869819D02*
X142955828Y-78869819D01*
X143717733Y-78203152D02*
X143717733Y-78869819D01*
X143717733Y-78298390D02*
X143765352Y-78250771D01*
X143765352Y-78250771D02*
X143860590Y-78203152D01*
X143860590Y-78203152D02*
X144003447Y-78203152D01*
X144003447Y-78203152D02*
X144098685Y-78250771D01*
X144098685Y-78250771D02*
X144146304Y-78346009D01*
X144146304Y-78346009D02*
X144146304Y-78869819D01*
X160833333Y-62454819D02*
X160500000Y-61978628D01*
X160261905Y-62454819D02*
X160261905Y-61454819D01*
X160261905Y-61454819D02*
X160642857Y-61454819D01*
X160642857Y-61454819D02*
X160738095Y-61502438D01*
X160738095Y-61502438D02*
X160785714Y-61550057D01*
X160785714Y-61550057D02*
X160833333Y-61645295D01*
X160833333Y-61645295D02*
X160833333Y-61788152D01*
X160833333Y-61788152D02*
X160785714Y-61883390D01*
X160785714Y-61883390D02*
X160738095Y-61931009D01*
X160738095Y-61931009D02*
X160642857Y-61978628D01*
X160642857Y-61978628D02*
X160261905Y-61978628D01*
X161214286Y-61550057D02*
X161261905Y-61502438D01*
X161261905Y-61502438D02*
X161357143Y-61454819D01*
X161357143Y-61454819D02*
X161595238Y-61454819D01*
X161595238Y-61454819D02*
X161690476Y-61502438D01*
X161690476Y-61502438D02*
X161738095Y-61550057D01*
X161738095Y-61550057D02*
X161785714Y-61645295D01*
X161785714Y-61645295D02*
X161785714Y-61740533D01*
X161785714Y-61740533D02*
X161738095Y-61883390D01*
X161738095Y-61883390D02*
X161166667Y-62454819D01*
X161166667Y-62454819D02*
X161785714Y-62454819D01*
X129753333Y-54454819D02*
X129420000Y-53978628D01*
X129181905Y-54454819D02*
X129181905Y-53454819D01*
X129181905Y-53454819D02*
X129562857Y-53454819D01*
X129562857Y-53454819D02*
X129658095Y-53502438D01*
X129658095Y-53502438D02*
X129705714Y-53550057D01*
X129705714Y-53550057D02*
X129753333Y-53645295D01*
X129753333Y-53645295D02*
X129753333Y-53788152D01*
X129753333Y-53788152D02*
X129705714Y-53883390D01*
X129705714Y-53883390D02*
X129658095Y-53931009D01*
X129658095Y-53931009D02*
X129562857Y-53978628D01*
X129562857Y-53978628D02*
X129181905Y-53978628D01*
X130705714Y-54454819D02*
X130134286Y-54454819D01*
X130420000Y-54454819D02*
X130420000Y-53454819D01*
X130420000Y-53454819D02*
X130324762Y-53597676D01*
X130324762Y-53597676D02*
X130229524Y-53692914D01*
X130229524Y-53692914D02*
X130134286Y-53740533D01*
X123099819Y-64833333D02*
X123814104Y-64833333D01*
X123814104Y-64833333D02*
X123956961Y-64880952D01*
X123956961Y-64880952D02*
X124052200Y-64976190D01*
X124052200Y-64976190D02*
X124099819Y-65119047D01*
X124099819Y-65119047D02*
X124099819Y-65214285D01*
X123099819Y-63880952D02*
X123099819Y-64357142D01*
X123099819Y-64357142D02*
X123576009Y-64404761D01*
X123576009Y-64404761D02*
X123528390Y-64357142D01*
X123528390Y-64357142D02*
X123480771Y-64261904D01*
X123480771Y-64261904D02*
X123480771Y-64023809D01*
X123480771Y-64023809D02*
X123528390Y-63928571D01*
X123528390Y-63928571D02*
X123576009Y-63880952D01*
X123576009Y-63880952D02*
X123671247Y-63833333D01*
X123671247Y-63833333D02*
X123909342Y-63833333D01*
X123909342Y-63833333D02*
X124004580Y-63880952D01*
X124004580Y-63880952D02*
X124052200Y-63928571D01*
X124052200Y-63928571D02*
X124099819Y-64023809D01*
X124099819Y-64023809D02*
X124099819Y-64261904D01*
X124099819Y-64261904D02*
X124052200Y-64357142D01*
X124052200Y-64357142D02*
X124004580Y-64404761D01*
X137213333Y-67454819D02*
X136880000Y-66978628D01*
X136641905Y-67454819D02*
X136641905Y-66454819D01*
X136641905Y-66454819D02*
X137022857Y-66454819D01*
X137022857Y-66454819D02*
X137118095Y-66502438D01*
X137118095Y-66502438D02*
X137165714Y-66550057D01*
X137165714Y-66550057D02*
X137213333Y-66645295D01*
X137213333Y-66645295D02*
X137213333Y-66788152D01*
X137213333Y-66788152D02*
X137165714Y-66883390D01*
X137165714Y-66883390D02*
X137118095Y-66931009D01*
X137118095Y-66931009D02*
X137022857Y-66978628D01*
X137022857Y-66978628D02*
X136641905Y-66978628D01*
X138070476Y-66454819D02*
X137880000Y-66454819D01*
X137880000Y-66454819D02*
X137784762Y-66502438D01*
X137784762Y-66502438D02*
X137737143Y-66550057D01*
X137737143Y-66550057D02*
X137641905Y-66692914D01*
X137641905Y-66692914D02*
X137594286Y-66883390D01*
X137594286Y-66883390D02*
X137594286Y-67264342D01*
X137594286Y-67264342D02*
X137641905Y-67359580D01*
X137641905Y-67359580D02*
X137689524Y-67407200D01*
X137689524Y-67407200D02*
X137784762Y-67454819D01*
X137784762Y-67454819D02*
X137975238Y-67454819D01*
X137975238Y-67454819D02*
X138070476Y-67407200D01*
X138070476Y-67407200D02*
X138118095Y-67359580D01*
X138118095Y-67359580D02*
X138165714Y-67264342D01*
X138165714Y-67264342D02*
X138165714Y-67026247D01*
X138165714Y-67026247D02*
X138118095Y-66931009D01*
X138118095Y-66931009D02*
X138070476Y-66883390D01*
X138070476Y-66883390D02*
X137975238Y-66835771D01*
X137975238Y-66835771D02*
X137784762Y-66835771D01*
X137784762Y-66835771D02*
X137689524Y-66883390D01*
X137689524Y-66883390D02*
X137641905Y-66931009D01*
X137641905Y-66931009D02*
X137594286Y-67026247D01*
X137666667Y-74407200D02*
X137809524Y-74454819D01*
X137809524Y-74454819D02*
X138047619Y-74454819D01*
X138047619Y-74454819D02*
X138142857Y-74407200D01*
X138142857Y-74407200D02*
X138190476Y-74359580D01*
X138190476Y-74359580D02*
X138238095Y-74264342D01*
X138238095Y-74264342D02*
X138238095Y-74169104D01*
X138238095Y-74169104D02*
X138190476Y-74073866D01*
X138190476Y-74073866D02*
X138142857Y-74026247D01*
X138142857Y-74026247D02*
X138047619Y-73978628D01*
X138047619Y-73978628D02*
X137857143Y-73931009D01*
X137857143Y-73931009D02*
X137761905Y-73883390D01*
X137761905Y-73883390D02*
X137714286Y-73835771D01*
X137714286Y-73835771D02*
X137666667Y-73740533D01*
X137666667Y-73740533D02*
X137666667Y-73645295D01*
X137666667Y-73645295D02*
X137714286Y-73550057D01*
X137714286Y-73550057D02*
X137761905Y-73502438D01*
X137761905Y-73502438D02*
X137857143Y-73454819D01*
X137857143Y-73454819D02*
X138095238Y-73454819D01*
X138095238Y-73454819D02*
X138238095Y-73502438D01*
X138571429Y-73454819D02*
X138809524Y-74454819D01*
X138809524Y-74454819D02*
X139000000Y-73740533D01*
X139000000Y-73740533D02*
X139190476Y-74454819D01*
X139190476Y-74454819D02*
X139428572Y-73454819D01*
X140285714Y-73454819D02*
X139809524Y-73454819D01*
X139809524Y-73454819D02*
X139761905Y-73931009D01*
X139761905Y-73931009D02*
X139809524Y-73883390D01*
X139809524Y-73883390D02*
X139904762Y-73835771D01*
X139904762Y-73835771D02*
X140142857Y-73835771D01*
X140142857Y-73835771D02*
X140238095Y-73883390D01*
X140238095Y-73883390D02*
X140285714Y-73931009D01*
X140285714Y-73931009D02*
X140333333Y-74026247D01*
X140333333Y-74026247D02*
X140333333Y-74264342D01*
X140333333Y-74264342D02*
X140285714Y-74359580D01*
X140285714Y-74359580D02*
X140238095Y-74407200D01*
X140238095Y-74407200D02*
X140142857Y-74454819D01*
X140142857Y-74454819D02*
X139904762Y-74454819D01*
X139904762Y-74454819D02*
X139809524Y-74407200D01*
X139809524Y-74407200D02*
X139761905Y-74359580D01*
X152913333Y-81454819D02*
X152580000Y-80978628D01*
X152341905Y-81454819D02*
X152341905Y-80454819D01*
X152341905Y-80454819D02*
X152722857Y-80454819D01*
X152722857Y-80454819D02*
X152818095Y-80502438D01*
X152818095Y-80502438D02*
X152865714Y-80550057D01*
X152865714Y-80550057D02*
X152913333Y-80645295D01*
X152913333Y-80645295D02*
X152913333Y-80788152D01*
X152913333Y-80788152D02*
X152865714Y-80883390D01*
X152865714Y-80883390D02*
X152818095Y-80931009D01*
X152818095Y-80931009D02*
X152722857Y-80978628D01*
X152722857Y-80978628D02*
X152341905Y-80978628D01*
X153818095Y-80454819D02*
X153341905Y-80454819D01*
X153341905Y-80454819D02*
X153294286Y-80931009D01*
X153294286Y-80931009D02*
X153341905Y-80883390D01*
X153341905Y-80883390D02*
X153437143Y-80835771D01*
X153437143Y-80835771D02*
X153675238Y-80835771D01*
X153675238Y-80835771D02*
X153770476Y-80883390D01*
X153770476Y-80883390D02*
X153818095Y-80931009D01*
X153818095Y-80931009D02*
X153865714Y-81026247D01*
X153865714Y-81026247D02*
X153865714Y-81264342D01*
X153865714Y-81264342D02*
X153818095Y-81359580D01*
X153818095Y-81359580D02*
X153770476Y-81407200D01*
X153770476Y-81407200D02*
X153675238Y-81454819D01*
X153675238Y-81454819D02*
X153437143Y-81454819D01*
X153437143Y-81454819D02*
X153341905Y-81407200D01*
X153341905Y-81407200D02*
X153294286Y-81359580D01*
X135833333Y-80954819D02*
X135500000Y-80478628D01*
X135261905Y-80954819D02*
X135261905Y-79954819D01*
X135261905Y-79954819D02*
X135642857Y-79954819D01*
X135642857Y-79954819D02*
X135738095Y-80002438D01*
X135738095Y-80002438D02*
X135785714Y-80050057D01*
X135785714Y-80050057D02*
X135833333Y-80145295D01*
X135833333Y-80145295D02*
X135833333Y-80288152D01*
X135833333Y-80288152D02*
X135785714Y-80383390D01*
X135785714Y-80383390D02*
X135738095Y-80431009D01*
X135738095Y-80431009D02*
X135642857Y-80478628D01*
X135642857Y-80478628D02*
X135261905Y-80478628D01*
X136690476Y-80288152D02*
X136690476Y-80954819D01*
X136452381Y-79907200D02*
X136214286Y-80621485D01*
X136214286Y-80621485D02*
X136833333Y-80621485D01*
X150416667Y-74407200D02*
X150559524Y-74454819D01*
X150559524Y-74454819D02*
X150797619Y-74454819D01*
X150797619Y-74454819D02*
X150892857Y-74407200D01*
X150892857Y-74407200D02*
X150940476Y-74359580D01*
X150940476Y-74359580D02*
X150988095Y-74264342D01*
X150988095Y-74264342D02*
X150988095Y-74169104D01*
X150988095Y-74169104D02*
X150940476Y-74073866D01*
X150940476Y-74073866D02*
X150892857Y-74026247D01*
X150892857Y-74026247D02*
X150797619Y-73978628D01*
X150797619Y-73978628D02*
X150607143Y-73931009D01*
X150607143Y-73931009D02*
X150511905Y-73883390D01*
X150511905Y-73883390D02*
X150464286Y-73835771D01*
X150464286Y-73835771D02*
X150416667Y-73740533D01*
X150416667Y-73740533D02*
X150416667Y-73645295D01*
X150416667Y-73645295D02*
X150464286Y-73550057D01*
X150464286Y-73550057D02*
X150511905Y-73502438D01*
X150511905Y-73502438D02*
X150607143Y-73454819D01*
X150607143Y-73454819D02*
X150845238Y-73454819D01*
X150845238Y-73454819D02*
X150988095Y-73502438D01*
X151321429Y-73454819D02*
X151559524Y-74454819D01*
X151559524Y-74454819D02*
X151750000Y-73740533D01*
X151750000Y-73740533D02*
X151940476Y-74454819D01*
X151940476Y-74454819D02*
X152178572Y-73454819D01*
X152511905Y-73550057D02*
X152559524Y-73502438D01*
X152559524Y-73502438D02*
X152654762Y-73454819D01*
X152654762Y-73454819D02*
X152892857Y-73454819D01*
X152892857Y-73454819D02*
X152988095Y-73502438D01*
X152988095Y-73502438D02*
X153035714Y-73550057D01*
X153035714Y-73550057D02*
X153083333Y-73645295D01*
X153083333Y-73645295D02*
X153083333Y-73740533D01*
X153083333Y-73740533D02*
X153035714Y-73883390D01*
X153035714Y-73883390D02*
X152464286Y-74454819D01*
X152464286Y-74454819D02*
X153083333Y-74454819D01*
X106884819Y-69308333D02*
X107599104Y-69308333D01*
X107599104Y-69308333D02*
X107741961Y-69355952D01*
X107741961Y-69355952D02*
X107837200Y-69451190D01*
X107837200Y-69451190D02*
X107884819Y-69594047D01*
X107884819Y-69594047D02*
X107884819Y-69689285D01*
X106884819Y-68403571D02*
X106884819Y-68594047D01*
X106884819Y-68594047D02*
X106932438Y-68689285D01*
X106932438Y-68689285D02*
X106980057Y-68736904D01*
X106980057Y-68736904D02*
X107122914Y-68832142D01*
X107122914Y-68832142D02*
X107313390Y-68879761D01*
X107313390Y-68879761D02*
X107694342Y-68879761D01*
X107694342Y-68879761D02*
X107789580Y-68832142D01*
X107789580Y-68832142D02*
X107837200Y-68784523D01*
X107837200Y-68784523D02*
X107884819Y-68689285D01*
X107884819Y-68689285D02*
X107884819Y-68498809D01*
X107884819Y-68498809D02*
X107837200Y-68403571D01*
X107837200Y-68403571D02*
X107789580Y-68355952D01*
X107789580Y-68355952D02*
X107694342Y-68308333D01*
X107694342Y-68308333D02*
X107456247Y-68308333D01*
X107456247Y-68308333D02*
X107361009Y-68355952D01*
X107361009Y-68355952D02*
X107313390Y-68403571D01*
X107313390Y-68403571D02*
X107265771Y-68498809D01*
X107265771Y-68498809D02*
X107265771Y-68689285D01*
X107265771Y-68689285D02*
X107313390Y-68784523D01*
X107313390Y-68784523D02*
X107361009Y-68832142D01*
X107361009Y-68832142D02*
X107456247Y-68879761D01*
X163339819Y-90595238D02*
X162863628Y-90928571D01*
X163339819Y-91166666D02*
X162339819Y-91166666D01*
X162339819Y-91166666D02*
X162339819Y-90785714D01*
X162339819Y-90785714D02*
X162387438Y-90690476D01*
X162387438Y-90690476D02*
X162435057Y-90642857D01*
X162435057Y-90642857D02*
X162530295Y-90595238D01*
X162530295Y-90595238D02*
X162673152Y-90595238D01*
X162673152Y-90595238D02*
X162768390Y-90642857D01*
X162768390Y-90642857D02*
X162816009Y-90690476D01*
X162816009Y-90690476D02*
X162863628Y-90785714D01*
X162863628Y-90785714D02*
X162863628Y-91166666D01*
X162339819Y-90309523D02*
X163339819Y-89976190D01*
X163339819Y-89976190D02*
X162339819Y-89642857D01*
X163339819Y-88785714D02*
X163339819Y-89357142D01*
X163339819Y-89071428D02*
X162339819Y-89071428D01*
X162339819Y-89071428D02*
X162482676Y-89166666D01*
X162482676Y-89166666D02*
X162577914Y-89261904D01*
X162577914Y-89261904D02*
X162625533Y-89357142D01*
X150833333Y-66954819D02*
X150500000Y-66478628D01*
X150261905Y-66954819D02*
X150261905Y-65954819D01*
X150261905Y-65954819D02*
X150642857Y-65954819D01*
X150642857Y-65954819D02*
X150738095Y-66002438D01*
X150738095Y-66002438D02*
X150785714Y-66050057D01*
X150785714Y-66050057D02*
X150833333Y-66145295D01*
X150833333Y-66145295D02*
X150833333Y-66288152D01*
X150833333Y-66288152D02*
X150785714Y-66383390D01*
X150785714Y-66383390D02*
X150738095Y-66431009D01*
X150738095Y-66431009D02*
X150642857Y-66478628D01*
X150642857Y-66478628D02*
X150261905Y-66478628D01*
X151166667Y-65954819D02*
X151785714Y-65954819D01*
X151785714Y-65954819D02*
X151452381Y-66335771D01*
X151452381Y-66335771D02*
X151595238Y-66335771D01*
X151595238Y-66335771D02*
X151690476Y-66383390D01*
X151690476Y-66383390D02*
X151738095Y-66431009D01*
X151738095Y-66431009D02*
X151785714Y-66526247D01*
X151785714Y-66526247D02*
X151785714Y-66764342D01*
X151785714Y-66764342D02*
X151738095Y-66859580D01*
X151738095Y-66859580D02*
X151690476Y-66907200D01*
X151690476Y-66907200D02*
X151595238Y-66954819D01*
X151595238Y-66954819D02*
X151309524Y-66954819D01*
X151309524Y-66954819D02*
X151214286Y-66907200D01*
X151214286Y-66907200D02*
X151166667Y-66859580D01*
X136666667Y-87407200D02*
X136809524Y-87454819D01*
X136809524Y-87454819D02*
X137047619Y-87454819D01*
X137047619Y-87454819D02*
X137142857Y-87407200D01*
X137142857Y-87407200D02*
X137190476Y-87359580D01*
X137190476Y-87359580D02*
X137238095Y-87264342D01*
X137238095Y-87264342D02*
X137238095Y-87169104D01*
X137238095Y-87169104D02*
X137190476Y-87073866D01*
X137190476Y-87073866D02*
X137142857Y-87026247D01*
X137142857Y-87026247D02*
X137047619Y-86978628D01*
X137047619Y-86978628D02*
X136857143Y-86931009D01*
X136857143Y-86931009D02*
X136761905Y-86883390D01*
X136761905Y-86883390D02*
X136714286Y-86835771D01*
X136714286Y-86835771D02*
X136666667Y-86740533D01*
X136666667Y-86740533D02*
X136666667Y-86645295D01*
X136666667Y-86645295D02*
X136714286Y-86550057D01*
X136714286Y-86550057D02*
X136761905Y-86502438D01*
X136761905Y-86502438D02*
X136857143Y-86454819D01*
X136857143Y-86454819D02*
X137095238Y-86454819D01*
X137095238Y-86454819D02*
X137238095Y-86502438D01*
X137571429Y-86454819D02*
X137809524Y-87454819D01*
X137809524Y-87454819D02*
X138000000Y-86740533D01*
X138000000Y-86740533D02*
X138190476Y-87454819D01*
X138190476Y-87454819D02*
X138428572Y-86454819D01*
X138714286Y-86454819D02*
X139333333Y-86454819D01*
X139333333Y-86454819D02*
X139000000Y-86835771D01*
X139000000Y-86835771D02*
X139142857Y-86835771D01*
X139142857Y-86835771D02*
X139238095Y-86883390D01*
X139238095Y-86883390D02*
X139285714Y-86931009D01*
X139285714Y-86931009D02*
X139333333Y-87026247D01*
X139333333Y-87026247D02*
X139333333Y-87264342D01*
X139333333Y-87264342D02*
X139285714Y-87359580D01*
X139285714Y-87359580D02*
X139238095Y-87407200D01*
X139238095Y-87407200D02*
X139142857Y-87454819D01*
X139142857Y-87454819D02*
X138857143Y-87454819D01*
X138857143Y-87454819D02*
X138761905Y-87407200D01*
X138761905Y-87407200D02*
X138714286Y-87359580D01*
X128531905Y-58454819D02*
X128531905Y-57454819D01*
X128531905Y-57454819D02*
X128770000Y-57454819D01*
X128770000Y-57454819D02*
X128912857Y-57502438D01*
X128912857Y-57502438D02*
X129008095Y-57597676D01*
X129008095Y-57597676D02*
X129055714Y-57692914D01*
X129055714Y-57692914D02*
X129103333Y-57883390D01*
X129103333Y-57883390D02*
X129103333Y-58026247D01*
X129103333Y-58026247D02*
X129055714Y-58216723D01*
X129055714Y-58216723D02*
X129008095Y-58311961D01*
X129008095Y-58311961D02*
X128912857Y-58407200D01*
X128912857Y-58407200D02*
X128770000Y-58454819D01*
X128770000Y-58454819D02*
X128531905Y-58454819D01*
X130055714Y-58454819D02*
X129484286Y-58454819D01*
X129770000Y-58454819D02*
X129770000Y-57454819D01*
X129770000Y-57454819D02*
X129674762Y-57597676D01*
X129674762Y-57597676D02*
X129579524Y-57692914D01*
X129579524Y-57692914D02*
X129484286Y-57740533D01*
X160666667Y-74407200D02*
X160809524Y-74454819D01*
X160809524Y-74454819D02*
X161047619Y-74454819D01*
X161047619Y-74454819D02*
X161142857Y-74407200D01*
X161142857Y-74407200D02*
X161190476Y-74359580D01*
X161190476Y-74359580D02*
X161238095Y-74264342D01*
X161238095Y-74264342D02*
X161238095Y-74169104D01*
X161238095Y-74169104D02*
X161190476Y-74073866D01*
X161190476Y-74073866D02*
X161142857Y-74026247D01*
X161142857Y-74026247D02*
X161047619Y-73978628D01*
X161047619Y-73978628D02*
X160857143Y-73931009D01*
X160857143Y-73931009D02*
X160761905Y-73883390D01*
X160761905Y-73883390D02*
X160714286Y-73835771D01*
X160714286Y-73835771D02*
X160666667Y-73740533D01*
X160666667Y-73740533D02*
X160666667Y-73645295D01*
X160666667Y-73645295D02*
X160714286Y-73550057D01*
X160714286Y-73550057D02*
X160761905Y-73502438D01*
X160761905Y-73502438D02*
X160857143Y-73454819D01*
X160857143Y-73454819D02*
X161095238Y-73454819D01*
X161095238Y-73454819D02*
X161238095Y-73502438D01*
X161571429Y-73454819D02*
X161809524Y-74454819D01*
X161809524Y-74454819D02*
X162000000Y-73740533D01*
X162000000Y-73740533D02*
X162190476Y-74454819D01*
X162190476Y-74454819D02*
X162428572Y-73454819D01*
X163333333Y-74454819D02*
X162761905Y-74454819D01*
X163047619Y-74454819D02*
X163047619Y-73454819D01*
X163047619Y-73454819D02*
X162952381Y-73597676D01*
X162952381Y-73597676D02*
X162857143Y-73692914D01*
X162857143Y-73692914D02*
X162761905Y-73740533D01*
X148666667Y-87407200D02*
X148809524Y-87454819D01*
X148809524Y-87454819D02*
X149047619Y-87454819D01*
X149047619Y-87454819D02*
X149142857Y-87407200D01*
X149142857Y-87407200D02*
X149190476Y-87359580D01*
X149190476Y-87359580D02*
X149238095Y-87264342D01*
X149238095Y-87264342D02*
X149238095Y-87169104D01*
X149238095Y-87169104D02*
X149190476Y-87073866D01*
X149190476Y-87073866D02*
X149142857Y-87026247D01*
X149142857Y-87026247D02*
X149047619Y-86978628D01*
X149047619Y-86978628D02*
X148857143Y-86931009D01*
X148857143Y-86931009D02*
X148761905Y-86883390D01*
X148761905Y-86883390D02*
X148714286Y-86835771D01*
X148714286Y-86835771D02*
X148666667Y-86740533D01*
X148666667Y-86740533D02*
X148666667Y-86645295D01*
X148666667Y-86645295D02*
X148714286Y-86550057D01*
X148714286Y-86550057D02*
X148761905Y-86502438D01*
X148761905Y-86502438D02*
X148857143Y-86454819D01*
X148857143Y-86454819D02*
X149095238Y-86454819D01*
X149095238Y-86454819D02*
X149238095Y-86502438D01*
X149571429Y-86454819D02*
X149809524Y-87454819D01*
X149809524Y-87454819D02*
X150000000Y-86740533D01*
X150000000Y-86740533D02*
X150190476Y-87454819D01*
X150190476Y-87454819D02*
X150428572Y-86454819D01*
X151238095Y-86788152D02*
X151238095Y-87454819D01*
X151000000Y-86407200D02*
X150761905Y-87121485D01*
X150761905Y-87121485D02*
X151380952Y-87121485D01*
X142606666Y-56464819D02*
X142606666Y-57179104D01*
X142606666Y-57179104D02*
X142559047Y-57321961D01*
X142559047Y-57321961D02*
X142463809Y-57417200D01*
X142463809Y-57417200D02*
X142320952Y-57464819D01*
X142320952Y-57464819D02*
X142225714Y-57464819D01*
X142987619Y-56464819D02*
X143654285Y-56464819D01*
X143654285Y-56464819D02*
X143225714Y-57464819D01*
D11*
%TO.C,J1*%
X126610000Y-96130000D02*
X127940000Y-96130000D01*
X126610000Y-97460000D02*
X126610000Y-96130000D01*
X129210000Y-96130000D02*
X147050000Y-96130000D01*
X129210000Y-98790000D02*
X129210000Y-96130000D01*
X129210000Y-98790000D02*
X147050000Y-98790000D01*
X147050000Y-98790000D02*
X147050000Y-96130000D01*
%TO.C,J3*%
X149470000Y-96130000D02*
X150800000Y-96130000D01*
X149470000Y-97460000D02*
X149470000Y-96130000D01*
X152070000Y-96130000D02*
X164830000Y-96130000D01*
X152070000Y-98790000D02*
X152070000Y-96130000D01*
X152070000Y-98790000D02*
X164830000Y-98790000D01*
X164830000Y-98790000D02*
X164830000Y-96130000D01*
%TO.C,J2*%
X116430000Y-47870000D02*
X117760000Y-47870000D01*
X116430000Y-49200000D02*
X116430000Y-47870000D01*
X119030000Y-47870000D02*
X141950000Y-47870000D01*
X119030000Y-50530000D02*
X119030000Y-47870000D01*
X119030000Y-50530000D02*
X141950000Y-50530000D01*
X141950000Y-50530000D02*
X141950000Y-47870000D01*
%TO.C,J4*%
X143590000Y-47870000D02*
X144920000Y-47870000D01*
X143590000Y-49200000D02*
X143590000Y-47870000D01*
X146190000Y-47870000D02*
X164030000Y-47870000D01*
X146190000Y-50530000D02*
X146190000Y-47870000D01*
X146190000Y-50530000D02*
X164030000Y-50530000D01*
X164030000Y-50530000D02*
X164030000Y-47870000D01*
%TO.C,R2*%
X156960000Y-62000000D02*
X157730000Y-62000000D01*
X157730000Y-60630000D02*
X157730000Y-63370000D01*
X157730000Y-63370000D02*
X164270000Y-63370000D01*
X164270000Y-60630000D02*
X157730000Y-60630000D01*
X164270000Y-63370000D02*
X164270000Y-60630000D01*
X165040000Y-62000000D02*
X164270000Y-62000000D01*
%TO.C,R1*%
X125880000Y-54000000D02*
X126650000Y-54000000D01*
X126650000Y-52630000D02*
X126650000Y-55370000D01*
X126650000Y-55370000D02*
X133190000Y-55370000D01*
X133190000Y-52630000D02*
X126650000Y-52630000D01*
X133190000Y-55370000D02*
X133190000Y-52630000D01*
X133960000Y-54000000D02*
X133190000Y-54000000D01*
%TO.C,J5*%
X101765000Y-63170000D02*
X101765000Y-65830000D01*
X119605000Y-63170000D02*
X101765000Y-63170000D01*
X119605000Y-63170000D02*
X119605000Y-65830000D01*
X119605000Y-65830000D02*
X101765000Y-65830000D01*
X122205000Y-64500000D02*
X122205000Y-65830000D01*
X122205000Y-65830000D02*
X120875000Y-65830000D01*
%TO.C,R6*%
X133880000Y-67000000D02*
X134650000Y-67000000D01*
X134650000Y-65630000D02*
X134650000Y-68370000D01*
X134650000Y-68370000D02*
X141190000Y-68370000D01*
X141190000Y-65630000D02*
X134650000Y-65630000D01*
X141190000Y-68370000D02*
X141190000Y-65630000D01*
X141960000Y-67000000D02*
X141190000Y-67000000D01*
D12*
%TO.C,G\u002A\u002A\u002A*%
G36*
X114960000Y-96459534D02*
G01*
X114960000Y-96586450D01*
X114893333Y-96586450D01*
X114826666Y-96586450D01*
X114826666Y-96919958D01*
X114826666Y-97253467D01*
X114526666Y-97253467D01*
X114226666Y-97253467D01*
X114226666Y-96920655D01*
X114226666Y-96587844D01*
X114156666Y-96583812D01*
X114086666Y-96579780D01*
X114086666Y-96459717D01*
X114086666Y-96339654D01*
X114523333Y-96336136D01*
X114960000Y-96332619D01*
X114960000Y-96459534D01*
G37*
G36*
X116866666Y-96459534D02*
G01*
X116866666Y-96586450D01*
X116800000Y-96586450D01*
X116733333Y-96586450D01*
X116733333Y-97399481D01*
X116733333Y-98212513D01*
X116524877Y-98373326D01*
X116316421Y-98534139D01*
X115474877Y-98533486D01*
X114633333Y-98532832D01*
X114430403Y-98376737D01*
X114227474Y-98220641D01*
X114227070Y-97983850D01*
X114226666Y-97747059D01*
X114526666Y-97747059D01*
X114826666Y-97747059D01*
X114826666Y-97905540D01*
X114826666Y-98064022D01*
X114899615Y-98119127D01*
X114972563Y-98174233D01*
X115473982Y-98174913D01*
X115975401Y-98175593D01*
X116047700Y-98120978D01*
X116120000Y-98066363D01*
X116120000Y-97327137D01*
X116120000Y-96587912D01*
X116056666Y-96583846D01*
X115993333Y-96579780D01*
X115993333Y-96459717D01*
X115993333Y-96339654D01*
X116430000Y-96336136D01*
X116866666Y-96332619D01*
X116866666Y-96459534D01*
G37*
G36*
X114250000Y-95479640D02*
G01*
X115366666Y-95480078D01*
X115570090Y-95636389D01*
X115773515Y-95792700D01*
X115770090Y-96579412D01*
X115766666Y-97366123D01*
X115561720Y-97523240D01*
X115356774Y-97680357D01*
X114245053Y-97680357D01*
X113133333Y-97680357D01*
X113133333Y-97553624D01*
X113133333Y-97426891D01*
X113200000Y-97426891D01*
X113266666Y-97426891D01*
X113266666Y-97320168D01*
X113880000Y-97320168D01*
X114450524Y-97320168D01*
X115021049Y-97320168D01*
X115097191Y-97264243D01*
X115173333Y-97208318D01*
X115173333Y-96578819D01*
X115173333Y-95949319D01*
X115096666Y-95891020D01*
X115020000Y-95832721D01*
X114450000Y-95829373D01*
X113880000Y-95826026D01*
X113880000Y-96573097D01*
X113880000Y-97320168D01*
X113266666Y-97320168D01*
X113266666Y-96573109D01*
X113266666Y-96573097D01*
X113266666Y-95719328D01*
X113200000Y-95719328D01*
X113133333Y-95719328D01*
X113133333Y-95599265D01*
X113133333Y-95479202D01*
X114250000Y-95479640D01*
G37*
G36*
X115042616Y-95941258D02*
G01*
X115073195Y-95966736D01*
X115091550Y-95990260D01*
X115093857Y-95997954D01*
X115093979Y-96015500D01*
X115094114Y-96056865D01*
X115094258Y-96119187D01*
X115094404Y-96199605D01*
X115094549Y-96295256D01*
X115094686Y-96403280D01*
X115094813Y-96520814D01*
X115094879Y-96593081D01*
X115095377Y-97166676D01*
X115044355Y-97210254D01*
X115004141Y-97239242D01*
X114969076Y-97250289D01*
X114949543Y-97250314D01*
X114905752Y-97246796D01*
X114905696Y-96966649D01*
X114905697Y-96953309D01*
X114905703Y-96882156D01*
X114905754Y-96806275D01*
X114905843Y-96743218D01*
X114905904Y-96719853D01*
X114960000Y-96719853D01*
X114960000Y-96953309D01*
X114960386Y-97028883D01*
X114961457Y-97094258D01*
X114963082Y-97145167D01*
X114965132Y-97177338D01*
X114967135Y-97186765D01*
X114982265Y-97180200D01*
X115007135Y-97165220D01*
X115019452Y-97156411D01*
X115028229Y-97145876D01*
X115034064Y-97129353D01*
X115037559Y-97102580D01*
X115039313Y-97061294D01*
X115039927Y-97001235D01*
X115040000Y-96931764D01*
X115040000Y-96719853D01*
X115000000Y-96719853D01*
X114960000Y-96719853D01*
X114905904Y-96719853D01*
X114905963Y-96697199D01*
X114906108Y-96672429D01*
X114906153Y-96669827D01*
X114919489Y-96658413D01*
X114958316Y-96653396D01*
X114973333Y-96653151D01*
X115040000Y-96653151D01*
X115040000Y-96459717D01*
X115040000Y-96266282D01*
X114526666Y-96266282D01*
X114013333Y-96266282D01*
X114013333Y-96459717D01*
X114013333Y-96653151D01*
X114080000Y-96653151D01*
X114146666Y-96653151D01*
X114146666Y-96953309D01*
X114146666Y-97253467D01*
X114055555Y-97253467D01*
X114008509Y-97252251D01*
X113972602Y-97249065D01*
X113955577Y-97244595D01*
X113955555Y-97244573D01*
X113953810Y-97229870D01*
X113952178Y-97191062D01*
X113950693Y-97130724D01*
X113949390Y-97051432D01*
X113948303Y-96955760D01*
X113948216Y-96944415D01*
X113947465Y-96846285D01*
X113946910Y-96725580D01*
X113946900Y-96719853D01*
X114000000Y-96719853D01*
X114000000Y-96944415D01*
X114000503Y-97019263D01*
X114001898Y-97084609D01*
X114004008Y-97135868D01*
X114006661Y-97168455D01*
X114008888Y-97177871D01*
X114027538Y-97184388D01*
X114055555Y-97186765D01*
X114093333Y-97186765D01*
X114093333Y-96953309D01*
X114093333Y-96719853D01*
X114046666Y-96719853D01*
X114000000Y-96719853D01*
X113946900Y-96719853D01*
X113946673Y-96596223D01*
X113946666Y-96570886D01*
X113946666Y-96199580D01*
X113998961Y-96199580D01*
X114519480Y-96199580D01*
X115040000Y-96199580D01*
X115040000Y-96107166D01*
X115039035Y-96057060D01*
X115034600Y-96025748D01*
X115024385Y-96005369D01*
X115006079Y-95988061D01*
X115004659Y-95986939D01*
X114994663Y-95979664D01*
X114983236Y-95973808D01*
X114967622Y-95969241D01*
X114945066Y-95965833D01*
X114912814Y-95963455D01*
X114868109Y-95961976D01*
X114808196Y-95961268D01*
X114730319Y-95961200D01*
X114631724Y-95961643D01*
X114509655Y-95962468D01*
X114487993Y-95962625D01*
X114006666Y-95966124D01*
X114002814Y-96082852D01*
X113998961Y-96199580D01*
X113946666Y-96199580D01*
X113946666Y-95906093D01*
X114469283Y-95906093D01*
X114991899Y-95906093D01*
X115042616Y-95941258D01*
G37*
G36*
X115656683Y-95535898D02*
G01*
X115905792Y-95725998D01*
X115906229Y-95962789D01*
X115906666Y-96199580D01*
X116453333Y-96199580D01*
X117000000Y-96199580D01*
X117000000Y-96459717D01*
X117000000Y-96719853D01*
X116933333Y-96719853D01*
X116866666Y-96719853D01*
X116866666Y-97498186D01*
X116866666Y-98276519D01*
X116612874Y-98472030D01*
X116359081Y-98667542D01*
X115476207Y-98667426D01*
X114593333Y-98667309D01*
X114344044Y-98477326D01*
X114094756Y-98287343D01*
X114094044Y-98050552D01*
X114093333Y-97813761D01*
X113546666Y-97813761D01*
X113000000Y-97813761D01*
X113000000Y-97553624D01*
X113000000Y-97360225D01*
X113060000Y-97360225D01*
X113060000Y-97553652D01*
X113060000Y-97747079D01*
X113603333Y-97747069D01*
X114146666Y-97747059D01*
X114146666Y-97998253D01*
X114146666Y-98249447D01*
X114374905Y-98425144D01*
X114603143Y-98600841D01*
X115478238Y-98600271D01*
X116353333Y-98599701D01*
X116573333Y-98429127D01*
X116793333Y-98258554D01*
X116796770Y-97455853D01*
X116800208Y-96653151D01*
X116872562Y-96653151D01*
X116944917Y-96653151D01*
X116945857Y-96459717D01*
X116946797Y-96266282D01*
X116433398Y-96266282D01*
X115920000Y-96266282D01*
X115920000Y-96459717D01*
X115920000Y-96653151D01*
X115986666Y-96653151D01*
X116053333Y-96653151D01*
X116053333Y-97337946D01*
X116053333Y-98022741D01*
X116000781Y-98064994D01*
X115948230Y-98107248D01*
X115479578Y-98107248D01*
X115010927Y-98107248D01*
X114959081Y-98070562D01*
X114907236Y-98033876D01*
X114906982Y-97906030D01*
X114960000Y-97906030D01*
X114960897Y-97955808D01*
X114965186Y-97986736D01*
X114975262Y-98006628D01*
X114993517Y-98023296D01*
X114996666Y-98025671D01*
X115007669Y-98033124D01*
X115020500Y-98039091D01*
X115038063Y-98043739D01*
X115063260Y-98047238D01*
X115098992Y-98049756D01*
X115148164Y-98051460D01*
X115213676Y-98052520D01*
X115298431Y-98053105D01*
X115405332Y-98053381D01*
X115475643Y-98053464D01*
X115917953Y-98053887D01*
X115958976Y-98019350D01*
X116000000Y-97984813D01*
X116000000Y-97352333D01*
X116000000Y-96719853D01*
X115953333Y-96719853D01*
X115906666Y-96719853D01*
X115906531Y-97070037D01*
X115906396Y-97420221D01*
X115743962Y-97546954D01*
X115678157Y-97598179D01*
X115610855Y-97650368D01*
X115548936Y-97698198D01*
X115499281Y-97736348D01*
X115488859Y-97744306D01*
X115396191Y-97814924D01*
X115201429Y-97813710D01*
X115130390Y-97813318D01*
X115067604Y-97813068D01*
X115018515Y-97812974D01*
X114988570Y-97813051D01*
X114983333Y-97813128D01*
X114970874Y-97817154D01*
X114963767Y-97832092D01*
X114960614Y-97863502D01*
X114960000Y-97906030D01*
X114906982Y-97906030D01*
X114906951Y-97890468D01*
X114906666Y-97747059D01*
X115150000Y-97746593D01*
X115393333Y-97746127D01*
X115623247Y-97569833D01*
X115853162Y-97393540D01*
X115853247Y-96578008D01*
X115853333Y-95762476D01*
X115621741Y-95584153D01*
X115390150Y-95405830D01*
X114225075Y-95409288D01*
X113060000Y-95412745D01*
X113064018Y-95606058D01*
X113068036Y-95799370D01*
X113134018Y-95799370D01*
X113200000Y-95799370D01*
X113200000Y-96579780D01*
X113200000Y-97360189D01*
X113130000Y-97360207D01*
X113060000Y-97360225D01*
X113000000Y-97360225D01*
X113000000Y-97293488D01*
X113066666Y-97293488D01*
X113133333Y-97293488D01*
X113133333Y-96573109D01*
X113133333Y-95852731D01*
X113066666Y-95852731D01*
X113000000Y-95852731D01*
X113000000Y-95599265D01*
X113000000Y-95412745D01*
X113000000Y-95345799D01*
X114203787Y-95345799D01*
X115407574Y-95345799D01*
X115656683Y-95535898D01*
G37*
D11*
%TO.C,SW5*%
X135500000Y-73250000D02*
X135500000Y-74750000D01*
X136750000Y-77250000D02*
X141250000Y-77250000D01*
X141250000Y-70750000D02*
X136750000Y-70750000D01*
X142500000Y-74750000D02*
X142500000Y-73250000D01*
%TO.C,R5*%
X148880000Y-81000000D02*
X149650000Y-81000000D01*
X149650000Y-79630000D02*
X149650000Y-82370000D01*
X149650000Y-82370000D02*
X156190000Y-82370000D01*
X156190000Y-79630000D02*
X149650000Y-79630000D01*
X156190000Y-82370000D02*
X156190000Y-79630000D01*
X156960000Y-81000000D02*
X156190000Y-81000000D01*
%TO.C,R4*%
X131960000Y-81000000D02*
X132730000Y-81000000D01*
X132730000Y-79630000D02*
X132730000Y-82370000D01*
X132730000Y-82370000D02*
X139270000Y-82370000D01*
X139270000Y-79630000D02*
X132730000Y-79630000D01*
X139270000Y-82370000D02*
X139270000Y-79630000D01*
X140040000Y-81000000D02*
X139270000Y-81000000D01*
%TO.C,SW2*%
X148250000Y-73250000D02*
X148250000Y-74750000D01*
X149500000Y-77250000D02*
X154000000Y-77250000D01*
X154000000Y-70750000D02*
X149500000Y-70750000D01*
X155250000Y-74750000D02*
X155250000Y-73250000D01*
%TO.C,J6*%
X108870000Y-67645000D02*
X110200000Y-67645000D01*
X108870000Y-68975000D02*
X108870000Y-67645000D01*
X111470000Y-67645000D02*
X119150000Y-67645000D01*
X111470000Y-70305000D02*
X111470000Y-67645000D01*
X111470000Y-70305000D02*
X119150000Y-70305000D01*
X119150000Y-70305000D02*
X119150000Y-67645000D01*
%TO.C,RV1*%
X158115000Y-85115000D02*
X158115000Y-94885000D01*
X167885000Y-85115000D02*
X158115000Y-85115000D01*
X167885000Y-85115000D02*
X167885000Y-94885000D01*
X167885000Y-94885000D02*
X158115000Y-94885000D01*
%TO.C,R3*%
X146960000Y-67000000D02*
X147730000Y-67000000D01*
X147730000Y-65630000D02*
X147730000Y-68370000D01*
X147730000Y-68370000D02*
X154270000Y-68370000D01*
X154270000Y-65630000D02*
X147730000Y-65630000D01*
X154270000Y-68370000D02*
X154270000Y-65630000D01*
X155040000Y-67000000D02*
X154270000Y-67000000D01*
%TO.C,SW3*%
X134500000Y-87250000D02*
X134500000Y-88750000D01*
X135750000Y-91250000D02*
X140250000Y-91250000D01*
X140250000Y-84750000D02*
X135750000Y-84750000D01*
X141500000Y-88750000D02*
X141500000Y-87250000D01*
%TO.C,D1*%
X126710000Y-58455000D02*
X126710000Y-61545000D01*
X126710000Y-58455170D02*
G75*
G02*
X132260000Y-59999952I2560000J-1544830D01*
G01*
X132260000Y-60000048D02*
G75*
G02*
X126710000Y-61544830I-2990000J48D01*
G01*
X131770000Y-60000000D02*
G75*
G02*
X126770000Y-60000000I-2500000J0D01*
G01*
X126770000Y-60000000D02*
G75*
G02*
X131770000Y-60000000I2500000J0D01*
G01*
%TO.C,SW1*%
X158500000Y-73250000D02*
X158500000Y-74750000D01*
X159750000Y-77250000D02*
X164250000Y-77250000D01*
X164250000Y-70750000D02*
X159750000Y-70750000D01*
X165500000Y-74750000D02*
X165500000Y-73250000D01*
%TO.C,SW4*%
X146500000Y-87250000D02*
X146500000Y-88750000D01*
X147750000Y-91250000D02*
X152250000Y-91250000D01*
X152250000Y-84750000D02*
X147750000Y-84750000D01*
X153500000Y-88750000D02*
X153500000Y-87250000D01*
%TO.C,J7*%
X137650000Y-52250000D02*
X137650000Y-53500000D01*
X137940000Y-52540000D02*
X137940000Y-58510000D01*
X137940000Y-58510000D02*
X148060000Y-58510000D01*
X137950000Y-52550000D02*
X137950000Y-53300000D01*
X137950000Y-53300000D02*
X139750000Y-53300000D01*
X137950000Y-54800000D02*
X138700000Y-54800000D01*
X138700000Y-54800000D02*
X138700000Y-57750000D01*
X138700000Y-57750000D02*
X143000000Y-57750000D01*
X138900000Y-52250000D02*
X137650000Y-52250000D01*
X139750000Y-52550000D02*
X137950000Y-52550000D01*
X139750000Y-53300000D02*
X139750000Y-52550000D01*
X141250000Y-52550000D02*
X141250000Y-53300000D01*
X141250000Y-53300000D02*
X144750000Y-53300000D01*
X144750000Y-52550000D02*
X141250000Y-52550000D01*
X144750000Y-53300000D02*
X144750000Y-52550000D01*
X146250000Y-52550000D02*
X146250000Y-53300000D01*
X146250000Y-53300000D02*
X148050000Y-53300000D01*
X147300000Y-54800000D02*
X147300000Y-57750000D01*
X147300000Y-57750000D02*
X143000000Y-57750000D01*
X148050000Y-52550000D02*
X146250000Y-52550000D01*
X148050000Y-53300000D02*
X148050000Y-52550000D01*
X148050000Y-54800000D02*
X147300000Y-54800000D01*
X148060000Y-52540000D02*
X137940000Y-52540000D01*
X148060000Y-58510000D02*
X148060000Y-52540000D01*
%TD*%
M02*
