%TF.GenerationSoftware,KiCad,Pcbnew,8.0.8*%
%TF.CreationDate,2025-02-03T17:03:33-07:00*%
%TF.ProjectId,BoardMicro,426f6172-644d-4696-9372-6f2e6b696361,rev?*%
%TF.SameCoordinates,Original*%
%TF.FileFunction,Copper,L2,Bot*%
%TF.FilePolarity,Positive*%
%FSLAX46Y46*%
G04 Gerber Fmt 4.6, Leading zero omitted, Abs format (unit mm)*
G04 Created by KiCad (PCBNEW 8.0.8) date 2025-02-03 17:03:33*
%MOMM*%
%LPD*%
G01*
G04 APERTURE LIST*
G04 Aperture macros list*
%AMRoundRect*
0 Rectangle with rounded corners*
0 $1 Rounding radius*
0 $2 $3 $4 $5 $6 $7 $8 $9 X,Y pos of 4 corners*
0 Add a 4 corners polygon primitive as box body*
4,1,4,$2,$3,$4,$5,$6,$7,$8,$9,$2,$3,0*
0 Add four circle primitives for the rounded corners*
1,1,$1+$1,$2,$3*
1,1,$1+$1,$4,$5*
1,1,$1+$1,$6,$7*
1,1,$1+$1,$8,$9*
0 Add four rect primitives between the rounded corners*
20,1,$1+$1,$2,$3,$4,$5,0*
20,1,$1+$1,$4,$5,$6,$7,0*
20,1,$1+$1,$6,$7,$8,$9,0*
20,1,$1+$1,$8,$9,$2,$3,0*%
G04 Aperture macros list end*
%TA.AperFunction,ComponentPad*%
%ADD10R,1.700000X1.700000*%
%TD*%
%TA.AperFunction,ComponentPad*%
%ADD11O,1.700000X1.700000*%
%TD*%
%TA.AperFunction,ComponentPad*%
%ADD12C,1.600000*%
%TD*%
%TA.AperFunction,ComponentPad*%
%ADD13O,1.600000X1.600000*%
%TD*%
%TA.AperFunction,ComponentPad*%
%ADD14C,2.000000*%
%TD*%
%TA.AperFunction,ComponentPad*%
%ADD15C,1.440000*%
%TD*%
%TA.AperFunction,ComponentPad*%
%ADD16R,1.800000X1.800000*%
%TD*%
%TA.AperFunction,ComponentPad*%
%ADD17C,1.800000*%
%TD*%
%TA.AperFunction,ComponentPad*%
%ADD18RoundRect,0.250000X-0.600000X-0.725000X0.600000X-0.725000X0.600000X0.725000X-0.600000X0.725000X0*%
%TD*%
%TA.AperFunction,ComponentPad*%
%ADD19O,1.700000X1.950000*%
%TD*%
%TA.AperFunction,ViaPad*%
%ADD20C,0.600000*%
%TD*%
%TA.AperFunction,Conductor*%
%ADD21C,0.508000*%
%TD*%
%TA.AperFunction,Conductor*%
%ADD22C,0.250000*%
%TD*%
G04 APERTURE END LIST*
D10*
%TO.P,J1,1,Pin_1*%
%TO.N,unconnected-(J1-Pin_1-Pad1)*%
X127940000Y-97460000D03*
D11*
%TO.P,J1,2,Pin_2*%
%TO.N,/IOREF*%
X130480000Y-97460000D03*
%TO.P,J1,3,Pin_3*%
%TO.N,/~{RESET}*%
X133020000Y-97460000D03*
%TO.P,J1,4,Pin_4*%
%TO.N,+3V3*%
X135560000Y-97460000D03*
%TO.P,J1,5,Pin_5*%
%TO.N,+5V*%
X138100000Y-97460000D03*
%TO.P,J1,6,Pin_6*%
%TO.N,GND*%
X140640000Y-97460000D03*
%TO.P,J1,7,Pin_7*%
X143180000Y-97460000D03*
%TO.P,J1,8,Pin_8*%
%TO.N,VCC*%
X145720000Y-97460000D03*
%TD*%
D10*
%TO.P,J3,1,Pin_1*%
%TO.N,/temp_sensor*%
X150800000Y-97460000D03*
D11*
%TO.P,J3,2,Pin_2*%
%TO.N,/A1*%
X153340000Y-97460000D03*
%TO.P,J3,3,Pin_3*%
%TO.N,/A2*%
X155880000Y-97460000D03*
%TO.P,J3,4,Pin_4*%
%TO.N,/A3*%
X158420000Y-97460000D03*
%TO.P,J3,5,Pin_5*%
%TO.N,/SDA{slash}A4*%
X160960000Y-97460000D03*
%TO.P,J3,6,Pin_6*%
%TO.N,/SCL{slash}A5*%
X163500000Y-97460000D03*
%TD*%
D10*
%TO.P,J2,1,Pin_1*%
%TO.N,/I2C_SCL*%
X117760000Y-49200000D03*
D11*
%TO.P,J2,2,Pin_2*%
%TO.N,/I2C_SDA*%
X120300000Y-49200000D03*
%TO.P,J2,3,Pin_3*%
%TO.N,/AREF*%
X122840000Y-49200000D03*
%TO.P,J2,4,Pin_4*%
%TO.N,GND*%
X125380000Y-49200000D03*
%TO.P,J2,5,Pin_5*%
%TO.N,/13*%
X127920000Y-49200000D03*
%TO.P,J2,6,Pin_6*%
%TO.N,/12*%
X130460000Y-49200000D03*
%TO.P,J2,7,Pin_7*%
%TO.N,/\u002A11*%
X133000000Y-49200000D03*
%TO.P,J2,8,Pin_8*%
%TO.N,/\u002A10*%
X135540000Y-49200000D03*
%TO.P,J2,9,Pin_9*%
%TO.N,/led_light*%
X138080000Y-49200000D03*
%TO.P,J2,10,Pin_10*%
%TO.N,/temp_digital*%
X140620000Y-49200000D03*
%TD*%
D10*
%TO.P,J4,1,Pin_1*%
%TO.N,/7*%
X144920000Y-49200000D03*
D11*
%TO.P,J4,2,Pin_2*%
%TO.N,/button_light*%
X147460000Y-49200000D03*
%TO.P,J4,3,Pin_3*%
%TO.N,/button_cal*%
X150000000Y-49200000D03*
%TO.P,J4,4,Pin_4*%
%TO.N,/button_units*%
X152540000Y-49200000D03*
%TO.P,J4,5,Pin_5*%
%TO.N,/button_lock*%
X155080000Y-49200000D03*
%TO.P,J4,6,Pin_6*%
%TO.N,/button_onoff*%
X157620000Y-49200000D03*
%TO.P,J4,7,Pin_7*%
%TO.N,/TX{slash}1*%
X160160000Y-49200000D03*
%TO.P,J4,8,Pin_8*%
%TO.N,/RX{slash}0*%
X162700000Y-49200000D03*
%TD*%
D12*
%TO.P,R2,1*%
%TO.N,/button_units*%
X155920000Y-62000000D03*
D13*
%TO.P,R2,2*%
%TO.N,GND*%
X166080000Y-62000000D03*
%TD*%
D12*
%TO.P,R1,1*%
%TO.N,/button_onoff*%
X124840000Y-54000000D03*
D13*
%TO.P,R1,2*%
%TO.N,GND*%
X135000000Y-54000000D03*
%TD*%
D10*
%TO.P,J5,1,Pin_1*%
%TO.N,+5V*%
X120875000Y-64500000D03*
D11*
%TO.P,J5,2,Pin_2*%
%TO.N,GND*%
X118335000Y-64500000D03*
%TO.P,J5,3,Pin_3*%
%TO.N,/I2C_SCL*%
X115795000Y-64500000D03*
%TO.P,J5,4,Pin_4*%
%TO.N,/I2C_SDA*%
X113255000Y-64500000D03*
%TO.P,J5,5,Pin_5*%
%TO.N,unconnected-(J5-Pin_5-Pad5)*%
X110715000Y-64500000D03*
%TO.P,J5,6,Pin_6*%
%TO.N,unconnected-(J5-Pin_6-Pad6)*%
X108175000Y-64500000D03*
%TO.P,J5,7,Pin_7*%
%TO.N,unconnected-(J5-Pin_7-Pad7)*%
X105635000Y-64500000D03*
%TO.P,J5,8,Pin_8*%
%TO.N,unconnected-(J5-Pin_8-Pad8)*%
X103095000Y-64500000D03*
%TD*%
D12*
%TO.P,R6,1*%
%TO.N,/led_light*%
X143000000Y-67000000D03*
D13*
%TO.P,R6,2*%
%TO.N,Net-(D1-A)*%
X132840000Y-67000000D03*
%TD*%
D14*
%TO.P,SW5,1,A*%
%TO.N,/button_cal*%
X135750000Y-71750000D03*
X142250000Y-71750000D03*
%TO.P,SW5,2,B*%
%TO.N,+5V*%
X135750000Y-76250000D03*
X142250000Y-76250000D03*
%TD*%
D12*
%TO.P,R5,1*%
%TO.N,/button_cal*%
X147840000Y-81000000D03*
D13*
%TO.P,R5,2*%
%TO.N,GND*%
X158000000Y-81000000D03*
%TD*%
D12*
%TO.P,R4,1*%
%TO.N,/button_light*%
X130920000Y-81000000D03*
D13*
%TO.P,R4,2*%
%TO.N,GND*%
X141080000Y-81000000D03*
%TD*%
D14*
%TO.P,SW2,1,A*%
%TO.N,/button_units*%
X148500000Y-71750000D03*
X155000000Y-71750000D03*
%TO.P,SW2,2,B*%
%TO.N,+5V*%
X148500000Y-76250000D03*
X155000000Y-76250000D03*
%TD*%
D10*
%TO.P,J6,1,Pin_1*%
%TO.N,GND*%
X110200000Y-68975000D03*
D11*
%TO.P,J6,2,Pin_2*%
%TO.N,+5V*%
X112740000Y-68975000D03*
%TO.P,J6,3,Pin_3*%
%TO.N,/I2C_SCL*%
X115280000Y-68975000D03*
%TO.P,J6,4,Pin_4*%
%TO.N,/I2C_SDA*%
X117820000Y-68975000D03*
%TD*%
D15*
%TO.P,RV1,1,1*%
%TO.N,+5V*%
X160460000Y-90015000D03*
%TO.P,RV1,2,2*%
%TO.N,/temp_sensor*%
X163000000Y-92555000D03*
%TO.P,RV1,3,3*%
%TO.N,GND*%
X165540000Y-90015000D03*
%TD*%
D12*
%TO.P,R3,1*%
%TO.N,/button_lock*%
X145920000Y-67000000D03*
D13*
%TO.P,R3,2*%
%TO.N,GND*%
X156080000Y-67000000D03*
%TD*%
D14*
%TO.P,SW3,1,A*%
%TO.N,/button_lock*%
X134750000Y-85750000D03*
X141250000Y-85750000D03*
%TO.P,SW3,2,B*%
%TO.N,+5V*%
X134750000Y-90250000D03*
X141250000Y-90250000D03*
%TD*%
D16*
%TO.P,D1,1,K*%
%TO.N,GND*%
X128000000Y-60000000D03*
D17*
%TO.P,D1,2,A*%
%TO.N,Net-(D1-A)*%
X130540000Y-60000000D03*
%TD*%
D14*
%TO.P,SW1,1,A*%
%TO.N,/button_onoff*%
X158750000Y-71750000D03*
X165250000Y-71750000D03*
%TO.P,SW1,2,B*%
%TO.N,+5V*%
X158750000Y-76250000D03*
X165250000Y-76250000D03*
%TD*%
%TO.P,SW4,1,A*%
%TO.N,/button_light*%
X146750000Y-85750000D03*
X153250000Y-85750000D03*
%TO.P,SW4,2,B*%
%TO.N,+5V*%
X146750000Y-90250000D03*
X153250000Y-90250000D03*
%TD*%
D18*
%TO.P,J7,1,Pin_1*%
%TO.N,GND*%
X140500000Y-55000000D03*
D19*
%TO.P,J7,2,Pin_2*%
%TO.N,/temp_digital*%
X143000000Y-55000000D03*
%TO.P,J7,3,Pin_3*%
%TO.N,+5V*%
X145500000Y-55000000D03*
%TD*%
D20*
%TO.N,GND*%
X159706000Y-81000000D03*
X132000000Y-75000000D03*
X139000000Y-60000000D03*
X161214000Y-81000000D03*
X158057426Y-66876256D03*
X132000000Y-77004000D03*
X136000000Y-60000000D03*
X160000000Y-67000000D03*
%TO.N,+5V*%
X140328654Y-61671345D03*
X128500000Y-64500000D03*
X137966841Y-63033159D03*
X133594000Y-64000000D03*
%TO.N,/temp_digital*%
X143000000Y-49000000D03*
X143000000Y-53000000D03*
%TO.N,/button_onoff*%
X154073159Y-52073159D03*
X136000000Y-52000000D03*
X149736841Y-51736841D03*
X162000000Y-66000000D03*
X162000000Y-68000000D03*
X153966841Y-58033159D03*
X156960634Y-65069068D03*
X159033159Y-64966841D03*
X139000000Y-52000000D03*
X155033159Y-56966841D03*
%TO.N,/button_light*%
X146000000Y-84000000D03*
X143000000Y-84000000D03*
%TO.N,/button_units*%
X150000000Y-53000000D03*
X152000000Y-55000000D03*
%TO.N,/button_cal*%
X157000000Y-71000000D03*
X150033159Y-55033159D03*
X146674000Y-70000000D03*
X154966841Y-69966841D03*
X149000000Y-51000000D03*
X143835953Y-70000000D03*
X149000000Y-53000000D03*
X148966841Y-53966841D03*
%TD*%
D21*
%TO.N,/button_cal*%
X148982841Y-52970707D02*
G75*
G03*
X148991431Y-52991409I29259J7D01*
G01*
X156988499Y-70955972D02*
G75*
G02*
X156999964Y-70983736I-27799J-27728D01*
G01*
X148991420Y-51008579D02*
G75*
G03*
X148982825Y-51029292I20680J-20721D01*
G01*
X156364421Y-70331894D02*
G75*
G03*
X155483104Y-69966834I-881321J-881306D01*
G01*
%TO.N,/button_onoff*%
X157000000Y-65014851D02*
G75*
G02*
X156989483Y-65040188I-35900J51D01*
G01*
X154036579Y-52036579D02*
G75*
G03*
X153948268Y-52000025I-88279J-88321D01*
G01*
X157014851Y-65000000D02*
G75*
G03*
X157000000Y-65014851I-51J-14800D01*
G01*
X159016579Y-64983420D02*
G75*
G02*
X158976553Y-65000039I-40079J40020D01*
G01*
X149868420Y-51868420D02*
G75*
G03*
X150186081Y-52000025I317680J317620D01*
G01*
%TO.N,+5V*%
X139828654Y-61671345D02*
G75*
G03*
X138975135Y-62024932I46J-1207055D01*
G01*
X129353553Y-64000000D02*
G75*
G03*
X128749984Y-64249984I-53J-853500D01*
G01*
D22*
%TO.N,GND*%
X158119298Y-66938128D02*
G75*
G03*
X158268670Y-67000005I149402J149428D01*
G01*
D21*
X160147000Y-81000000D02*
X159853000Y-81000000D01*
X139000000Y-60000000D02*
X136000000Y-60000000D01*
X132000000Y-77004000D02*
X132000000Y-75000000D01*
D22*
X158119298Y-66938128D02*
X158057426Y-66876256D01*
D21*
X158268670Y-67000000D02*
X160000000Y-67000000D01*
X161214000Y-81000000D02*
X160147000Y-81000000D01*
X159853000Y-81000000D02*
X159706000Y-81000000D01*
%TO.N,+5V*%
X139828654Y-61671345D02*
X140328654Y-61671345D01*
X138975101Y-62024898D02*
X137966841Y-63033159D01*
X128500000Y-64500000D02*
X128750000Y-64250000D01*
X133594000Y-64000000D02*
X129353553Y-64000000D01*
%TO.N,/temp_digital*%
X143000000Y-49000000D02*
X143000000Y-53000000D01*
%TO.N,/button_onoff*%
X157014851Y-65000000D02*
X158976553Y-65000000D01*
X149736841Y-51736841D02*
X149868420Y-51868420D01*
X162000000Y-66000000D02*
X162000000Y-68000000D01*
X156989498Y-65040203D02*
X156960634Y-65069068D01*
X153966841Y-58033159D02*
X155033159Y-56966841D01*
X153948268Y-52000000D02*
X150186081Y-52000000D01*
X159033159Y-64966841D02*
X159016579Y-64983420D01*
X154073159Y-52073159D02*
X154036579Y-52036579D01*
X139000000Y-52000000D02*
X136000000Y-52000000D01*
%TO.N,/button_light*%
X146000000Y-84000000D02*
X143000000Y-84000000D01*
%TO.N,/button_units*%
X150000000Y-53000000D02*
X152000000Y-55000000D01*
%TO.N,/button_cal*%
X156988499Y-70955972D02*
X156364421Y-70331894D01*
X148966841Y-53966841D02*
X150033159Y-55033159D01*
X154966841Y-69966841D02*
X155483104Y-69966841D01*
X157000000Y-71000000D02*
X157000000Y-70983736D01*
X149000000Y-51000000D02*
X148991420Y-51008579D01*
X148982841Y-52970707D02*
X148982841Y-51029292D01*
X146674000Y-70000000D02*
X143835953Y-70000000D01*
X149000000Y-53000000D02*
X148991420Y-52991420D01*
%TD*%
%TA.AperFunction,Conductor*%
%TO.N,GND*%
G36*
X142714075Y-97267007D02*
G01*
X142680000Y-97394174D01*
X142680000Y-97525826D01*
X142714075Y-97652993D01*
X142746988Y-97710000D01*
X141073012Y-97710000D01*
X141105925Y-97652993D01*
X141140000Y-97525826D01*
X141140000Y-97394174D01*
X141105925Y-97267007D01*
X141073012Y-97210000D01*
X142746988Y-97210000D01*
X142714075Y-97267007D01*
G37*
%TD.AperFunction*%
%TA.AperFunction,Conductor*%
G36*
X163484404Y-46755185D02*
G01*
X163505046Y-46771819D01*
X165928181Y-49194954D01*
X165961666Y-49256277D01*
X165964500Y-49282635D01*
X165964500Y-59344982D01*
X165964500Y-59375018D01*
X165975994Y-59402767D01*
X165975995Y-59402768D01*
X168468181Y-61894954D01*
X168501666Y-61956277D01*
X168504500Y-61982635D01*
X168504500Y-96107364D01*
X168484815Y-96174403D01*
X168468181Y-96195045D01*
X165997233Y-98665994D01*
X165975995Y-98687231D01*
X165964500Y-98714982D01*
X165964500Y-99231907D01*
X165963903Y-99244062D01*
X165952505Y-99359778D01*
X165947763Y-99383618D01*
X165917832Y-99482290D01*
X165915789Y-99489024D01*
X165906486Y-99511482D01*
X165854561Y-99608627D01*
X165841056Y-99628839D01*
X165771176Y-99713988D01*
X165753988Y-99731176D01*
X165668839Y-99801056D01*
X165648627Y-99814561D01*
X165551482Y-99866486D01*
X165529028Y-99875787D01*
X165487028Y-99888528D01*
X165423618Y-99907763D01*
X165399778Y-99912505D01*
X165291162Y-99923203D01*
X165284060Y-99923903D01*
X165271907Y-99924500D01*
X100768093Y-99924500D01*
X100755939Y-99923903D01*
X100747995Y-99923120D01*
X100640221Y-99912505D01*
X100616381Y-99907763D01*
X100599445Y-99902625D01*
X100510968Y-99875786D01*
X100488517Y-99866486D01*
X100391372Y-99814561D01*
X100371160Y-99801056D01*
X100286011Y-99731176D01*
X100268823Y-99713988D01*
X100198943Y-99628839D01*
X100185438Y-99608627D01*
X100133510Y-99511476D01*
X100124215Y-99489037D01*
X100092234Y-99383612D01*
X100087494Y-99359777D01*
X100076097Y-99244061D01*
X100075500Y-99231907D01*
X100075500Y-96561345D01*
X126581500Y-96561345D01*
X126581500Y-98358654D01*
X126588011Y-98419202D01*
X126588011Y-98419204D01*
X126639111Y-98556204D01*
X126726739Y-98673261D01*
X126843796Y-98760889D01*
X126980799Y-98811989D01*
X127008050Y-98814918D01*
X127041345Y-98818499D01*
X127041362Y-98818500D01*
X128838638Y-98818500D01*
X128838654Y-98818499D01*
X128865692Y-98815591D01*
X128899201Y-98811989D01*
X129036204Y-98760889D01*
X129153261Y-98673261D01*
X129240889Y-98556204D01*
X129286138Y-98434887D01*
X129328009Y-98378956D01*
X129393474Y-98354539D01*
X129461746Y-98369391D01*
X129493545Y-98394236D01*
X129556760Y-98462906D01*
X129734424Y-98601189D01*
X129734425Y-98601189D01*
X129734427Y-98601191D01*
X129861135Y-98669761D01*
X129932426Y-98708342D01*
X130145365Y-98781444D01*
X130367431Y-98818500D01*
X130592569Y-98818500D01*
X130814635Y-98781444D01*
X131027574Y-98708342D01*
X131225576Y-98601189D01*
X131403240Y-98462906D01*
X131524594Y-98331082D01*
X131555715Y-98297276D01*
X131555715Y-98297275D01*
X131555722Y-98297268D01*
X131646193Y-98158790D01*
X131699338Y-98113437D01*
X131768569Y-98104013D01*
X131831905Y-98133515D01*
X131853804Y-98158787D01*
X131944278Y-98297268D01*
X131944283Y-98297273D01*
X131944284Y-98297276D01*
X132070968Y-98434889D01*
X132096760Y-98462906D01*
X132274424Y-98601189D01*
X132274425Y-98601189D01*
X132274427Y-98601191D01*
X132401135Y-98669761D01*
X132472426Y-98708342D01*
X132685365Y-98781444D01*
X132907431Y-98818500D01*
X133132569Y-98818500D01*
X133354635Y-98781444D01*
X133567574Y-98708342D01*
X133765576Y-98601189D01*
X133943240Y-98462906D01*
X134064594Y-98331082D01*
X134095715Y-98297276D01*
X134095715Y-98297275D01*
X134095722Y-98297268D01*
X134186193Y-98158790D01*
X134239338Y-98113437D01*
X134308569Y-98104013D01*
X134371905Y-98133515D01*
X134393804Y-98158787D01*
X134484278Y-98297268D01*
X134484283Y-98297273D01*
X134484284Y-98297276D01*
X134610968Y-98434889D01*
X134636760Y-98462906D01*
X134814424Y-98601189D01*
X134814425Y-98601189D01*
X134814427Y-98601191D01*
X134941135Y-98669761D01*
X135012426Y-98708342D01*
X135225365Y-98781444D01*
X135447431Y-98818500D01*
X135672569Y-98818500D01*
X135894635Y-98781444D01*
X136107574Y-98708342D01*
X136305576Y-98601189D01*
X136483240Y-98462906D01*
X136604594Y-98331082D01*
X136635715Y-98297276D01*
X136635715Y-98297275D01*
X136635722Y-98297268D01*
X136726193Y-98158790D01*
X136779338Y-98113437D01*
X136848569Y-98104013D01*
X136911905Y-98133515D01*
X136933804Y-98158787D01*
X137024278Y-98297268D01*
X137024283Y-98297273D01*
X137024284Y-98297276D01*
X137150968Y-98434889D01*
X137176760Y-98462906D01*
X137354424Y-98601189D01*
X137354425Y-98601189D01*
X137354427Y-98601191D01*
X137481135Y-98669761D01*
X137552426Y-98708342D01*
X137765365Y-98781444D01*
X137987431Y-98818500D01*
X138212569Y-98818500D01*
X138434635Y-98781444D01*
X138647574Y-98708342D01*
X138845576Y-98601189D01*
X139023240Y-98462906D01*
X139144594Y-98331082D01*
X139175715Y-98297276D01*
X139175715Y-98297275D01*
X139175722Y-98297268D01*
X139269749Y-98153347D01*
X139322894Y-98107994D01*
X139392125Y-98098570D01*
X139455461Y-98128072D01*
X139475130Y-98150048D01*
X139601890Y-98331078D01*
X139768917Y-98498105D01*
X139962421Y-98633600D01*
X140176507Y-98733429D01*
X140176516Y-98733433D01*
X140390000Y-98790634D01*
X140390000Y-97893012D01*
X140447007Y-97925925D01*
X140574174Y-97960000D01*
X140705826Y-97960000D01*
X140832993Y-97925925D01*
X140890000Y-97893012D01*
X140890000Y-98790633D01*
X141103483Y-98733433D01*
X141103492Y-98733429D01*
X141317578Y-98633600D01*
X141511082Y-98498105D01*
X141678105Y-98331082D01*
X141808425Y-98144968D01*
X141863002Y-98101344D01*
X141932501Y-98094151D01*
X141994855Y-98125673D01*
X142011575Y-98144968D01*
X142141894Y-98331082D01*
X142308917Y-98498105D01*
X142502421Y-98633600D01*
X142716507Y-98733429D01*
X142716516Y-98733433D01*
X142930000Y-98790634D01*
X142930000Y-97893012D01*
X142987007Y-97925925D01*
X143114174Y-97960000D01*
X143245826Y-97960000D01*
X143372993Y-97925925D01*
X143430000Y-97893012D01*
X143430000Y-98790633D01*
X143643483Y-98733433D01*
X143643492Y-98733429D01*
X143857578Y-98633600D01*
X144051082Y-98498105D01*
X144218105Y-98331082D01*
X144344868Y-98150048D01*
X144399445Y-98106423D01*
X144468944Y-98099231D01*
X144531298Y-98130753D01*
X144550251Y-98153350D01*
X144644276Y-98297265D01*
X144644284Y-98297276D01*
X144770968Y-98434889D01*
X144796760Y-98462906D01*
X144974424Y-98601189D01*
X144974425Y-98601189D01*
X144974427Y-98601191D01*
X145101135Y-98669761D01*
X145172426Y-98708342D01*
X145385365Y-98781444D01*
X145607431Y-98818500D01*
X145832569Y-98818500D01*
X146054635Y-98781444D01*
X146267574Y-98708342D01*
X146465576Y-98601189D01*
X146643240Y-98462906D01*
X146764594Y-98331082D01*
X146795715Y-98297276D01*
X146795717Y-98297273D01*
X146795722Y-98297268D01*
X146918860Y-98108791D01*
X147009296Y-97902616D01*
X147064564Y-97684368D01*
X147067164Y-97652993D01*
X147083156Y-97460005D01*
X147083156Y-97459994D01*
X147064565Y-97235640D01*
X147064563Y-97235628D01*
X147009296Y-97017385D01*
X146999071Y-96994075D01*
X146918860Y-96811209D01*
X146902706Y-96786484D01*
X146795723Y-96622734D01*
X146795715Y-96622723D01*
X146739212Y-96561345D01*
X149441500Y-96561345D01*
X149441500Y-98358654D01*
X149448011Y-98419202D01*
X149448011Y-98419204D01*
X149499111Y-98556204D01*
X149586739Y-98673261D01*
X149703796Y-98760889D01*
X149840799Y-98811989D01*
X149868050Y-98814918D01*
X149901345Y-98818499D01*
X149901362Y-98818500D01*
X151698638Y-98818500D01*
X151698654Y-98818499D01*
X151725692Y-98815591D01*
X151759201Y-98811989D01*
X151896204Y-98760889D01*
X152013261Y-98673261D01*
X152100889Y-98556204D01*
X152146138Y-98434887D01*
X152188009Y-98378956D01*
X152253474Y-98354539D01*
X152321746Y-98369391D01*
X152353545Y-98394236D01*
X152416760Y-98462906D01*
X152594424Y-98601189D01*
X152594425Y-98601189D01*
X152594427Y-98601191D01*
X152721135Y-98669761D01*
X152792426Y-98708342D01*
X153005365Y-98781444D01*
X153227431Y-98818500D01*
X153452569Y-98818500D01*
X153674635Y-98781444D01*
X153887574Y-98708342D01*
X154085576Y-98601189D01*
X154263240Y-98462906D01*
X154384594Y-98331082D01*
X154415715Y-98297276D01*
X154415715Y-98297275D01*
X154415722Y-98297268D01*
X154506193Y-98158790D01*
X154559338Y-98113437D01*
X154628569Y-98104013D01*
X154691905Y-98133515D01*
X154713804Y-98158787D01*
X154804278Y-98297268D01*
X154804283Y-98297273D01*
X154804284Y-98297276D01*
X154930968Y-98434889D01*
X154956760Y-98462906D01*
X155134424Y-98601189D01*
X155134425Y-98601189D01*
X155134427Y-98601191D01*
X155261135Y-98669761D01*
X155332426Y-98708342D01*
X155545365Y-98781444D01*
X155767431Y-98818500D01*
X155992569Y-98818500D01*
X156214635Y-98781444D01*
X156427574Y-98708342D01*
X156625576Y-98601189D01*
X156803240Y-98462906D01*
X156924594Y-98331082D01*
X156955715Y-98297276D01*
X156955715Y-98297275D01*
X156955722Y-98297268D01*
X157046193Y-98158790D01*
X157099338Y-98113437D01*
X157168569Y-98104013D01*
X157231905Y-98133515D01*
X157253804Y-98158787D01*
X157344278Y-98297268D01*
X157344283Y-98297273D01*
X157344284Y-98297276D01*
X157470968Y-98434889D01*
X157496760Y-98462906D01*
X157674424Y-98601189D01*
X157674425Y-98601189D01*
X157674427Y-98601191D01*
X157801135Y-98669761D01*
X157872426Y-98708342D01*
X158085365Y-98781444D01*
X158307431Y-98818500D01*
X158532569Y-98818500D01*
X158754635Y-98781444D01*
X158967574Y-98708342D01*
X159165576Y-98601189D01*
X159343240Y-98462906D01*
X159464594Y-98331082D01*
X159495715Y-98297276D01*
X159495715Y-98297275D01*
X159495722Y-98297268D01*
X159586193Y-98158790D01*
X159639338Y-98113437D01*
X159708569Y-98104013D01*
X159771905Y-98133515D01*
X159793804Y-98158787D01*
X159884278Y-98297268D01*
X159884283Y-98297273D01*
X159884284Y-98297276D01*
X160010968Y-98434889D01*
X160036760Y-98462906D01*
X160214424Y-98601189D01*
X160214425Y-98601189D01*
X160214427Y-98601191D01*
X160341135Y-98669761D01*
X160412426Y-98708342D01*
X160625365Y-98781444D01*
X160847431Y-98818500D01*
X161072569Y-98818500D01*
X161294635Y-98781444D01*
X161507574Y-98708342D01*
X161705576Y-98601189D01*
X161883240Y-98462906D01*
X162004594Y-98331082D01*
X162035715Y-98297276D01*
X162035715Y-98297275D01*
X162035722Y-98297268D01*
X162126193Y-98158790D01*
X162179338Y-98113437D01*
X162248569Y-98104013D01*
X162311905Y-98133515D01*
X162333804Y-98158787D01*
X162424278Y-98297268D01*
X162424283Y-98297273D01*
X162424284Y-98297276D01*
X162550968Y-98434889D01*
X162576760Y-98462906D01*
X162754424Y-98601189D01*
X162754425Y-98601189D01*
X162754427Y-98601191D01*
X162881135Y-98669761D01*
X162952426Y-98708342D01*
X163165365Y-98781444D01*
X163387431Y-98818500D01*
X163612569Y-98818500D01*
X163834635Y-98781444D01*
X164047574Y-98708342D01*
X164245576Y-98601189D01*
X164423240Y-98462906D01*
X164544594Y-98331082D01*
X164575715Y-98297276D01*
X164575717Y-98297273D01*
X164575722Y-98297268D01*
X164698860Y-98108791D01*
X164789296Y-97902616D01*
X164844564Y-97684368D01*
X164847164Y-97652993D01*
X164863156Y-97460005D01*
X164863156Y-97459994D01*
X164844565Y-97235640D01*
X164844563Y-97235628D01*
X164789296Y-97017385D01*
X164779071Y-96994075D01*
X164698860Y-96811209D01*
X164682706Y-96786484D01*
X164575723Y-96622734D01*
X164575715Y-96622723D01*
X164423243Y-96457097D01*
X164423238Y-96457092D01*
X164245577Y-96318812D01*
X164245572Y-96318808D01*
X164047580Y-96211661D01*
X164047577Y-96211659D01*
X164047574Y-96211658D01*
X164047571Y-96211657D01*
X164047569Y-96211656D01*
X163834637Y-96138556D01*
X163612569Y-96101500D01*
X163387431Y-96101500D01*
X163165362Y-96138556D01*
X162952430Y-96211656D01*
X162952419Y-96211661D01*
X162754427Y-96318808D01*
X162754422Y-96318812D01*
X162576761Y-96457092D01*
X162576756Y-96457097D01*
X162424284Y-96622723D01*
X162424276Y-96622734D01*
X162333808Y-96761206D01*
X162280662Y-96806562D01*
X162211431Y-96815986D01*
X162148095Y-96786484D01*
X162126192Y-96761206D01*
X162035723Y-96622734D01*
X162035715Y-96622723D01*
X161883243Y-96457097D01*
X161883238Y-96457092D01*
X161705577Y-96318812D01*
X161705572Y-96318808D01*
X161507580Y-96211661D01*
X161507577Y-96211659D01*
X161507574Y-96211658D01*
X161507571Y-96211657D01*
X161507569Y-96211656D01*
X161294637Y-96138556D01*
X161072569Y-96101500D01*
X160847431Y-96101500D01*
X160625362Y-96138556D01*
X160412430Y-96211656D01*
X160412419Y-96211661D01*
X160214427Y-96318808D01*
X160214422Y-96318812D01*
X160036761Y-96457092D01*
X160036756Y-96457097D01*
X159884284Y-96622723D01*
X159884276Y-96622734D01*
X159793808Y-96761206D01*
X159740662Y-96806562D01*
X159671431Y-96815986D01*
X159608095Y-96786484D01*
X159586192Y-96761206D01*
X159495723Y-96622734D01*
X159495715Y-96622723D01*
X159343243Y-96457097D01*
X159343238Y-96457092D01*
X159165577Y-96318812D01*
X159165572Y-96318808D01*
X158967580Y-96211661D01*
X158967577Y-96211659D01*
X158967574Y-96211658D01*
X158967571Y-96211657D01*
X158967569Y-96211656D01*
X158754637Y-96138556D01*
X158532569Y-96101500D01*
X158307431Y-96101500D01*
X158085362Y-96138556D01*
X157872430Y-96211656D01*
X157872419Y-96211661D01*
X157674427Y-96318808D01*
X157674422Y-96318812D01*
X157496761Y-96457092D01*
X157496756Y-96457097D01*
X157344284Y-96622723D01*
X157344276Y-96622734D01*
X157253808Y-96761206D01*
X157200662Y-96806562D01*
X157131431Y-96815986D01*
X157068095Y-96786484D01*
X157046192Y-96761206D01*
X156955723Y-96622734D01*
X156955715Y-96622723D01*
X156803243Y-96457097D01*
X156803238Y-96457092D01*
X156625577Y-96318812D01*
X156625572Y-96318808D01*
X156427580Y-96211661D01*
X156427577Y-96211659D01*
X156427574Y-96211658D01*
X156427571Y-96211657D01*
X156427569Y-96211656D01*
X156214637Y-96138556D01*
X155992569Y-96101500D01*
X155767431Y-96101500D01*
X155545362Y-96138556D01*
X155332430Y-96211656D01*
X155332419Y-96211661D01*
X155134427Y-96318808D01*
X155134422Y-96318812D01*
X154956761Y-96457092D01*
X154956756Y-96457097D01*
X154804284Y-96622723D01*
X154804276Y-96622734D01*
X154713808Y-96761206D01*
X154660662Y-96806562D01*
X154591431Y-96815986D01*
X154528095Y-96786484D01*
X154506192Y-96761206D01*
X154415723Y-96622734D01*
X154415715Y-96622723D01*
X154263243Y-96457097D01*
X154263238Y-96457092D01*
X154085577Y-96318812D01*
X154085572Y-96318808D01*
X153887580Y-96211661D01*
X153887577Y-96211659D01*
X153887574Y-96211658D01*
X153887571Y-96211657D01*
X153887569Y-96211656D01*
X153674637Y-96138556D01*
X153452569Y-96101500D01*
X153227431Y-96101500D01*
X153005362Y-96138556D01*
X152792430Y-96211656D01*
X152792419Y-96211661D01*
X152594427Y-96318808D01*
X152594422Y-96318812D01*
X152416761Y-96457092D01*
X152353548Y-96525760D01*
X152293661Y-96561750D01*
X152223823Y-96559649D01*
X152166207Y-96520124D01*
X152146138Y-96485110D01*
X152100889Y-96363796D01*
X152067214Y-96318812D01*
X152013261Y-96246739D01*
X151896204Y-96159111D01*
X151895172Y-96158726D01*
X151759203Y-96108011D01*
X151698654Y-96101500D01*
X151698638Y-96101500D01*
X149901362Y-96101500D01*
X149901345Y-96101500D01*
X149840797Y-96108011D01*
X149840795Y-96108011D01*
X149703795Y-96159111D01*
X149586739Y-96246739D01*
X149499111Y-96363795D01*
X149448011Y-96500795D01*
X149448011Y-96500797D01*
X149441500Y-96561345D01*
X146739212Y-96561345D01*
X146643243Y-96457097D01*
X146643238Y-96457092D01*
X146465577Y-96318812D01*
X146465572Y-96318808D01*
X146267580Y-96211661D01*
X146267577Y-96211659D01*
X146267574Y-96211658D01*
X146267571Y-96211657D01*
X146267569Y-96211656D01*
X146054637Y-96138556D01*
X145832569Y-96101500D01*
X145607431Y-96101500D01*
X145385362Y-96138556D01*
X145172430Y-96211656D01*
X145172419Y-96211661D01*
X144974427Y-96318808D01*
X144974422Y-96318812D01*
X144796761Y-96457092D01*
X144796756Y-96457097D01*
X144644284Y-96622723D01*
X144644276Y-96622734D01*
X144550251Y-96766650D01*
X144497105Y-96812007D01*
X144427873Y-96821430D01*
X144364538Y-96791928D01*
X144344868Y-96769951D01*
X144218113Y-96588926D01*
X144218108Y-96588920D01*
X144051082Y-96421894D01*
X143857578Y-96286399D01*
X143643492Y-96186570D01*
X143643486Y-96186567D01*
X143430000Y-96129364D01*
X143430000Y-97026988D01*
X143372993Y-96994075D01*
X143245826Y-96960000D01*
X143114174Y-96960000D01*
X142987007Y-96994075D01*
X142930000Y-97026988D01*
X142930000Y-96129364D01*
X142929999Y-96129364D01*
X142716513Y-96186567D01*
X142716507Y-96186570D01*
X142502422Y-96286399D01*
X142502420Y-96286400D01*
X142308926Y-96421886D01*
X142308920Y-96421891D01*
X142141891Y-96588920D01*
X142141890Y-96588922D01*
X142011575Y-96775031D01*
X141956998Y-96818655D01*
X141887499Y-96825848D01*
X141825145Y-96794326D01*
X141808425Y-96775031D01*
X141678109Y-96588922D01*
X141678108Y-96588920D01*
X141511082Y-96421894D01*
X141317578Y-96286399D01*
X141103492Y-96186570D01*
X141103486Y-96186567D01*
X140890000Y-96129364D01*
X140890000Y-97026988D01*
X140832993Y-96994075D01*
X140705826Y-96960000D01*
X140574174Y-96960000D01*
X140447007Y-96994075D01*
X140390000Y-97026988D01*
X140390000Y-96129364D01*
X140389999Y-96129364D01*
X140176513Y-96186567D01*
X140176507Y-96186570D01*
X139962422Y-96286399D01*
X139962420Y-96286400D01*
X139768926Y-96421886D01*
X139768920Y-96421891D01*
X139601891Y-96588920D01*
X139601890Y-96588922D01*
X139475131Y-96769952D01*
X139420554Y-96813577D01*
X139351055Y-96820769D01*
X139288701Y-96789247D01*
X139269752Y-96766656D01*
X139175722Y-96622732D01*
X139175715Y-96622725D01*
X139175715Y-96622723D01*
X139023243Y-96457097D01*
X139023238Y-96457092D01*
X138845577Y-96318812D01*
X138845572Y-96318808D01*
X138647580Y-96211661D01*
X138647577Y-96211659D01*
X138647574Y-96211658D01*
X138647571Y-96211657D01*
X138647569Y-96211656D01*
X138434637Y-96138556D01*
X138212569Y-96101500D01*
X137987431Y-96101500D01*
X137765362Y-96138556D01*
X137552430Y-96211656D01*
X137552419Y-96211661D01*
X137354427Y-96318808D01*
X137354422Y-96318812D01*
X137176761Y-96457092D01*
X137176756Y-96457097D01*
X137024284Y-96622723D01*
X137024276Y-96622734D01*
X136933808Y-96761206D01*
X136880662Y-96806562D01*
X136811431Y-96815986D01*
X136748095Y-96786484D01*
X136726192Y-96761206D01*
X136635723Y-96622734D01*
X136635715Y-96622723D01*
X136483243Y-96457097D01*
X136483238Y-96457092D01*
X136305577Y-96318812D01*
X136305572Y-96318808D01*
X136107580Y-96211661D01*
X136107577Y-96211659D01*
X136107574Y-96211658D01*
X136107571Y-96211657D01*
X136107569Y-96211656D01*
X135894637Y-96138556D01*
X135672569Y-96101500D01*
X135447431Y-96101500D01*
X135225362Y-96138556D01*
X135012430Y-96211656D01*
X135012419Y-96211661D01*
X134814427Y-96318808D01*
X134814422Y-96318812D01*
X134636761Y-96457092D01*
X134636756Y-96457097D01*
X134484284Y-96622723D01*
X134484276Y-96622734D01*
X134393808Y-96761206D01*
X134340662Y-96806562D01*
X134271431Y-96815986D01*
X134208095Y-96786484D01*
X134186192Y-96761206D01*
X134095723Y-96622734D01*
X134095715Y-96622723D01*
X133943243Y-96457097D01*
X133943238Y-96457092D01*
X133765577Y-96318812D01*
X133765572Y-96318808D01*
X133567580Y-96211661D01*
X133567577Y-96211659D01*
X133567574Y-96211658D01*
X133567571Y-96211657D01*
X133567569Y-96211656D01*
X133354637Y-96138556D01*
X133132569Y-96101500D01*
X132907431Y-96101500D01*
X132685362Y-96138556D01*
X132472430Y-96211656D01*
X132472419Y-96211661D01*
X132274427Y-96318808D01*
X132274422Y-96318812D01*
X132096761Y-96457092D01*
X132096756Y-96457097D01*
X131944284Y-96622723D01*
X131944276Y-96622734D01*
X131853808Y-96761206D01*
X131800662Y-96806562D01*
X131731431Y-96815986D01*
X131668095Y-96786484D01*
X131646192Y-96761206D01*
X131555723Y-96622734D01*
X131555715Y-96622723D01*
X131403243Y-96457097D01*
X131403238Y-96457092D01*
X131225577Y-96318812D01*
X131225572Y-96318808D01*
X131027580Y-96211661D01*
X131027577Y-96211659D01*
X131027574Y-96211658D01*
X131027571Y-96211657D01*
X131027569Y-96211656D01*
X130814637Y-96138556D01*
X130592569Y-96101500D01*
X130367431Y-96101500D01*
X130145362Y-96138556D01*
X129932430Y-96211656D01*
X129932419Y-96211661D01*
X129734427Y-96318808D01*
X129734422Y-96318812D01*
X129556761Y-96457092D01*
X129493548Y-96525760D01*
X129433661Y-96561750D01*
X129363823Y-96559649D01*
X129306207Y-96520124D01*
X129286138Y-96485110D01*
X129240889Y-96363796D01*
X129207214Y-96318812D01*
X129153261Y-96246739D01*
X129036204Y-96159111D01*
X129035172Y-96158726D01*
X128899203Y-96108011D01*
X128838654Y-96101500D01*
X128838638Y-96101500D01*
X127041362Y-96101500D01*
X127041345Y-96101500D01*
X126980797Y-96108011D01*
X126980795Y-96108011D01*
X126843795Y-96159111D01*
X126726739Y-96246739D01*
X126639111Y-96363795D01*
X126588011Y-96500795D01*
X126588011Y-96500797D01*
X126581500Y-96561345D01*
X100075500Y-96561345D01*
X100075500Y-92554998D01*
X161766807Y-92554998D01*
X161766807Y-92555001D01*
X161785541Y-92769136D01*
X161785542Y-92769144D01*
X161841176Y-92976772D01*
X161841177Y-92976774D01*
X161841178Y-92976777D01*
X161932024Y-93171597D01*
X161932026Y-93171601D01*
X162055319Y-93347682D01*
X162207317Y-93499680D01*
X162383398Y-93622973D01*
X162383400Y-93622974D01*
X162383403Y-93622976D01*
X162578223Y-93713822D01*
X162785858Y-93769458D01*
X162938816Y-93782840D01*
X162999998Y-93788193D01*
X163000000Y-93788193D01*
X163000002Y-93788193D01*
X163053535Y-93783509D01*
X163214142Y-93769458D01*
X163421777Y-93713822D01*
X163616597Y-93622976D01*
X163792681Y-93499681D01*
X163944681Y-93347681D01*
X164067976Y-93171597D01*
X164158822Y-92976777D01*
X164214458Y-92769142D01*
X164233193Y-92555000D01*
X164214458Y-92340858D01*
X164158822Y-92133223D01*
X164067976Y-91938404D01*
X163944681Y-91762319D01*
X163944679Y-91762316D01*
X163792682Y-91610319D01*
X163616601Y-91487026D01*
X163616597Y-91487024D01*
X163589051Y-91474179D01*
X163421777Y-91396178D01*
X163421774Y-91396177D01*
X163421772Y-91396176D01*
X163214144Y-91340542D01*
X163214136Y-91340541D01*
X163000002Y-91321807D01*
X162999998Y-91321807D01*
X162785863Y-91340541D01*
X162785855Y-91340542D01*
X162578227Y-91396176D01*
X162578221Y-91396179D01*
X162383405Y-91487023D01*
X162383403Y-91487024D01*
X162207316Y-91610320D01*
X162055320Y-91762316D01*
X161932024Y-91938403D01*
X161932023Y-91938405D01*
X161841179Y-92133221D01*
X161841176Y-92133227D01*
X161785542Y-92340855D01*
X161785541Y-92340863D01*
X161766807Y-92554998D01*
X100075500Y-92554998D01*
X100075500Y-90250000D01*
X133236835Y-90250000D01*
X133255465Y-90486714D01*
X133310895Y-90717595D01*
X133310895Y-90717597D01*
X133401757Y-90936959D01*
X133401759Y-90936962D01*
X133525820Y-91139410D01*
X133525821Y-91139413D01*
X133555210Y-91173823D01*
X133680031Y-91319969D01*
X133819797Y-91439340D01*
X133860586Y-91474178D01*
X133860589Y-91474179D01*
X134063037Y-91598240D01*
X134063040Y-91598242D01*
X134282403Y-91689104D01*
X134282404Y-91689104D01*
X134282406Y-91689105D01*
X134513289Y-91744535D01*
X134750000Y-91763165D01*
X134986711Y-91744535D01*
X135217594Y-91689105D01*
X135217596Y-91689104D01*
X135217597Y-91689104D01*
X135436959Y-91598242D01*
X135436960Y-91598241D01*
X135436963Y-91598240D01*
X135639416Y-91474176D01*
X135819969Y-91319969D01*
X135974176Y-91139416D01*
X136098240Y-90936963D01*
X136189105Y-90717594D01*
X136244535Y-90486711D01*
X136263165Y-90250000D01*
X139736835Y-90250000D01*
X139755465Y-90486714D01*
X139810895Y-90717595D01*
X139810895Y-90717597D01*
X139901757Y-90936959D01*
X139901759Y-90936962D01*
X140025820Y-91139410D01*
X140025821Y-91139413D01*
X140055210Y-91173823D01*
X140180031Y-91319969D01*
X140319797Y-91439340D01*
X140360586Y-91474178D01*
X140360589Y-91474179D01*
X140563037Y-91598240D01*
X140563040Y-91598242D01*
X140782403Y-91689104D01*
X140782404Y-91689104D01*
X140782406Y-91689105D01*
X141013289Y-91744535D01*
X141250000Y-91763165D01*
X141486711Y-91744535D01*
X141717594Y-91689105D01*
X141717596Y-91689104D01*
X141717597Y-91689104D01*
X141936959Y-91598242D01*
X141936960Y-91598241D01*
X141936963Y-91598240D01*
X142139416Y-91474176D01*
X142319969Y-91319969D01*
X142474176Y-91139416D01*
X142598240Y-90936963D01*
X142689105Y-90717594D01*
X142744535Y-90486711D01*
X142763165Y-90250000D01*
X145236835Y-90250000D01*
X145255465Y-90486714D01*
X145310895Y-90717595D01*
X145310895Y-90717597D01*
X145401757Y-90936959D01*
X145401759Y-90936962D01*
X145525820Y-91139410D01*
X145525821Y-91139413D01*
X145555210Y-91173823D01*
X145680031Y-91319969D01*
X145819797Y-91439340D01*
X145860586Y-91474178D01*
X145860589Y-91474179D01*
X146063037Y-91598240D01*
X146063040Y-91598242D01*
X146282403Y-91689104D01*
X146282404Y-91689104D01*
X146282406Y-91689105D01*
X146513289Y-91744535D01*
X146750000Y-91763165D01*
X146986711Y-91744535D01*
X147217594Y-91689105D01*
X147217596Y-91689104D01*
X147217597Y-91689104D01*
X147436959Y-91598242D01*
X147436960Y-91598241D01*
X147436963Y-91598240D01*
X147639416Y-91474176D01*
X147819969Y-91319969D01*
X147974176Y-91139416D01*
X148098240Y-90936963D01*
X148189105Y-90717594D01*
X148244535Y-90486711D01*
X148263165Y-90250000D01*
X151736835Y-90250000D01*
X151755465Y-90486714D01*
X151810895Y-90717595D01*
X151810895Y-90717597D01*
X151901757Y-90936959D01*
X151901759Y-90936962D01*
X152025820Y-91139410D01*
X152025821Y-91139413D01*
X152055210Y-91173823D01*
X152180031Y-91319969D01*
X152319797Y-91439340D01*
X152360586Y-91474178D01*
X152360589Y-91474179D01*
X152563037Y-91598240D01*
X152563040Y-91598242D01*
X152782403Y-91689104D01*
X152782404Y-91689104D01*
X152782406Y-91689105D01*
X153013289Y-91744535D01*
X153250000Y-91763165D01*
X153486711Y-91744535D01*
X153717594Y-91689105D01*
X153717596Y-91689104D01*
X153717597Y-91689104D01*
X153936959Y-91598242D01*
X153936960Y-91598241D01*
X153936963Y-91598240D01*
X154139416Y-91474176D01*
X154319969Y-91319969D01*
X154474176Y-91139416D01*
X154598240Y-90936963D01*
X154689105Y-90717594D01*
X154744535Y-90486711D01*
X154763165Y-90250000D01*
X154744670Y-90014998D01*
X159226807Y-90014998D01*
X159226807Y-90015001D01*
X159245541Y-90229136D01*
X159245542Y-90229144D01*
X159301176Y-90436772D01*
X159301177Y-90436774D01*
X159301178Y-90436777D01*
X159324463Y-90486711D01*
X159392024Y-90631597D01*
X159392026Y-90631601D01*
X159515319Y-90807682D01*
X159667317Y-90959680D01*
X159843398Y-91082973D01*
X159843400Y-91082974D01*
X159843403Y-91082976D01*
X160038223Y-91173822D01*
X160245858Y-91229458D01*
X160398816Y-91242840D01*
X160459998Y-91248193D01*
X160460000Y-91248193D01*
X160460002Y-91248193D01*
X160513535Y-91243509D01*
X160674142Y-91229458D01*
X160881777Y-91173822D01*
X161076597Y-91082976D01*
X161252681Y-90959681D01*
X161404681Y-90807681D01*
X161527976Y-90631597D01*
X161618822Y-90436777D01*
X161674458Y-90229142D01*
X161693193Y-90015000D01*
X161693193Y-90014997D01*
X164315340Y-90014997D01*
X164315340Y-90015002D01*
X164333944Y-90227654D01*
X164333945Y-90227662D01*
X164389194Y-90433853D01*
X164389197Y-90433859D01*
X164479413Y-90627329D01*
X164518415Y-90683030D01*
X165140000Y-90061445D01*
X165140000Y-90067661D01*
X165167259Y-90169394D01*
X165219920Y-90260606D01*
X165294394Y-90335080D01*
X165385606Y-90387741D01*
X165487339Y-90415000D01*
X165493554Y-90415000D01*
X164871968Y-91036584D01*
X164927663Y-91075582D01*
X164927669Y-91075586D01*
X165121140Y-91165802D01*
X165121146Y-91165805D01*
X165327337Y-91221054D01*
X165327345Y-91221055D01*
X165539998Y-91239660D01*
X165540002Y-91239660D01*
X165752654Y-91221055D01*
X165752662Y-91221054D01*
X165958853Y-91165805D01*
X165958864Y-91165801D01*
X166152325Y-91075589D01*
X166208030Y-91036583D01*
X165586447Y-90415000D01*
X165592661Y-90415000D01*
X165694394Y-90387741D01*
X165785606Y-90335080D01*
X165860080Y-90260606D01*
X165912741Y-90169394D01*
X165940000Y-90067661D01*
X165940000Y-90061446D01*
X166561583Y-90683029D01*
X166600589Y-90627325D01*
X166690801Y-90433864D01*
X166690805Y-90433853D01*
X166746054Y-90227662D01*
X166746055Y-90227654D01*
X166764660Y-90015002D01*
X166764660Y-90014997D01*
X166746055Y-89802345D01*
X166746054Y-89802337D01*
X166690805Y-89596146D01*
X166690802Y-89596140D01*
X166600586Y-89402669D01*
X166600582Y-89402663D01*
X166561584Y-89346968D01*
X165940000Y-89968552D01*
X165940000Y-89962339D01*
X165912741Y-89860606D01*
X165860080Y-89769394D01*
X165785606Y-89694920D01*
X165694394Y-89642259D01*
X165592661Y-89615000D01*
X165586447Y-89615000D01*
X166208030Y-88993415D01*
X166152329Y-88954413D01*
X165958859Y-88864197D01*
X165958853Y-88864194D01*
X165752662Y-88808945D01*
X165752654Y-88808944D01*
X165540002Y-88790340D01*
X165539998Y-88790340D01*
X165327345Y-88808944D01*
X165327337Y-88808945D01*
X165121146Y-88864194D01*
X165121140Y-88864197D01*
X164927671Y-88954412D01*
X164927669Y-88954413D01*
X164871969Y-88993415D01*
X164871968Y-88993415D01*
X165493554Y-89615000D01*
X165487339Y-89615000D01*
X165385606Y-89642259D01*
X165294394Y-89694920D01*
X165219920Y-89769394D01*
X165167259Y-89860606D01*
X165140000Y-89962339D01*
X165140000Y-89968553D01*
X164518415Y-89346968D01*
X164518415Y-89346969D01*
X164479413Y-89402669D01*
X164479412Y-89402671D01*
X164389197Y-89596140D01*
X164389194Y-89596146D01*
X164333945Y-89802337D01*
X164333944Y-89802345D01*
X164315340Y-90014997D01*
X161693193Y-90014997D01*
X161674458Y-89800858D01*
X161618822Y-89593223D01*
X161527976Y-89398404D01*
X161404681Y-89222319D01*
X161404679Y-89222316D01*
X161252682Y-89070319D01*
X161076601Y-88947026D01*
X161076597Y-88947024D01*
X161076595Y-88947023D01*
X160881777Y-88856178D01*
X160881774Y-88856177D01*
X160881772Y-88856176D01*
X160674144Y-88800542D01*
X160674136Y-88800541D01*
X160460002Y-88781807D01*
X160459998Y-88781807D01*
X160245863Y-88800541D01*
X160245855Y-88800542D01*
X160038227Y-88856176D01*
X160038221Y-88856179D01*
X159843405Y-88947023D01*
X159843403Y-88947024D01*
X159667316Y-89070320D01*
X159515320Y-89222316D01*
X159392024Y-89398403D01*
X159392023Y-89398405D01*
X159301179Y-89593221D01*
X159301176Y-89593227D01*
X159245542Y-89800855D01*
X159245541Y-89800863D01*
X159226807Y-90014998D01*
X154744670Y-90014998D01*
X154744535Y-90013289D01*
X154689105Y-89782406D01*
X154689104Y-89782403D01*
X154689104Y-89782402D01*
X154598242Y-89563040D01*
X154598240Y-89563037D01*
X154474179Y-89360589D01*
X154474178Y-89360586D01*
X154356086Y-89222319D01*
X154319969Y-89180031D01*
X154191513Y-89070319D01*
X154139413Y-89025821D01*
X154139410Y-89025820D01*
X153936962Y-88901759D01*
X153936959Y-88901757D01*
X153717596Y-88810895D01*
X153486714Y-88755465D01*
X153250000Y-88736835D01*
X153013285Y-88755465D01*
X152782404Y-88810895D01*
X152782402Y-88810895D01*
X152563040Y-88901757D01*
X152563037Y-88901759D01*
X152360589Y-89025820D01*
X152360586Y-89025821D01*
X152180031Y-89180031D01*
X152025821Y-89360586D01*
X152025820Y-89360589D01*
X151901759Y-89563037D01*
X151901757Y-89563040D01*
X151810895Y-89782402D01*
X151810895Y-89782404D01*
X151755465Y-90013285D01*
X151736835Y-90250000D01*
X148263165Y-90250000D01*
X148244535Y-90013289D01*
X148189105Y-89782406D01*
X148189104Y-89782403D01*
X148189104Y-89782402D01*
X148098242Y-89563040D01*
X148098240Y-89563037D01*
X147974179Y-89360589D01*
X147974178Y-89360586D01*
X147856086Y-89222319D01*
X147819969Y-89180031D01*
X147691513Y-89070319D01*
X147639413Y-89025821D01*
X147639410Y-89025820D01*
X147436962Y-88901759D01*
X147436959Y-88901757D01*
X147217596Y-88810895D01*
X146986714Y-88755465D01*
X146750000Y-88736835D01*
X146513285Y-88755465D01*
X146282404Y-88810895D01*
X146282402Y-88810895D01*
X146063040Y-88901757D01*
X146063037Y-88901759D01*
X145860589Y-89025820D01*
X145860586Y-89025821D01*
X145680031Y-89180031D01*
X145525821Y-89360586D01*
X145525820Y-89360589D01*
X145401759Y-89563037D01*
X145401757Y-89563040D01*
X145310895Y-89782402D01*
X145310895Y-89782404D01*
X145255465Y-90013285D01*
X145236835Y-90250000D01*
X142763165Y-90250000D01*
X142744535Y-90013289D01*
X142689105Y-89782406D01*
X142689104Y-89782403D01*
X142689104Y-89782402D01*
X142598242Y-89563040D01*
X142598240Y-89563037D01*
X142474179Y-89360589D01*
X142474178Y-89360586D01*
X142356086Y-89222319D01*
X142319969Y-89180031D01*
X142191513Y-89070319D01*
X142139413Y-89025821D01*
X142139410Y-89025820D01*
X141936962Y-88901759D01*
X141936959Y-88901757D01*
X141717596Y-88810895D01*
X141486714Y-88755465D01*
X141250000Y-88736835D01*
X141013285Y-88755465D01*
X140782404Y-88810895D01*
X140782402Y-88810895D01*
X140563040Y-88901757D01*
X140563037Y-88901759D01*
X140360589Y-89025820D01*
X140360586Y-89025821D01*
X140180031Y-89180031D01*
X140025821Y-89360586D01*
X140025820Y-89360589D01*
X139901759Y-89563037D01*
X139901757Y-89563040D01*
X139810895Y-89782402D01*
X139810895Y-89782404D01*
X139755465Y-90013285D01*
X139736835Y-90250000D01*
X136263165Y-90250000D01*
X136244535Y-90013289D01*
X136189105Y-89782406D01*
X136189104Y-89782403D01*
X136189104Y-89782402D01*
X136098242Y-89563040D01*
X136098240Y-89563037D01*
X135974179Y-89360589D01*
X135974178Y-89360586D01*
X135856086Y-89222319D01*
X135819969Y-89180031D01*
X135691513Y-89070319D01*
X135639413Y-89025821D01*
X135639410Y-89025820D01*
X135436962Y-88901759D01*
X135436959Y-88901757D01*
X135217596Y-88810895D01*
X134986714Y-88755465D01*
X134750000Y-88736835D01*
X134513285Y-88755465D01*
X134282404Y-88810895D01*
X134282402Y-88810895D01*
X134063040Y-88901757D01*
X134063037Y-88901759D01*
X133860589Y-89025820D01*
X133860586Y-89025821D01*
X133680031Y-89180031D01*
X133525821Y-89360586D01*
X133525820Y-89360589D01*
X133401759Y-89563037D01*
X133401757Y-89563040D01*
X133310895Y-89782402D01*
X133310895Y-89782404D01*
X133255465Y-90013285D01*
X133236835Y-90250000D01*
X100075500Y-90250000D01*
X100075500Y-85750000D01*
X133236835Y-85750000D01*
X133255465Y-85986714D01*
X133310895Y-86217595D01*
X133310895Y-86217597D01*
X133401757Y-86436959D01*
X133401759Y-86436962D01*
X133525820Y-86639410D01*
X133525821Y-86639413D01*
X133525824Y-86639416D01*
X133680031Y-86819969D01*
X133819797Y-86939340D01*
X133860586Y-86974178D01*
X133860589Y-86974179D01*
X134063037Y-87098240D01*
X134063040Y-87098242D01*
X134282403Y-87189104D01*
X134282404Y-87189104D01*
X134282406Y-87189105D01*
X134513289Y-87244535D01*
X134750000Y-87263165D01*
X134986711Y-87244535D01*
X135217594Y-87189105D01*
X135217596Y-87189104D01*
X135217597Y-87189104D01*
X135436959Y-87098242D01*
X135436960Y-87098241D01*
X135436963Y-87098240D01*
X135639416Y-86974176D01*
X135819969Y-86819969D01*
X135974176Y-86639416D01*
X136098240Y-86436963D01*
X136189105Y-86217594D01*
X136244535Y-85986711D01*
X136263165Y-85750000D01*
X139736835Y-85750000D01*
X139755465Y-85986714D01*
X139810895Y-86217595D01*
X139810895Y-86217597D01*
X139901757Y-86436959D01*
X139901759Y-86436962D01*
X140025820Y-86639410D01*
X140025821Y-86639413D01*
X140025824Y-86639416D01*
X140180031Y-86819969D01*
X140319797Y-86939340D01*
X140360586Y-86974178D01*
X140360589Y-86974179D01*
X140563037Y-87098240D01*
X140563040Y-87098242D01*
X140782403Y-87189104D01*
X140782404Y-87189104D01*
X140782406Y-87189105D01*
X141013289Y-87244535D01*
X141250000Y-87263165D01*
X141486711Y-87244535D01*
X141717594Y-87189105D01*
X141717596Y-87189104D01*
X141717597Y-87189104D01*
X141936959Y-87098242D01*
X141936960Y-87098241D01*
X141936963Y-87098240D01*
X142139416Y-86974176D01*
X142319969Y-86819969D01*
X142474176Y-86639416D01*
X142598240Y-86436963D01*
X142689105Y-86217594D01*
X142744535Y-85986711D01*
X142763165Y-85750000D01*
X142744535Y-85513289D01*
X142689105Y-85282406D01*
X142689104Y-85282403D01*
X142689104Y-85282402D01*
X142598242Y-85063040D01*
X142598240Y-85063037D01*
X142509395Y-84918056D01*
X142491150Y-84850611D01*
X142512266Y-84784008D01*
X142566038Y-84739394D01*
X142635393Y-84730934D01*
X142656077Y-84736225D01*
X142818945Y-84793215D01*
X142818951Y-84793216D01*
X142818953Y-84793217D01*
X142818954Y-84793217D01*
X142818958Y-84793218D01*
X142999996Y-84813616D01*
X143000000Y-84813616D01*
X143000004Y-84813616D01*
X143181038Y-84793218D01*
X143181037Y-84793218D01*
X143181047Y-84793217D01*
X143222804Y-84778605D01*
X143248948Y-84769458D01*
X143289901Y-84762500D01*
X145364511Y-84762500D01*
X145431550Y-84782185D01*
X145477305Y-84834989D01*
X145487249Y-84904147D01*
X145470238Y-84951290D01*
X145401759Y-85063037D01*
X145401757Y-85063040D01*
X145310895Y-85282402D01*
X145310895Y-85282404D01*
X145255465Y-85513285D01*
X145236835Y-85750000D01*
X145255465Y-85986714D01*
X145310895Y-86217595D01*
X145310895Y-86217597D01*
X145401757Y-86436959D01*
X145401759Y-86436962D01*
X145525820Y-86639410D01*
X145525821Y-86639413D01*
X145525824Y-86639416D01*
X145680031Y-86819969D01*
X145819797Y-86939340D01*
X145860586Y-86974178D01*
X145860589Y-86974179D01*
X146063037Y-87098240D01*
X146063040Y-87098242D01*
X146282403Y-87189104D01*
X146282404Y-87189104D01*
X146282406Y-87189105D01*
X146513289Y-87244535D01*
X146750000Y-87263165D01*
X146986711Y-87244535D01*
X147217594Y-87189105D01*
X147217596Y-87189104D01*
X147217597Y-87189104D01*
X147436959Y-87098242D01*
X147436960Y-87098241D01*
X147436963Y-87098240D01*
X147639416Y-86974176D01*
X147819969Y-86819969D01*
X147974176Y-86639416D01*
X148098240Y-86436963D01*
X148189105Y-86217594D01*
X148244535Y-85986711D01*
X148263165Y-85750000D01*
X151736835Y-85750000D01*
X151755465Y-85986714D01*
X151810895Y-86217595D01*
X151810895Y-86217597D01*
X151901757Y-86436959D01*
X151901759Y-86436962D01*
X152025820Y-86639410D01*
X152025821Y-86639413D01*
X152025824Y-86639416D01*
X152180031Y-86819969D01*
X152319797Y-86939340D01*
X152360586Y-86974178D01*
X152360589Y-86974179D01*
X152563037Y-87098240D01*
X152563040Y-87098242D01*
X152782403Y-87189104D01*
X152782404Y-87189104D01*
X152782406Y-87189105D01*
X153013289Y-87244535D01*
X153250000Y-87263165D01*
X153486711Y-87244535D01*
X153717594Y-87189105D01*
X153717596Y-87189104D01*
X153717597Y-87189104D01*
X153936959Y-87098242D01*
X153936960Y-87098241D01*
X153936963Y-87098240D01*
X154139416Y-86974176D01*
X154319969Y-86819969D01*
X154474176Y-86639416D01*
X154598240Y-86436963D01*
X154689105Y-86217594D01*
X154744535Y-85986711D01*
X154763165Y-85750000D01*
X154744535Y-85513289D01*
X154689105Y-85282406D01*
X154689104Y-85282403D01*
X154689104Y-85282402D01*
X154598242Y-85063040D01*
X154598240Y-85063037D01*
X154474179Y-84860589D01*
X154474178Y-84860586D01*
X154390404Y-84762500D01*
X154319969Y-84680031D01*
X154200596Y-84578076D01*
X154139413Y-84525821D01*
X154139410Y-84525820D01*
X153936962Y-84401759D01*
X153936959Y-84401757D01*
X153717596Y-84310895D01*
X153486714Y-84255465D01*
X153250000Y-84236835D01*
X153013285Y-84255465D01*
X152782404Y-84310895D01*
X152782402Y-84310895D01*
X152563040Y-84401757D01*
X152563037Y-84401759D01*
X152360589Y-84525820D01*
X152360586Y-84525821D01*
X152180031Y-84680031D01*
X152025821Y-84860586D01*
X152025820Y-84860589D01*
X151901759Y-85063037D01*
X151901757Y-85063040D01*
X151810895Y-85282402D01*
X151810895Y-85282404D01*
X151755465Y-85513285D01*
X151736835Y-85750000D01*
X148263165Y-85750000D01*
X148244535Y-85513289D01*
X148189105Y-85282406D01*
X148189104Y-85282403D01*
X148189104Y-85282402D01*
X148098242Y-85063040D01*
X148098240Y-85063037D01*
X147974179Y-84860589D01*
X147974178Y-84860586D01*
X147890404Y-84762500D01*
X147819969Y-84680031D01*
X147700596Y-84578076D01*
X147639413Y-84525821D01*
X147639410Y-84525820D01*
X147436962Y-84401759D01*
X147436959Y-84401757D01*
X147217596Y-84310895D01*
X147071713Y-84275872D01*
X146986711Y-84255465D01*
X146914454Y-84249777D01*
X146849167Y-84224893D01*
X146807697Y-84168661D01*
X146800966Y-84112277D01*
X146813616Y-84000003D01*
X146813616Y-83999996D01*
X146793218Y-83818958D01*
X146793217Y-83818953D01*
X146733043Y-83646985D01*
X146636111Y-83492719D01*
X146507281Y-83363889D01*
X146353015Y-83266957D01*
X146298693Y-83247949D01*
X146181046Y-83206782D01*
X146181041Y-83206781D01*
X146000004Y-83186384D01*
X145999996Y-83186384D01*
X145818961Y-83206781D01*
X145818952Y-83206783D01*
X145751052Y-83230542D01*
X145710099Y-83237500D01*
X143289901Y-83237500D01*
X143248948Y-83230542D01*
X143181047Y-83206783D01*
X143181038Y-83206781D01*
X143000004Y-83186384D01*
X142999996Y-83186384D01*
X142818958Y-83206781D01*
X142818953Y-83206782D01*
X142646982Y-83266958D01*
X142492718Y-83363889D01*
X142363889Y-83492718D01*
X142266958Y-83646982D01*
X142206782Y-83818953D01*
X142206781Y-83818958D01*
X142186384Y-83999996D01*
X142186384Y-84000003D01*
X142206781Y-84181041D01*
X142206783Y-84181049D01*
X142263775Y-84343923D01*
X142267336Y-84413701D01*
X142232607Y-84474329D01*
X142170614Y-84506556D01*
X142101038Y-84500151D01*
X142081943Y-84490604D01*
X141936962Y-84401759D01*
X141936959Y-84401757D01*
X141717596Y-84310895D01*
X141486714Y-84255465D01*
X141250000Y-84236835D01*
X141013285Y-84255465D01*
X140782404Y-84310895D01*
X140782402Y-84310895D01*
X140563040Y-84401757D01*
X140563037Y-84401759D01*
X140360589Y-84525820D01*
X140360586Y-84525821D01*
X140180031Y-84680031D01*
X140025821Y-84860586D01*
X140025820Y-84860589D01*
X139901759Y-85063037D01*
X139901757Y-85063040D01*
X139810895Y-85282402D01*
X139810895Y-85282404D01*
X139755465Y-85513285D01*
X139736835Y-85750000D01*
X136263165Y-85750000D01*
X136244535Y-85513289D01*
X136189105Y-85282406D01*
X136189104Y-85282403D01*
X136189104Y-85282402D01*
X136098242Y-85063040D01*
X136098240Y-85063037D01*
X135974179Y-84860589D01*
X135974178Y-84860586D01*
X135890404Y-84762500D01*
X135819969Y-84680031D01*
X135700596Y-84578076D01*
X135639413Y-84525821D01*
X135639410Y-84525820D01*
X135436962Y-84401759D01*
X135436959Y-84401757D01*
X135217596Y-84310895D01*
X134986714Y-84255465D01*
X134750000Y-84236835D01*
X134513285Y-84255465D01*
X134282404Y-84310895D01*
X134282402Y-84310895D01*
X134063040Y-84401757D01*
X134063037Y-84401759D01*
X133860589Y-84525820D01*
X133860586Y-84525821D01*
X133680031Y-84680031D01*
X133525821Y-84860586D01*
X133525820Y-84860589D01*
X133401759Y-85063037D01*
X133401757Y-85063040D01*
X133310895Y-85282402D01*
X133310895Y-85282404D01*
X133255465Y-85513285D01*
X133236835Y-85750000D01*
X100075500Y-85750000D01*
X100075500Y-80999998D01*
X129606502Y-80999998D01*
X129606502Y-81000001D01*
X129626456Y-81228081D01*
X129626457Y-81228089D01*
X129685714Y-81449238D01*
X129685718Y-81449249D01*
X129780487Y-81652482D01*
X129782477Y-81656749D01*
X129913802Y-81844300D01*
X130075700Y-82006198D01*
X130263251Y-82137523D01*
X130388091Y-82195736D01*
X130470750Y-82234281D01*
X130470752Y-82234281D01*
X130470757Y-82234284D01*
X130691913Y-82293543D01*
X130854832Y-82307796D01*
X130919998Y-82313498D01*
X130920000Y-82313498D01*
X130920002Y-82313498D01*
X130977021Y-82308509D01*
X131148087Y-82293543D01*
X131369243Y-82234284D01*
X131576749Y-82137523D01*
X131764300Y-82006198D01*
X131926198Y-81844300D01*
X132057523Y-81656749D01*
X132154284Y-81449243D01*
X132213543Y-81228087D01*
X132233498Y-81000000D01*
X132213543Y-80771913D01*
X132207671Y-80749999D01*
X139801127Y-80749999D01*
X139801128Y-80750000D01*
X140764314Y-80750000D01*
X140759920Y-80754394D01*
X140707259Y-80845606D01*
X140680000Y-80947339D01*
X140680000Y-81052661D01*
X140707259Y-81154394D01*
X140759920Y-81245606D01*
X140764314Y-81250000D01*
X139801128Y-81250000D01*
X139853730Y-81446317D01*
X139853734Y-81446326D01*
X139949865Y-81652482D01*
X140080342Y-81838820D01*
X140241179Y-81999657D01*
X140427517Y-82130134D01*
X140633673Y-82226265D01*
X140633682Y-82226269D01*
X140829999Y-82278872D01*
X140830000Y-82278871D01*
X140830000Y-81315686D01*
X140834394Y-81320080D01*
X140925606Y-81372741D01*
X141027339Y-81400000D01*
X141132661Y-81400000D01*
X141234394Y-81372741D01*
X141325606Y-81320080D01*
X141330000Y-81315686D01*
X141330000Y-82278872D01*
X141526317Y-82226269D01*
X141526326Y-82226265D01*
X141732482Y-82130134D01*
X141918820Y-81999657D01*
X142079657Y-81838820D01*
X142210134Y-81652482D01*
X142306265Y-81446326D01*
X142306269Y-81446317D01*
X142358872Y-81250000D01*
X141395686Y-81250000D01*
X141400080Y-81245606D01*
X141452741Y-81154394D01*
X141480000Y-81052661D01*
X141480000Y-80999998D01*
X146526502Y-80999998D01*
X146526502Y-81000001D01*
X146546456Y-81228081D01*
X146546457Y-81228089D01*
X146605714Y-81449238D01*
X146605718Y-81449249D01*
X146700487Y-81652482D01*
X146702477Y-81656749D01*
X146833802Y-81844300D01*
X146995700Y-82006198D01*
X147183251Y-82137523D01*
X147308091Y-82195736D01*
X147390750Y-82234281D01*
X147390752Y-82234281D01*
X147390757Y-82234284D01*
X147611913Y-82293543D01*
X147774832Y-82307796D01*
X147839998Y-82313498D01*
X147840000Y-82313498D01*
X147840002Y-82313498D01*
X147897021Y-82308509D01*
X148068087Y-82293543D01*
X148289243Y-82234284D01*
X148496749Y-82137523D01*
X148684300Y-82006198D01*
X148846198Y-81844300D01*
X148977523Y-81656749D01*
X149074284Y-81449243D01*
X149133543Y-81228087D01*
X149153498Y-81000000D01*
X149133543Y-80771913D01*
X149127671Y-80749999D01*
X156721127Y-80749999D01*
X156721128Y-80750000D01*
X157684314Y-80750000D01*
X157679920Y-80754394D01*
X157627259Y-80845606D01*
X157600000Y-80947339D01*
X157600000Y-81052661D01*
X157627259Y-81154394D01*
X157679920Y-81245606D01*
X157684314Y-81250000D01*
X156721128Y-81250000D01*
X156773730Y-81446317D01*
X156773734Y-81446326D01*
X156869865Y-81652482D01*
X157000342Y-81838820D01*
X157161179Y-81999657D01*
X157347517Y-82130134D01*
X157553673Y-82226265D01*
X157553682Y-82226269D01*
X157749999Y-82278872D01*
X157750000Y-82278871D01*
X157750000Y-81315686D01*
X157754394Y-81320080D01*
X157845606Y-81372741D01*
X157947339Y-81400000D01*
X158052661Y-81400000D01*
X158154394Y-81372741D01*
X158245606Y-81320080D01*
X158250000Y-81315686D01*
X158250000Y-82278872D01*
X158446317Y-82226269D01*
X158446326Y-82226265D01*
X158652482Y-82130134D01*
X158838820Y-81999657D01*
X158999657Y-81838820D01*
X159130134Y-81652482D01*
X159226265Y-81446326D01*
X159226269Y-81446317D01*
X159278872Y-81250000D01*
X158315686Y-81250000D01*
X158320080Y-81245606D01*
X158372741Y-81154394D01*
X158400000Y-81052661D01*
X158400000Y-80947339D01*
X158372741Y-80845606D01*
X158320080Y-80754394D01*
X158315686Y-80750000D01*
X159278872Y-80750000D01*
X159278872Y-80749999D01*
X159226269Y-80553682D01*
X159226265Y-80553673D01*
X159130134Y-80347517D01*
X158999657Y-80161179D01*
X158838820Y-80000342D01*
X158652482Y-79869865D01*
X158446328Y-79773734D01*
X158250000Y-79721127D01*
X158250000Y-80684314D01*
X158245606Y-80679920D01*
X158154394Y-80627259D01*
X158052661Y-80600000D01*
X157947339Y-80600000D01*
X157845606Y-80627259D01*
X157754394Y-80679920D01*
X157750000Y-80684314D01*
X157750000Y-79721127D01*
X157553671Y-79773734D01*
X157347517Y-79869865D01*
X157161179Y-80000342D01*
X157000342Y-80161179D01*
X156869865Y-80347517D01*
X156773734Y-80553673D01*
X156773730Y-80553682D01*
X156721127Y-80749999D01*
X149127671Y-80749999D01*
X149074284Y-80550757D01*
X148977523Y-80343251D01*
X148846198Y-80155700D01*
X148684300Y-79993802D01*
X148496749Y-79862477D01*
X148496745Y-79862475D01*
X148289249Y-79765718D01*
X148289238Y-79765714D01*
X148068089Y-79706457D01*
X148068081Y-79706456D01*
X147840002Y-79686502D01*
X147839998Y-79686502D01*
X147611918Y-79706456D01*
X147611910Y-79706457D01*
X147390761Y-79765714D01*
X147390750Y-79765718D01*
X147183254Y-79862475D01*
X147183252Y-79862476D01*
X147183251Y-79862477D01*
X146995700Y-79993802D01*
X146995698Y-79993803D01*
X146995695Y-79993806D01*
X146833806Y-80155695D01*
X146702476Y-80343252D01*
X146702475Y-80343254D01*
X146605718Y-80550750D01*
X146605714Y-80550761D01*
X146546457Y-80771910D01*
X146546456Y-80771918D01*
X146526502Y-80999998D01*
X141480000Y-80999998D01*
X141480000Y-80947339D01*
X141452741Y-80845606D01*
X141400080Y-80754394D01*
X141395686Y-80750000D01*
X142358872Y-80750000D01*
X142358872Y-80749999D01*
X142306269Y-80553682D01*
X142306265Y-80553673D01*
X142210134Y-80347517D01*
X142079657Y-80161179D01*
X141918820Y-80000342D01*
X141732482Y-79869865D01*
X141526328Y-79773734D01*
X141330000Y-79721127D01*
X141330000Y-80684314D01*
X141325606Y-80679920D01*
X141234394Y-80627259D01*
X141132661Y-80600000D01*
X141027339Y-80600000D01*
X140925606Y-80627259D01*
X140834394Y-80679920D01*
X140830000Y-80684314D01*
X140830000Y-79721127D01*
X140633671Y-79773734D01*
X140427517Y-79869865D01*
X140241179Y-80000342D01*
X140080342Y-80161179D01*
X139949865Y-80347517D01*
X139853734Y-80553673D01*
X139853730Y-80553682D01*
X139801127Y-80749999D01*
X132207671Y-80749999D01*
X132154284Y-80550757D01*
X132057523Y-80343251D01*
X131926198Y-80155700D01*
X131764300Y-79993802D01*
X131576749Y-79862477D01*
X131576745Y-79862475D01*
X131369249Y-79765718D01*
X131369238Y-79765714D01*
X131148089Y-79706457D01*
X131148081Y-79706456D01*
X130920002Y-79686502D01*
X130919998Y-79686502D01*
X130691918Y-79706456D01*
X130691910Y-79706457D01*
X130470761Y-79765714D01*
X130470750Y-79765718D01*
X130263254Y-79862475D01*
X130263252Y-79862476D01*
X130263251Y-79862477D01*
X130075700Y-79993802D01*
X130075698Y-79993803D01*
X130075695Y-79993806D01*
X129913806Y-80155695D01*
X129782476Y-80343252D01*
X129782475Y-80343254D01*
X129685718Y-80550750D01*
X129685714Y-80550761D01*
X129626457Y-80771910D01*
X129626456Y-80771918D01*
X129606502Y-80999998D01*
X100075500Y-80999998D01*
X100075500Y-76250000D01*
X134236835Y-76250000D01*
X134255465Y-76486714D01*
X134310895Y-76717595D01*
X134310895Y-76717597D01*
X134401757Y-76936959D01*
X134401759Y-76936962D01*
X134525820Y-77139410D01*
X134525821Y-77139413D01*
X134525824Y-77139416D01*
X134680031Y-77319969D01*
X134819797Y-77439340D01*
X134860586Y-77474178D01*
X134860589Y-77474179D01*
X135063037Y-77598240D01*
X135063040Y-77598242D01*
X135282403Y-77689104D01*
X135282404Y-77689104D01*
X135282406Y-77689105D01*
X135513289Y-77744535D01*
X135750000Y-77763165D01*
X135986711Y-77744535D01*
X136217594Y-77689105D01*
X136217596Y-77689104D01*
X136217597Y-77689104D01*
X136436959Y-77598242D01*
X136436960Y-77598241D01*
X136436963Y-77598240D01*
X136639416Y-77474176D01*
X136819969Y-77319969D01*
X136974176Y-77139416D01*
X137098240Y-76936963D01*
X137189105Y-76717594D01*
X137244535Y-76486711D01*
X137263165Y-76250000D01*
X140736835Y-76250000D01*
X140755465Y-76486714D01*
X140810895Y-76717595D01*
X140810895Y-76717597D01*
X140901757Y-76936959D01*
X140901759Y-76936962D01*
X141025820Y-77139410D01*
X141025821Y-77139413D01*
X141025824Y-77139416D01*
X141180031Y-77319969D01*
X141319797Y-77439340D01*
X141360586Y-77474178D01*
X141360589Y-77474179D01*
X141563037Y-77598240D01*
X141563040Y-77598242D01*
X141782403Y-77689104D01*
X141782404Y-77689104D01*
X141782406Y-77689105D01*
X142013289Y-77744535D01*
X142250000Y-77763165D01*
X142486711Y-77744535D01*
X142717594Y-77689105D01*
X142717596Y-77689104D01*
X142717597Y-77689104D01*
X142936959Y-77598242D01*
X142936960Y-77598241D01*
X142936963Y-77598240D01*
X143139416Y-77474176D01*
X143319969Y-77319969D01*
X143474176Y-77139416D01*
X143598240Y-76936963D01*
X143689105Y-76717594D01*
X143744535Y-76486711D01*
X143763165Y-76250000D01*
X146986835Y-76250000D01*
X147005465Y-76486714D01*
X147060895Y-76717595D01*
X147060895Y-76717597D01*
X147151757Y-76936959D01*
X147151759Y-76936962D01*
X147275820Y-77139410D01*
X147275821Y-77139413D01*
X147275824Y-77139416D01*
X147430031Y-77319969D01*
X147569797Y-77439340D01*
X147610586Y-77474178D01*
X147610589Y-77474179D01*
X147813037Y-77598240D01*
X147813040Y-77598242D01*
X148032403Y-77689104D01*
X148032404Y-77689104D01*
X148032406Y-77689105D01*
X148263289Y-77744535D01*
X148500000Y-77763165D01*
X148736711Y-77744535D01*
X148967594Y-77689105D01*
X148967596Y-77689104D01*
X148967597Y-77689104D01*
X149186959Y-77598242D01*
X149186960Y-77598241D01*
X149186963Y-77598240D01*
X149389416Y-77474176D01*
X149569969Y-77319969D01*
X149724176Y-77139416D01*
X149848240Y-76936963D01*
X149939105Y-76717594D01*
X149994535Y-76486711D01*
X150013165Y-76250000D01*
X153486835Y-76250000D01*
X153505465Y-76486714D01*
X153560895Y-76717595D01*
X153560895Y-76717597D01*
X153651757Y-76936959D01*
X153651759Y-76936962D01*
X153775820Y-77139410D01*
X153775821Y-77139413D01*
X153775824Y-77139416D01*
X153930031Y-77319969D01*
X154069797Y-77439340D01*
X154110586Y-77474178D01*
X154110589Y-77474179D01*
X154313037Y-77598240D01*
X154313040Y-77598242D01*
X154532403Y-77689104D01*
X154532404Y-77689104D01*
X154532406Y-77689105D01*
X154763289Y-77744535D01*
X155000000Y-77763165D01*
X155236711Y-77744535D01*
X155467594Y-77689105D01*
X155467596Y-77689104D01*
X155467597Y-77689104D01*
X155686959Y-77598242D01*
X155686960Y-77598241D01*
X155686963Y-77598240D01*
X155889416Y-77474176D01*
X156069969Y-77319969D01*
X156224176Y-77139416D01*
X156348240Y-76936963D01*
X156439105Y-76717594D01*
X156494535Y-76486711D01*
X156513165Y-76250000D01*
X157236835Y-76250000D01*
X157255465Y-76486714D01*
X157310895Y-76717595D01*
X157310895Y-76717597D01*
X157401757Y-76936959D01*
X157401759Y-76936962D01*
X157525820Y-77139410D01*
X157525821Y-77139413D01*
X157525824Y-77139416D01*
X157680031Y-77319969D01*
X157819797Y-77439340D01*
X157860586Y-77474178D01*
X157860589Y-77474179D01*
X158063037Y-77598240D01*
X158063040Y-77598242D01*
X158282403Y-77689104D01*
X158282404Y-77689104D01*
X158282406Y-77689105D01*
X158513289Y-77744535D01*
X158750000Y-77763165D01*
X158986711Y-77744535D01*
X159217594Y-77689105D01*
X159217596Y-77689104D01*
X159217597Y-77689104D01*
X159436959Y-77598242D01*
X159436960Y-77598241D01*
X159436963Y-77598240D01*
X159639416Y-77474176D01*
X159819969Y-77319969D01*
X159974176Y-77139416D01*
X160098240Y-76936963D01*
X160189105Y-76717594D01*
X160244535Y-76486711D01*
X160263165Y-76250000D01*
X163736835Y-76250000D01*
X163755465Y-76486714D01*
X163810895Y-76717595D01*
X163810895Y-76717597D01*
X163901757Y-76936959D01*
X163901759Y-76936962D01*
X164025820Y-77139410D01*
X164025821Y-77139413D01*
X164025824Y-77139416D01*
X164180031Y-77319969D01*
X164319797Y-77439340D01*
X164360586Y-77474178D01*
X164360589Y-77474179D01*
X164563037Y-77598240D01*
X164563040Y-77598242D01*
X164782403Y-77689104D01*
X164782404Y-77689104D01*
X164782406Y-77689105D01*
X165013289Y-77744535D01*
X165250000Y-77763165D01*
X165486711Y-77744535D01*
X165717594Y-77689105D01*
X165717596Y-77689104D01*
X165717597Y-77689104D01*
X165936959Y-77598242D01*
X165936960Y-77598241D01*
X165936963Y-77598240D01*
X166139416Y-77474176D01*
X166319969Y-77319969D01*
X166474176Y-77139416D01*
X166598240Y-76936963D01*
X166689105Y-76717594D01*
X166744535Y-76486711D01*
X166763165Y-76250000D01*
X166744535Y-76013289D01*
X166689105Y-75782406D01*
X166689104Y-75782403D01*
X166689104Y-75782402D01*
X166598242Y-75563040D01*
X166598240Y-75563037D01*
X166474179Y-75360589D01*
X166474178Y-75360586D01*
X166439340Y-75319797D01*
X166319969Y-75180031D01*
X166200596Y-75078076D01*
X166139413Y-75025821D01*
X166139410Y-75025820D01*
X165936962Y-74901759D01*
X165936959Y-74901757D01*
X165717596Y-74810895D01*
X165486714Y-74755465D01*
X165250000Y-74736835D01*
X165013285Y-74755465D01*
X164782404Y-74810895D01*
X164782402Y-74810895D01*
X164563040Y-74901757D01*
X164563037Y-74901759D01*
X164360589Y-75025820D01*
X164360586Y-75025821D01*
X164180031Y-75180031D01*
X164025821Y-75360586D01*
X164025820Y-75360589D01*
X163901759Y-75563037D01*
X163901757Y-75563040D01*
X163810895Y-75782402D01*
X163810895Y-75782404D01*
X163755465Y-76013285D01*
X163736835Y-76250000D01*
X160263165Y-76250000D01*
X160244535Y-76013289D01*
X160189105Y-75782406D01*
X160189104Y-75782403D01*
X160189104Y-75782402D01*
X160098242Y-75563040D01*
X160098240Y-75563037D01*
X159974179Y-75360589D01*
X159974178Y-75360586D01*
X159939340Y-75319797D01*
X159819969Y-75180031D01*
X159700596Y-75078076D01*
X159639413Y-75025821D01*
X159639410Y-75025820D01*
X159436962Y-74901759D01*
X159436959Y-74901757D01*
X159217596Y-74810895D01*
X158986714Y-74755465D01*
X158750000Y-74736835D01*
X158513285Y-74755465D01*
X158282404Y-74810895D01*
X158282402Y-74810895D01*
X158063040Y-74901757D01*
X158063037Y-74901759D01*
X157860589Y-75025820D01*
X157860586Y-75025821D01*
X157680031Y-75180031D01*
X157525821Y-75360586D01*
X157525820Y-75360589D01*
X157401759Y-75563037D01*
X157401757Y-75563040D01*
X157310895Y-75782402D01*
X157310895Y-75782404D01*
X157255465Y-76013285D01*
X157236835Y-76250000D01*
X156513165Y-76250000D01*
X156494535Y-76013289D01*
X156439105Y-75782406D01*
X156439104Y-75782403D01*
X156439104Y-75782402D01*
X156348242Y-75563040D01*
X156348240Y-75563037D01*
X156224179Y-75360589D01*
X156224178Y-75360586D01*
X156189340Y-75319797D01*
X156069969Y-75180031D01*
X155950596Y-75078076D01*
X155889413Y-75025821D01*
X155889410Y-75025820D01*
X155686962Y-74901759D01*
X155686959Y-74901757D01*
X155467596Y-74810895D01*
X155236714Y-74755465D01*
X155000000Y-74736835D01*
X154763285Y-74755465D01*
X154532404Y-74810895D01*
X154532402Y-74810895D01*
X154313040Y-74901757D01*
X154313037Y-74901759D01*
X154110589Y-75025820D01*
X154110586Y-75025821D01*
X153930031Y-75180031D01*
X153775821Y-75360586D01*
X153775820Y-75360589D01*
X153651759Y-75563037D01*
X153651757Y-75563040D01*
X153560895Y-75782402D01*
X153560895Y-75782404D01*
X153505465Y-76013285D01*
X153486835Y-76250000D01*
X150013165Y-76250000D01*
X149994535Y-76013289D01*
X149939105Y-75782406D01*
X149939104Y-75782403D01*
X149939104Y-75782402D01*
X149848242Y-75563040D01*
X149848240Y-75563037D01*
X149724179Y-75360589D01*
X149724178Y-75360586D01*
X149689340Y-75319797D01*
X149569969Y-75180031D01*
X149450596Y-75078076D01*
X149389413Y-75025821D01*
X149389410Y-75025820D01*
X149186962Y-74901759D01*
X149186959Y-74901757D01*
X148967596Y-74810895D01*
X148736714Y-74755465D01*
X148500000Y-74736835D01*
X148263285Y-74755465D01*
X148032404Y-74810895D01*
X148032402Y-74810895D01*
X147813040Y-74901757D01*
X147813037Y-74901759D01*
X147610589Y-75025820D01*
X147610586Y-75025821D01*
X147430031Y-75180031D01*
X147275821Y-75360586D01*
X147275820Y-75360589D01*
X147151759Y-75563037D01*
X147151757Y-75563040D01*
X147060895Y-75782402D01*
X147060895Y-75782404D01*
X147005465Y-76013285D01*
X146986835Y-76250000D01*
X143763165Y-76250000D01*
X143744535Y-76013289D01*
X143689105Y-75782406D01*
X143689104Y-75782403D01*
X143689104Y-75782402D01*
X143598242Y-75563040D01*
X143598240Y-75563037D01*
X143474179Y-75360589D01*
X143474178Y-75360586D01*
X143439340Y-75319797D01*
X143319969Y-75180031D01*
X143200596Y-75078076D01*
X143139413Y-75025821D01*
X143139410Y-75025820D01*
X142936962Y-74901759D01*
X142936959Y-74901757D01*
X142717596Y-74810895D01*
X142486714Y-74755465D01*
X142250000Y-74736835D01*
X142013285Y-74755465D01*
X141782404Y-74810895D01*
X141782402Y-74810895D01*
X141563040Y-74901757D01*
X141563037Y-74901759D01*
X141360589Y-75025820D01*
X141360586Y-75025821D01*
X141180031Y-75180031D01*
X141025821Y-75360586D01*
X141025820Y-75360589D01*
X140901759Y-75563037D01*
X140901757Y-75563040D01*
X140810895Y-75782402D01*
X140810895Y-75782404D01*
X140755465Y-76013285D01*
X140736835Y-76250000D01*
X137263165Y-76250000D01*
X137244535Y-76013289D01*
X137189105Y-75782406D01*
X137189104Y-75782403D01*
X137189104Y-75782402D01*
X137098242Y-75563040D01*
X137098240Y-75563037D01*
X136974179Y-75360589D01*
X136974178Y-75360586D01*
X136939340Y-75319797D01*
X136819969Y-75180031D01*
X136700596Y-75078076D01*
X136639413Y-75025821D01*
X136639410Y-75025820D01*
X136436962Y-74901759D01*
X136436959Y-74901757D01*
X136217596Y-74810895D01*
X135986714Y-74755465D01*
X135750000Y-74736835D01*
X135513285Y-74755465D01*
X135282404Y-74810895D01*
X135282402Y-74810895D01*
X135063040Y-74901757D01*
X135063037Y-74901759D01*
X134860589Y-75025820D01*
X134860586Y-75025821D01*
X134680031Y-75180031D01*
X134525821Y-75360586D01*
X134525820Y-75360589D01*
X134401759Y-75563037D01*
X134401757Y-75563040D01*
X134310895Y-75782402D01*
X134310895Y-75782404D01*
X134255465Y-76013285D01*
X134236835Y-76250000D01*
X100075500Y-76250000D01*
X100075500Y-71750000D01*
X134236835Y-71750000D01*
X134255465Y-71986714D01*
X134310895Y-72217595D01*
X134310895Y-72217597D01*
X134401757Y-72436959D01*
X134401759Y-72436962D01*
X134525820Y-72639410D01*
X134525821Y-72639413D01*
X134525824Y-72639416D01*
X134680031Y-72819969D01*
X134819797Y-72939340D01*
X134860586Y-72974178D01*
X134860589Y-72974179D01*
X135063037Y-73098240D01*
X135063040Y-73098242D01*
X135282403Y-73189104D01*
X135282404Y-73189104D01*
X135282406Y-73189105D01*
X135513289Y-73244535D01*
X135750000Y-73263165D01*
X135986711Y-73244535D01*
X136217594Y-73189105D01*
X136217596Y-73189104D01*
X136217597Y-73189104D01*
X136436959Y-73098242D01*
X136436960Y-73098241D01*
X136436963Y-73098240D01*
X136639416Y-72974176D01*
X136819969Y-72819969D01*
X136974176Y-72639416D01*
X137098240Y-72436963D01*
X137189105Y-72217594D01*
X137244535Y-71986711D01*
X137263165Y-71750000D01*
X140736835Y-71750000D01*
X140755465Y-71986714D01*
X140810895Y-72217595D01*
X140810895Y-72217597D01*
X140901757Y-72436959D01*
X140901759Y-72436962D01*
X141025820Y-72639410D01*
X141025821Y-72639413D01*
X141025824Y-72639416D01*
X141180031Y-72819969D01*
X141319797Y-72939340D01*
X141360586Y-72974178D01*
X141360589Y-72974179D01*
X141563037Y-73098240D01*
X141563040Y-73098242D01*
X141782403Y-73189104D01*
X141782404Y-73189104D01*
X141782406Y-73189105D01*
X142013289Y-73244535D01*
X142250000Y-73263165D01*
X142486711Y-73244535D01*
X142717594Y-73189105D01*
X142717596Y-73189104D01*
X142717597Y-73189104D01*
X142936959Y-73098242D01*
X142936960Y-73098241D01*
X142936963Y-73098240D01*
X143139416Y-72974176D01*
X143319969Y-72819969D01*
X143474176Y-72639416D01*
X143598240Y-72436963D01*
X143689105Y-72217594D01*
X143744535Y-71986711D01*
X143763165Y-71750000D01*
X143744535Y-71513289D01*
X143689105Y-71282406D01*
X143689104Y-71282403D01*
X143689104Y-71282402D01*
X143598242Y-71063040D01*
X143598240Y-71063037D01*
X143549057Y-70982778D01*
X143530812Y-70915333D01*
X143551928Y-70848730D01*
X143605700Y-70804116D01*
X143668667Y-70794768D01*
X143835949Y-70813616D01*
X143835953Y-70813616D01*
X143835957Y-70813616D01*
X144016991Y-70793218D01*
X144016990Y-70793218D01*
X144017000Y-70793217D01*
X144058757Y-70778605D01*
X144084901Y-70769458D01*
X144125854Y-70762500D01*
X146384099Y-70762500D01*
X146425052Y-70769458D01*
X146458363Y-70781113D01*
X146492953Y-70793217D01*
X146492960Y-70793217D01*
X146492961Y-70793218D01*
X146673996Y-70813616D01*
X146674000Y-70813616D01*
X146674004Y-70813616D01*
X146855041Y-70793218D01*
X146855044Y-70793217D01*
X146855047Y-70793217D01*
X147027015Y-70733043D01*
X147111555Y-70679922D01*
X147178791Y-70660922D01*
X147245626Y-70681289D01*
X147290840Y-70734557D01*
X147300079Y-70803813D01*
X147277847Y-70857799D01*
X147275821Y-70860586D01*
X147151759Y-71063037D01*
X147151757Y-71063040D01*
X147060895Y-71282402D01*
X147060895Y-71282404D01*
X147005465Y-71513285D01*
X146986835Y-71750000D01*
X147005465Y-71986714D01*
X147060895Y-72217595D01*
X147060895Y-72217597D01*
X147151757Y-72436959D01*
X147151759Y-72436962D01*
X147275820Y-72639410D01*
X147275821Y-72639413D01*
X147275824Y-72639416D01*
X147430031Y-72819969D01*
X147569797Y-72939340D01*
X147610586Y-72974178D01*
X147610589Y-72974179D01*
X147813037Y-73098240D01*
X147813040Y-73098242D01*
X148032403Y-73189104D01*
X148032404Y-73189104D01*
X148032406Y-73189105D01*
X148263289Y-73244535D01*
X148500000Y-73263165D01*
X148736711Y-73244535D01*
X148967594Y-73189105D01*
X148967596Y-73189104D01*
X148967597Y-73189104D01*
X149186959Y-73098242D01*
X149186960Y-73098241D01*
X149186963Y-73098240D01*
X149389416Y-72974176D01*
X149569969Y-72819969D01*
X149724176Y-72639416D01*
X149848240Y-72436963D01*
X149939105Y-72217594D01*
X149994535Y-71986711D01*
X150013165Y-71750000D01*
X153486835Y-71750000D01*
X153505465Y-71986714D01*
X153560895Y-72217595D01*
X153560895Y-72217597D01*
X153651757Y-72436959D01*
X153651759Y-72436962D01*
X153775820Y-72639410D01*
X153775821Y-72639413D01*
X153775824Y-72639416D01*
X153930031Y-72819969D01*
X154069797Y-72939340D01*
X154110586Y-72974178D01*
X154110589Y-72974179D01*
X154313037Y-73098240D01*
X154313040Y-73098242D01*
X154532403Y-73189104D01*
X154532404Y-73189104D01*
X154532406Y-73189105D01*
X154763289Y-73244535D01*
X155000000Y-73263165D01*
X155236711Y-73244535D01*
X155467594Y-73189105D01*
X155467596Y-73189104D01*
X155467597Y-73189104D01*
X155686959Y-73098242D01*
X155686960Y-73098241D01*
X155686963Y-73098240D01*
X155889416Y-72974176D01*
X156069969Y-72819969D01*
X156224176Y-72639416D01*
X156348240Y-72436963D01*
X156439105Y-72217594D01*
X156494535Y-71986711D01*
X156505420Y-71848402D01*
X156530303Y-71783118D01*
X156586534Y-71741647D01*
X156656259Y-71737160D01*
X156669992Y-71741094D01*
X156818945Y-71793215D01*
X156818951Y-71793216D01*
X156818953Y-71793217D01*
X156818954Y-71793217D01*
X156818958Y-71793218D01*
X156999996Y-71813616D01*
X157000000Y-71813616D01*
X157000004Y-71813616D01*
X157112277Y-71800966D01*
X157181098Y-71813021D01*
X157232478Y-71860370D01*
X157249777Y-71914454D01*
X157255465Y-71986711D01*
X157255466Y-71986714D01*
X157310895Y-72217595D01*
X157310895Y-72217597D01*
X157401757Y-72436959D01*
X157401759Y-72436962D01*
X157525820Y-72639410D01*
X157525821Y-72639413D01*
X157525824Y-72639416D01*
X157680031Y-72819969D01*
X157819797Y-72939340D01*
X157860586Y-72974178D01*
X157860589Y-72974179D01*
X158063037Y-73098240D01*
X158063040Y-73098242D01*
X158282403Y-73189104D01*
X158282404Y-73189104D01*
X158282406Y-73189105D01*
X158513289Y-73244535D01*
X158750000Y-73263165D01*
X158986711Y-73244535D01*
X159217594Y-73189105D01*
X159217596Y-73189104D01*
X159217597Y-73189104D01*
X159436959Y-73098242D01*
X159436960Y-73098241D01*
X159436963Y-73098240D01*
X159639416Y-72974176D01*
X159819969Y-72819969D01*
X159974176Y-72639416D01*
X160098240Y-72436963D01*
X160189105Y-72217594D01*
X160244535Y-71986711D01*
X160263165Y-71750000D01*
X163736835Y-71750000D01*
X163755465Y-71986714D01*
X163810895Y-72217595D01*
X163810895Y-72217597D01*
X163901757Y-72436959D01*
X163901759Y-72436962D01*
X164025820Y-72639410D01*
X164025821Y-72639413D01*
X164025824Y-72639416D01*
X164180031Y-72819969D01*
X164319797Y-72939340D01*
X164360586Y-72974178D01*
X164360589Y-72974179D01*
X164563037Y-73098240D01*
X164563040Y-73098242D01*
X164782403Y-73189104D01*
X164782404Y-73189104D01*
X164782406Y-73189105D01*
X165013289Y-73244535D01*
X165250000Y-73263165D01*
X165486711Y-73244535D01*
X165717594Y-73189105D01*
X165717596Y-73189104D01*
X165717597Y-73189104D01*
X165936959Y-73098242D01*
X165936960Y-73098241D01*
X165936963Y-73098240D01*
X166139416Y-72974176D01*
X166319969Y-72819969D01*
X166474176Y-72639416D01*
X166598240Y-72436963D01*
X166689105Y-72217594D01*
X166744535Y-71986711D01*
X166763165Y-71750000D01*
X166744535Y-71513289D01*
X166689105Y-71282406D01*
X166689104Y-71282403D01*
X166689104Y-71282402D01*
X166598242Y-71063040D01*
X166598240Y-71063037D01*
X166474179Y-70860589D01*
X166474178Y-70860586D01*
X166390404Y-70762500D01*
X166319969Y-70680031D01*
X166184034Y-70563931D01*
X166139413Y-70525821D01*
X166139410Y-70525820D01*
X165936962Y-70401759D01*
X165936959Y-70401757D01*
X165717596Y-70310895D01*
X165486714Y-70255465D01*
X165250000Y-70236835D01*
X165013285Y-70255465D01*
X164782404Y-70310895D01*
X164782402Y-70310895D01*
X164563040Y-70401757D01*
X164563037Y-70401759D01*
X164360589Y-70525820D01*
X164360586Y-70525821D01*
X164180031Y-70680031D01*
X164025821Y-70860586D01*
X164025820Y-70860589D01*
X163901759Y-71063037D01*
X163901757Y-71063040D01*
X163810895Y-71282402D01*
X163810895Y-71282404D01*
X163755465Y-71513285D01*
X163736835Y-71750000D01*
X160263165Y-71750000D01*
X160244535Y-71513289D01*
X160189105Y-71282406D01*
X160189104Y-71282403D01*
X160189104Y-71282402D01*
X160098242Y-71063040D01*
X160098240Y-71063037D01*
X159974179Y-70860589D01*
X159974178Y-70860586D01*
X159890404Y-70762500D01*
X159819969Y-70680031D01*
X159684034Y-70563931D01*
X159639413Y-70525821D01*
X159639410Y-70525820D01*
X159436962Y-70401759D01*
X159436959Y-70401757D01*
X159217596Y-70310895D01*
X158986714Y-70255465D01*
X158750000Y-70236835D01*
X158513285Y-70255465D01*
X158282404Y-70310895D01*
X158282402Y-70310895D01*
X158063040Y-70401757D01*
X158063037Y-70401759D01*
X157860592Y-70525818D01*
X157860584Y-70525823D01*
X157837192Y-70545802D01*
X157773430Y-70574370D01*
X157704344Y-70563931D01*
X157651870Y-70517799D01*
X157651822Y-70517724D01*
X157636111Y-70492719D01*
X157507281Y-70363889D01*
X157458917Y-70333500D01*
X157431590Y-70316329D01*
X157409881Y-70299016D01*
X156846001Y-69735135D01*
X156845910Y-69735053D01*
X156823822Y-69712964D01*
X156647411Y-69572279D01*
X156456366Y-69452236D01*
X156253079Y-69354337D01*
X156253077Y-69354336D01*
X156040107Y-69279813D01*
X155854724Y-69237500D01*
X155820135Y-69229605D01*
X155820131Y-69229604D01*
X155820122Y-69229603D01*
X155595928Y-69204342D01*
X155595922Y-69204341D01*
X155558207Y-69204341D01*
X155558204Y-69204341D01*
X155256742Y-69204341D01*
X155215789Y-69197383D01*
X155147888Y-69173624D01*
X155147879Y-69173622D01*
X154966845Y-69153225D01*
X154966837Y-69153225D01*
X154785799Y-69173622D01*
X154785794Y-69173623D01*
X154613823Y-69233799D01*
X154459559Y-69330730D01*
X154330730Y-69459559D01*
X154233799Y-69613823D01*
X154173623Y-69785794D01*
X154173622Y-69785799D01*
X154153225Y-69966837D01*
X154153225Y-69966844D01*
X154173622Y-70147882D01*
X154173623Y-70147887D01*
X154200025Y-70223338D01*
X154230662Y-70310895D01*
X154236098Y-70326428D01*
X154234874Y-70326856D01*
X154245036Y-70388555D01*
X154217315Y-70452690D01*
X154186755Y-70479145D01*
X154110585Y-70525823D01*
X154110581Y-70525826D01*
X153930031Y-70680031D01*
X153775821Y-70860586D01*
X153775820Y-70860589D01*
X153651759Y-71063037D01*
X153651757Y-71063040D01*
X153560895Y-71282402D01*
X153560895Y-71282404D01*
X153505465Y-71513285D01*
X153486835Y-71750000D01*
X150013165Y-71750000D01*
X149994535Y-71513289D01*
X149939105Y-71282406D01*
X149939104Y-71282403D01*
X149939104Y-71282402D01*
X149848242Y-71063040D01*
X149848240Y-71063037D01*
X149724179Y-70860589D01*
X149724178Y-70860586D01*
X149640404Y-70762500D01*
X149569969Y-70680031D01*
X149434034Y-70563931D01*
X149389413Y-70525821D01*
X149389410Y-70525820D01*
X149186962Y-70401759D01*
X149186959Y-70401757D01*
X148967596Y-70310895D01*
X148736714Y-70255465D01*
X148500000Y-70236835D01*
X148263285Y-70255465D01*
X148032404Y-70310895D01*
X148032402Y-70310895D01*
X147813040Y-70401757D01*
X147813037Y-70401759D01*
X147610589Y-70525820D01*
X147610586Y-70525821D01*
X147554688Y-70573564D01*
X147490926Y-70602135D01*
X147421840Y-70591698D01*
X147369365Y-70545567D01*
X147350159Y-70478389D01*
X147369163Y-70413301D01*
X147407041Y-70353018D01*
X147407040Y-70353018D01*
X147407043Y-70353015D01*
X147467217Y-70181047D01*
X147470953Y-70147888D01*
X147487616Y-70000003D01*
X147487616Y-69999996D01*
X147467218Y-69818958D01*
X147467217Y-69818953D01*
X147455614Y-69785794D01*
X147407043Y-69646985D01*
X147310111Y-69492719D01*
X147181281Y-69363889D01*
X147047477Y-69279814D01*
X147027017Y-69266958D01*
X147027016Y-69266957D01*
X147027015Y-69266957D01*
X146972693Y-69247949D01*
X146855046Y-69206782D01*
X146855041Y-69206781D01*
X146674004Y-69186384D01*
X146673996Y-69186384D01*
X146492961Y-69206781D01*
X146492952Y-69206783D01*
X146425052Y-69230542D01*
X146384099Y-69237500D01*
X144125854Y-69237500D01*
X144084901Y-69230542D01*
X144017000Y-69206783D01*
X144016991Y-69206781D01*
X143835957Y-69186384D01*
X143835949Y-69186384D01*
X143654911Y-69206781D01*
X143654906Y-69206782D01*
X143482935Y-69266958D01*
X143328671Y-69363889D01*
X143199842Y-69492718D01*
X143102911Y-69646982D01*
X143042735Y-69818953D01*
X143042734Y-69818958D01*
X143022337Y-69999996D01*
X143022337Y-70000003D01*
X143042734Y-70181041D01*
X143042736Y-70181049D01*
X143059462Y-70228849D01*
X143063023Y-70298628D01*
X143028294Y-70359255D01*
X142966300Y-70391482D01*
X142896725Y-70385076D01*
X142894968Y-70384364D01*
X142717596Y-70310895D01*
X142486714Y-70255465D01*
X142250000Y-70236835D01*
X142013285Y-70255465D01*
X141782404Y-70310895D01*
X141782402Y-70310895D01*
X141563040Y-70401757D01*
X141563037Y-70401759D01*
X141360589Y-70525820D01*
X141360586Y-70525821D01*
X141180031Y-70680031D01*
X141025821Y-70860586D01*
X141025820Y-70860589D01*
X140901759Y-71063037D01*
X140901757Y-71063040D01*
X140810895Y-71282402D01*
X140810895Y-71282404D01*
X140755465Y-71513285D01*
X140736835Y-71750000D01*
X137263165Y-71750000D01*
X137244535Y-71513289D01*
X137189105Y-71282406D01*
X137189104Y-71282403D01*
X137189104Y-71282402D01*
X137098242Y-71063040D01*
X137098240Y-71063037D01*
X136974179Y-70860589D01*
X136974178Y-70860586D01*
X136890404Y-70762500D01*
X136819969Y-70680031D01*
X136684034Y-70563931D01*
X136639413Y-70525821D01*
X136639410Y-70525820D01*
X136436962Y-70401759D01*
X136436959Y-70401757D01*
X136217596Y-70310895D01*
X135986714Y-70255465D01*
X135750000Y-70236835D01*
X135513285Y-70255465D01*
X135282404Y-70310895D01*
X135282402Y-70310895D01*
X135063040Y-70401757D01*
X135063037Y-70401759D01*
X134860589Y-70525820D01*
X134860586Y-70525821D01*
X134680031Y-70680031D01*
X134525821Y-70860586D01*
X134525820Y-70860589D01*
X134401759Y-71063037D01*
X134401757Y-71063040D01*
X134310895Y-71282402D01*
X134310895Y-71282404D01*
X134255465Y-71513285D01*
X134236835Y-71750000D01*
X100075500Y-71750000D01*
X100075500Y-68077155D01*
X108850000Y-68077155D01*
X108850000Y-68725000D01*
X109766988Y-68725000D01*
X109734075Y-68782007D01*
X109700000Y-68909174D01*
X109700000Y-69040826D01*
X109734075Y-69167993D01*
X109766988Y-69225000D01*
X108850000Y-69225000D01*
X108850000Y-69872844D01*
X108856401Y-69932372D01*
X108856403Y-69932379D01*
X108906645Y-70067086D01*
X108906649Y-70067093D01*
X108992809Y-70182187D01*
X108992812Y-70182190D01*
X109107906Y-70268350D01*
X109107913Y-70268354D01*
X109242620Y-70318596D01*
X109242627Y-70318598D01*
X109302155Y-70324999D01*
X109302172Y-70325000D01*
X109950000Y-70325000D01*
X109950000Y-69408012D01*
X110007007Y-69440925D01*
X110134174Y-69475000D01*
X110265826Y-69475000D01*
X110392993Y-69440925D01*
X110450000Y-69408012D01*
X110450000Y-70325000D01*
X111097828Y-70325000D01*
X111097844Y-70324999D01*
X111157372Y-70318598D01*
X111157379Y-70318596D01*
X111292086Y-70268354D01*
X111292093Y-70268350D01*
X111407187Y-70182190D01*
X111407190Y-70182187D01*
X111493350Y-70067093D01*
X111493354Y-70067086D01*
X111539681Y-69942877D01*
X111581552Y-69886943D01*
X111647016Y-69862526D01*
X111715289Y-69877377D01*
X111747089Y-69902223D01*
X111816760Y-69977906D01*
X111994424Y-70116189D01*
X111994425Y-70116189D01*
X111994427Y-70116191D01*
X112114260Y-70181041D01*
X112192426Y-70223342D01*
X112405365Y-70296444D01*
X112627431Y-70333500D01*
X112852569Y-70333500D01*
X113074635Y-70296444D01*
X113287574Y-70223342D01*
X113485576Y-70116189D01*
X113663240Y-69977906D01*
X113769456Y-69862526D01*
X113815715Y-69812276D01*
X113815715Y-69812275D01*
X113815722Y-69812268D01*
X113906193Y-69673790D01*
X113959338Y-69628437D01*
X114028569Y-69619013D01*
X114091905Y-69648515D01*
X114113804Y-69673787D01*
X114204278Y-69812268D01*
X114204283Y-69812273D01*
X114204284Y-69812276D01*
X114356756Y-69977902D01*
X114356760Y-69977906D01*
X114534424Y-70116189D01*
X114534425Y-70116189D01*
X114534427Y-70116191D01*
X114654260Y-70181041D01*
X114732426Y-70223342D01*
X114945365Y-70296444D01*
X115167431Y-70333500D01*
X115392569Y-70333500D01*
X115614635Y-70296444D01*
X115827574Y-70223342D01*
X116025576Y-70116189D01*
X116203240Y-69977906D01*
X116309456Y-69862526D01*
X116355715Y-69812276D01*
X116355715Y-69812275D01*
X116355722Y-69812268D01*
X116446193Y-69673790D01*
X116499338Y-69628437D01*
X116568569Y-69619013D01*
X116631905Y-69648515D01*
X116653804Y-69673787D01*
X116744278Y-69812268D01*
X116744283Y-69812273D01*
X116744284Y-69812276D01*
X116896756Y-69977902D01*
X116896760Y-69977906D01*
X117074424Y-70116189D01*
X117074425Y-70116189D01*
X117074427Y-70116191D01*
X117194260Y-70181041D01*
X117272426Y-70223342D01*
X117485365Y-70296444D01*
X117707431Y-70333500D01*
X117932569Y-70333500D01*
X118154635Y-70296444D01*
X118367574Y-70223342D01*
X118565576Y-70116189D01*
X118743240Y-69977906D01*
X118849456Y-69862526D01*
X118895715Y-69812276D01*
X118895717Y-69812273D01*
X118895722Y-69812268D01*
X119018860Y-69623791D01*
X119109296Y-69417616D01*
X119164564Y-69199368D01*
X119164565Y-69199359D01*
X119183156Y-68975005D01*
X119183156Y-68974994D01*
X119164565Y-68750640D01*
X119164563Y-68750628D01*
X119109296Y-68532385D01*
X119099071Y-68509075D01*
X119018860Y-68326209D01*
X119002706Y-68301484D01*
X118895723Y-68137734D01*
X118895715Y-68137723D01*
X118743243Y-67972097D01*
X118743238Y-67972092D01*
X118565577Y-67833812D01*
X118565572Y-67833808D01*
X118367580Y-67726661D01*
X118367577Y-67726659D01*
X118367574Y-67726658D01*
X118367571Y-67726657D01*
X118367569Y-67726656D01*
X118154637Y-67653556D01*
X117932569Y-67616500D01*
X117707431Y-67616500D01*
X117485362Y-67653556D01*
X117272430Y-67726656D01*
X117272419Y-67726661D01*
X117074427Y-67833808D01*
X117074422Y-67833812D01*
X116896761Y-67972092D01*
X116896756Y-67972097D01*
X116744284Y-68137723D01*
X116744276Y-68137734D01*
X116653808Y-68276206D01*
X116600662Y-68321562D01*
X116531431Y-68330986D01*
X116468095Y-68301484D01*
X116446192Y-68276206D01*
X116355723Y-68137734D01*
X116355715Y-68137723D01*
X116203243Y-67972097D01*
X116203238Y-67972092D01*
X116025577Y-67833812D01*
X116025572Y-67833808D01*
X115827580Y-67726661D01*
X115827577Y-67726659D01*
X115827574Y-67726658D01*
X115827571Y-67726657D01*
X115827569Y-67726656D01*
X115614637Y-67653556D01*
X115392569Y-67616500D01*
X115167431Y-67616500D01*
X114945362Y-67653556D01*
X114732430Y-67726656D01*
X114732419Y-67726661D01*
X114534427Y-67833808D01*
X114534422Y-67833812D01*
X114356761Y-67972092D01*
X114356756Y-67972097D01*
X114204284Y-68137723D01*
X114204276Y-68137734D01*
X114113808Y-68276206D01*
X114060662Y-68321562D01*
X113991431Y-68330986D01*
X113928095Y-68301484D01*
X113906192Y-68276206D01*
X113815723Y-68137734D01*
X113815715Y-68137723D01*
X113663243Y-67972097D01*
X113663238Y-67972092D01*
X113485577Y-67833812D01*
X113485572Y-67833808D01*
X113287580Y-67726661D01*
X113287577Y-67726659D01*
X113287574Y-67726658D01*
X113287571Y-67726657D01*
X113287569Y-67726656D01*
X113074637Y-67653556D01*
X112852569Y-67616500D01*
X112627431Y-67616500D01*
X112405362Y-67653556D01*
X112192430Y-67726656D01*
X112192419Y-67726661D01*
X111994427Y-67833808D01*
X111994422Y-67833812D01*
X111816761Y-67972092D01*
X111747092Y-68047773D01*
X111687205Y-68083763D01*
X111617367Y-68081662D01*
X111559751Y-68042137D01*
X111539681Y-68007122D01*
X111493354Y-67882913D01*
X111493350Y-67882906D01*
X111407190Y-67767812D01*
X111407187Y-67767809D01*
X111292093Y-67681649D01*
X111292086Y-67681645D01*
X111157379Y-67631403D01*
X111157372Y-67631401D01*
X111097844Y-67625000D01*
X110450000Y-67625000D01*
X110450000Y-68541988D01*
X110392993Y-68509075D01*
X110265826Y-68475000D01*
X110134174Y-68475000D01*
X110007007Y-68509075D01*
X109950000Y-68541988D01*
X109950000Y-67625000D01*
X109302155Y-67625000D01*
X109242627Y-67631401D01*
X109242620Y-67631403D01*
X109107913Y-67681645D01*
X109107906Y-67681649D01*
X108992812Y-67767809D01*
X108992809Y-67767812D01*
X108906649Y-67882906D01*
X108906645Y-67882913D01*
X108856403Y-68017620D01*
X108856401Y-68017627D01*
X108850000Y-68077155D01*
X100075500Y-68077155D01*
X100075500Y-66999998D01*
X131526502Y-66999998D01*
X131526502Y-67000001D01*
X131546456Y-67228081D01*
X131546457Y-67228089D01*
X131605714Y-67449238D01*
X131605718Y-67449249D01*
X131687672Y-67625000D01*
X131702477Y-67656749D01*
X131833802Y-67844300D01*
X131995700Y-68006198D01*
X132183251Y-68137523D01*
X132276576Y-68181041D01*
X132390750Y-68234281D01*
X132390752Y-68234281D01*
X132390757Y-68234284D01*
X132611913Y-68293543D01*
X132774832Y-68307796D01*
X132839998Y-68313498D01*
X132840000Y-68313498D01*
X132840002Y-68313498D01*
X132897021Y-68308509D01*
X133068087Y-68293543D01*
X133289243Y-68234284D01*
X133496749Y-68137523D01*
X133684300Y-68006198D01*
X133846198Y-67844300D01*
X133977523Y-67656749D01*
X134074284Y-67449243D01*
X134133543Y-67228087D01*
X134153498Y-67000000D01*
X134153498Y-66999998D01*
X141686502Y-66999998D01*
X141686502Y-67000001D01*
X141706456Y-67228081D01*
X141706457Y-67228089D01*
X141765714Y-67449238D01*
X141765718Y-67449249D01*
X141847672Y-67625000D01*
X141862477Y-67656749D01*
X141993802Y-67844300D01*
X142155700Y-68006198D01*
X142343251Y-68137523D01*
X142436576Y-68181041D01*
X142550750Y-68234281D01*
X142550752Y-68234281D01*
X142550757Y-68234284D01*
X142771913Y-68293543D01*
X142934832Y-68307796D01*
X142999998Y-68313498D01*
X143000000Y-68313498D01*
X143000002Y-68313498D01*
X143057021Y-68308509D01*
X143228087Y-68293543D01*
X143449243Y-68234284D01*
X143656749Y-68137523D01*
X143844300Y-68006198D01*
X144006198Y-67844300D01*
X144137523Y-67656749D01*
X144234284Y-67449243D01*
X144293543Y-67228087D01*
X144313498Y-67000000D01*
X144313498Y-66999998D01*
X144606502Y-66999998D01*
X144606502Y-67000001D01*
X144626456Y-67228081D01*
X144626457Y-67228089D01*
X144685714Y-67449238D01*
X144685718Y-67449249D01*
X144767672Y-67625000D01*
X144782477Y-67656749D01*
X144913802Y-67844300D01*
X145075700Y-68006198D01*
X145263251Y-68137523D01*
X145356576Y-68181041D01*
X145470750Y-68234281D01*
X145470752Y-68234281D01*
X145470757Y-68234284D01*
X145691913Y-68293543D01*
X145854832Y-68307796D01*
X145919998Y-68313498D01*
X145920000Y-68313498D01*
X145920002Y-68313498D01*
X145977021Y-68308509D01*
X146148087Y-68293543D01*
X146369243Y-68234284D01*
X146576749Y-68137523D01*
X146764300Y-68006198D01*
X146926198Y-67844300D01*
X147057523Y-67656749D01*
X147154284Y-67449243D01*
X147213543Y-67228087D01*
X147233498Y-67000000D01*
X147213543Y-66771913D01*
X147207671Y-66749999D01*
X154801127Y-66749999D01*
X154801128Y-66750000D01*
X155764314Y-66750000D01*
X155759920Y-66754394D01*
X155707259Y-66845606D01*
X155680000Y-66947339D01*
X155680000Y-67052661D01*
X155707259Y-67154394D01*
X155759920Y-67245606D01*
X155764314Y-67250000D01*
X154801128Y-67250000D01*
X154853730Y-67446317D01*
X154853734Y-67446326D01*
X154949865Y-67652482D01*
X155080342Y-67838820D01*
X155241179Y-67999657D01*
X155427517Y-68130134D01*
X155633673Y-68226265D01*
X155633682Y-68226269D01*
X155829999Y-68278872D01*
X155830000Y-68278871D01*
X155830000Y-67315686D01*
X155834394Y-67320080D01*
X155925606Y-67372741D01*
X156027339Y-67400000D01*
X156132661Y-67400000D01*
X156234394Y-67372741D01*
X156325606Y-67320080D01*
X156330000Y-67315686D01*
X156330000Y-68278872D01*
X156526317Y-68226269D01*
X156526326Y-68226265D01*
X156732482Y-68130134D01*
X156918820Y-67999657D01*
X157079657Y-67838820D01*
X157210134Y-67652482D01*
X157306265Y-67446326D01*
X157306269Y-67446317D01*
X157358872Y-67250000D01*
X156395686Y-67250000D01*
X156400080Y-67245606D01*
X156452741Y-67154394D01*
X156480000Y-67052661D01*
X156480000Y-66947339D01*
X156452741Y-66845606D01*
X156400080Y-66754394D01*
X156395686Y-66750000D01*
X157358872Y-66750000D01*
X157358872Y-66749999D01*
X157306269Y-66553682D01*
X157306265Y-66553673D01*
X157210134Y-66347517D01*
X157079657Y-66161179D01*
X156999382Y-66080904D01*
X156965897Y-66019581D01*
X156967298Y-65999996D01*
X161186384Y-65999996D01*
X161186384Y-66000003D01*
X161206781Y-66181038D01*
X161206782Y-66181044D01*
X161230542Y-66248946D01*
X161237500Y-66289900D01*
X161237500Y-67710098D01*
X161230542Y-67751052D01*
X161206782Y-67818955D01*
X161186384Y-67999996D01*
X161186384Y-68000003D01*
X161206781Y-68181041D01*
X161206782Y-68181046D01*
X161240080Y-68276206D01*
X161266957Y-68353015D01*
X161363889Y-68507281D01*
X161492719Y-68636111D01*
X161646985Y-68733043D01*
X161786917Y-68782007D01*
X161818953Y-68793217D01*
X161818958Y-68793218D01*
X161999996Y-68813616D01*
X162000000Y-68813616D01*
X162000004Y-68813616D01*
X162181041Y-68793218D01*
X162181044Y-68793217D01*
X162181047Y-68793217D01*
X162353015Y-68733043D01*
X162507281Y-68636111D01*
X162636111Y-68507281D01*
X162733043Y-68353015D01*
X162793217Y-68181047D01*
X162793218Y-68181041D01*
X162813616Y-68000003D01*
X162813616Y-67999996D01*
X162793217Y-67818955D01*
X162793217Y-67818953D01*
X162769458Y-67751052D01*
X162762500Y-67710098D01*
X162762500Y-66289900D01*
X162769458Y-66248946D01*
X162793217Y-66181047D01*
X162796073Y-66155700D01*
X162813616Y-66000003D01*
X162813616Y-65999996D01*
X162793218Y-65818958D01*
X162793217Y-65818953D01*
X162777289Y-65773433D01*
X162733043Y-65646985D01*
X162636111Y-65492719D01*
X162507281Y-65363889D01*
X162394809Y-65293218D01*
X162353017Y-65266958D01*
X162353016Y-65266957D01*
X162353015Y-65266957D01*
X162298693Y-65247949D01*
X162181046Y-65206782D01*
X162181041Y-65206781D01*
X162000004Y-65186384D01*
X161999996Y-65186384D01*
X161818958Y-65206781D01*
X161818953Y-65206782D01*
X161646982Y-65266958D01*
X161492718Y-65363889D01*
X161363889Y-65492718D01*
X161266958Y-65646982D01*
X161206782Y-65818953D01*
X161206781Y-65818958D01*
X161186384Y-65999996D01*
X156967298Y-65999996D01*
X156970881Y-65949889D01*
X157012753Y-65893956D01*
X157073180Y-65870003D01*
X157083793Y-65868807D01*
X157141675Y-65862286D01*
X157141677Y-65862285D01*
X157141681Y-65862285D01*
X157313649Y-65802111D01*
X157333965Y-65789344D01*
X157346442Y-65781506D01*
X157412414Y-65762500D01*
X158866825Y-65762500D01*
X158880706Y-65763279D01*
X158902346Y-65765718D01*
X159033156Y-65780457D01*
X159033159Y-65780457D01*
X159033163Y-65780457D01*
X159214200Y-65760059D01*
X159214203Y-65760058D01*
X159214206Y-65760058D01*
X159386174Y-65699884D01*
X159540440Y-65602952D01*
X159669270Y-65474122D01*
X159766202Y-65319856D01*
X159826376Y-65147888D01*
X159835257Y-65069068D01*
X159846775Y-64966844D01*
X159846775Y-64966837D01*
X159826377Y-64785799D01*
X159826376Y-64785794D01*
X159820660Y-64769458D01*
X159766202Y-64613826D01*
X159669270Y-64459560D01*
X159540440Y-64330730D01*
X159502685Y-64307007D01*
X159386176Y-64233799D01*
X159386175Y-64233798D01*
X159386174Y-64233798D01*
X159331852Y-64214790D01*
X159214205Y-64173623D01*
X159214200Y-64173622D01*
X159033163Y-64153225D01*
X159033155Y-64153225D01*
X158852117Y-64173622D01*
X158852112Y-64173623D01*
X158726900Y-64217437D01*
X158689448Y-64230542D01*
X158648495Y-64237500D01*
X157015865Y-64237500D01*
X157015494Y-64237499D01*
X157015362Y-64237498D01*
X156940588Y-64237272D01*
X156940586Y-64237272D01*
X156789681Y-64266884D01*
X156705532Y-64301569D01*
X156699235Y-64303966D01*
X156607617Y-64336025D01*
X156607616Y-64336026D01*
X156453352Y-64432957D01*
X156324523Y-64561786D01*
X156227592Y-64716050D01*
X156167416Y-64888021D01*
X156167415Y-64888026D01*
X156147018Y-65069064D01*
X156147018Y-65069071D01*
X156167415Y-65250109D01*
X156167416Y-65250114D01*
X156227592Y-65422085D01*
X156327607Y-65581257D01*
X156346607Y-65648493D01*
X156330000Y-65702987D01*
X156330000Y-66684314D01*
X156325606Y-66679920D01*
X156234394Y-66627259D01*
X156132661Y-66600000D01*
X156027339Y-66600000D01*
X155925606Y-66627259D01*
X155834394Y-66679920D01*
X155830000Y-66684314D01*
X155830000Y-65721127D01*
X155633671Y-65773734D01*
X155427517Y-65869865D01*
X155241179Y-66000342D01*
X155080342Y-66161179D01*
X154949865Y-66347517D01*
X154853734Y-66553673D01*
X154853730Y-66553682D01*
X154801127Y-66749999D01*
X147207671Y-66749999D01*
X147154284Y-66550757D01*
X147057523Y-66343251D01*
X146926198Y-66155700D01*
X146764300Y-65993802D01*
X146576749Y-65862477D01*
X146576745Y-65862475D01*
X146369249Y-65765718D01*
X146369238Y-65765714D01*
X146148089Y-65706457D01*
X146148081Y-65706456D01*
X145920002Y-65686502D01*
X145919998Y-65686502D01*
X145691918Y-65706456D01*
X145691910Y-65706457D01*
X145470761Y-65765714D01*
X145470750Y-65765718D01*
X145263254Y-65862475D01*
X145263252Y-65862476D01*
X145234392Y-65882684D01*
X145075700Y-65993802D01*
X145075698Y-65993803D01*
X145075695Y-65993806D01*
X144913806Y-66155695D01*
X144782476Y-66343252D01*
X144782475Y-66343254D01*
X144685718Y-66550750D01*
X144685714Y-66550761D01*
X144626457Y-66771910D01*
X144626456Y-66771918D01*
X144606502Y-66999998D01*
X144313498Y-66999998D01*
X144293543Y-66771913D01*
X144234284Y-66550757D01*
X144137523Y-66343251D01*
X144006198Y-66155700D01*
X143844300Y-65993802D01*
X143656749Y-65862477D01*
X143656745Y-65862475D01*
X143449249Y-65765718D01*
X143449238Y-65765714D01*
X143228089Y-65706457D01*
X143228081Y-65706456D01*
X143000002Y-65686502D01*
X142999998Y-65686502D01*
X142771918Y-65706456D01*
X142771910Y-65706457D01*
X142550761Y-65765714D01*
X142550750Y-65765718D01*
X142343254Y-65862475D01*
X142343252Y-65862476D01*
X142314392Y-65882684D01*
X142155700Y-65993802D01*
X142155698Y-65993803D01*
X142155695Y-65993806D01*
X141993806Y-66155695D01*
X141862476Y-66343252D01*
X141862475Y-66343254D01*
X141765718Y-66550750D01*
X141765714Y-66550761D01*
X141706457Y-66771910D01*
X141706456Y-66771918D01*
X141686502Y-66999998D01*
X134153498Y-66999998D01*
X134133543Y-66771913D01*
X134074284Y-66550757D01*
X133977523Y-66343251D01*
X133846198Y-66155700D01*
X133684300Y-65993802D01*
X133496749Y-65862477D01*
X133496745Y-65862475D01*
X133289249Y-65765718D01*
X133289238Y-65765714D01*
X133068089Y-65706457D01*
X133068081Y-65706456D01*
X132840002Y-65686502D01*
X132839998Y-65686502D01*
X132611918Y-65706456D01*
X132611910Y-65706457D01*
X132390761Y-65765714D01*
X132390750Y-65765718D01*
X132183254Y-65862475D01*
X132183252Y-65862476D01*
X132154392Y-65882684D01*
X131995700Y-65993802D01*
X131995698Y-65993803D01*
X131995695Y-65993806D01*
X131833806Y-66155695D01*
X131702476Y-66343252D01*
X131702475Y-66343254D01*
X131605718Y-66550750D01*
X131605714Y-66550761D01*
X131546457Y-66771910D01*
X131546456Y-66771918D01*
X131526502Y-66999998D01*
X100075500Y-66999998D01*
X100075500Y-64499994D01*
X101731844Y-64499994D01*
X101731844Y-64500005D01*
X101750434Y-64724359D01*
X101750436Y-64724371D01*
X101805703Y-64942614D01*
X101896140Y-65148792D01*
X102019276Y-65337265D01*
X102019284Y-65337276D01*
X102138355Y-65466619D01*
X102171760Y-65502906D01*
X102349424Y-65641189D01*
X102349425Y-65641189D01*
X102349427Y-65641191D01*
X102470027Y-65706456D01*
X102547426Y-65748342D01*
X102704050Y-65802111D01*
X102753123Y-65818958D01*
X102760365Y-65821444D01*
X102982431Y-65858500D01*
X103207569Y-65858500D01*
X103429635Y-65821444D01*
X103642574Y-65748342D01*
X103840576Y-65641189D01*
X104018240Y-65502906D01*
X104123295Y-65388787D01*
X104170715Y-65337276D01*
X104170715Y-65337275D01*
X104170722Y-65337268D01*
X104261193Y-65198790D01*
X104314338Y-65153437D01*
X104383569Y-65144013D01*
X104446905Y-65173515D01*
X104468804Y-65198787D01*
X104559278Y-65337268D01*
X104559283Y-65337273D01*
X104559284Y-65337276D01*
X104678355Y-65466619D01*
X104711760Y-65502906D01*
X104889424Y-65641189D01*
X104889425Y-65641189D01*
X104889427Y-65641191D01*
X105010027Y-65706456D01*
X105087426Y-65748342D01*
X105244050Y-65802111D01*
X105293123Y-65818958D01*
X105300365Y-65821444D01*
X105522431Y-65858500D01*
X105747569Y-65858500D01*
X105969635Y-65821444D01*
X106182574Y-65748342D01*
X106380576Y-65641189D01*
X106558240Y-65502906D01*
X106663295Y-65388787D01*
X106710715Y-65337276D01*
X106710715Y-65337275D01*
X106710722Y-65337268D01*
X106801193Y-65198790D01*
X106854338Y-65153437D01*
X106923569Y-65144013D01*
X106986905Y-65173515D01*
X107008804Y-65198787D01*
X107099278Y-65337268D01*
X107099283Y-65337273D01*
X107099284Y-65337276D01*
X107218355Y-65466619D01*
X107251760Y-65502906D01*
X107429424Y-65641189D01*
X107429425Y-65641189D01*
X107429427Y-65641191D01*
X107550027Y-65706456D01*
X107627426Y-65748342D01*
X107784050Y-65802111D01*
X107833123Y-65818958D01*
X107840365Y-65821444D01*
X108062431Y-65858500D01*
X108287569Y-65858500D01*
X108509635Y-65821444D01*
X108722574Y-65748342D01*
X108920576Y-65641189D01*
X109098240Y-65502906D01*
X109203295Y-65388787D01*
X109250715Y-65337276D01*
X109250715Y-65337275D01*
X109250722Y-65337268D01*
X109341193Y-65198790D01*
X109394338Y-65153437D01*
X109463569Y-65144013D01*
X109526905Y-65173515D01*
X109548804Y-65198787D01*
X109639278Y-65337268D01*
X109639283Y-65337273D01*
X109639284Y-65337276D01*
X109758355Y-65466619D01*
X109791760Y-65502906D01*
X109969424Y-65641189D01*
X109969425Y-65641189D01*
X109969427Y-65641191D01*
X110090027Y-65706456D01*
X110167426Y-65748342D01*
X110324050Y-65802111D01*
X110373123Y-65818958D01*
X110380365Y-65821444D01*
X110602431Y-65858500D01*
X110827569Y-65858500D01*
X111049635Y-65821444D01*
X111262574Y-65748342D01*
X111460576Y-65641189D01*
X111638240Y-65502906D01*
X111743295Y-65388787D01*
X111790715Y-65337276D01*
X111790715Y-65337275D01*
X111790722Y-65337268D01*
X111881193Y-65198790D01*
X111934338Y-65153437D01*
X112003569Y-65144013D01*
X112066905Y-65173515D01*
X112088804Y-65198787D01*
X112179278Y-65337268D01*
X112179283Y-65337273D01*
X112179284Y-65337276D01*
X112298355Y-65466619D01*
X112331760Y-65502906D01*
X112509424Y-65641189D01*
X112509425Y-65641189D01*
X112509427Y-65641191D01*
X112630027Y-65706456D01*
X112707426Y-65748342D01*
X112864050Y-65802111D01*
X112913123Y-65818958D01*
X112920365Y-65821444D01*
X113142431Y-65858500D01*
X113367569Y-65858500D01*
X113589635Y-65821444D01*
X113802574Y-65748342D01*
X114000576Y-65641189D01*
X114178240Y-65502906D01*
X114283295Y-65388787D01*
X114330715Y-65337276D01*
X114330715Y-65337275D01*
X114330722Y-65337268D01*
X114421193Y-65198790D01*
X114474338Y-65153437D01*
X114543569Y-65144013D01*
X114606905Y-65173515D01*
X114628804Y-65198787D01*
X114719278Y-65337268D01*
X114719283Y-65337273D01*
X114719284Y-65337276D01*
X114838355Y-65466619D01*
X114871760Y-65502906D01*
X115049424Y-65641189D01*
X115049425Y-65641189D01*
X115049427Y-65641191D01*
X115170027Y-65706456D01*
X115247426Y-65748342D01*
X115404050Y-65802111D01*
X115453123Y-65818958D01*
X115460365Y-65821444D01*
X115682431Y-65858500D01*
X115907569Y-65858500D01*
X116129635Y-65821444D01*
X116342574Y-65748342D01*
X116540576Y-65641189D01*
X116718240Y-65502906D01*
X116823295Y-65388787D01*
X116870715Y-65337276D01*
X116870715Y-65337275D01*
X116870722Y-65337268D01*
X116964749Y-65193347D01*
X117017894Y-65147994D01*
X117087125Y-65138570D01*
X117150461Y-65168072D01*
X117170130Y-65190048D01*
X117296890Y-65371078D01*
X117463917Y-65538105D01*
X117657421Y-65673600D01*
X117871507Y-65773429D01*
X117871516Y-65773433D01*
X118085000Y-65830634D01*
X118085000Y-64933012D01*
X118142007Y-64965925D01*
X118269174Y-65000000D01*
X118400826Y-65000000D01*
X118527993Y-64965925D01*
X118585000Y-64933012D01*
X118585000Y-65830633D01*
X118798483Y-65773433D01*
X118798492Y-65773429D01*
X119012578Y-65673600D01*
X119206078Y-65538108D01*
X119321914Y-65422272D01*
X119383237Y-65388787D01*
X119452929Y-65393771D01*
X119508863Y-65435642D01*
X119525777Y-65466619D01*
X119574110Y-65596203D01*
X119596140Y-65625632D01*
X119661739Y-65713261D01*
X119778796Y-65800889D01*
X119915799Y-65851989D01*
X119943050Y-65854918D01*
X119976345Y-65858499D01*
X119976362Y-65858500D01*
X121773638Y-65858500D01*
X121773654Y-65858499D01*
X121800692Y-65855591D01*
X121834201Y-65851989D01*
X121971204Y-65800889D01*
X122088261Y-65713261D01*
X122175889Y-65596204D01*
X122226989Y-65459201D01*
X122230979Y-65422085D01*
X122233499Y-65398654D01*
X122233500Y-65398637D01*
X122233500Y-64499996D01*
X127686384Y-64499996D01*
X127686384Y-64500003D01*
X127706781Y-64681041D01*
X127706782Y-64681046D01*
X127736276Y-64765334D01*
X127766957Y-64853015D01*
X127863889Y-65007281D01*
X127992719Y-65136111D01*
X128146985Y-65233043D01*
X128318953Y-65293217D01*
X128318958Y-65293218D01*
X128499996Y-65313616D01*
X128500000Y-65313616D01*
X128500004Y-65313616D01*
X128681041Y-65293218D01*
X128681044Y-65293217D01*
X128681047Y-65293217D01*
X128853015Y-65233043D01*
X129007281Y-65136111D01*
X129136111Y-65007281D01*
X129233043Y-64853015D01*
X129233043Y-64853013D01*
X129236748Y-64847118D01*
X129237724Y-64847731D01*
X129255113Y-64823224D01*
X129279519Y-64798818D01*
X129340841Y-64765334D01*
X129367200Y-64762500D01*
X129433648Y-64762505D01*
X129433654Y-64762503D01*
X129439965Y-64762504D01*
X129440064Y-64762500D01*
X133304099Y-64762500D01*
X133345052Y-64769458D01*
X133378363Y-64781113D01*
X133412953Y-64793217D01*
X133412960Y-64793217D01*
X133412961Y-64793218D01*
X133593996Y-64813616D01*
X133594000Y-64813616D01*
X133594004Y-64813616D01*
X133775041Y-64793218D01*
X133775044Y-64793217D01*
X133775047Y-64793217D01*
X133947015Y-64733043D01*
X134101281Y-64636111D01*
X134230111Y-64507281D01*
X134327043Y-64353015D01*
X134387217Y-64181047D01*
X134387218Y-64181041D01*
X134407616Y-64000003D01*
X134407616Y-63999996D01*
X134387218Y-63818958D01*
X134387217Y-63818953D01*
X134369023Y-63766957D01*
X134327043Y-63646985D01*
X134230111Y-63492719D01*
X134101281Y-63363889D01*
X134031397Y-63319978D01*
X133947017Y-63266958D01*
X133947016Y-63266957D01*
X133947015Y-63266957D01*
X133862880Y-63237517D01*
X133775046Y-63206782D01*
X133775041Y-63206781D01*
X133594004Y-63186384D01*
X133593996Y-63186384D01*
X133412961Y-63206781D01*
X133412952Y-63206783D01*
X133345052Y-63230542D01*
X133304099Y-63237500D01*
X129272835Y-63237500D01*
X129272454Y-63237517D01*
X129247672Y-63237517D01*
X129037631Y-63265158D01*
X128833009Y-63319978D01*
X128637276Y-63401046D01*
X128637268Y-63401050D01*
X128453809Y-63506965D01*
X128285737Y-63635928D01*
X128285731Y-63635933D01*
X128266368Y-63655295D01*
X128266361Y-63655302D01*
X128263935Y-63657728D01*
X128210831Y-63710831D01*
X128176769Y-63744891D01*
X128152267Y-63762277D01*
X128152880Y-63763253D01*
X127992718Y-63863889D01*
X127863889Y-63992718D01*
X127766958Y-64146982D01*
X127706782Y-64318953D01*
X127706781Y-64318958D01*
X127686384Y-64499996D01*
X122233500Y-64499996D01*
X122233500Y-63601362D01*
X122233499Y-63601345D01*
X122230157Y-63570270D01*
X122226989Y-63540799D01*
X122226855Y-63540440D01*
X122197559Y-63461894D01*
X122175889Y-63403796D01*
X122088261Y-63286739D01*
X121971204Y-63199111D01*
X121937082Y-63186384D01*
X121834203Y-63148011D01*
X121773654Y-63141500D01*
X121773638Y-63141500D01*
X119976362Y-63141500D01*
X119976345Y-63141500D01*
X119915797Y-63148011D01*
X119915795Y-63148011D01*
X119778795Y-63199111D01*
X119661739Y-63286739D01*
X119574111Y-63403795D01*
X119525777Y-63533381D01*
X119483905Y-63589314D01*
X119418441Y-63613730D01*
X119350168Y-63598878D01*
X119321915Y-63577727D01*
X119206082Y-63461894D01*
X119012578Y-63326399D01*
X118798492Y-63226570D01*
X118798486Y-63226567D01*
X118585000Y-63169364D01*
X118585000Y-64066988D01*
X118527993Y-64034075D01*
X118400826Y-64000000D01*
X118269174Y-64000000D01*
X118142007Y-64034075D01*
X118085000Y-64066988D01*
X118085000Y-63169364D01*
X118084999Y-63169364D01*
X117871513Y-63226567D01*
X117871507Y-63226570D01*
X117657422Y-63326399D01*
X117657420Y-63326400D01*
X117463926Y-63461886D01*
X117463920Y-63461891D01*
X117296891Y-63628920D01*
X117296890Y-63628922D01*
X117170131Y-63809952D01*
X117115554Y-63853577D01*
X117046055Y-63860769D01*
X116983701Y-63829247D01*
X116964752Y-63806656D01*
X116870722Y-63662732D01*
X116870715Y-63662725D01*
X116870715Y-63662723D01*
X116718243Y-63497097D01*
X116718238Y-63497092D01*
X116575734Y-63386176D01*
X116540576Y-63358811D01*
X116540575Y-63358810D01*
X116540572Y-63358808D01*
X116342580Y-63251661D01*
X116342577Y-63251659D01*
X116342574Y-63251658D01*
X116342571Y-63251657D01*
X116342569Y-63251656D01*
X116129637Y-63178556D01*
X115907569Y-63141500D01*
X115682431Y-63141500D01*
X115460362Y-63178556D01*
X115247430Y-63251656D01*
X115247419Y-63251661D01*
X115049427Y-63358808D01*
X115049422Y-63358812D01*
X114871761Y-63497092D01*
X114871756Y-63497097D01*
X114719284Y-63662723D01*
X114719276Y-63662734D01*
X114628808Y-63801206D01*
X114575662Y-63846562D01*
X114506431Y-63855986D01*
X114443095Y-63826484D01*
X114421192Y-63801206D01*
X114330723Y-63662734D01*
X114330715Y-63662723D01*
X114178243Y-63497097D01*
X114178238Y-63497092D01*
X114035734Y-63386176D01*
X114000576Y-63358811D01*
X114000575Y-63358810D01*
X114000572Y-63358808D01*
X113802580Y-63251661D01*
X113802577Y-63251659D01*
X113802574Y-63251658D01*
X113802571Y-63251657D01*
X113802569Y-63251656D01*
X113589637Y-63178556D01*
X113367569Y-63141500D01*
X113142431Y-63141500D01*
X112920362Y-63178556D01*
X112707430Y-63251656D01*
X112707419Y-63251661D01*
X112509427Y-63358808D01*
X112509422Y-63358812D01*
X112331761Y-63497092D01*
X112331756Y-63497097D01*
X112179284Y-63662723D01*
X112179276Y-63662734D01*
X112088808Y-63801206D01*
X112035662Y-63846562D01*
X111966431Y-63855986D01*
X111903095Y-63826484D01*
X111881192Y-63801206D01*
X111790723Y-63662734D01*
X111790715Y-63662723D01*
X111638243Y-63497097D01*
X111638238Y-63497092D01*
X111495734Y-63386176D01*
X111460576Y-63358811D01*
X111460575Y-63358810D01*
X111460572Y-63358808D01*
X111262580Y-63251661D01*
X111262577Y-63251659D01*
X111262574Y-63251658D01*
X111262571Y-63251657D01*
X111262569Y-63251656D01*
X111049637Y-63178556D01*
X110827569Y-63141500D01*
X110602431Y-63141500D01*
X110380362Y-63178556D01*
X110167430Y-63251656D01*
X110167419Y-63251661D01*
X109969427Y-63358808D01*
X109969422Y-63358812D01*
X109791761Y-63497092D01*
X109791756Y-63497097D01*
X109639284Y-63662723D01*
X109639276Y-63662734D01*
X109548808Y-63801206D01*
X109495662Y-63846562D01*
X109426431Y-63855986D01*
X109363095Y-63826484D01*
X109341192Y-63801206D01*
X109250723Y-63662734D01*
X109250715Y-63662723D01*
X109098243Y-63497097D01*
X109098238Y-63497092D01*
X108955734Y-63386176D01*
X108920576Y-63358811D01*
X108920575Y-63358810D01*
X108920572Y-63358808D01*
X108722580Y-63251661D01*
X108722577Y-63251659D01*
X108722574Y-63251658D01*
X108722571Y-63251657D01*
X108722569Y-63251656D01*
X108509637Y-63178556D01*
X108287569Y-63141500D01*
X108062431Y-63141500D01*
X107840362Y-63178556D01*
X107627430Y-63251656D01*
X107627419Y-63251661D01*
X107429427Y-63358808D01*
X107429422Y-63358812D01*
X107251761Y-63497092D01*
X107251756Y-63497097D01*
X107099284Y-63662723D01*
X107099276Y-63662734D01*
X107008808Y-63801206D01*
X106955662Y-63846562D01*
X106886431Y-63855986D01*
X106823095Y-63826484D01*
X106801192Y-63801206D01*
X106710723Y-63662734D01*
X106710715Y-63662723D01*
X106558243Y-63497097D01*
X106558238Y-63497092D01*
X106415734Y-63386176D01*
X106380576Y-63358811D01*
X106380575Y-63358810D01*
X106380572Y-63358808D01*
X106182580Y-63251661D01*
X106182577Y-63251659D01*
X106182574Y-63251658D01*
X106182571Y-63251657D01*
X106182569Y-63251656D01*
X105969637Y-63178556D01*
X105747569Y-63141500D01*
X105522431Y-63141500D01*
X105300362Y-63178556D01*
X105087430Y-63251656D01*
X105087419Y-63251661D01*
X104889427Y-63358808D01*
X104889422Y-63358812D01*
X104711761Y-63497092D01*
X104711756Y-63497097D01*
X104559284Y-63662723D01*
X104559276Y-63662734D01*
X104468808Y-63801206D01*
X104415662Y-63846562D01*
X104346431Y-63855986D01*
X104283095Y-63826484D01*
X104261192Y-63801206D01*
X104170723Y-63662734D01*
X104170715Y-63662723D01*
X104018243Y-63497097D01*
X104018238Y-63497092D01*
X103875734Y-63386176D01*
X103840576Y-63358811D01*
X103840575Y-63358810D01*
X103840572Y-63358808D01*
X103642580Y-63251661D01*
X103642577Y-63251659D01*
X103642574Y-63251658D01*
X103642571Y-63251657D01*
X103642569Y-63251656D01*
X103429637Y-63178556D01*
X103207569Y-63141500D01*
X102982431Y-63141500D01*
X102760362Y-63178556D01*
X102547430Y-63251656D01*
X102547419Y-63251661D01*
X102349427Y-63358808D01*
X102349422Y-63358812D01*
X102171761Y-63497092D01*
X102171756Y-63497097D01*
X102019284Y-63662723D01*
X102019276Y-63662734D01*
X101896140Y-63851207D01*
X101805703Y-64057385D01*
X101750436Y-64275628D01*
X101750434Y-64275640D01*
X101731844Y-64499994D01*
X100075500Y-64499994D01*
X100075500Y-63033155D01*
X137153225Y-63033155D01*
X137153225Y-63033162D01*
X137173622Y-63214200D01*
X137173623Y-63214205D01*
X137233799Y-63386176D01*
X137281371Y-63461886D01*
X137330730Y-63540440D01*
X137459560Y-63669270D01*
X137613826Y-63766202D01*
X137764595Y-63818958D01*
X137785794Y-63826376D01*
X137785799Y-63826377D01*
X137966837Y-63846775D01*
X137966841Y-63846775D01*
X137966845Y-63846775D01*
X138147882Y-63826377D01*
X138147885Y-63826376D01*
X138147888Y-63826376D01*
X138319856Y-63766202D01*
X138474122Y-63669270D01*
X138602952Y-63540440D01*
X138699884Y-63386174D01*
X138699884Y-63386173D01*
X138703590Y-63380276D01*
X138704568Y-63380890D01*
X138721953Y-63356382D01*
X139452412Y-62625924D01*
X139452466Y-62625876D01*
X139457631Y-62620710D01*
X139457635Y-62620708D01*
X139509993Y-62568343D01*
X139519004Y-62560177D01*
X139523696Y-62556325D01*
X139572237Y-62516484D01*
X139592433Y-62502987D01*
X139647775Y-62473402D01*
X139670223Y-62464104D01*
X139730261Y-62445889D01*
X139754096Y-62441147D01*
X139807510Y-62435884D01*
X139822138Y-62434443D01*
X139834297Y-62433845D01*
X140038753Y-62433845D01*
X140079706Y-62440803D01*
X140103845Y-62449249D01*
X140147607Y-62464562D01*
X140147614Y-62464562D01*
X140147615Y-62464563D01*
X140328650Y-62484961D01*
X140328654Y-62484961D01*
X140328658Y-62484961D01*
X140509695Y-62464563D01*
X140509698Y-62464562D01*
X140509701Y-62464562D01*
X140681669Y-62404388D01*
X140835935Y-62307456D01*
X140964765Y-62178626D01*
X141061697Y-62024360D01*
X141070222Y-61999998D01*
X154606502Y-61999998D01*
X154606502Y-62000001D01*
X154626456Y-62228081D01*
X154626457Y-62228089D01*
X154685714Y-62449238D01*
X154685718Y-62449249D01*
X154739245Y-62564037D01*
X154782477Y-62656749D01*
X154913802Y-62844300D01*
X155075700Y-63006198D01*
X155263251Y-63137523D01*
X155388091Y-63195736D01*
X155470750Y-63234281D01*
X155470752Y-63234281D01*
X155470757Y-63234284D01*
X155691913Y-63293543D01*
X155854832Y-63307796D01*
X155919998Y-63313498D01*
X155920000Y-63313498D01*
X155920002Y-63313498D01*
X155977021Y-63308509D01*
X156148087Y-63293543D01*
X156369243Y-63234284D01*
X156576749Y-63137523D01*
X156764300Y-63006198D01*
X156926198Y-62844300D01*
X157057523Y-62656749D01*
X157154284Y-62449243D01*
X157213543Y-62228087D01*
X157233498Y-62000000D01*
X157213543Y-61771913D01*
X157207671Y-61749999D01*
X164801127Y-61749999D01*
X164801128Y-61750000D01*
X165764314Y-61750000D01*
X165759920Y-61754394D01*
X165707259Y-61845606D01*
X165680000Y-61947339D01*
X165680000Y-62052661D01*
X165707259Y-62154394D01*
X165759920Y-62245606D01*
X165764314Y-62250000D01*
X164801128Y-62250000D01*
X164853730Y-62446317D01*
X164853734Y-62446326D01*
X164949865Y-62652482D01*
X165080342Y-62838820D01*
X165241179Y-62999657D01*
X165427517Y-63130134D01*
X165633673Y-63226265D01*
X165633682Y-63226269D01*
X165829999Y-63278872D01*
X165830000Y-63278871D01*
X165830000Y-62315686D01*
X165834394Y-62320080D01*
X165925606Y-62372741D01*
X166027339Y-62400000D01*
X166132661Y-62400000D01*
X166234394Y-62372741D01*
X166325606Y-62320080D01*
X166330000Y-62315686D01*
X166330000Y-63278872D01*
X166526317Y-63226269D01*
X166526326Y-63226265D01*
X166732482Y-63130134D01*
X166918820Y-62999657D01*
X167079657Y-62838820D01*
X167210134Y-62652482D01*
X167306265Y-62446326D01*
X167306269Y-62446317D01*
X167358872Y-62250000D01*
X166395686Y-62250000D01*
X166400080Y-62245606D01*
X166452741Y-62154394D01*
X166480000Y-62052661D01*
X166480000Y-61947339D01*
X166452741Y-61845606D01*
X166400080Y-61754394D01*
X166395686Y-61750000D01*
X167358872Y-61750000D01*
X167358872Y-61749999D01*
X167306269Y-61553682D01*
X167306265Y-61553673D01*
X167210134Y-61347517D01*
X167079657Y-61161179D01*
X166918820Y-61000342D01*
X166732482Y-60869865D01*
X166526328Y-60773734D01*
X166330000Y-60721127D01*
X166330000Y-61684314D01*
X166325606Y-61679920D01*
X166234394Y-61627259D01*
X166132661Y-61600000D01*
X166027339Y-61600000D01*
X165925606Y-61627259D01*
X165834394Y-61679920D01*
X165830000Y-61684314D01*
X165830000Y-60721127D01*
X165633671Y-60773734D01*
X165427517Y-60869865D01*
X165241179Y-61000342D01*
X165080342Y-61161179D01*
X164949865Y-61347517D01*
X164853734Y-61553673D01*
X164853730Y-61553682D01*
X164801127Y-61749999D01*
X157207671Y-61749999D01*
X157154284Y-61550757D01*
X157057523Y-61343251D01*
X156926198Y-61155700D01*
X156764300Y-60993802D01*
X156576749Y-60862477D01*
X156566567Y-60857729D01*
X156369249Y-60765718D01*
X156369238Y-60765714D01*
X156148089Y-60706457D01*
X156148081Y-60706456D01*
X155920002Y-60686502D01*
X155919998Y-60686502D01*
X155691918Y-60706456D01*
X155691910Y-60706457D01*
X155470761Y-60765714D01*
X155470750Y-60765718D01*
X155263254Y-60862475D01*
X155263252Y-60862476D01*
X155240899Y-60878128D01*
X155075700Y-60993802D01*
X155075698Y-60993803D01*
X155075695Y-60993806D01*
X154913806Y-61155695D01*
X154913803Y-61155698D01*
X154913802Y-61155700D01*
X154842740Y-61257187D01*
X154782476Y-61343252D01*
X154782475Y-61343254D01*
X154685718Y-61550750D01*
X154685714Y-61550761D01*
X154626457Y-61771910D01*
X154626456Y-61771918D01*
X154606502Y-61999998D01*
X141070222Y-61999998D01*
X141121871Y-61852392D01*
X141122636Y-61845606D01*
X141142270Y-61671348D01*
X141142270Y-61671341D01*
X141121872Y-61490303D01*
X141121871Y-61490298D01*
X141116995Y-61476363D01*
X141061697Y-61318330D01*
X140964765Y-61164064D01*
X140835935Y-61035234D01*
X140769997Y-60993802D01*
X140681671Y-60938303D01*
X140681670Y-60938302D01*
X140681669Y-60938302D01*
X140627347Y-60919294D01*
X140509700Y-60878127D01*
X140509695Y-60878126D01*
X140328658Y-60857729D01*
X140328650Y-60857729D01*
X140147615Y-60878126D01*
X140147606Y-60878128D01*
X140079706Y-60901887D01*
X140038753Y-60908845D01*
X139915341Y-60908845D01*
X139915284Y-60908842D01*
X139908767Y-60908842D01*
X139888369Y-60908842D01*
X139880035Y-60908843D01*
X139879874Y-60908796D01*
X139718018Y-60908802D01*
X139554953Y-60927181D01*
X139498178Y-60933581D01*
X139282505Y-60982816D01*
X139195462Y-61013278D01*
X139073692Y-61055894D01*
X139003694Y-61089607D01*
X138874373Y-61151892D01*
X138687072Y-61269595D01*
X138687069Y-61269597D01*
X138514120Y-61407534D01*
X138514113Y-61407540D01*
X138514113Y-61407541D01*
X138445294Y-61476366D01*
X137643613Y-62278047D01*
X137619109Y-62295438D01*
X137619721Y-62296412D01*
X137459559Y-62397048D01*
X137330730Y-62525877D01*
X137233799Y-62680141D01*
X137173623Y-62852112D01*
X137173622Y-62852117D01*
X137153225Y-63033155D01*
X100075500Y-63033155D01*
X100075500Y-59052155D01*
X126600000Y-59052155D01*
X126600000Y-59750000D01*
X127624722Y-59750000D01*
X127580667Y-59826306D01*
X127550000Y-59940756D01*
X127550000Y-60059244D01*
X127580667Y-60173694D01*
X127624722Y-60250000D01*
X126600000Y-60250000D01*
X126600000Y-60947844D01*
X126606401Y-61007372D01*
X126606403Y-61007379D01*
X126656645Y-61142086D01*
X126656649Y-61142093D01*
X126742809Y-61257187D01*
X126742812Y-61257190D01*
X126857906Y-61343350D01*
X126857913Y-61343354D01*
X126992620Y-61393596D01*
X126992627Y-61393598D01*
X127052155Y-61399999D01*
X127052172Y-61400000D01*
X127750000Y-61400000D01*
X127750000Y-60375277D01*
X127826306Y-60419333D01*
X127940756Y-60450000D01*
X128059244Y-60450000D01*
X128173694Y-60419333D01*
X128250000Y-60375277D01*
X128250000Y-61400000D01*
X128947828Y-61400000D01*
X128947844Y-61399999D01*
X129007372Y-61393598D01*
X129007379Y-61393596D01*
X129142086Y-61343354D01*
X129142093Y-61343350D01*
X129257187Y-61257190D01*
X129257190Y-61257187D01*
X129343350Y-61142093D01*
X129343355Y-61142084D01*
X129368940Y-61073486D01*
X129410810Y-61017552D01*
X129476274Y-60993134D01*
X129544547Y-61007985D01*
X129576349Y-61032832D01*
X129582780Y-61039818D01*
X129766983Y-61183190D01*
X129766985Y-61183191D01*
X129766988Y-61183193D01*
X129886331Y-61247777D01*
X129972273Y-61294287D01*
X130086914Y-61333643D01*
X130193045Y-61370079D01*
X130193047Y-61370079D01*
X130193049Y-61370080D01*
X130423288Y-61408500D01*
X130423289Y-61408500D01*
X130656711Y-61408500D01*
X130656712Y-61408500D01*
X130886951Y-61370080D01*
X131107727Y-61294287D01*
X131313017Y-61183190D01*
X131497220Y-61039818D01*
X131655314Y-60868083D01*
X131782984Y-60672669D01*
X131876749Y-60458907D01*
X131934051Y-60232626D01*
X131953327Y-60000000D01*
X131934051Y-59767374D01*
X131876749Y-59541093D01*
X131782984Y-59327331D01*
X131655314Y-59131917D01*
X131655313Y-59131915D01*
X131497223Y-58960185D01*
X131497222Y-58960184D01*
X131497220Y-58960182D01*
X131313017Y-58816810D01*
X131313015Y-58816809D01*
X131313014Y-58816808D01*
X131313011Y-58816806D01*
X131107733Y-58705716D01*
X131107730Y-58705715D01*
X131107727Y-58705713D01*
X131107721Y-58705711D01*
X131107719Y-58705710D01*
X130886954Y-58629920D01*
X130707650Y-58600000D01*
X130656712Y-58591500D01*
X130423288Y-58591500D01*
X130377240Y-58599184D01*
X130193045Y-58629920D01*
X129972280Y-58705710D01*
X129972266Y-58705716D01*
X129766988Y-58816806D01*
X129766985Y-58816808D01*
X129582781Y-58960181D01*
X129582776Y-58960185D01*
X129576346Y-58967170D01*
X129516457Y-59003157D01*
X129446619Y-59001052D01*
X129389005Y-58961524D01*
X129368940Y-58926513D01*
X129343355Y-58857915D01*
X129343350Y-58857906D01*
X129257190Y-58742812D01*
X129257187Y-58742809D01*
X129142093Y-58656649D01*
X129142086Y-58656645D01*
X129007379Y-58606403D01*
X129007372Y-58606401D01*
X128947844Y-58600000D01*
X128250000Y-58600000D01*
X128250000Y-59624722D01*
X128173694Y-59580667D01*
X128059244Y-59550000D01*
X127940756Y-59550000D01*
X127826306Y-59580667D01*
X127750000Y-59624722D01*
X127750000Y-58600000D01*
X127052155Y-58600000D01*
X126992627Y-58606401D01*
X126992620Y-58606403D01*
X126857913Y-58656645D01*
X126857906Y-58656649D01*
X126742812Y-58742809D01*
X126742809Y-58742812D01*
X126656649Y-58857906D01*
X126656645Y-58857913D01*
X126606403Y-58992620D01*
X126606401Y-58992627D01*
X126600000Y-59052155D01*
X100075500Y-59052155D01*
X100075500Y-58033155D01*
X153153225Y-58033155D01*
X153153225Y-58033162D01*
X153173622Y-58214200D01*
X153173623Y-58214205D01*
X153214790Y-58331852D01*
X153233798Y-58386174D01*
X153330730Y-58540440D01*
X153459560Y-58669270D01*
X153613826Y-58766202D01*
X153758456Y-58816810D01*
X153785794Y-58826376D01*
X153785799Y-58826377D01*
X153966837Y-58846775D01*
X153966841Y-58846775D01*
X153966845Y-58846775D01*
X154147882Y-58826377D01*
X154147885Y-58826376D01*
X154147888Y-58826376D01*
X154319856Y-58766202D01*
X154474122Y-58669270D01*
X154602952Y-58540440D01*
X154699884Y-58386174D01*
X154699884Y-58386172D01*
X154703589Y-58380277D01*
X154704567Y-58380891D01*
X154721951Y-58356385D01*
X155356382Y-57721953D01*
X155380890Y-57704568D01*
X155380276Y-57703590D01*
X155417590Y-57680144D01*
X155540440Y-57602952D01*
X155669270Y-57474122D01*
X155766202Y-57319856D01*
X155826376Y-57147888D01*
X155846775Y-56966841D01*
X155826376Y-56785794D01*
X155766202Y-56613826D01*
X155669270Y-56459560D01*
X155540440Y-56330730D01*
X155386174Y-56233798D01*
X155331852Y-56214790D01*
X155214205Y-56173623D01*
X155214200Y-56173622D01*
X155033163Y-56153225D01*
X155033155Y-56153225D01*
X154852117Y-56173622D01*
X154852112Y-56173623D01*
X154680141Y-56233799D01*
X154525877Y-56330730D01*
X154397048Y-56459559D01*
X154296412Y-56619721D01*
X154295438Y-56619109D01*
X154278046Y-56643615D01*
X153643613Y-57278047D01*
X153619109Y-57295438D01*
X153619721Y-57296412D01*
X153459559Y-57397048D01*
X153330730Y-57525877D01*
X153233799Y-57680141D01*
X153173623Y-57852112D01*
X153173622Y-57852117D01*
X153153225Y-58033155D01*
X100075500Y-58033155D01*
X100075500Y-53999998D01*
X123526502Y-53999998D01*
X123526502Y-54000001D01*
X123546456Y-54228081D01*
X123546457Y-54228089D01*
X123605714Y-54449238D01*
X123605718Y-54449249D01*
X123697924Y-54646985D01*
X123702477Y-54656749D01*
X123833802Y-54844300D01*
X123995700Y-55006198D01*
X124183251Y-55137523D01*
X124276576Y-55181041D01*
X124390750Y-55234281D01*
X124390752Y-55234281D01*
X124390757Y-55234284D01*
X124611913Y-55293543D01*
X124774832Y-55307796D01*
X124839998Y-55313498D01*
X124840000Y-55313498D01*
X124840002Y-55313498D01*
X124897021Y-55308509D01*
X125068087Y-55293543D01*
X125289243Y-55234284D01*
X125496749Y-55137523D01*
X125684300Y-55006198D01*
X125846198Y-54844300D01*
X125977523Y-54656749D01*
X126074284Y-54449243D01*
X126133543Y-54228087D01*
X126153498Y-54000000D01*
X126133543Y-53771913D01*
X126127671Y-53749999D01*
X133721127Y-53749999D01*
X133721128Y-53750000D01*
X134684314Y-53750000D01*
X134679920Y-53754394D01*
X134627259Y-53845606D01*
X134600000Y-53947339D01*
X134600000Y-54052661D01*
X134627259Y-54154394D01*
X134679920Y-54245606D01*
X134684314Y-54250000D01*
X133721128Y-54250000D01*
X133773730Y-54446317D01*
X133773734Y-54446326D01*
X133869865Y-54652482D01*
X134000342Y-54838820D01*
X134161179Y-54999657D01*
X134347517Y-55130134D01*
X134553673Y-55226265D01*
X134553682Y-55226269D01*
X134749999Y-55278872D01*
X134750000Y-55278871D01*
X134750000Y-54315686D01*
X134754394Y-54320080D01*
X134845606Y-54372741D01*
X134947339Y-54400000D01*
X135052661Y-54400000D01*
X135154394Y-54372741D01*
X135245606Y-54320080D01*
X135250000Y-54315686D01*
X135250000Y-55278872D01*
X135446317Y-55226269D01*
X135446326Y-55226265D01*
X135652482Y-55130134D01*
X135838820Y-54999657D01*
X135999657Y-54838820D01*
X136130134Y-54652482D01*
X136226265Y-54446326D01*
X136226269Y-54446317D01*
X136278872Y-54250000D01*
X135315686Y-54250000D01*
X135320080Y-54245606D01*
X135372741Y-54154394D01*
X135400000Y-54052661D01*
X135400000Y-53947339D01*
X135372741Y-53845606D01*
X135320080Y-53754394D01*
X135315686Y-53750000D01*
X136278872Y-53750000D01*
X136278872Y-53749999D01*
X136226269Y-53553682D01*
X136226265Y-53553673D01*
X136130134Y-53347517D01*
X135999657Y-53161179D01*
X135858495Y-53020017D01*
X135825010Y-52958694D01*
X135829994Y-52889002D01*
X135871866Y-52833069D01*
X135937330Y-52808652D01*
X135960060Y-52809116D01*
X135999998Y-52813616D01*
X136000000Y-52813616D01*
X136000004Y-52813616D01*
X136181038Y-52793218D01*
X136181037Y-52793218D01*
X136181047Y-52793217D01*
X136222804Y-52778605D01*
X136248948Y-52769458D01*
X136289901Y-52762500D01*
X138710099Y-52762500D01*
X138751052Y-52769458D01*
X138781770Y-52780206D01*
X138818953Y-52793217D01*
X138818960Y-52793217D01*
X138818961Y-52793218D01*
X138999996Y-52813616D01*
X139000000Y-52813616D01*
X139000004Y-52813616D01*
X139181041Y-52793218D01*
X139181044Y-52793217D01*
X139181047Y-52793217D01*
X139353015Y-52733043D01*
X139507281Y-52636111D01*
X139636111Y-52507281D01*
X139733043Y-52353015D01*
X139793217Y-52181047D01*
X139805373Y-52073159D01*
X139813616Y-52000003D01*
X139813616Y-51999996D01*
X139793218Y-51818958D01*
X139793217Y-51818953D01*
X139758641Y-51720141D01*
X139733043Y-51646985D01*
X139636111Y-51492719D01*
X139507281Y-51363889D01*
X139469447Y-51340116D01*
X139353017Y-51266958D01*
X139353016Y-51266957D01*
X139353015Y-51266957D01*
X139280600Y-51241618D01*
X139181046Y-51206782D01*
X139181041Y-51206781D01*
X139000004Y-51186384D01*
X138999996Y-51186384D01*
X138818961Y-51206781D01*
X138818952Y-51206783D01*
X138751052Y-51230542D01*
X138710099Y-51237500D01*
X136289901Y-51237500D01*
X136248948Y-51230542D01*
X136181047Y-51206783D01*
X136181038Y-51206781D01*
X136000004Y-51186384D01*
X135999996Y-51186384D01*
X135818958Y-51206781D01*
X135818953Y-51206782D01*
X135646982Y-51266958D01*
X135492718Y-51363889D01*
X135363889Y-51492718D01*
X135266958Y-51646982D01*
X135206782Y-51818953D01*
X135206781Y-51818958D01*
X135186384Y-51999996D01*
X135186384Y-52000003D01*
X135206781Y-52181041D01*
X135206782Y-52181046D01*
X135266958Y-52353017D01*
X135363889Y-52507281D01*
X135370463Y-52513855D01*
X135403948Y-52575178D01*
X135398964Y-52644870D01*
X135357092Y-52700803D01*
X135291628Y-52725220D01*
X135250689Y-52721311D01*
X135250000Y-52721126D01*
X135250000Y-53684314D01*
X135245606Y-53679920D01*
X135154394Y-53627259D01*
X135052661Y-53600000D01*
X134947339Y-53600000D01*
X134845606Y-53627259D01*
X134754394Y-53679920D01*
X134750000Y-53684314D01*
X134750000Y-52721127D01*
X134553671Y-52773734D01*
X134347517Y-52869865D01*
X134161179Y-53000342D01*
X134000342Y-53161179D01*
X133869865Y-53347517D01*
X133773734Y-53553673D01*
X133773730Y-53553682D01*
X133721127Y-53749999D01*
X126127671Y-53749999D01*
X126074284Y-53550757D01*
X126067166Y-53535493D01*
X125982076Y-53353015D01*
X125977523Y-53343251D01*
X125846198Y-53155700D01*
X125684300Y-52993802D01*
X125496749Y-52862477D01*
X125496745Y-52862475D01*
X125289249Y-52765718D01*
X125289238Y-52765714D01*
X125068089Y-52706457D01*
X125068081Y-52706456D01*
X124840002Y-52686502D01*
X124839998Y-52686502D01*
X124611918Y-52706456D01*
X124611910Y-52706457D01*
X124390761Y-52765714D01*
X124390750Y-52765718D01*
X124183254Y-52862475D01*
X124183252Y-52862476D01*
X124177681Y-52866377D01*
X123995700Y-52993802D01*
X123995698Y-52993803D01*
X123995695Y-52993806D01*
X123833806Y-53155695D01*
X123833803Y-53155698D01*
X123833802Y-53155700D01*
X123751767Y-53272856D01*
X123702476Y-53343252D01*
X123702475Y-53343254D01*
X123605718Y-53550750D01*
X123605714Y-53550761D01*
X123546457Y-53771910D01*
X123546456Y-53771918D01*
X123526502Y-53999998D01*
X100075500Y-53999998D01*
X100075500Y-48301345D01*
X116401500Y-48301345D01*
X116401500Y-50098654D01*
X116408011Y-50159202D01*
X116408011Y-50159204D01*
X116448202Y-50266957D01*
X116459111Y-50296204D01*
X116546739Y-50413261D01*
X116663796Y-50500889D01*
X116800799Y-50551989D01*
X116828050Y-50554918D01*
X116861345Y-50558499D01*
X116861362Y-50558500D01*
X118658638Y-50558500D01*
X118658654Y-50558499D01*
X118685692Y-50555591D01*
X118719201Y-50551989D01*
X118856204Y-50500889D01*
X118973261Y-50413261D01*
X119060889Y-50296204D01*
X119106138Y-50174887D01*
X119148009Y-50118956D01*
X119213474Y-50094539D01*
X119281746Y-50109391D01*
X119313545Y-50134236D01*
X119376760Y-50202906D01*
X119554424Y-50341189D01*
X119554425Y-50341189D01*
X119554427Y-50341191D01*
X119596370Y-50363889D01*
X119752426Y-50448342D01*
X119965365Y-50521444D01*
X120187431Y-50558500D01*
X120412569Y-50558500D01*
X120634635Y-50521444D01*
X120847574Y-50448342D01*
X121045576Y-50341189D01*
X121223240Y-50202906D01*
X121344594Y-50071082D01*
X121375715Y-50037276D01*
X121375715Y-50037275D01*
X121375722Y-50037268D01*
X121466193Y-49898790D01*
X121519338Y-49853437D01*
X121588569Y-49844013D01*
X121651905Y-49873515D01*
X121673804Y-49898787D01*
X121764278Y-50037268D01*
X121764283Y-50037273D01*
X121764284Y-50037276D01*
X121916756Y-50202902D01*
X121916760Y-50202906D01*
X122094424Y-50341189D01*
X122094425Y-50341189D01*
X122094427Y-50341191D01*
X122136370Y-50363889D01*
X122292426Y-50448342D01*
X122505365Y-50521444D01*
X122727431Y-50558500D01*
X122952569Y-50558500D01*
X123174635Y-50521444D01*
X123387574Y-50448342D01*
X123585576Y-50341189D01*
X123763240Y-50202906D01*
X123884594Y-50071082D01*
X123915715Y-50037276D01*
X123915715Y-50037275D01*
X123915722Y-50037268D01*
X124009749Y-49893347D01*
X124062894Y-49847994D01*
X124132125Y-49838570D01*
X124195461Y-49868072D01*
X124215130Y-49890048D01*
X124341890Y-50071078D01*
X124508917Y-50238105D01*
X124702421Y-50373600D01*
X124916507Y-50473429D01*
X124916516Y-50473433D01*
X125130000Y-50530634D01*
X125130000Y-49633012D01*
X125187007Y-49665925D01*
X125314174Y-49700000D01*
X125445826Y-49700000D01*
X125572993Y-49665925D01*
X125630000Y-49633012D01*
X125630000Y-50530633D01*
X125843483Y-50473433D01*
X125843492Y-50473429D01*
X126057578Y-50373600D01*
X126251082Y-50238105D01*
X126418105Y-50071082D01*
X126544868Y-49890048D01*
X126599445Y-49846423D01*
X126668944Y-49839231D01*
X126731298Y-49870753D01*
X126750251Y-49893350D01*
X126844276Y-50037265D01*
X126844284Y-50037276D01*
X126996756Y-50202902D01*
X126996760Y-50202906D01*
X127174424Y-50341189D01*
X127174425Y-50341189D01*
X127174427Y-50341191D01*
X127216370Y-50363889D01*
X127372426Y-50448342D01*
X127585365Y-50521444D01*
X127807431Y-50558500D01*
X128032569Y-50558500D01*
X128254635Y-50521444D01*
X128467574Y-50448342D01*
X128665576Y-50341189D01*
X128843240Y-50202906D01*
X128964594Y-50071082D01*
X128995715Y-50037276D01*
X128995715Y-50037275D01*
X128995722Y-50037268D01*
X129086193Y-49898790D01*
X129139338Y-49853437D01*
X129208569Y-49844013D01*
X129271905Y-49873515D01*
X129293804Y-49898787D01*
X129384278Y-50037268D01*
X129384283Y-50037273D01*
X129384284Y-50037276D01*
X129536756Y-50202902D01*
X129536760Y-50202906D01*
X129714424Y-50341189D01*
X129714425Y-50341189D01*
X129714427Y-50341191D01*
X129756370Y-50363889D01*
X129912426Y-50448342D01*
X130125365Y-50521444D01*
X130347431Y-50558500D01*
X130572569Y-50558500D01*
X130794635Y-50521444D01*
X131007574Y-50448342D01*
X131205576Y-50341189D01*
X131383240Y-50202906D01*
X131504594Y-50071082D01*
X131535715Y-50037276D01*
X131535715Y-50037275D01*
X131535722Y-50037268D01*
X131626193Y-49898790D01*
X131679338Y-49853437D01*
X131748569Y-49844013D01*
X131811905Y-49873515D01*
X131833804Y-49898787D01*
X131924278Y-50037268D01*
X131924283Y-50037273D01*
X131924284Y-50037276D01*
X132076756Y-50202902D01*
X132076760Y-50202906D01*
X132254424Y-50341189D01*
X132254425Y-50341189D01*
X132254427Y-50341191D01*
X132296370Y-50363889D01*
X132452426Y-50448342D01*
X132665365Y-50521444D01*
X132887431Y-50558500D01*
X133112569Y-50558500D01*
X133334635Y-50521444D01*
X133547574Y-50448342D01*
X133745576Y-50341189D01*
X133923240Y-50202906D01*
X134044594Y-50071082D01*
X134075715Y-50037276D01*
X134075715Y-50037275D01*
X134075722Y-50037268D01*
X134166193Y-49898790D01*
X134219338Y-49853437D01*
X134288569Y-49844013D01*
X134351905Y-49873515D01*
X134373804Y-49898787D01*
X134464278Y-50037268D01*
X134464283Y-50037273D01*
X134464284Y-50037276D01*
X134616756Y-50202902D01*
X134616760Y-50202906D01*
X134794424Y-50341189D01*
X134794425Y-50341189D01*
X134794427Y-50341191D01*
X134836370Y-50363889D01*
X134992426Y-50448342D01*
X135205365Y-50521444D01*
X135427431Y-50558500D01*
X135652569Y-50558500D01*
X135874635Y-50521444D01*
X136087574Y-50448342D01*
X136285576Y-50341189D01*
X136463240Y-50202906D01*
X136584594Y-50071082D01*
X136615715Y-50037276D01*
X136615715Y-50037275D01*
X136615722Y-50037268D01*
X136706193Y-49898790D01*
X136759338Y-49853437D01*
X136828569Y-49844013D01*
X136891905Y-49873515D01*
X136913804Y-49898787D01*
X137004278Y-50037268D01*
X137004283Y-50037273D01*
X137004284Y-50037276D01*
X137156756Y-50202902D01*
X137156760Y-50202906D01*
X137334424Y-50341189D01*
X137334425Y-50341189D01*
X137334427Y-50341191D01*
X137376370Y-50363889D01*
X137532426Y-50448342D01*
X137745365Y-50521444D01*
X137967431Y-50558500D01*
X138192569Y-50558500D01*
X138414635Y-50521444D01*
X138627574Y-50448342D01*
X138825576Y-50341189D01*
X139003240Y-50202906D01*
X139124594Y-50071082D01*
X139155715Y-50037276D01*
X139155715Y-50037275D01*
X139155722Y-50037268D01*
X139246193Y-49898790D01*
X139299338Y-49853437D01*
X139368569Y-49844013D01*
X139431905Y-49873515D01*
X139453804Y-49898787D01*
X139544278Y-50037268D01*
X139544283Y-50037273D01*
X139544284Y-50037276D01*
X139696756Y-50202902D01*
X139696760Y-50202906D01*
X139874424Y-50341189D01*
X139874425Y-50341189D01*
X139874427Y-50341191D01*
X139916370Y-50363889D01*
X140072426Y-50448342D01*
X140285365Y-50521444D01*
X140507431Y-50558500D01*
X140732569Y-50558500D01*
X140954635Y-50521444D01*
X141167574Y-50448342D01*
X141365576Y-50341189D01*
X141543240Y-50202906D01*
X141664594Y-50071082D01*
X141695715Y-50037276D01*
X141695717Y-50037273D01*
X141695722Y-50037268D01*
X141818860Y-49848791D01*
X141909296Y-49642616D01*
X141964564Y-49424368D01*
X141976309Y-49282635D01*
X141979115Y-49248770D01*
X142004268Y-49183585D01*
X142060670Y-49142347D01*
X142130413Y-49138149D01*
X142191355Y-49172323D01*
X142219732Y-49218055D01*
X142230541Y-49248945D01*
X142237500Y-49289900D01*
X142237500Y-52710098D01*
X142230542Y-52751052D01*
X142206782Y-52818955D01*
X142186384Y-52999996D01*
X142186384Y-53000003D01*
X142206781Y-53181041D01*
X142206782Y-53181046D01*
X142247949Y-53298693D01*
X142263541Y-53343254D01*
X142266958Y-53353017D01*
X142363887Y-53507278D01*
X142363924Y-53507324D01*
X142363938Y-53507359D01*
X142367594Y-53513177D01*
X142366575Y-53513817D01*
X142390336Y-53572009D01*
X142377583Y-53640705D01*
X142329715Y-53691602D01*
X142323277Y-53695126D01*
X142287993Y-53713104D01*
X142114997Y-53838793D01*
X141976719Y-53977071D01*
X141915396Y-54010555D01*
X141845704Y-54005571D01*
X141789771Y-53963699D01*
X141783499Y-53954486D01*
X141692315Y-53806654D01*
X141568345Y-53682684D01*
X141419124Y-53590643D01*
X141419119Y-53590641D01*
X141252697Y-53535494D01*
X141252690Y-53535493D01*
X141149986Y-53525000D01*
X140750000Y-53525000D01*
X140750000Y-54595854D01*
X140683343Y-54557370D01*
X140562535Y-54525000D01*
X140437465Y-54525000D01*
X140316657Y-54557370D01*
X140250000Y-54595854D01*
X140250000Y-53525000D01*
X139850028Y-53525000D01*
X139850012Y-53525001D01*
X139747302Y-53535494D01*
X139580880Y-53590641D01*
X139580875Y-53590643D01*
X139431654Y-53682684D01*
X139307684Y-53806654D01*
X139215643Y-53955875D01*
X139215641Y-53955880D01*
X139160494Y-54122302D01*
X139160493Y-54122309D01*
X139150000Y-54225013D01*
X139150000Y-54750000D01*
X140095854Y-54750000D01*
X140057370Y-54816657D01*
X140025000Y-54937465D01*
X140025000Y-55062535D01*
X140057370Y-55183343D01*
X140095854Y-55250000D01*
X139150001Y-55250000D01*
X139150001Y-55774986D01*
X139160494Y-55877697D01*
X139215641Y-56044119D01*
X139215643Y-56044124D01*
X139307684Y-56193345D01*
X139431654Y-56317315D01*
X139580875Y-56409356D01*
X139580880Y-56409358D01*
X139747302Y-56464505D01*
X139747309Y-56464506D01*
X139850019Y-56474999D01*
X140249999Y-56474999D01*
X140250000Y-56474998D01*
X140250000Y-55404145D01*
X140316657Y-55442630D01*
X140437465Y-55475000D01*
X140562535Y-55475000D01*
X140683343Y-55442630D01*
X140750000Y-55404145D01*
X140750000Y-56474999D01*
X141149972Y-56474999D01*
X141149986Y-56474998D01*
X141252697Y-56464505D01*
X141419119Y-56409358D01*
X141419124Y-56409356D01*
X141568345Y-56317315D01*
X141692315Y-56193345D01*
X141783499Y-56045513D01*
X141835447Y-55998789D01*
X141904410Y-55987566D01*
X141968492Y-56015410D01*
X141976719Y-56022929D01*
X142114996Y-56161206D01*
X142287991Y-56286894D01*
X142374024Y-56330730D01*
X142478516Y-56383972D01*
X142478519Y-56383973D01*
X142556642Y-56409356D01*
X142681884Y-56450049D01*
X142893084Y-56483500D01*
X142893085Y-56483500D01*
X143106915Y-56483500D01*
X143106916Y-56483500D01*
X143318116Y-56450049D01*
X143521483Y-56383972D01*
X143712009Y-56286894D01*
X143885004Y-56161206D01*
X144036206Y-56010004D01*
X144113076Y-55904200D01*
X144149682Y-55853818D01*
X144205012Y-55811152D01*
X144274625Y-55805173D01*
X144336420Y-55837779D01*
X144350318Y-55853818D01*
X144447492Y-55987566D01*
X144463794Y-56010004D01*
X144614996Y-56161206D01*
X144787991Y-56286894D01*
X144874024Y-56330730D01*
X144978516Y-56383972D01*
X144978519Y-56383973D01*
X145056642Y-56409356D01*
X145181884Y-56450049D01*
X145393084Y-56483500D01*
X145393085Y-56483500D01*
X145606915Y-56483500D01*
X145606916Y-56483500D01*
X145818116Y-56450049D01*
X146021483Y-56383972D01*
X146212009Y-56286894D01*
X146385004Y-56161206D01*
X146536206Y-56010004D01*
X146661894Y-55837009D01*
X146758972Y-55646483D01*
X146825049Y-55443116D01*
X146858500Y-55231916D01*
X146858500Y-54768084D01*
X146825049Y-54556884D01*
X146825048Y-54556882D01*
X146825048Y-54556879D01*
X146758973Y-54353519D01*
X146758972Y-54353516D01*
X146706227Y-54250000D01*
X146661894Y-54162991D01*
X146536206Y-53989996D01*
X146385004Y-53838794D01*
X146212009Y-53713106D01*
X146212005Y-53713104D01*
X146021483Y-53616027D01*
X146021480Y-53616026D01*
X145818117Y-53549951D01*
X145712516Y-53533225D01*
X145606916Y-53516500D01*
X145393084Y-53516500D01*
X145339411Y-53525001D01*
X145181882Y-53549951D01*
X144978519Y-53616026D01*
X144978516Y-53616027D01*
X144787990Y-53713106D01*
X144614993Y-53838796D01*
X144463796Y-53989993D01*
X144463796Y-53989994D01*
X144463794Y-53989996D01*
X144448857Y-54010555D01*
X144350318Y-54146182D01*
X144294988Y-54188847D01*
X144225374Y-54194826D01*
X144163579Y-54162220D01*
X144149682Y-54146182D01*
X144124930Y-54112115D01*
X144036206Y-53989996D01*
X143885004Y-53838794D01*
X143712009Y-53713106D01*
X143712008Y-53713105D01*
X143712006Y-53713104D01*
X143676723Y-53695126D01*
X143625928Y-53647151D01*
X143609133Y-53579330D01*
X143631671Y-53513195D01*
X143636083Y-53507315D01*
X143636102Y-53507289D01*
X143636111Y-53507281D01*
X143733043Y-53353015D01*
X143793217Y-53181047D01*
X143796073Y-53155700D01*
X143813616Y-53000003D01*
X143813616Y-52999996D01*
X143793217Y-52818955D01*
X143793217Y-52818953D01*
X143775898Y-52769458D01*
X143769458Y-52751052D01*
X143762500Y-52710098D01*
X143762500Y-50656621D01*
X143782185Y-50589582D01*
X143834989Y-50543827D01*
X143904147Y-50533883D01*
X143929833Y-50540439D01*
X143938916Y-50543827D01*
X143960798Y-50551989D01*
X144021345Y-50558499D01*
X144021362Y-50558500D01*
X145818638Y-50558500D01*
X145818654Y-50558499D01*
X145845692Y-50555591D01*
X145879201Y-50551989D01*
X146016204Y-50500889D01*
X146133261Y-50413261D01*
X146220889Y-50296204D01*
X146266138Y-50174887D01*
X146308009Y-50118956D01*
X146373474Y-50094539D01*
X146441746Y-50109391D01*
X146473545Y-50134236D01*
X146536760Y-50202906D01*
X146714424Y-50341189D01*
X146714425Y-50341189D01*
X146714427Y-50341191D01*
X146756370Y-50363889D01*
X146912426Y-50448342D01*
X147125365Y-50521444D01*
X147347431Y-50558500D01*
X147572569Y-50558500D01*
X147794635Y-50521444D01*
X148007574Y-50448342D01*
X148174572Y-50357967D01*
X148242897Y-50343373D01*
X148308270Y-50368036D01*
X148349931Y-50424126D01*
X148354653Y-50493836D01*
X148338581Y-50532995D01*
X148266958Y-50646982D01*
X148206782Y-50818953D01*
X148206781Y-50818958D01*
X148186384Y-50999996D01*
X148186384Y-51000003D01*
X148206781Y-51181041D01*
X148206782Y-51181046D01*
X148206783Y-51181047D01*
X148213382Y-51199907D01*
X148220341Y-51240860D01*
X148220341Y-52759137D01*
X148213383Y-52800091D01*
X148206782Y-52818955D01*
X148186384Y-52999996D01*
X148186384Y-53000003D01*
X148206781Y-53181041D01*
X148206783Y-53181049D01*
X148266956Y-53353014D01*
X148290863Y-53391062D01*
X148309863Y-53458299D01*
X148290863Y-53523005D01*
X148233803Y-53613816D01*
X148233799Y-53613821D01*
X148173623Y-53785794D01*
X148173622Y-53785799D01*
X148153225Y-53966837D01*
X148153225Y-53966844D01*
X148173622Y-54147882D01*
X148173623Y-54147887D01*
X148233799Y-54319858D01*
X148254950Y-54353519D01*
X148330730Y-54474122D01*
X148459560Y-54602952D01*
X148613826Y-54699884D01*
X148613827Y-54699884D01*
X148619723Y-54703589D01*
X148619108Y-54704566D01*
X148643615Y-54721953D01*
X149278044Y-55356381D01*
X149295436Y-55380890D01*
X149296411Y-55380278D01*
X149300116Y-55386174D01*
X149397048Y-55540440D01*
X149525878Y-55669270D01*
X149680144Y-55766202D01*
X149815646Y-55813616D01*
X149852112Y-55826376D01*
X149852117Y-55826377D01*
X150033155Y-55846775D01*
X150033159Y-55846775D01*
X150033163Y-55846775D01*
X150214200Y-55826377D01*
X150214203Y-55826376D01*
X150214206Y-55826376D01*
X150386174Y-55766202D01*
X150540440Y-55669270D01*
X150669270Y-55540440D01*
X150766202Y-55386174D01*
X150826376Y-55214206D01*
X150826377Y-55214200D01*
X150828887Y-55191925D01*
X150855953Y-55127510D01*
X150913547Y-55087955D01*
X150983384Y-55085816D01*
X151039788Y-55118126D01*
X151244887Y-55323225D01*
X151262278Y-55347732D01*
X151263253Y-55347120D01*
X151266956Y-55353014D01*
X151266957Y-55353015D01*
X151363889Y-55507281D01*
X151492719Y-55636111D01*
X151646985Y-55733043D01*
X151766852Y-55774986D01*
X151818953Y-55793217D01*
X151818958Y-55793218D01*
X151999996Y-55813616D01*
X152000000Y-55813616D01*
X152000004Y-55813616D01*
X152181041Y-55793218D01*
X152181044Y-55793217D01*
X152181047Y-55793217D01*
X152353015Y-55733043D01*
X152507281Y-55636111D01*
X152636111Y-55507281D01*
X152733043Y-55353015D01*
X152793217Y-55181047D01*
X152798121Y-55137523D01*
X152813616Y-55000003D01*
X152813616Y-54999996D01*
X152793218Y-54818958D01*
X152793217Y-54818953D01*
X152759275Y-54721953D01*
X152733043Y-54646985D01*
X152636111Y-54492719D01*
X152507281Y-54363889D01*
X152353015Y-54266957D01*
X152353014Y-54266956D01*
X152347120Y-54263253D01*
X152347732Y-54262278D01*
X152323225Y-54244887D01*
X151052519Y-52974181D01*
X151019034Y-52912858D01*
X151024018Y-52843166D01*
X151065890Y-52787233D01*
X151131354Y-52762816D01*
X151140200Y-52762500D01*
X153614869Y-52762500D01*
X153680842Y-52781507D01*
X153720140Y-52806200D01*
X153720141Y-52806200D01*
X153720144Y-52806202D01*
X153880969Y-52862477D01*
X153892112Y-52866376D01*
X153892117Y-52866377D01*
X154073155Y-52886775D01*
X154073159Y-52886775D01*
X154073163Y-52886775D01*
X154254200Y-52866377D01*
X154254203Y-52866376D01*
X154254206Y-52866376D01*
X154426174Y-52806202D01*
X154580440Y-52709270D01*
X154709270Y-52580440D01*
X154806202Y-52426174D01*
X154866376Y-52254206D01*
X154886775Y-52073159D01*
X154878532Y-52000003D01*
X154866377Y-51892117D01*
X154866376Y-51892112D01*
X154840778Y-51818958D01*
X154806202Y-51720144D01*
X154709270Y-51565878D01*
X154580440Y-51437048D01*
X154426175Y-51340116D01*
X154254206Y-51279942D01*
X154254203Y-51279941D01*
X154220811Y-51276178D01*
X154213470Y-51275351D01*
X154189074Y-51270073D01*
X154155883Y-51259299D01*
X154155880Y-51259298D01*
X154046483Y-51241999D01*
X154041660Y-51241138D01*
X154023371Y-51237500D01*
X154023368Y-51237500D01*
X154022990Y-51237500D01*
X154022504Y-51237481D01*
X154017915Y-51237482D01*
X154017914Y-51237482D01*
X153948073Y-51237500D01*
X150432254Y-51237500D01*
X150365215Y-51217815D01*
X150344573Y-51201181D01*
X150244122Y-51100730D01*
X150089857Y-51003798D01*
X149917882Y-50943622D01*
X149904104Y-50942070D01*
X149839690Y-50915002D01*
X149800137Y-50857406D01*
X149794769Y-50832732D01*
X149793217Y-50818953D01*
X149759638Y-50722989D01*
X149756076Y-50653210D01*
X149790804Y-50592583D01*
X149852798Y-50560355D01*
X149882302Y-50558714D01*
X149882302Y-50558500D01*
X149886165Y-50558500D01*
X149886920Y-50558458D01*
X149887427Y-50558500D01*
X149887431Y-50558500D01*
X150112569Y-50558500D01*
X150334635Y-50521444D01*
X150547574Y-50448342D01*
X150745576Y-50341189D01*
X150923240Y-50202906D01*
X151044594Y-50071082D01*
X151075715Y-50037276D01*
X151075715Y-50037275D01*
X151075722Y-50037268D01*
X151166193Y-49898790D01*
X151219338Y-49853437D01*
X151288569Y-49844013D01*
X151351905Y-49873515D01*
X151373804Y-49898787D01*
X151464278Y-50037268D01*
X151464283Y-50037273D01*
X151464284Y-50037276D01*
X151616756Y-50202902D01*
X151616760Y-50202906D01*
X151794424Y-50341189D01*
X151794425Y-50341189D01*
X151794427Y-50341191D01*
X151836370Y-50363889D01*
X151992426Y-50448342D01*
X152205365Y-50521444D01*
X152427431Y-50558500D01*
X152652569Y-50558500D01*
X152874635Y-50521444D01*
X153087574Y-50448342D01*
X153285576Y-50341189D01*
X153463240Y-50202906D01*
X153584594Y-50071082D01*
X153615715Y-50037276D01*
X153615715Y-50037275D01*
X153615722Y-50037268D01*
X153706193Y-49898790D01*
X153759338Y-49853437D01*
X153828569Y-49844013D01*
X153891905Y-49873515D01*
X153913804Y-49898787D01*
X154004278Y-50037268D01*
X154004283Y-50037273D01*
X154004284Y-50037276D01*
X154156756Y-50202902D01*
X154156760Y-50202906D01*
X154334424Y-50341189D01*
X154334425Y-50341189D01*
X154334427Y-50341191D01*
X154376370Y-50363889D01*
X154532426Y-50448342D01*
X154745365Y-50521444D01*
X154967431Y-50558500D01*
X155192569Y-50558500D01*
X155414635Y-50521444D01*
X155627574Y-50448342D01*
X155825576Y-50341189D01*
X156003240Y-50202906D01*
X156124594Y-50071082D01*
X156155715Y-50037276D01*
X156155715Y-50037275D01*
X156155722Y-50037268D01*
X156246193Y-49898790D01*
X156299338Y-49853437D01*
X156368569Y-49844013D01*
X156431905Y-49873515D01*
X156453804Y-49898787D01*
X156544278Y-50037268D01*
X156544283Y-50037273D01*
X156544284Y-50037276D01*
X156696756Y-50202902D01*
X156696760Y-50202906D01*
X156874424Y-50341189D01*
X156874425Y-50341189D01*
X156874427Y-50341191D01*
X156916370Y-50363889D01*
X157072426Y-50448342D01*
X157285365Y-50521444D01*
X157507431Y-50558500D01*
X157732569Y-50558500D01*
X157954635Y-50521444D01*
X158167574Y-50448342D01*
X158365576Y-50341189D01*
X158543240Y-50202906D01*
X158664594Y-50071082D01*
X158695715Y-50037276D01*
X158695715Y-50037275D01*
X158695722Y-50037268D01*
X158786193Y-49898790D01*
X158839338Y-49853437D01*
X158908569Y-49844013D01*
X158971905Y-49873515D01*
X158993804Y-49898787D01*
X159084278Y-50037268D01*
X159084283Y-50037273D01*
X159084284Y-50037276D01*
X159236756Y-50202902D01*
X159236760Y-50202906D01*
X159414424Y-50341189D01*
X159414425Y-50341189D01*
X159414427Y-50341191D01*
X159456370Y-50363889D01*
X159612426Y-50448342D01*
X159825365Y-50521444D01*
X160047431Y-50558500D01*
X160272569Y-50558500D01*
X160494635Y-50521444D01*
X160707574Y-50448342D01*
X160905576Y-50341189D01*
X161083240Y-50202906D01*
X161204594Y-50071082D01*
X161235715Y-50037276D01*
X161235715Y-50037275D01*
X161235722Y-50037268D01*
X161326193Y-49898790D01*
X161379338Y-49853437D01*
X161448569Y-49844013D01*
X161511905Y-49873515D01*
X161533804Y-49898787D01*
X161624278Y-50037268D01*
X161624283Y-50037273D01*
X161624284Y-50037276D01*
X161776756Y-50202902D01*
X161776760Y-50202906D01*
X161954424Y-50341189D01*
X161954425Y-50341189D01*
X161954427Y-50341191D01*
X161996370Y-50363889D01*
X162152426Y-50448342D01*
X162365365Y-50521444D01*
X162587431Y-50558500D01*
X162812569Y-50558500D01*
X163034635Y-50521444D01*
X163247574Y-50448342D01*
X163445576Y-50341189D01*
X163623240Y-50202906D01*
X163744594Y-50071082D01*
X163775715Y-50037276D01*
X163775717Y-50037273D01*
X163775722Y-50037268D01*
X163898860Y-49848791D01*
X163989296Y-49642616D01*
X164044564Y-49424368D01*
X164056309Y-49282635D01*
X164063156Y-49200005D01*
X164063156Y-49199994D01*
X164044565Y-48975640D01*
X164044563Y-48975628D01*
X163989296Y-48757385D01*
X163979071Y-48734075D01*
X163898860Y-48551209D01*
X163882706Y-48526484D01*
X163775723Y-48362734D01*
X163775715Y-48362723D01*
X163623243Y-48197097D01*
X163623238Y-48197092D01*
X163445577Y-48058812D01*
X163445572Y-48058808D01*
X163247580Y-47951661D01*
X163247577Y-47951659D01*
X163247574Y-47951658D01*
X163247571Y-47951657D01*
X163247569Y-47951656D01*
X163034637Y-47878556D01*
X162812569Y-47841500D01*
X162587431Y-47841500D01*
X162365362Y-47878556D01*
X162152430Y-47951656D01*
X162152419Y-47951661D01*
X161954427Y-48058808D01*
X161954422Y-48058812D01*
X161776761Y-48197092D01*
X161776756Y-48197097D01*
X161624284Y-48362723D01*
X161624276Y-48362734D01*
X161533808Y-48501206D01*
X161480662Y-48546562D01*
X161411431Y-48555986D01*
X161348095Y-48526484D01*
X161326192Y-48501206D01*
X161235723Y-48362734D01*
X161235715Y-48362723D01*
X161083243Y-48197097D01*
X161083238Y-48197092D01*
X160905577Y-48058812D01*
X160905572Y-48058808D01*
X160707580Y-47951661D01*
X160707577Y-47951659D01*
X160707574Y-47951658D01*
X160707571Y-47951657D01*
X160707569Y-47951656D01*
X160494637Y-47878556D01*
X160272569Y-47841500D01*
X160047431Y-47841500D01*
X159825362Y-47878556D01*
X159612430Y-47951656D01*
X159612419Y-47951661D01*
X159414427Y-48058808D01*
X159414422Y-48058812D01*
X159236761Y-48197092D01*
X159236756Y-48197097D01*
X159084284Y-48362723D01*
X159084276Y-48362734D01*
X158993808Y-48501206D01*
X158940662Y-48546562D01*
X158871431Y-48555986D01*
X158808095Y-48526484D01*
X158786192Y-48501206D01*
X158695723Y-48362734D01*
X158695715Y-48362723D01*
X158543243Y-48197097D01*
X158543238Y-48197092D01*
X158365577Y-48058812D01*
X158365572Y-48058808D01*
X158167580Y-47951661D01*
X158167577Y-47951659D01*
X158167574Y-47951658D01*
X158167571Y-47951657D01*
X158167569Y-47951656D01*
X157954637Y-47878556D01*
X157732569Y-47841500D01*
X157507431Y-47841500D01*
X157285362Y-47878556D01*
X157072430Y-47951656D01*
X157072419Y-47951661D01*
X156874427Y-48058808D01*
X156874422Y-48058812D01*
X156696761Y-48197092D01*
X156696756Y-48197097D01*
X156544284Y-48362723D01*
X156544276Y-48362734D01*
X156453808Y-48501206D01*
X156400662Y-48546562D01*
X156331431Y-48555986D01*
X156268095Y-48526484D01*
X156246192Y-48501206D01*
X156155723Y-48362734D01*
X156155715Y-48362723D01*
X156003243Y-48197097D01*
X156003238Y-48197092D01*
X155825577Y-48058812D01*
X155825572Y-48058808D01*
X155627580Y-47951661D01*
X155627577Y-47951659D01*
X155627574Y-47951658D01*
X155627571Y-47951657D01*
X155627569Y-47951656D01*
X155414637Y-47878556D01*
X155192569Y-47841500D01*
X154967431Y-47841500D01*
X154745362Y-47878556D01*
X154532430Y-47951656D01*
X154532419Y-47951661D01*
X154334427Y-48058808D01*
X154334422Y-48058812D01*
X154156761Y-48197092D01*
X154156756Y-48197097D01*
X154004284Y-48362723D01*
X154004276Y-48362734D01*
X153913808Y-48501206D01*
X153860662Y-48546562D01*
X153791431Y-48555986D01*
X153728095Y-48526484D01*
X153706192Y-48501206D01*
X153615723Y-48362734D01*
X153615715Y-48362723D01*
X153463243Y-48197097D01*
X153463238Y-48197092D01*
X153285577Y-48058812D01*
X153285572Y-48058808D01*
X153087580Y-47951661D01*
X153087577Y-47951659D01*
X153087574Y-47951658D01*
X153087571Y-47951657D01*
X153087569Y-47951656D01*
X152874637Y-47878556D01*
X152652569Y-47841500D01*
X152427431Y-47841500D01*
X152205362Y-47878556D01*
X151992430Y-47951656D01*
X151992419Y-47951661D01*
X151794427Y-48058808D01*
X151794422Y-48058812D01*
X151616761Y-48197092D01*
X151616756Y-48197097D01*
X151464284Y-48362723D01*
X151464276Y-48362734D01*
X151373808Y-48501206D01*
X151320662Y-48546562D01*
X151251431Y-48555986D01*
X151188095Y-48526484D01*
X151166192Y-48501206D01*
X151075723Y-48362734D01*
X151075715Y-48362723D01*
X150923243Y-48197097D01*
X150923238Y-48197092D01*
X150745577Y-48058812D01*
X150745572Y-48058808D01*
X150547580Y-47951661D01*
X150547577Y-47951659D01*
X150547574Y-47951658D01*
X150547571Y-47951657D01*
X150547569Y-47951656D01*
X150334637Y-47878556D01*
X150112569Y-47841500D01*
X149887431Y-47841500D01*
X149665362Y-47878556D01*
X149452430Y-47951656D01*
X149452419Y-47951661D01*
X149254427Y-48058808D01*
X149254422Y-48058812D01*
X149076761Y-48197092D01*
X149076756Y-48197097D01*
X148924284Y-48362723D01*
X148924276Y-48362734D01*
X148833808Y-48501206D01*
X148780662Y-48546562D01*
X148711431Y-48555986D01*
X148648095Y-48526484D01*
X148626192Y-48501206D01*
X148535723Y-48362734D01*
X148535715Y-48362723D01*
X148383243Y-48197097D01*
X148383238Y-48197092D01*
X148205577Y-48058812D01*
X148205572Y-48058808D01*
X148007580Y-47951661D01*
X148007577Y-47951659D01*
X148007574Y-47951658D01*
X148007571Y-47951657D01*
X148007569Y-47951656D01*
X147794637Y-47878556D01*
X147572569Y-47841500D01*
X147347431Y-47841500D01*
X147125362Y-47878556D01*
X146912430Y-47951656D01*
X146912419Y-47951661D01*
X146714427Y-48058808D01*
X146714422Y-48058812D01*
X146536761Y-48197092D01*
X146473548Y-48265760D01*
X146413661Y-48301750D01*
X146343823Y-48299649D01*
X146286207Y-48260124D01*
X146266138Y-48225110D01*
X146220889Y-48103796D01*
X146187214Y-48058812D01*
X146133261Y-47986739D01*
X146016204Y-47899111D01*
X145879203Y-47848011D01*
X145818654Y-47841500D01*
X145818638Y-47841500D01*
X144021362Y-47841500D01*
X144021345Y-47841500D01*
X143960797Y-47848011D01*
X143960795Y-47848011D01*
X143823795Y-47899111D01*
X143706739Y-47986739D01*
X143619111Y-48103795D01*
X143572502Y-48228756D01*
X143530630Y-48284689D01*
X143465166Y-48309105D01*
X143396893Y-48294253D01*
X143390349Y-48290415D01*
X143353017Y-48266958D01*
X143353016Y-48266957D01*
X143353015Y-48266957D01*
X143298693Y-48247949D01*
X143181046Y-48206782D01*
X143181041Y-48206781D01*
X143000004Y-48186384D01*
X142999996Y-48186384D01*
X142818958Y-48206781D01*
X142818953Y-48206782D01*
X142646982Y-48266958D01*
X142492718Y-48363889D01*
X142363889Y-48492718D01*
X142266958Y-48646982D01*
X142206782Y-48818953D01*
X142206782Y-48818956D01*
X142196227Y-48912629D01*
X142169160Y-48977042D01*
X142111565Y-49016597D01*
X142041728Y-49018734D01*
X141981822Y-48982775D01*
X141952802Y-48929186D01*
X141909296Y-48757384D01*
X141818860Y-48551209D01*
X141802706Y-48526484D01*
X141695723Y-48362734D01*
X141695715Y-48362723D01*
X141543243Y-48197097D01*
X141543238Y-48197092D01*
X141365577Y-48058812D01*
X141365572Y-48058808D01*
X141167580Y-47951661D01*
X141167577Y-47951659D01*
X141167574Y-47951658D01*
X141167571Y-47951657D01*
X141167569Y-47951656D01*
X140954637Y-47878556D01*
X140732569Y-47841500D01*
X140507431Y-47841500D01*
X140285362Y-47878556D01*
X140072430Y-47951656D01*
X140072419Y-47951661D01*
X139874427Y-48058808D01*
X139874422Y-48058812D01*
X139696761Y-48197092D01*
X139696756Y-48197097D01*
X139544284Y-48362723D01*
X139544276Y-48362734D01*
X139453808Y-48501206D01*
X139400662Y-48546562D01*
X139331431Y-48555986D01*
X139268095Y-48526484D01*
X139246192Y-48501206D01*
X139155723Y-48362734D01*
X139155715Y-48362723D01*
X139003243Y-48197097D01*
X139003238Y-48197092D01*
X138825577Y-48058812D01*
X138825572Y-48058808D01*
X138627580Y-47951661D01*
X138627577Y-47951659D01*
X138627574Y-47951658D01*
X138627571Y-47951657D01*
X138627569Y-47951656D01*
X138414637Y-47878556D01*
X138192569Y-47841500D01*
X137967431Y-47841500D01*
X137745362Y-47878556D01*
X137532430Y-47951656D01*
X137532419Y-47951661D01*
X137334427Y-48058808D01*
X137334422Y-48058812D01*
X137156761Y-48197092D01*
X137156756Y-48197097D01*
X137004284Y-48362723D01*
X137004276Y-48362734D01*
X136913808Y-48501206D01*
X136860662Y-48546562D01*
X136791431Y-48555986D01*
X136728095Y-48526484D01*
X136706192Y-48501206D01*
X136615723Y-48362734D01*
X136615715Y-48362723D01*
X136463243Y-48197097D01*
X136463238Y-48197092D01*
X136285577Y-48058812D01*
X136285572Y-48058808D01*
X136087580Y-47951661D01*
X136087577Y-47951659D01*
X136087574Y-47951658D01*
X136087571Y-47951657D01*
X136087569Y-47951656D01*
X135874637Y-47878556D01*
X135652569Y-47841500D01*
X135427431Y-47841500D01*
X135205362Y-47878556D01*
X134992430Y-47951656D01*
X134992419Y-47951661D01*
X134794427Y-48058808D01*
X134794422Y-48058812D01*
X134616761Y-48197092D01*
X134616756Y-48197097D01*
X134464284Y-48362723D01*
X134464276Y-48362734D01*
X134373808Y-48501206D01*
X134320662Y-48546562D01*
X134251431Y-48555986D01*
X134188095Y-48526484D01*
X134166192Y-48501206D01*
X134075723Y-48362734D01*
X134075715Y-48362723D01*
X133923243Y-48197097D01*
X133923238Y-48197092D01*
X133745577Y-48058812D01*
X133745572Y-48058808D01*
X133547580Y-47951661D01*
X133547577Y-47951659D01*
X133547574Y-47951658D01*
X133547571Y-47951657D01*
X133547569Y-47951656D01*
X133334637Y-47878556D01*
X133112569Y-47841500D01*
X132887431Y-47841500D01*
X132665362Y-47878556D01*
X132452430Y-47951656D01*
X132452419Y-47951661D01*
X132254427Y-48058808D01*
X132254422Y-48058812D01*
X132076761Y-48197092D01*
X132076756Y-48197097D01*
X131924284Y-48362723D01*
X131924276Y-48362734D01*
X131833808Y-48501206D01*
X131780662Y-48546562D01*
X131711431Y-48555986D01*
X131648095Y-48526484D01*
X131626192Y-48501206D01*
X131535723Y-48362734D01*
X131535715Y-48362723D01*
X131383243Y-48197097D01*
X131383238Y-48197092D01*
X131205577Y-48058812D01*
X131205572Y-48058808D01*
X131007580Y-47951661D01*
X131007577Y-47951659D01*
X131007574Y-47951658D01*
X131007571Y-47951657D01*
X131007569Y-47951656D01*
X130794637Y-47878556D01*
X130572569Y-47841500D01*
X130347431Y-47841500D01*
X130125362Y-47878556D01*
X129912430Y-47951656D01*
X129912419Y-47951661D01*
X129714427Y-48058808D01*
X129714422Y-48058812D01*
X129536761Y-48197092D01*
X129536756Y-48197097D01*
X129384284Y-48362723D01*
X129384276Y-48362734D01*
X129293808Y-48501206D01*
X129240662Y-48546562D01*
X129171431Y-48555986D01*
X129108095Y-48526484D01*
X129086192Y-48501206D01*
X128995723Y-48362734D01*
X128995715Y-48362723D01*
X128843243Y-48197097D01*
X128843238Y-48197092D01*
X128665577Y-48058812D01*
X128665572Y-48058808D01*
X128467580Y-47951661D01*
X128467577Y-47951659D01*
X128467574Y-47951658D01*
X128467571Y-47951657D01*
X128467569Y-47951656D01*
X128254637Y-47878556D01*
X128032569Y-47841500D01*
X127807431Y-47841500D01*
X127585362Y-47878556D01*
X127372430Y-47951656D01*
X127372419Y-47951661D01*
X127174427Y-48058808D01*
X127174422Y-48058812D01*
X126996761Y-48197092D01*
X126996756Y-48197097D01*
X126844284Y-48362723D01*
X126844276Y-48362734D01*
X126750251Y-48506650D01*
X126697105Y-48552007D01*
X126627873Y-48561430D01*
X126564538Y-48531928D01*
X126544868Y-48509951D01*
X126418113Y-48328926D01*
X126418108Y-48328920D01*
X126251082Y-48161894D01*
X126057578Y-48026399D01*
X125843492Y-47926570D01*
X125843486Y-47926567D01*
X125630000Y-47869364D01*
X125630000Y-48766988D01*
X125572993Y-48734075D01*
X125445826Y-48700000D01*
X125314174Y-48700000D01*
X125187007Y-48734075D01*
X125130000Y-48766988D01*
X125130000Y-47869364D01*
X125129999Y-47869364D01*
X124916513Y-47926567D01*
X124916507Y-47926570D01*
X124702422Y-48026399D01*
X124702420Y-48026400D01*
X124508926Y-48161886D01*
X124508920Y-48161891D01*
X124341891Y-48328920D01*
X124341890Y-48328922D01*
X124215131Y-48509952D01*
X124160554Y-48553577D01*
X124091055Y-48560769D01*
X124028701Y-48529247D01*
X124009752Y-48506656D01*
X123915722Y-48362732D01*
X123915715Y-48362725D01*
X123915715Y-48362723D01*
X123763243Y-48197097D01*
X123763238Y-48197092D01*
X123585577Y-48058812D01*
X123585572Y-48058808D01*
X123387580Y-47951661D01*
X123387577Y-47951659D01*
X123387574Y-47951658D01*
X123387571Y-47951657D01*
X123387569Y-47951656D01*
X123174637Y-47878556D01*
X122952569Y-47841500D01*
X122727431Y-47841500D01*
X122505362Y-47878556D01*
X122292430Y-47951656D01*
X122292419Y-47951661D01*
X122094427Y-48058808D01*
X122094422Y-48058812D01*
X121916761Y-48197092D01*
X121916756Y-48197097D01*
X121764284Y-48362723D01*
X121764276Y-48362734D01*
X121673808Y-48501206D01*
X121620662Y-48546562D01*
X121551431Y-48555986D01*
X121488095Y-48526484D01*
X121466192Y-48501206D01*
X121375723Y-48362734D01*
X121375715Y-48362723D01*
X121223243Y-48197097D01*
X121223238Y-48197092D01*
X121045577Y-48058812D01*
X121045572Y-48058808D01*
X120847580Y-47951661D01*
X120847577Y-47951659D01*
X120847574Y-47951658D01*
X120847571Y-47951657D01*
X120847569Y-47951656D01*
X120634637Y-47878556D01*
X120412569Y-47841500D01*
X120187431Y-47841500D01*
X119965362Y-47878556D01*
X119752430Y-47951656D01*
X119752419Y-47951661D01*
X119554427Y-48058808D01*
X119554422Y-48058812D01*
X119376761Y-48197092D01*
X119313548Y-48265760D01*
X119253661Y-48301750D01*
X119183823Y-48299649D01*
X119126207Y-48260124D01*
X119106138Y-48225110D01*
X119060889Y-48103796D01*
X119027214Y-48058812D01*
X118973261Y-47986739D01*
X118856204Y-47899111D01*
X118719203Y-47848011D01*
X118658654Y-47841500D01*
X118658638Y-47841500D01*
X116861362Y-47841500D01*
X116861345Y-47841500D01*
X116800797Y-47848011D01*
X116800795Y-47848011D01*
X116663795Y-47899111D01*
X116546739Y-47986739D01*
X116459111Y-48103795D01*
X116408011Y-48240795D01*
X116408011Y-48240797D01*
X116401500Y-48301345D01*
X100075500Y-48301345D01*
X100075500Y-47428092D01*
X100076097Y-47415938D01*
X100087494Y-47300222D01*
X100092234Y-47276389D01*
X100124216Y-47170959D01*
X100133508Y-47148526D01*
X100185442Y-47051365D01*
X100198938Y-47031166D01*
X100268827Y-46946006D01*
X100286006Y-46928827D01*
X100371166Y-46858938D01*
X100391365Y-46845442D01*
X100488526Y-46793508D01*
X100510959Y-46784216D01*
X100616389Y-46752234D01*
X100640220Y-46747494D01*
X100755939Y-46736097D01*
X100768093Y-46735500D01*
X100786531Y-46735500D01*
X163417365Y-46735500D01*
X163484404Y-46755185D01*
G37*
%TD.AperFunction*%
%TD*%
M02*
