M48
; DRILL file {KiCad 8.0.8} date 2025-02-03T17:03:40-0700
; FORMAT={-:-/ absolute / inch / decimal}
; #@! TF.CreationDate,2025-02-03T17:03:40-07:00
; #@! TF.GenerationSoftware,Kicad,Pcbnew,8.0.8
; #@! TF.FileFunction,Plated,1,2,PTH
FMAT,2
INCH
; #@! TA.AperFunction,Plated,PTH,ViaDrill
T1C0.0157
; #@! TA.AperFunction,Plated,PTH,ComponentDrill
T2C0.0315
; #@! TA.AperFunction,Plated,PTH,ComponentDrill
T3C0.0354
; #@! TA.AperFunction,Plated,PTH,ComponentDrill
T4C0.0374
; #@! TA.AperFunction,Plated,PTH,ComponentDrill
T5C0.0394
; #@! TA.AperFunction,Plated,PTH,ComponentDrill
T6C0.0433
%
G90
G05
T1
X5.0591Y-2.5394
X5.1969Y-2.9528
X5.1969Y-3.0317
X5.2596Y-2.5197
X5.3543Y-2.0472
X5.3543Y-2.3622
X5.4318Y-2.4816
X5.4724Y-2.0472
X5.4724Y-2.3622
X5.5248Y-2.428
X5.6299Y-1.9291
X5.6299Y-2.0866
X5.6299Y-3.3071
X5.6628Y-2.7559
X5.748Y-3.3071
X5.7746Y-2.7559
X5.8648Y-2.1247
X5.8661Y-2.0079
X5.8661Y-2.0866
X5.8952Y-2.0369
X5.9055Y-2.0866
X5.9068Y-2.1667
X5.9843Y-2.1654
X6.0617Y-2.2848
X6.0659Y-2.0501
X6.1011Y-2.7546
X6.1037Y-2.2428
X6.1796Y-2.5618
X6.1811Y-2.7953
X6.2227Y-2.6329
X6.2611Y-2.5577
X6.2876Y-3.189
X6.2992Y-2.6378
X6.347Y-3.189
X6.378Y-2.5984
X6.378Y-2.6772
T2
X4.915Y-2.126
X5.1543Y-3.189
X5.2299Y-2.6378
X5.315Y-2.126
X5.5543Y-3.189
X5.6299Y-2.6378
X5.7449Y-2.6378
X5.8205Y-3.189
X6.1386Y-2.4409
X6.1449Y-2.6378
X6.2205Y-3.189
X6.3173Y-3.5439
X6.4173Y-3.6439
X6.5173Y-3.5439
X6.5386Y-2.4409
T3
X5.0394Y-2.3622
X5.1394Y-2.3622
T4
X5.5315Y-2.1654
X5.6299Y-2.1654
X5.7283Y-2.1654
T5
X4.0589Y-2.5394
X4.1589Y-2.5394
X4.2589Y-2.5394
X4.3386Y-2.7156
X4.3589Y-2.5394
X4.4386Y-2.7156
X4.4589Y-2.5394
X4.5386Y-2.7156
X4.5589Y-2.5394
X4.6362Y-1.937
X4.6386Y-2.7156
X4.6589Y-2.5394
X4.7362Y-1.937
X4.7589Y-2.5394
X4.8362Y-1.937
X4.9362Y-1.937
X5.0362Y-1.937
X5.037Y-3.837
X5.1362Y-1.937
X5.137Y-3.837
X5.2362Y-1.937
X5.237Y-3.837
X5.3362Y-1.937
X5.337Y-3.837
X5.4362Y-1.937
X5.437Y-3.837
X5.5362Y-1.937
X5.537Y-3.837
X5.637Y-3.837
X5.7055Y-1.937
X5.737Y-3.837
X5.8055Y-1.937
X5.9055Y-1.937
X5.937Y-3.837
X6.0055Y-1.937
X6.037Y-3.837
X6.1055Y-1.937
X6.137Y-3.837
X6.2055Y-1.937
X6.237Y-3.837
X6.3055Y-1.937
X6.337Y-3.837
X6.4055Y-1.937
X6.437Y-3.837
T6
X5.3051Y-3.376
X5.3051Y-3.5531
X5.3445Y-2.8248
X5.3445Y-3.002
X5.561Y-3.376
X5.561Y-3.5531
X5.6004Y-2.8248
X5.6004Y-3.002
X5.7776Y-3.376
X5.7776Y-3.5531
X5.8465Y-2.8248
X5.8465Y-3.002
X6.0335Y-3.376
X6.0335Y-3.5531
X6.1024Y-2.8248
X6.1024Y-3.002
X6.25Y-2.8248
X6.25Y-3.002
X6.5059Y-2.8248
X6.5059Y-3.002
M30
