%TF.GenerationSoftware,KiCad,Pcbnew,8.0.8*%
%TF.CreationDate,2025-01-31T10:38:05-07:00*%
%TF.ProjectId,BoardMicro,426f6172-644d-4696-9372-6f2e6b696361,rev?*%
%TF.SameCoordinates,Original*%
%TF.FileFunction,Soldermask,Top*%
%TF.FilePolarity,Negative*%
%FSLAX46Y46*%
G04 Gerber Fmt 4.6, Leading zero omitted, Abs format (unit mm)*
G04 Created by KiCad (PCBNEW 8.0.8) date 2025-01-31 10:38:05*
%MOMM*%
%LPD*%
G01*
G04 APERTURE LIST*
%ADD10R,1.700000X1.700000*%
%ADD11O,1.700000X1.700000*%
%ADD12C,1.600000*%
%ADD13O,1.600000X1.600000*%
%ADD14C,2.000000*%
%ADD15C,1.440000*%
%ADD16R,1.800000X1.800000*%
%ADD17C,1.800000*%
G04 APERTURE END LIST*
D10*
%TO.C,J1*%
X127940000Y-97460000D03*
D11*
X130480000Y-97460000D03*
X133020000Y-97460000D03*
X135560000Y-97460000D03*
X138100000Y-97460000D03*
X140640000Y-97460000D03*
X143180000Y-97460000D03*
X145720000Y-97460000D03*
%TD*%
D10*
%TO.C,J3*%
X150800000Y-97460000D03*
D11*
X153340000Y-97460000D03*
X155880000Y-97460000D03*
X158420000Y-97460000D03*
X160960000Y-97460000D03*
X163500000Y-97460000D03*
%TD*%
D10*
%TO.C,J2*%
X118796000Y-49200000D03*
D11*
X121336000Y-49200000D03*
X123876000Y-49200000D03*
X126416000Y-49200000D03*
X128956000Y-49200000D03*
X131496000Y-49200000D03*
X134036000Y-49200000D03*
X136576000Y-49200000D03*
X139116000Y-49200000D03*
X141656000Y-49200000D03*
%TD*%
D10*
%TO.C,J4*%
X145720000Y-49200000D03*
D11*
X148260000Y-49200000D03*
X150800000Y-49200000D03*
X153340000Y-49200000D03*
X155880000Y-49200000D03*
X158420000Y-49200000D03*
X160960000Y-49200000D03*
X163500000Y-49200000D03*
%TD*%
D12*
%TO.C,R2*%
X155920000Y-63000000D03*
D13*
X166080000Y-63000000D03*
%TD*%
D12*
%TO.C,R1*%
X124840000Y-54000000D03*
D13*
X135000000Y-54000000D03*
%TD*%
D10*
%TO.C,J5*%
X120875000Y-64500000D03*
D11*
X118335000Y-64500000D03*
X115795000Y-64500000D03*
X113255000Y-64500000D03*
X110715000Y-64500000D03*
X108175000Y-64500000D03*
X105635000Y-64500000D03*
X103095000Y-64500000D03*
%TD*%
D12*
%TO.C,R6*%
X143000000Y-67000000D03*
D13*
X132840000Y-67000000D03*
%TD*%
D14*
%TO.C,SW5*%
X136750000Y-71750000D03*
X143250000Y-71750000D03*
X136750000Y-76250000D03*
X143250000Y-76250000D03*
%TD*%
D12*
%TO.C,R5*%
X145920000Y-81000000D03*
D13*
X156080000Y-81000000D03*
%TD*%
D12*
%TO.C,R4*%
X131840000Y-81000000D03*
D13*
X142000000Y-81000000D03*
%TD*%
D14*
%TO.C,SW2*%
X147750000Y-71750000D03*
X154250000Y-71750000D03*
X147750000Y-76250000D03*
X154250000Y-76250000D03*
%TD*%
D10*
%TO.C,J6*%
X110200000Y-68975000D03*
D11*
X112740000Y-68975000D03*
X115280000Y-68975000D03*
X117820000Y-68975000D03*
%TD*%
D15*
%TO.C,RV1*%
X160460000Y-90015000D03*
X163000000Y-92555000D03*
X165540000Y-90015000D03*
%TD*%
D12*
%TO.C,R3*%
X145920000Y-67000000D03*
D13*
X156080000Y-67000000D03*
%TD*%
D14*
%TO.C,SW3*%
X134750000Y-85750000D03*
X141250000Y-85750000D03*
X134750000Y-90250000D03*
X141250000Y-90250000D03*
%TD*%
D16*
%TO.C,D1*%
X128000000Y-60000000D03*
D17*
X130540000Y-60000000D03*
%TD*%
D14*
%TO.C,SW1*%
X158750000Y-71750000D03*
X165250000Y-71750000D03*
X158750000Y-76250000D03*
X165250000Y-76250000D03*
%TD*%
%TO.C,SW4*%
X146750000Y-85750000D03*
X153250000Y-85750000D03*
X146750000Y-90250000D03*
X153250000Y-90250000D03*
%TD*%
M02*
