M48
; DRILL file {KiCad 8.0.8} date 2025-01-31T10:37:38-0700
; FORMAT={-:-/ absolute / inch / decimal}
; #@! TF.CreationDate,2025-01-31T10:37:38-07:00
; #@! TF.GenerationSoftware,Kicad,Pcbnew,8.0.8
; #@! TF.FileFunction,Plated,1,2,PTH
FMAT,2
INCH
; #@! TA.AperFunction,Plated,PTH,ViaDrill
T1C0.0157
; #@! TA.AperFunction,Plated,PTH,ComponentDrill
T2C0.0315
; #@! TA.AperFunction,Plated,PTH,ComponentDrill
T3C0.0354
; #@! TA.AperFunction,Plated,PTH,ComponentDrill
T4C0.0394
; #@! TA.AperFunction,Plated,PTH,ComponentDrill
T5C0.0433
%
G90
G05
T1
X5.9055Y-2.0866
X5.9843Y-2.1654
T2
X4.915Y-2.126
X5.1906Y-3.189
X5.2299Y-2.6378
X5.315Y-2.126
X5.5906Y-3.189
X5.6299Y-2.6378
X5.7449Y-2.6378
X5.7449Y-3.189
X6.1386Y-2.4803
X6.1449Y-2.6378
X6.1449Y-3.189
X6.3173Y-3.5439
X6.4173Y-3.6439
X6.5173Y-3.5439
X6.5386Y-2.4803
T3
X5.0394Y-2.3622
X5.1394Y-2.3622
T4
X4.0589Y-2.5394
X4.1589Y-2.5394
X4.2589Y-2.5394
X4.3386Y-2.7156
X4.3589Y-2.5394
X4.4386Y-2.7156
X4.4589Y-2.5394
X4.5386Y-2.7156
X4.5589Y-2.5394
X4.6386Y-2.7156
X4.6589Y-2.5394
X4.677Y-1.937
X4.7589Y-2.5394
X4.777Y-1.937
X4.877Y-1.937
X4.977Y-1.937
X5.037Y-3.837
X5.077Y-1.937
X5.137Y-3.837
X5.177Y-1.937
X5.237Y-3.837
X5.277Y-1.937
X5.337Y-3.837
X5.377Y-1.937
X5.437Y-3.837
X5.477Y-1.937
X5.537Y-3.837
X5.577Y-1.937
X5.637Y-3.837
X5.737Y-1.937
X5.737Y-3.837
X5.837Y-1.937
X5.937Y-1.937
X5.937Y-3.837
X6.037Y-1.937
X6.037Y-3.837
X6.137Y-1.937
X6.137Y-3.837
X6.237Y-1.937
X6.237Y-3.837
X6.337Y-1.937
X6.337Y-3.837
X6.437Y-1.937
X6.437Y-3.837
T5
X5.3051Y-3.376
X5.3051Y-3.5531
X5.3839Y-2.8248
X5.3839Y-3.002
X5.561Y-3.376
X5.561Y-3.5531
X5.6398Y-2.8248
X5.6398Y-3.002
X5.7776Y-3.376
X5.7776Y-3.5531
X5.8169Y-2.8248
X5.8169Y-3.002
X6.0335Y-3.376
X6.0335Y-3.5531
X6.0728Y-2.8248
X6.0728Y-3.002
X6.25Y-2.8248
X6.25Y-3.002
X6.5059Y-2.8248
X6.5059Y-3.002
M30
