%TF.GenerationSoftware,KiCad,Pcbnew,8.0.8*%
%TF.CreationDate,2025-01-31T10:38:04-07:00*%
%TF.ProjectId,BoardMicro,426f6172-644d-4696-9372-6f2e6b696361,rev?*%
%TF.SameCoordinates,Original*%
%TF.FileFunction,Legend,Top*%
%TF.FilePolarity,Positive*%
%FSLAX46Y46*%
G04 Gerber Fmt 4.6, Leading zero omitted, Abs format (unit mm)*
G04 Created by KiCad (PCBNEW 8.0.8) date 2025-01-31 10:38:04*
%MOMM*%
%LPD*%
G01*
G04 APERTURE LIST*
%ADD10C,0.150000*%
%ADD11C,0.120000*%
G04 APERTURE END LIST*
D10*
X101795000Y-48500000D02*
X101795000Y-52500000D01*
X100360000Y-67475000D02*
X128160000Y-67475000D01*
X128160000Y-94775000D01*
X100360000Y-94775000D01*
X100360000Y-67475000D01*
X158115000Y-94885000D02*
X167885000Y-94885000D01*
X167885000Y-85115000D01*
X158115000Y-85115000D01*
X158115000Y-94885000D01*
X100360000Y-67475000D02*
X110200000Y-67475000D01*
X101795000Y-48500000D02*
X108020112Y-48500000D01*
X122795000Y-65500000D02*
X122795000Y-53000000D01*
X110200000Y-67475000D02*
X110200000Y-68975000D01*
X160833333Y-63454819D02*
X160500000Y-62978628D01*
X160261905Y-63454819D02*
X160261905Y-62454819D01*
X160261905Y-62454819D02*
X160642857Y-62454819D01*
X160642857Y-62454819D02*
X160738095Y-62502438D01*
X160738095Y-62502438D02*
X160785714Y-62550057D01*
X160785714Y-62550057D02*
X160833333Y-62645295D01*
X160833333Y-62645295D02*
X160833333Y-62788152D01*
X160833333Y-62788152D02*
X160785714Y-62883390D01*
X160785714Y-62883390D02*
X160738095Y-62931009D01*
X160738095Y-62931009D02*
X160642857Y-62978628D01*
X160642857Y-62978628D02*
X160261905Y-62978628D01*
X161214286Y-62550057D02*
X161261905Y-62502438D01*
X161261905Y-62502438D02*
X161357143Y-62454819D01*
X161357143Y-62454819D02*
X161595238Y-62454819D01*
X161595238Y-62454819D02*
X161690476Y-62502438D01*
X161690476Y-62502438D02*
X161738095Y-62550057D01*
X161738095Y-62550057D02*
X161785714Y-62645295D01*
X161785714Y-62645295D02*
X161785714Y-62740533D01*
X161785714Y-62740533D02*
X161738095Y-62883390D01*
X161738095Y-62883390D02*
X161166667Y-63454819D01*
X161166667Y-63454819D02*
X161785714Y-63454819D01*
X129753333Y-54454819D02*
X129420000Y-53978628D01*
X129181905Y-54454819D02*
X129181905Y-53454819D01*
X129181905Y-53454819D02*
X129562857Y-53454819D01*
X129562857Y-53454819D02*
X129658095Y-53502438D01*
X129658095Y-53502438D02*
X129705714Y-53550057D01*
X129705714Y-53550057D02*
X129753333Y-53645295D01*
X129753333Y-53645295D02*
X129753333Y-53788152D01*
X129753333Y-53788152D02*
X129705714Y-53883390D01*
X129705714Y-53883390D02*
X129658095Y-53931009D01*
X129658095Y-53931009D02*
X129562857Y-53978628D01*
X129562857Y-53978628D02*
X129181905Y-53978628D01*
X130705714Y-54454819D02*
X130134286Y-54454819D01*
X130420000Y-54454819D02*
X130420000Y-53454819D01*
X130420000Y-53454819D02*
X130324762Y-53597676D01*
X130324762Y-53597676D02*
X130229524Y-53692914D01*
X130229524Y-53692914D02*
X130134286Y-53740533D01*
X123099819Y-64833333D02*
X123814104Y-64833333D01*
X123814104Y-64833333D02*
X123956961Y-64880952D01*
X123956961Y-64880952D02*
X124052200Y-64976190D01*
X124052200Y-64976190D02*
X124099819Y-65119047D01*
X124099819Y-65119047D02*
X124099819Y-65214285D01*
X123099819Y-63880952D02*
X123099819Y-64357142D01*
X123099819Y-64357142D02*
X123576009Y-64404761D01*
X123576009Y-64404761D02*
X123528390Y-64357142D01*
X123528390Y-64357142D02*
X123480771Y-64261904D01*
X123480771Y-64261904D02*
X123480771Y-64023809D01*
X123480771Y-64023809D02*
X123528390Y-63928571D01*
X123528390Y-63928571D02*
X123576009Y-63880952D01*
X123576009Y-63880952D02*
X123671247Y-63833333D01*
X123671247Y-63833333D02*
X123909342Y-63833333D01*
X123909342Y-63833333D02*
X124004580Y-63880952D01*
X124004580Y-63880952D02*
X124052200Y-63928571D01*
X124052200Y-63928571D02*
X124099819Y-64023809D01*
X124099819Y-64023809D02*
X124099819Y-64261904D01*
X124099819Y-64261904D02*
X124052200Y-64357142D01*
X124052200Y-64357142D02*
X124004580Y-64404761D01*
X137213333Y-67454819D02*
X136880000Y-66978628D01*
X136641905Y-67454819D02*
X136641905Y-66454819D01*
X136641905Y-66454819D02*
X137022857Y-66454819D01*
X137022857Y-66454819D02*
X137118095Y-66502438D01*
X137118095Y-66502438D02*
X137165714Y-66550057D01*
X137165714Y-66550057D02*
X137213333Y-66645295D01*
X137213333Y-66645295D02*
X137213333Y-66788152D01*
X137213333Y-66788152D02*
X137165714Y-66883390D01*
X137165714Y-66883390D02*
X137118095Y-66931009D01*
X137118095Y-66931009D02*
X137022857Y-66978628D01*
X137022857Y-66978628D02*
X136641905Y-66978628D01*
X138070476Y-66454819D02*
X137880000Y-66454819D01*
X137880000Y-66454819D02*
X137784762Y-66502438D01*
X137784762Y-66502438D02*
X137737143Y-66550057D01*
X137737143Y-66550057D02*
X137641905Y-66692914D01*
X137641905Y-66692914D02*
X137594286Y-66883390D01*
X137594286Y-66883390D02*
X137594286Y-67264342D01*
X137594286Y-67264342D02*
X137641905Y-67359580D01*
X137641905Y-67359580D02*
X137689524Y-67407200D01*
X137689524Y-67407200D02*
X137784762Y-67454819D01*
X137784762Y-67454819D02*
X137975238Y-67454819D01*
X137975238Y-67454819D02*
X138070476Y-67407200D01*
X138070476Y-67407200D02*
X138118095Y-67359580D01*
X138118095Y-67359580D02*
X138165714Y-67264342D01*
X138165714Y-67264342D02*
X138165714Y-67026247D01*
X138165714Y-67026247D02*
X138118095Y-66931009D01*
X138118095Y-66931009D02*
X138070476Y-66883390D01*
X138070476Y-66883390D02*
X137975238Y-66835771D01*
X137975238Y-66835771D02*
X137784762Y-66835771D01*
X137784762Y-66835771D02*
X137689524Y-66883390D01*
X137689524Y-66883390D02*
X137641905Y-66931009D01*
X137641905Y-66931009D02*
X137594286Y-67026247D01*
X138666667Y-74407200D02*
X138809524Y-74454819D01*
X138809524Y-74454819D02*
X139047619Y-74454819D01*
X139047619Y-74454819D02*
X139142857Y-74407200D01*
X139142857Y-74407200D02*
X139190476Y-74359580D01*
X139190476Y-74359580D02*
X139238095Y-74264342D01*
X139238095Y-74264342D02*
X139238095Y-74169104D01*
X139238095Y-74169104D02*
X139190476Y-74073866D01*
X139190476Y-74073866D02*
X139142857Y-74026247D01*
X139142857Y-74026247D02*
X139047619Y-73978628D01*
X139047619Y-73978628D02*
X138857143Y-73931009D01*
X138857143Y-73931009D02*
X138761905Y-73883390D01*
X138761905Y-73883390D02*
X138714286Y-73835771D01*
X138714286Y-73835771D02*
X138666667Y-73740533D01*
X138666667Y-73740533D02*
X138666667Y-73645295D01*
X138666667Y-73645295D02*
X138714286Y-73550057D01*
X138714286Y-73550057D02*
X138761905Y-73502438D01*
X138761905Y-73502438D02*
X138857143Y-73454819D01*
X138857143Y-73454819D02*
X139095238Y-73454819D01*
X139095238Y-73454819D02*
X139238095Y-73502438D01*
X139571429Y-73454819D02*
X139809524Y-74454819D01*
X139809524Y-74454819D02*
X140000000Y-73740533D01*
X140000000Y-73740533D02*
X140190476Y-74454819D01*
X140190476Y-74454819D02*
X140428572Y-73454819D01*
X141285714Y-73454819D02*
X140809524Y-73454819D01*
X140809524Y-73454819D02*
X140761905Y-73931009D01*
X140761905Y-73931009D02*
X140809524Y-73883390D01*
X140809524Y-73883390D02*
X140904762Y-73835771D01*
X140904762Y-73835771D02*
X141142857Y-73835771D01*
X141142857Y-73835771D02*
X141238095Y-73883390D01*
X141238095Y-73883390D02*
X141285714Y-73931009D01*
X141285714Y-73931009D02*
X141333333Y-74026247D01*
X141333333Y-74026247D02*
X141333333Y-74264342D01*
X141333333Y-74264342D02*
X141285714Y-74359580D01*
X141285714Y-74359580D02*
X141238095Y-74407200D01*
X141238095Y-74407200D02*
X141142857Y-74454819D01*
X141142857Y-74454819D02*
X140904762Y-74454819D01*
X140904762Y-74454819D02*
X140809524Y-74407200D01*
X140809524Y-74407200D02*
X140761905Y-74359580D01*
X150993333Y-81454819D02*
X150660000Y-80978628D01*
X150421905Y-81454819D02*
X150421905Y-80454819D01*
X150421905Y-80454819D02*
X150802857Y-80454819D01*
X150802857Y-80454819D02*
X150898095Y-80502438D01*
X150898095Y-80502438D02*
X150945714Y-80550057D01*
X150945714Y-80550057D02*
X150993333Y-80645295D01*
X150993333Y-80645295D02*
X150993333Y-80788152D01*
X150993333Y-80788152D02*
X150945714Y-80883390D01*
X150945714Y-80883390D02*
X150898095Y-80931009D01*
X150898095Y-80931009D02*
X150802857Y-80978628D01*
X150802857Y-80978628D02*
X150421905Y-80978628D01*
X151898095Y-80454819D02*
X151421905Y-80454819D01*
X151421905Y-80454819D02*
X151374286Y-80931009D01*
X151374286Y-80931009D02*
X151421905Y-80883390D01*
X151421905Y-80883390D02*
X151517143Y-80835771D01*
X151517143Y-80835771D02*
X151755238Y-80835771D01*
X151755238Y-80835771D02*
X151850476Y-80883390D01*
X151850476Y-80883390D02*
X151898095Y-80931009D01*
X151898095Y-80931009D02*
X151945714Y-81026247D01*
X151945714Y-81026247D02*
X151945714Y-81264342D01*
X151945714Y-81264342D02*
X151898095Y-81359580D01*
X151898095Y-81359580D02*
X151850476Y-81407200D01*
X151850476Y-81407200D02*
X151755238Y-81454819D01*
X151755238Y-81454819D02*
X151517143Y-81454819D01*
X151517143Y-81454819D02*
X151421905Y-81407200D01*
X151421905Y-81407200D02*
X151374286Y-81359580D01*
X136753333Y-80954819D02*
X136420000Y-80478628D01*
X136181905Y-80954819D02*
X136181905Y-79954819D01*
X136181905Y-79954819D02*
X136562857Y-79954819D01*
X136562857Y-79954819D02*
X136658095Y-80002438D01*
X136658095Y-80002438D02*
X136705714Y-80050057D01*
X136705714Y-80050057D02*
X136753333Y-80145295D01*
X136753333Y-80145295D02*
X136753333Y-80288152D01*
X136753333Y-80288152D02*
X136705714Y-80383390D01*
X136705714Y-80383390D02*
X136658095Y-80431009D01*
X136658095Y-80431009D02*
X136562857Y-80478628D01*
X136562857Y-80478628D02*
X136181905Y-80478628D01*
X137610476Y-80288152D02*
X137610476Y-80954819D01*
X137372381Y-79907200D02*
X137134286Y-80621485D01*
X137134286Y-80621485D02*
X137753333Y-80621485D01*
X149666667Y-74407200D02*
X149809524Y-74454819D01*
X149809524Y-74454819D02*
X150047619Y-74454819D01*
X150047619Y-74454819D02*
X150142857Y-74407200D01*
X150142857Y-74407200D02*
X150190476Y-74359580D01*
X150190476Y-74359580D02*
X150238095Y-74264342D01*
X150238095Y-74264342D02*
X150238095Y-74169104D01*
X150238095Y-74169104D02*
X150190476Y-74073866D01*
X150190476Y-74073866D02*
X150142857Y-74026247D01*
X150142857Y-74026247D02*
X150047619Y-73978628D01*
X150047619Y-73978628D02*
X149857143Y-73931009D01*
X149857143Y-73931009D02*
X149761905Y-73883390D01*
X149761905Y-73883390D02*
X149714286Y-73835771D01*
X149714286Y-73835771D02*
X149666667Y-73740533D01*
X149666667Y-73740533D02*
X149666667Y-73645295D01*
X149666667Y-73645295D02*
X149714286Y-73550057D01*
X149714286Y-73550057D02*
X149761905Y-73502438D01*
X149761905Y-73502438D02*
X149857143Y-73454819D01*
X149857143Y-73454819D02*
X150095238Y-73454819D01*
X150095238Y-73454819D02*
X150238095Y-73502438D01*
X150571429Y-73454819D02*
X150809524Y-74454819D01*
X150809524Y-74454819D02*
X151000000Y-73740533D01*
X151000000Y-73740533D02*
X151190476Y-74454819D01*
X151190476Y-74454819D02*
X151428572Y-73454819D01*
X151761905Y-73550057D02*
X151809524Y-73502438D01*
X151809524Y-73502438D02*
X151904762Y-73454819D01*
X151904762Y-73454819D02*
X152142857Y-73454819D01*
X152142857Y-73454819D02*
X152238095Y-73502438D01*
X152238095Y-73502438D02*
X152285714Y-73550057D01*
X152285714Y-73550057D02*
X152333333Y-73645295D01*
X152333333Y-73645295D02*
X152333333Y-73740533D01*
X152333333Y-73740533D02*
X152285714Y-73883390D01*
X152285714Y-73883390D02*
X151714286Y-74454819D01*
X151714286Y-74454819D02*
X152333333Y-74454819D01*
X106884819Y-69308333D02*
X107599104Y-69308333D01*
X107599104Y-69308333D02*
X107741961Y-69355952D01*
X107741961Y-69355952D02*
X107837200Y-69451190D01*
X107837200Y-69451190D02*
X107884819Y-69594047D01*
X107884819Y-69594047D02*
X107884819Y-69689285D01*
X106884819Y-68403571D02*
X106884819Y-68594047D01*
X106884819Y-68594047D02*
X106932438Y-68689285D01*
X106932438Y-68689285D02*
X106980057Y-68736904D01*
X106980057Y-68736904D02*
X107122914Y-68832142D01*
X107122914Y-68832142D02*
X107313390Y-68879761D01*
X107313390Y-68879761D02*
X107694342Y-68879761D01*
X107694342Y-68879761D02*
X107789580Y-68832142D01*
X107789580Y-68832142D02*
X107837200Y-68784523D01*
X107837200Y-68784523D02*
X107884819Y-68689285D01*
X107884819Y-68689285D02*
X107884819Y-68498809D01*
X107884819Y-68498809D02*
X107837200Y-68403571D01*
X107837200Y-68403571D02*
X107789580Y-68355952D01*
X107789580Y-68355952D02*
X107694342Y-68308333D01*
X107694342Y-68308333D02*
X107456247Y-68308333D01*
X107456247Y-68308333D02*
X107361009Y-68355952D01*
X107361009Y-68355952D02*
X107313390Y-68403571D01*
X107313390Y-68403571D02*
X107265771Y-68498809D01*
X107265771Y-68498809D02*
X107265771Y-68689285D01*
X107265771Y-68689285D02*
X107313390Y-68784523D01*
X107313390Y-68784523D02*
X107361009Y-68832142D01*
X107361009Y-68832142D02*
X107456247Y-68879761D01*
X163339819Y-90595238D02*
X162863628Y-90928571D01*
X163339819Y-91166666D02*
X162339819Y-91166666D01*
X162339819Y-91166666D02*
X162339819Y-90785714D01*
X162339819Y-90785714D02*
X162387438Y-90690476D01*
X162387438Y-90690476D02*
X162435057Y-90642857D01*
X162435057Y-90642857D02*
X162530295Y-90595238D01*
X162530295Y-90595238D02*
X162673152Y-90595238D01*
X162673152Y-90595238D02*
X162768390Y-90642857D01*
X162768390Y-90642857D02*
X162816009Y-90690476D01*
X162816009Y-90690476D02*
X162863628Y-90785714D01*
X162863628Y-90785714D02*
X162863628Y-91166666D01*
X162339819Y-90309523D02*
X163339819Y-89976190D01*
X163339819Y-89976190D02*
X162339819Y-89642857D01*
X163339819Y-88785714D02*
X163339819Y-89357142D01*
X163339819Y-89071428D02*
X162339819Y-89071428D01*
X162339819Y-89071428D02*
X162482676Y-89166666D01*
X162482676Y-89166666D02*
X162577914Y-89261904D01*
X162577914Y-89261904D02*
X162625533Y-89357142D01*
X150833333Y-66954819D02*
X150500000Y-66478628D01*
X150261905Y-66954819D02*
X150261905Y-65954819D01*
X150261905Y-65954819D02*
X150642857Y-65954819D01*
X150642857Y-65954819D02*
X150738095Y-66002438D01*
X150738095Y-66002438D02*
X150785714Y-66050057D01*
X150785714Y-66050057D02*
X150833333Y-66145295D01*
X150833333Y-66145295D02*
X150833333Y-66288152D01*
X150833333Y-66288152D02*
X150785714Y-66383390D01*
X150785714Y-66383390D02*
X150738095Y-66431009D01*
X150738095Y-66431009D02*
X150642857Y-66478628D01*
X150642857Y-66478628D02*
X150261905Y-66478628D01*
X151166667Y-65954819D02*
X151785714Y-65954819D01*
X151785714Y-65954819D02*
X151452381Y-66335771D01*
X151452381Y-66335771D02*
X151595238Y-66335771D01*
X151595238Y-66335771D02*
X151690476Y-66383390D01*
X151690476Y-66383390D02*
X151738095Y-66431009D01*
X151738095Y-66431009D02*
X151785714Y-66526247D01*
X151785714Y-66526247D02*
X151785714Y-66764342D01*
X151785714Y-66764342D02*
X151738095Y-66859580D01*
X151738095Y-66859580D02*
X151690476Y-66907200D01*
X151690476Y-66907200D02*
X151595238Y-66954819D01*
X151595238Y-66954819D02*
X151309524Y-66954819D01*
X151309524Y-66954819D02*
X151214286Y-66907200D01*
X151214286Y-66907200D02*
X151166667Y-66859580D01*
X136666667Y-87407200D02*
X136809524Y-87454819D01*
X136809524Y-87454819D02*
X137047619Y-87454819D01*
X137047619Y-87454819D02*
X137142857Y-87407200D01*
X137142857Y-87407200D02*
X137190476Y-87359580D01*
X137190476Y-87359580D02*
X137238095Y-87264342D01*
X137238095Y-87264342D02*
X137238095Y-87169104D01*
X137238095Y-87169104D02*
X137190476Y-87073866D01*
X137190476Y-87073866D02*
X137142857Y-87026247D01*
X137142857Y-87026247D02*
X137047619Y-86978628D01*
X137047619Y-86978628D02*
X136857143Y-86931009D01*
X136857143Y-86931009D02*
X136761905Y-86883390D01*
X136761905Y-86883390D02*
X136714286Y-86835771D01*
X136714286Y-86835771D02*
X136666667Y-86740533D01*
X136666667Y-86740533D02*
X136666667Y-86645295D01*
X136666667Y-86645295D02*
X136714286Y-86550057D01*
X136714286Y-86550057D02*
X136761905Y-86502438D01*
X136761905Y-86502438D02*
X136857143Y-86454819D01*
X136857143Y-86454819D02*
X137095238Y-86454819D01*
X137095238Y-86454819D02*
X137238095Y-86502438D01*
X137571429Y-86454819D02*
X137809524Y-87454819D01*
X137809524Y-87454819D02*
X138000000Y-86740533D01*
X138000000Y-86740533D02*
X138190476Y-87454819D01*
X138190476Y-87454819D02*
X138428572Y-86454819D01*
X138714286Y-86454819D02*
X139333333Y-86454819D01*
X139333333Y-86454819D02*
X139000000Y-86835771D01*
X139000000Y-86835771D02*
X139142857Y-86835771D01*
X139142857Y-86835771D02*
X139238095Y-86883390D01*
X139238095Y-86883390D02*
X139285714Y-86931009D01*
X139285714Y-86931009D02*
X139333333Y-87026247D01*
X139333333Y-87026247D02*
X139333333Y-87264342D01*
X139333333Y-87264342D02*
X139285714Y-87359580D01*
X139285714Y-87359580D02*
X139238095Y-87407200D01*
X139238095Y-87407200D02*
X139142857Y-87454819D01*
X139142857Y-87454819D02*
X138857143Y-87454819D01*
X138857143Y-87454819D02*
X138761905Y-87407200D01*
X138761905Y-87407200D02*
X138714286Y-87359580D01*
X128531905Y-60454819D02*
X128531905Y-59454819D01*
X128531905Y-59454819D02*
X128770000Y-59454819D01*
X128770000Y-59454819D02*
X128912857Y-59502438D01*
X128912857Y-59502438D02*
X129008095Y-59597676D01*
X129008095Y-59597676D02*
X129055714Y-59692914D01*
X129055714Y-59692914D02*
X129103333Y-59883390D01*
X129103333Y-59883390D02*
X129103333Y-60026247D01*
X129103333Y-60026247D02*
X129055714Y-60216723D01*
X129055714Y-60216723D02*
X129008095Y-60311961D01*
X129008095Y-60311961D02*
X128912857Y-60407200D01*
X128912857Y-60407200D02*
X128770000Y-60454819D01*
X128770000Y-60454819D02*
X128531905Y-60454819D01*
X130055714Y-60454819D02*
X129484286Y-60454819D01*
X129770000Y-60454819D02*
X129770000Y-59454819D01*
X129770000Y-59454819D02*
X129674762Y-59597676D01*
X129674762Y-59597676D02*
X129579524Y-59692914D01*
X129579524Y-59692914D02*
X129484286Y-59740533D01*
X160666667Y-74407200D02*
X160809524Y-74454819D01*
X160809524Y-74454819D02*
X161047619Y-74454819D01*
X161047619Y-74454819D02*
X161142857Y-74407200D01*
X161142857Y-74407200D02*
X161190476Y-74359580D01*
X161190476Y-74359580D02*
X161238095Y-74264342D01*
X161238095Y-74264342D02*
X161238095Y-74169104D01*
X161238095Y-74169104D02*
X161190476Y-74073866D01*
X161190476Y-74073866D02*
X161142857Y-74026247D01*
X161142857Y-74026247D02*
X161047619Y-73978628D01*
X161047619Y-73978628D02*
X160857143Y-73931009D01*
X160857143Y-73931009D02*
X160761905Y-73883390D01*
X160761905Y-73883390D02*
X160714286Y-73835771D01*
X160714286Y-73835771D02*
X160666667Y-73740533D01*
X160666667Y-73740533D02*
X160666667Y-73645295D01*
X160666667Y-73645295D02*
X160714286Y-73550057D01*
X160714286Y-73550057D02*
X160761905Y-73502438D01*
X160761905Y-73502438D02*
X160857143Y-73454819D01*
X160857143Y-73454819D02*
X161095238Y-73454819D01*
X161095238Y-73454819D02*
X161238095Y-73502438D01*
X161571429Y-73454819D02*
X161809524Y-74454819D01*
X161809524Y-74454819D02*
X162000000Y-73740533D01*
X162000000Y-73740533D02*
X162190476Y-74454819D01*
X162190476Y-74454819D02*
X162428572Y-73454819D01*
X163333333Y-74454819D02*
X162761905Y-74454819D01*
X163047619Y-74454819D02*
X163047619Y-73454819D01*
X163047619Y-73454819D02*
X162952381Y-73597676D01*
X162952381Y-73597676D02*
X162857143Y-73692914D01*
X162857143Y-73692914D02*
X162761905Y-73740533D01*
X148666667Y-87407200D02*
X148809524Y-87454819D01*
X148809524Y-87454819D02*
X149047619Y-87454819D01*
X149047619Y-87454819D02*
X149142857Y-87407200D01*
X149142857Y-87407200D02*
X149190476Y-87359580D01*
X149190476Y-87359580D02*
X149238095Y-87264342D01*
X149238095Y-87264342D02*
X149238095Y-87169104D01*
X149238095Y-87169104D02*
X149190476Y-87073866D01*
X149190476Y-87073866D02*
X149142857Y-87026247D01*
X149142857Y-87026247D02*
X149047619Y-86978628D01*
X149047619Y-86978628D02*
X148857143Y-86931009D01*
X148857143Y-86931009D02*
X148761905Y-86883390D01*
X148761905Y-86883390D02*
X148714286Y-86835771D01*
X148714286Y-86835771D02*
X148666667Y-86740533D01*
X148666667Y-86740533D02*
X148666667Y-86645295D01*
X148666667Y-86645295D02*
X148714286Y-86550057D01*
X148714286Y-86550057D02*
X148761905Y-86502438D01*
X148761905Y-86502438D02*
X148857143Y-86454819D01*
X148857143Y-86454819D02*
X149095238Y-86454819D01*
X149095238Y-86454819D02*
X149238095Y-86502438D01*
X149571429Y-86454819D02*
X149809524Y-87454819D01*
X149809524Y-87454819D02*
X150000000Y-86740533D01*
X150000000Y-86740533D02*
X150190476Y-87454819D01*
X150190476Y-87454819D02*
X150428572Y-86454819D01*
X151238095Y-86788152D02*
X151238095Y-87454819D01*
X151000000Y-86407200D02*
X150761905Y-87121485D01*
X150761905Y-87121485D02*
X151380952Y-87121485D01*
D11*
%TO.C,J1*%
X126610000Y-96130000D02*
X127940000Y-96130000D01*
X126610000Y-97460000D02*
X126610000Y-96130000D01*
X129210000Y-96130000D02*
X147050000Y-96130000D01*
X129210000Y-98790000D02*
X129210000Y-96130000D01*
X129210000Y-98790000D02*
X147050000Y-98790000D01*
X147050000Y-98790000D02*
X147050000Y-96130000D01*
%TO.C,J3*%
X149470000Y-96130000D02*
X150800000Y-96130000D01*
X149470000Y-97460000D02*
X149470000Y-96130000D01*
X152070000Y-96130000D02*
X164830000Y-96130000D01*
X152070000Y-98790000D02*
X152070000Y-96130000D01*
X152070000Y-98790000D02*
X164830000Y-98790000D01*
X164830000Y-98790000D02*
X164830000Y-96130000D01*
%TO.C,J2*%
X117466000Y-47870000D02*
X118796000Y-47870000D01*
X117466000Y-49200000D02*
X117466000Y-47870000D01*
X120066000Y-47870000D02*
X142986000Y-47870000D01*
X120066000Y-50530000D02*
X120066000Y-47870000D01*
X120066000Y-50530000D02*
X142986000Y-50530000D01*
X142986000Y-50530000D02*
X142986000Y-47870000D01*
%TO.C,J4*%
X144390000Y-47870000D02*
X145720000Y-47870000D01*
X144390000Y-49200000D02*
X144390000Y-47870000D01*
X146990000Y-47870000D02*
X164830000Y-47870000D01*
X146990000Y-50530000D02*
X146990000Y-47870000D01*
X146990000Y-50530000D02*
X164830000Y-50530000D01*
X164830000Y-50530000D02*
X164830000Y-47870000D01*
%TO.C,R2*%
X156960000Y-63000000D02*
X157730000Y-63000000D01*
X157730000Y-61630000D02*
X157730000Y-64370000D01*
X157730000Y-64370000D02*
X164270000Y-64370000D01*
X164270000Y-61630000D02*
X157730000Y-61630000D01*
X164270000Y-64370000D02*
X164270000Y-61630000D01*
X165040000Y-63000000D02*
X164270000Y-63000000D01*
%TO.C,R1*%
X125880000Y-54000000D02*
X126650000Y-54000000D01*
X126650000Y-52630000D02*
X126650000Y-55370000D01*
X126650000Y-55370000D02*
X133190000Y-55370000D01*
X133190000Y-52630000D02*
X126650000Y-52630000D01*
X133190000Y-55370000D02*
X133190000Y-52630000D01*
X133960000Y-54000000D02*
X133190000Y-54000000D01*
%TO.C,J5*%
X101765000Y-63170000D02*
X101765000Y-65830000D01*
X119605000Y-63170000D02*
X101765000Y-63170000D01*
X119605000Y-63170000D02*
X119605000Y-65830000D01*
X119605000Y-65830000D02*
X101765000Y-65830000D01*
X122205000Y-64500000D02*
X122205000Y-65830000D01*
X122205000Y-65830000D02*
X120875000Y-65830000D01*
%TO.C,R6*%
X133880000Y-67000000D02*
X134650000Y-67000000D01*
X134650000Y-65630000D02*
X134650000Y-68370000D01*
X134650000Y-68370000D02*
X141190000Y-68370000D01*
X141190000Y-65630000D02*
X134650000Y-65630000D01*
X141190000Y-68370000D02*
X141190000Y-65630000D01*
X141960000Y-67000000D02*
X141190000Y-67000000D01*
%TO.C,SW5*%
X136500000Y-73250000D02*
X136500000Y-74750000D01*
X137750000Y-77250000D02*
X142250000Y-77250000D01*
X142250000Y-70750000D02*
X137750000Y-70750000D01*
X143500000Y-74750000D02*
X143500000Y-73250000D01*
%TO.C,R5*%
X146960000Y-81000000D02*
X147730000Y-81000000D01*
X147730000Y-79630000D02*
X147730000Y-82370000D01*
X147730000Y-82370000D02*
X154270000Y-82370000D01*
X154270000Y-79630000D02*
X147730000Y-79630000D01*
X154270000Y-82370000D02*
X154270000Y-79630000D01*
X155040000Y-81000000D02*
X154270000Y-81000000D01*
%TO.C,R4*%
X132880000Y-81000000D02*
X133650000Y-81000000D01*
X133650000Y-79630000D02*
X133650000Y-82370000D01*
X133650000Y-82370000D02*
X140190000Y-82370000D01*
X140190000Y-79630000D02*
X133650000Y-79630000D01*
X140190000Y-82370000D02*
X140190000Y-79630000D01*
X140960000Y-81000000D02*
X140190000Y-81000000D01*
%TO.C,SW2*%
X147500000Y-73250000D02*
X147500000Y-74750000D01*
X148750000Y-77250000D02*
X153250000Y-77250000D01*
X153250000Y-70750000D02*
X148750000Y-70750000D01*
X154500000Y-74750000D02*
X154500000Y-73250000D01*
%TO.C,J6*%
X108870000Y-67645000D02*
X110200000Y-67645000D01*
X108870000Y-68975000D02*
X108870000Y-67645000D01*
X111470000Y-67645000D02*
X119150000Y-67645000D01*
X111470000Y-70305000D02*
X111470000Y-67645000D01*
X111470000Y-70305000D02*
X119150000Y-70305000D01*
X119150000Y-70305000D02*
X119150000Y-67645000D01*
%TO.C,RV1*%
X167885000Y-94885000D02*
X158115000Y-94885000D01*
X158115000Y-85115000D02*
X158115000Y-94885000D01*
X167885000Y-85115000D02*
X167885000Y-94885000D01*
X167885000Y-85115000D02*
X158115000Y-85115000D01*
%TO.C,R3*%
X146960000Y-67000000D02*
X147730000Y-67000000D01*
X147730000Y-65630000D02*
X147730000Y-68370000D01*
X147730000Y-68370000D02*
X154270000Y-68370000D01*
X154270000Y-65630000D02*
X147730000Y-65630000D01*
X154270000Y-68370000D02*
X154270000Y-65630000D01*
X155040000Y-67000000D02*
X154270000Y-67000000D01*
%TO.C,SW3*%
X134500000Y-87250000D02*
X134500000Y-88750000D01*
X135750000Y-91250000D02*
X140250000Y-91250000D01*
X140250000Y-84750000D02*
X135750000Y-84750000D01*
X141500000Y-88750000D02*
X141500000Y-87250000D01*
%TO.C,D1*%
X126710000Y-58455000D02*
X126710000Y-61545000D01*
X126710000Y-58455170D02*
G75*
G02*
X132260000Y-59999952I2560000J-1544830D01*
G01*
X132260000Y-60000048D02*
G75*
G02*
X126710000Y-61544830I-2990000J48D01*
G01*
X131770000Y-60000000D02*
G75*
G02*
X126770000Y-60000000I-2500000J0D01*
G01*
X126770000Y-60000000D02*
G75*
G02*
X131770000Y-60000000I2500000J0D01*
G01*
%TO.C,SW1*%
X158500000Y-73250000D02*
X158500000Y-74750000D01*
X159750000Y-77250000D02*
X164250000Y-77250000D01*
X164250000Y-70750000D02*
X159750000Y-70750000D01*
X165500000Y-74750000D02*
X165500000Y-73250000D01*
%TO.C,SW4*%
X146500000Y-87250000D02*
X146500000Y-88750000D01*
X147750000Y-91250000D02*
X152250000Y-91250000D01*
X152250000Y-84750000D02*
X147750000Y-84750000D01*
X153500000Y-88750000D02*
X153500000Y-87250000D01*
%TD*%
M02*
